<?xml version="1.0" encoding="UTF-8" standalone="no"?><!DOCTYPE svg PUBLIC "-//W3C//DTD SVG 1.1//EN" "http://www.w3.org/Graphics/SVG/1.1/DTD/svg11.dtd"><svg width="100%" height="100%" viewBox="0 0 226 226" version="1.1" xmlns="http://www.w3.org/2000/svg" xmlns:xlink="http://www.w3.org/1999/xlink" xml:space="preserve" xmlns:serif="http://www.serif.com/" style="fill-rule:evenodd;clip-rule:evenodd;stroke-linecap:round;stroke-linejoin:round;stroke-miterlimit:10;"><rect id="Plan-de-travail1" serif:id="Plan de travail1" x="0.119" y="0" width="225.596" height="225.325" style="fill:none;"/><circle cx="113.182" cy="111.975" r="108.931" style="fill:none;"/><clipPath id="_clip1"><circle cx="113.182" cy="111.975" r="108.931"/></clipPath><g clip-path="url(#_clip1)"><g><g><g><path d="M196.765,110.876c0,-7.901 -6.415,-14.316 -14.316,-14.316l-156.915,0c-7.902,0 -14.316,6.415 -14.316,14.316l0,182.632c0,7.901 6.414,14.315 14.316,14.315l156.915,0c7.901,0 14.316,-6.414 14.316,-14.315l0,-182.632Z" style="fill:#4a4b58;stroke:#000;stroke-width:1.2px;"/><path d="M94.177,118.677c-1.362,0 -2.788,-0.658 -4.193,-0.716c-3.362,-0.139 -6.243,0.619 -9.136,2.265c-0.876,0.498 -2.178,0.398 -2.696,1.411c-0.812,1.59 1.028,2.082 1.828,2.838c0.456,0.432 0.621,1.209 0.668,1.806c0.201,2.564 -0.158,5.234 -0.226,7.804c-0.075,2.855 0.079,5.715 0.061,8.572c-0.01,1.7 0.062,3.56 -0.516,5.182c-0.461,1.292 -1.697,2.638 -1.697,4.067c0,0.966 1.308,1.484 1.428,2.457c0.146,1.191 -1.698,2.43 -0.53,3.467c2.004,1.782 6.096,-0.281 8.216,-0.859c1.735,-0.473 3.54,-0.996 5.347,-1.068c2.674,-0.105 5.32,0.45 8,0.374c2.785,-0.08 5.528,-0.721 8.285,-1.059c3.637,-0.447 7.305,-0.636 10.964,-0.799c2.474,-0.11 4.971,-0.314 7.422,0.169c1.491,0.294 2.89,1.028 3.988,2.084c0.675,0.647 1.38,2.357 2.57,2.079c1.393,-0.326 1.978,-1.806 2.404,-2.991c0.232,-0.645 0.876,-1.003 1.072,-1.627c0.393,-1.251 -0.232,-2.931 -0.473,-4.145c-0.539,-2.715 -0.282,-5.496 -0.85,-8.238c-0.413,-1.993 -1.599,-3.83 -1.797,-5.86c-0.209,-2.13 0.616,-4.213 0.434,-6.35c-0.171,-2.009 -1.144,-3.719 -1.68,-5.62c-0.812,-2.882 2.787,-4.977 0.295,-7.691c-2.339,-2.548 -4.743,1.904 -7.296,1.784c-1.311,-0.062 -2.556,-0.609 -3.88,-0.56c-1.561,0.058 -3.146,0.595 -4.692,0.82c-2.529,0.369 -5.125,0.463 -7.678,0.399c-5.006,-0.124 -15.642,0.005 -15.642,0.005Z" style="fill:#97b9c9;stroke:#000;stroke-width:1.2px;"/></g><path d="M95.318,143.41c-14.853,5.122 -22.027,16.243 -22.027,32.331l28.686,-18.502c0,0 -1.926,-5.531 -0.513,-8.707c1.414,-3.176 1.025,-8.707 1.025,-8.707l-7.171,3.585Z" style="fill:#fff0e5;stroke:#000;stroke-width:1.2px;"/><path d="M113.014,155.486c-1.341,0 -1.747,2.549 -1.254,3.649c0.736,1.642 2.885,0.068 3.626,1.28c0.824,1.349 -0.383,3.936 1.824,4.292c3.947,0.637 1.332,-5.359 2.919,-6.801c1.291,-1.174 3.817,-0.027 5.357,-0.554c4.46,-1.525 7.642,-8.769 6.679,-13.101c-0.509,-2.294 -2.219,-3.934 -3.134,-6.034c-0.955,-2.189 -0.865,-4.648 -2.162,-6.73c-3.09,-4.962 -9.973,-5.905 -15.119,-4.189c-4.464,1.487 -6.78,5.584 -10.766,7.682c-2.532,1.333 -6.755,-4.615 -8.462,-0.471c-0.789,1.917 2.249,2.194 1.885,3.831c-0.278,1.252 -4.785,3.872 -2.581,5.112c1.804,1.015 5.731,-1.639 6.945,-0.041c1.828,2.405 -3.946,6.215 -1.127,8.451c1.364,1.081 3.441,-0.414 4.948,0.266c1.913,0.864 -0.39,7.17 2.827,6.187c2.364,-0.722 2.448,-4.173 3.503,-5.982c1.44,-2.468 4.334,-2.818 6.454,-4.436c1.787,-1.363 2.699,-3.504 4.425,-4.916c0.884,-0.723 2.156,-1.1 3.258,-0.687c0,0 3.558,0.638 2.478,4.701c-1.079,4.064 -5.067,6.488 -6.658,6.659c-1.592,0.17 -5.865,1.832 -5.865,1.832Z" style="fill:#615050;stroke:#000;stroke-width:1.2px;"/><path d="M109.428,151.901c0.696,-0.677 2.39,-1.869 3.817,-2.345c2.181,-1.181 3.122,-1.653 5.121,-4.609c1.318,-1.54 2.059,-2.545 4.61,-2.561c2.289,0.954 2.561,2.561 2.561,2.561c0.512,1.536 0.225,2.427 -0.512,4.097c-0.574,1.302 -1.018,1.829 -1.895,2.971c-2.72,3.546 -8.068,3.984 -11.653,3.471c0,0 -2.403,-1.912 -2.049,-3.585Z" style="fill:#fff0e5;"/><path d="M125.537,144.434c0.512,1.537 0.225,2.94 -0.512,4.61c-0.574,1.302 -1.018,1.829 -1.895,2.971c-2.72,3.546 -8.068,3.984 -11.653,3.471c0,0 -2.403,-1.912 -2.049,-3.585" style="fill:none;stroke:#000;stroke-width:1.2px;"/><path d="M115.062,144.218c-0.512,-1.536 -2.503,-1.795 -3.261,-1.36c-2.373,1.36 -1.348,3.409 0.188,3.921" style="fill:#fff0e5;stroke:#000;stroke-width:1.2px;"/><path d="M101.464,152.117c-0.625,0 0,3.073 0.365,4.499c0.643,2.511 3.252,3.082 3.811,5.429c0.971,4.077 -1.879,8.583 -2.233,12.651" style="fill:none;stroke:#000;stroke-width:1.2px;"/><path d="M105.05,176.19c1.536,-2.561 3.083,-4.825 3.438,-7.425c0.078,-0.572 -0.437,-4.596 0.317,-4.671c1.295,-0.13 0.735,3.649 1.496,3.902c0.562,0.188 0.87,-3.756 1.762,-4.404c1.694,-1.231 1.362,0.311 2.206,0.818c0.357,0.214 2.561,-1.025 2.352,2.261c-0.078,1.233 1.54,1.883 1.578,2.37c0.126,1.639 -2.003,2.938 -2.906,4.076c-1.223,1.542 -3.237,3.209 -3.585,5.121" style="fill:#fff0e5;stroke:#000;stroke-width:1.2px;"/><path d="M124.282,149.34c-0.461,-0.65 -1.52,-1.533 -2.125,-2.037" style="fill:none;stroke:#000;stroke-width:1.2px;"/><path d="M120.231,151.073c0,-0.019 -0.047,1.852 2.315,1.864" style="fill:none;stroke:#000;stroke-width:1.2px;"/><path d="M117.111,153.95l0.512,1.024" style="fill:none;stroke:#000;stroke-width:1.2px;"/><path d="M91.221,144.434c0,0 -4.145,6.488 2.561,7.171c6.705,0.683 8.25,1.673 8.707,4.097c0.457,2.425 5.074,4.132 4.097,9.22c-0.977,5.087 -3.073,11.268 -3.073,11.268l-30.731,0c0,0 -1.024,-15.878 7.171,-24.585c5.461,-5.802 11.268,-7.171 11.268,-7.171Z" style="fill:#fff;stroke:#000;stroke-width:1.2px;"/><path d="M198.725,175.674c0,0 3.168,13.834 3.256,29.948c0.044,8.266 -6.511,29.948 -1.612,57.79c3.91,22.221 -1.695,43.26 -1.969,45.401c-0.564,4.395 -12.132,9.276 -27.344,12.369c-15.212,3.094 -69.424,1.139 -80.729,-3.255c-11.306,-4.394 -38.499,-0.163 -52.409,0c-13.91,0.164 -23.525,0.488 -26.693,-7.487c-1.559,-3.925 -5.379,-26.399 -3.584,-49.633c3.259,-42.164 -1.183,-48.981 -0.973,-55.51c0.413,-12.858 2.929,-26.042 2.929,-26.042c-0.603,0 19.599,-2.098 20.199,-2.164c1.299,-0.145 2.591,-0.324 3.881,-0.534c3.784,-0.618 7.649,-1.235 11.341,-2.279c11.576,-3.274 22.585,-4.228 34.557,-3.216c9.174,0.775 17.979,-0.752 27.109,-0.586c13.724,0.249 26.764,3.975 40.339,4.818c12.771,0.792 38.973,-0.795 51.702,0.38Z" style="fill:#97b9c9;stroke:#000;stroke-width:1.2px;"/></g><path d="M232.464,-8.974l1.455,237.685l-240.143,0l0.942,-237.685l237.746,0Zm-167.366,151.754c0,-0.549 -0.455,1.028 -0.477,1.576c-0.042,1.08 -0.012,2.151 0.11,3.225c0.379,3.311 0.586,6.631 0.953,9.941c0.212,1.908 0.471,3.869 1.1,5.69c0.464,1.344 1.461,2.695 1.393,4.169c-0.086,1.836 -1.556,3.458 -2.144,5.149c-0.905,2.601 -1.029,5.491 -0.944,8.219c0.047,1.536 -0.083,7.422 1.731,8.173c1.557,0.644 3.557,-2.222 4.417,-3.097c2.629,-2.674 6.733,-7.177 11.013,-5.232c4.646,2.112 4.531,9.657 4.92,13.808c0.196,2.09 0.407,5.474 2.85,6.221c2.181,0.668 4.082,-2.022 5.314,-3.408c2.556,-2.876 4.466,-6.234 6.688,-9.355c1.114,-1.564 2.914,-3.503 4.985,-3.582c1.755,-0.068 2.815,2.493 3.335,3.793c1.383,3.458 1.76,8.165 6.047,9.208c5.252,1.277 6.645,-7.076 7.99,-10.381c0.423,-1.04 1.019,-3.181 2.345,-3.454c0.95,-0.196 1.426,1.484 1.622,2.098c0.813,2.541 1.092,5.402 2.749,7.596c3.803,5.037 10.256,-2.817 12.561,-5.654c0.658,-0.809 1.237,-1.632 1.723,-2.556c2.297,-4.372 -1.073,-5.323 -4.554,-6.221c-1.876,-0.484 -3.704,-1.218 -5.681,-0.916c-1.336,0.203 -2.411,0.95 -3.582,1.557c-0.968,0.502 -3.562,1.52 -4.279,0.138c-0.524,-1.012 1.049,-3.077 0.046,-3.784c-1.008,-0.712 -2.512,2.229 -2.905,2.767c-1.322,1.812 -3.247,3.862 -5.066,5.176c-0.73,0.527 -1.683,0.46 -2.383,1.054c-0.489,0.416 -1.851,2.62 -2.602,2.245c-0.361,-0.181 0.411,-1.521 0.504,-1.723c0.337,-0.726 2.682,-4.409 1.879,-5.14c-0.427,-0.388 -2.628,2.546 -3.07,2.84c-1.415,0.944 -2.427,-0.314 -3.876,-0.265c-0.474,0.016 -1.489,0.309 -1.887,-0.009c-0.451,-0.361 0.542,-1.473 0.751,-1.705c0.651,-0.718 4.38,-2.612 4.013,-3.71c-0.156,-0.47 -1.098,-0.01 -1.356,0.11c-0.711,0.329 -3.497,2.424 -4.132,1.09c-0.508,-1.068 1.502,-2.12 2.181,-2.501c2.902,-1.633 6.132,-1.616 9.071,-2.942c1.942,-0.876 1.86,-3.815 3.417,-4.507c0.841,-0.374 1.677,2.128 3.024,1.667c1.553,-0.531 2.902,-2.394 4.288,-3.308c1.82,-1.199 4.093,-1.109 6.001,-2.089c1.106,-0.567 1.696,-1.856 2.85,-2.318c1.335,-0.534 2.485,1.236 3.692,1.466c1.893,0.361 4.411,-1.352 5.699,-2.602c2.428,-2.356 1.394,-8.377 0.806,-11.37c-0.394,-2.01 -1.396,-3.817 -1.942,-5.782c-0.937,-3.374 -1.371,-7.293 -1.219,-10.793c0.222,-5.105 0.741,-10.324 1.237,-15.411c0.235,-2.407 1.103,-5.198 0.44,-7.596c-0.482,-1.744 -2.154,-1.211 -3.308,-0.504c-1.942,1.191 -5.574,5.276 -8.172,3.977c-2.239,-1.12 -2.209,-5.981 -2.566,-8.054c-0.101,-0.584 -0.305,-2.66 -1.081,-2.822c-0.865,-0.18 -1.494,2.434 -1.622,2.923c-0.581,2.224 -1.047,8.62 -3.967,9.263c-3.771,0.829 -4.522,-6.694 -7.486,-7.834c-3.978,-1.53 -6.804,5.161 -10.986,5.03c-2.197,-0.068 -3.1,-1.574 -3.958,-3.381c-0.363,-0.766 -0.825,-2.503 -1.915,-2.528c-1.288,-0.031 -2.435,1.598 -3.151,2.446c-1.677,1.983 -4.854,6.779 -7.981,6.249c-1.611,-0.274 -1.967,-2.055 -1.952,-3.436c0.037,-3.227 1.227,-6.339 1.384,-9.566c0.056,-1.151 0.112,-3.665 -1.393,-4.05c-1.153,-0.295 -1.994,1.375 -2.364,2.163c-1.268,2.705 -1.712,5.728 -2.776,8.512c-0.294,0.769 -1.15,3.003 -2.382,2.51c-0.967,-0.387 -1.169,-1.975 -1.283,-2.831c-0.404,-3.03 -0.165,-6.108 -0.779,-9.117c-0.223,-1.095 -1.089,-4.064 -2.693,-2.419c-2.354,2.414 -1.943,7.665 -2.208,10.739c-0.385,4.462 -1.907,7.54 -3.555,11.581c-0.585,1.433 -1.356,4.508 0.888,4.975c1.638,0.341 3.109,-0.95 4.71,-0.989c2.467,-0.061 3.134,2.152 6.038,0.769c2.594,-1.235 4.391,-3.907 7.119,-4.847c2.724,-0.938 5.138,1.147 7.88,0.733c2.879,-0.433 5.416,-2.197 8.2,-2.987c2.649,-0.751 5.459,-0.535 8.127,-0.009c2.645,0.522 5.301,1.726 7.999,1.888c0.703,0.042 5.017,-0.507 5.14,0.476c0.062,0.495 -1.277,0.872 -1.594,0.99c-1.323,0.493 -3.797,0.78 -4.582,2.125c-0.575,0.986 3.526,1.025 3.62,2.282c0.134,1.816 -3.288,1.161 -3.482,2.52c-0.09,0.625 1.453,1.208 1.842,1.42c1.108,0.604 4.321,3.798 3.316,5.305c-0.69,1.036 -3.542,-2.963 -4.361,-2.612c-1.271,0.545 2.913,4.888 1.118,5.287c-0.752,0.167 -1.43,-1.059 -1.704,-1.557c-0.972,-1.764 -1.72,-3.712 -3.5,-4.838c-2.734,-1.73 -4.134,-0.396 -6.817,0.091c-1.101,0.201 -4.159,-0.412 -5.296,-0.696c-2.148,-0.537 -1.637,-4.384 -3.848,-4.526c-2.716,-0.175 -5.507,3.431 -7.605,4.792c-2.273,1.474 -5.223,-0.05 -7.504,1.686c-2.848,2.167 -5.652,5.227 -8.155,7.797c-0.79,0.811 -1.249,2.474 -2.263,3.005c-1.029,0.539 -2.958,-1.218 -3.995,-1.466c-2.177,-0.521 -6.743,1.97 -6.743,1.97Zm66.473,-90.378c0,0 -0.256,3.598 -0.678,5.681c-1.325,6.539 -1.92,12.778 -0.256,19.36c0.505,2.002 1.354,5.492 3.417,6.524c1.722,0.86 3.135,-0.849 3.821,-2.199c1.287,-2.533 2.122,-8.235 5.598,-8.815c2.04,-0.34 1.996,3.453 4.105,3.189c1.452,-0.182 3.062,-4.316 4.425,-3.225c1.38,1.104 1.398,3.969 1.842,5.534c0.199,0.701 0.642,1.981 1.612,1.603c2.972,-1.155 3.76,-7.776 4.481,-10.417c1.342,-4.922 1.831,-10.204 4.187,-14.788c3.065,-5.966 9.999,-10.979 7.229,-18.637c-1.053,-2.911 -3.596,-1.692 -5.195,0.009c-2.739,2.914 -4.552,6.592 -7.366,9.456c-0.66,0.671 -2.457,2.789 -3.601,2.199c-1.464,-0.754 -0.344,-3.954 -0.046,-5.03c0.942,-3.405 4.168,-11.005 -0.541,-13.359c-1.981,-0.991 -4.406,2.397 -5.241,3.702c-2.285,3.575 -2.999,7.869 -4.736,11.7c-0.638,1.406 -1.768,3.972 -3.482,4.38c-1.88,0.447 -2.113,-2.601 -2.153,-3.739c-0.118,-3.295 0.971,-6.53 0.733,-9.813c-0.084,-1.156 -0.703,-2.748 -2.099,-2.748c-1.941,0 -3.277,2.5 -4.004,3.976c-2.331,4.734 -1.732,10.345 -2.052,15.457Zm-59.326,17.482c1.678,4.841 1.262,12.909 8.035,13.661c6.291,0.699 3.019,-8.388 5.507,-10.876c0.933,-0.933 2.259,0.066 3.115,0.596c1.419,0.879 3.096,1.237 4.526,0.165c5.524,-4.143 5.263,-14.513 6.936,-20.579c0.478,-1.733 2.624,-5.631 1.585,-7.449c-0.542,-0.948 -1.709,-0.263 -2.3,0.238c-0.924,0.786 -4.574,6.7 -5.69,3.006c-1.705,-5.651 0.999,-12.876 0.999,-18.719c0,-2.26 -0.053,-5.263 -1.585,-7.101c-2.071,-2.485 -4.856,0.789 -5.497,2.712c-1.403,4.207 0.004,8.945 -1.347,13.258c-0.43,1.37 -1.33,3.677 -2.886,4.151c-2.157,0.656 -3.373,-2.055 -3.839,-3.656c-1.353,-4.648 0.137,-9.313 0.064,-14c-0.019,-1.212 -0.516,-5.517 -2.648,-4.829c-3.685,1.189 -4.589,8.863 -5.113,11.939c-1.259,7.389 -1.896,14.583 -1.896,22.099c0,5.214 0.355,10.543 2.034,15.384Z" style="stroke:#000;stroke-width:1.2px;"/></g></g></svg>