<?xml version="1.0" encoding="UTF-8" standalone="no"?><!DOCTYPE svg PUBLIC "-//W3C//DTD SVG 1.1//EN" "http://www.w3.org/Graphics/SVG/1.1/DTD/svg11.dtd"><svg width="100%" height="100%" viewBox="0 0 227 226" version="1.1" xmlns="http://www.w3.org/2000/svg" xmlns:xlink="http://www.w3.org/1999/xlink" xml:space="preserve" xmlns:serif="http://www.serif.com/" style="fill-rule:evenodd;clip-rule:evenodd;stroke-linecap:round;stroke-linejoin:round;stroke-miterlimit:1.5;"><rect id="Plan-de-travail1" serif:id="Plan de travail1" x="0.667" y="0.333" width="225.596" height="225.325" style="fill:none;"/><circle cx="113.729" cy="112.309" r="108.931" style="fill:none;"/><clipPath id="_clip1"><circle cx="113.729" cy="112.309" r="108.931"/></clipPath><g clip-path="url(#_clip1)"><g><path d="M177.988,123.147c0,0 -3.138,-10.854 -12.408,-7.594c-9.27,3.26 -10.908,0.56 -13.805,-1.176c-2.896,-1.737 -11.85,-12.901 -11.85,-12.901l0.353,5.245c0,0 9.722,7.951 9.888,10.926c0.166,2.975 2.531,14.408 11.152,16.109c8.621,1.702 13.544,-3.197 16.113,-5.302c2.569,-2.105 5.881,-7.774 5.881,-7.774l-1.123,-3.086l-4.201,5.553Z" style="fill:#edbfbf;stroke:#050505;stroke-width:0.7px;"/><path d="M47.918,136.012c0,0 1.184,-11.265 10.871,-9.808c9.686,1.457 10.824,-1.507 13.369,-3.761c2.544,-2.255 9.394,-14.922 9.394,-14.922l0.57,5.225c0,0 -8.166,9.652 -7.809,12.609c0.358,2.956 0.034,14.645 -8.145,17.945c-8.179,3.3 -13.879,-0.589 -16.773,-2.174c-2.895,-1.586 -7.145,-6.535 -7.145,-6.535l0.565,-3.246l5.103,4.667Z" style="fill:#edbfbf;stroke:#050505;stroke-width:0.7px;"/><path d="M180.225,115.619c0,0 6.725,-7.391 10.294,-10.179c3.57,-2.788 14.286,-17.387 9.657,-19.621c-4.628,-2.235 -10.826,-3.046 -18.147,2.278c-7.321,5.324 -29.565,4.014 -31.669,5.298c-2.104,1.283 -8.894,2.065 -11.01,23.639c-1.954,19.916 -1.996,36.749 -9.878,41.153c-5.924,3.31 -24.458,10.19 -33.65,-1.754c-7.852,-10.202 -7.84,-23.175 -10.089,-29.052c-4.88,-12.757 -17.386,-27.488 -21.139,-30.309c-3.753,-2.821 -14.925,-2.77 -22.003,-0.624c-7.078,2.146 -20.775,-1.321 -20.039,1.352c0.735,2.673 6.004,15.842 10.17,15.122c4.167,-0.72 14.516,13.16 17.316,12.532c2.8,-0.628 -1.131,5.204 -4.13,6.602c-8.664,4.04 -2.554,14.138 -7.389,10.611c-4.615,-3.368 -7.911,11.898 -7.176,4.072c0.589,-6.275 -3.406,-15.139 -6.881,-20.613c-3.474,-5.474 -11.087,-27.268 -8.57,-32.092c2.517,-4.825 17.169,-1.773 26.133,-5.979c8.964,-4.205 17.174,5.078 25.505,-1.72c8.332,-6.797 29.171,-14.447 40.982,-16.465c19.545,-3.338 42.196,16.563 44.996,15.935c2.8,-0.628 31.288,-2.725 38.815,-7.887c7.527,-5.163 19.627,7.546 16.83,18.888c-2.798,11.342 -3.061,30.681 -0.398,34.805c2.663,4.123 -5.025,-4.05 -10.161,-1.423c-2.785,1.425 -4.178,-4.17 -6.242,-5.456c-2.975,-1.853 -6.224,-0.369 -7.603,-3.266c-1.358,-2.853 -4.202,0.367 -4.524,-5.847Z" style="fill:#d86767;stroke:#050505;stroke-width:0.7px;"/><path d="M127.55,102.641c-4.79,0.323 -8.477,3.577 -8.228,7.262c0.248,3.684 4.339,6.413 9.129,6.09c4.79,-0.323 8.477,-3.577 8.228,-7.261c-0.248,-3.685 -4.339,-6.414 -9.129,-6.091Z" style="fill:#fff;stroke:#000;stroke-width:0.7px;"/><path d="M100.098,103.835c-4.79,0.323 -8.477,3.577 -8.228,7.262c0.248,3.684 4.339,6.413 9.129,6.09c4.79,-0.323 8.477,-3.577 8.228,-7.261c-0.248,-3.685 -4.339,-6.414 -9.129,-6.091Z" style="fill:#fff;stroke:#000;stroke-width:0.7px;"/><path d="M128.779,104.382c-1.84,-0.11 -3.422,1.295 -3.532,3.135c-0.11,1.839 1.295,3.422 3.134,3.532c1.84,0.109 3.423,-1.295 3.532,-3.135c0.11,-1.839 -1.294,-3.422 -3.134,-3.532Z"/><path d="M100.916,106.358c1.808,-0.356 3.565,0.823 3.921,2.631c0.356,1.809 -0.824,3.566 -2.632,3.921c-1.808,0.356 -3.565,-0.823 -3.921,-2.631c-0.356,-1.809 0.823,-3.566 2.632,-3.921Z"/><path d="M118.151,92.545c0,0 8.436,-4.794 18.963,2.745" style="fill:none;stroke:#000;stroke-width:0.7px;"/><path d="M104.941,92.779c0,0 -9.004,-3.618 -18.423,5.266" style="fill:none;stroke:#000;stroke-width:0.7px;"/><path d="M120.304,131.953c-5.184,-3.845 -12.449,2.115 -9.405,5.182c3.044,3.068 7.957,1.749 9.462,0.966c2.825,-1.471 4.94,-2.441 -0.057,-6.148Z" style="fill:none;stroke:#000;stroke-width:0.7px;"/><path d="M104.802,157.113l-16.844,11.936c0,0 -5.209,-5.742 -4.803,-10.255c0.406,-4.514 4.715,-7.325 6.192,-3.268c1.478,4.056 10.057,-2.872 10.057,-2.872" style="fill:#d86767;stroke:#000;stroke-width:0.7px;"/><path d="M130.909,150.034c0,0 5.57,9.683 9.064,6.788c3.493,-2.895 4.913,-9.257 5.994,-1.337c1.081,7.92 -1.068,10.953 -6.986,10.996c-5.919,0.043 -12.73,-9.117 -12.73,-9.117" style="fill:#d86767;stroke:#000;stroke-width:0.7px;"/></g></g></svg>