<?xml version="1.0" encoding="UTF-8" standalone="no"?><!DOCTYPE svg PUBLIC "-//W3C//DTD SVG 1.1//EN" "http://www.w3.org/Graphics/SVG/1.1/DTD/svg11.dtd"><svg width="100%" height="100%" viewBox="0 0 226 226" version="1.1" xmlns="http://www.w3.org/2000/svg" xmlns:xlink="http://www.w3.org/1999/xlink" xml:space="preserve" xmlns:serif="http://www.serif.com/" style="fill-rule:evenodd;clip-rule:evenodd;stroke-linecap:round;stroke-linejoin:bevel;stroke-miterlimit:1.5;"><rect id="Plan-de-travail1" serif:id="Plan de travail1" x="0" y="0" width="225.596" height="225.325" style="fill:none;"/><circle cx="113.063" cy="111.975" r="108.931" style="fill:none;"/><clipPath id="_clip1"><circle cx="113.063" cy="111.975" r="108.931"/></clipPath><g clip-path="url(#_clip1)"><g><path d="M59.358,218.922l145.807,-48.789c0,0 36.193,6.122 24.193,28.789c-12,22.666 -146,63.333 -152.667,57.333c-6.666,-6 -17.333,-37.333 -17.333,-37.333Z"/><path d="M52.338,219.667c0,0 -18.94,-104.274 -1.784,-108.252c17.156,-3.977 72.609,-23.866 75.795,-3.409c3.186,20.457 7.134,86.09 7.134,86.09" style="stroke:#000;stroke-width:0.9px;"/><path d="M76.414,211.996c0,0 -12.689,-10.318 -8.917,-28.129c3.021,-14.268 23.825,-28.746 32.101,-32.39c8.123,-3.577 29.522,-7.476 36.887,-4.515c0.193,0.078 0.379,0.165 0.565,0.253c25.339,12.004 28.506,37.739 25.859,38.357c-18.192,4.247 -86.495,26.424 -86.495,26.424Z" style="fill:#fff0e5;"/><path d="M78.12,6.126c0,0 -27.592,-4.412 -39.383,37.334c-11.791,41.746 -8.435,19.53 -14.64,23.721c-6.204,4.191 -4.91,20.048 3.732,16.071c8.641,-3.977 10.783,15.023 19.594,7.19c8.81,-7.832 23.016,-13.363 25.286,-5.771c2.271,7.592 20.984,-6.332 33.763,3.235c12.779,9.567 16.85,8.153 20.067,-1.364c3.217,-9.517 16.612,1.219 13.421,-16.139c-3.192,-17.357 -17.018,-19.675 -15.937,-29.937c1.081,-10.262 -11.874,-38.447 -45.903,-34.34Z" style="fill:#615050;stroke:#000;stroke-width:0.9px;"/><path d="M76.414,91.811c0,0 -22.461,9.947 -24.076,20.457c-1.625,10.57 -1.784,27.276 -1.784,27.276c0,0 6.233,4.711 16.943,0.852c-3.112,11.484 -2.907,37.101 0,43.471c3.353,-6.202 10.691,-38.334 68.661,-37.504c-4.449,-1.941 -11.592,-3.41 -11.592,-3.41c0,0 2.935,-2.951 3.567,-5.966c0.429,-2.051 1.783,-10.229 1.783,-10.229c0,0 2.671,-0.838 3.567,-2.557c0.678,-1.302 -2.313,-23.276 -5.35,-26.424c-4.599,-4.766 -20.51,-9.376 -20.51,-9.376c0,0 -12.27,8.973 -31.209,3.41Z" style="fill:#fff;"/><path d="M52.694,46.43c0,0 -10.539,-5.689 -10.395,4.004c0.101,6.801 7.467,6.628 7.467,6.628" style="fill:#fff0e5;stroke:#000015;stroke-width:0.9px;"/><path d="M83.547,82.434c0,0 2.786,4.574 0,5.967c-2.785,1.393 -8.025,2.557 -8.025,2.557c0,0 8.135,3.844 17.834,2.557c9.699,-1.286 13.376,-5.114 13.376,-5.114c0,0 -7.661,-1.636 -8.026,-2.557c-0.364,-0.921 -1.673,-4.924 -0.891,-5.967c0.781,-1.042 -14.268,2.557 -14.268,2.557Z" style="fill:#fff0e5;"/><path d="M64.371,86.033c-16.723,0.931 -17.798,-23.24 -14.174,-29.679c3.855,-6.849 -4.446,-38.957 26.433,-40.96c30.878,-2.004 35.533,12.861 40.206,24.879c0.234,0.6 6.656,2.123 10.51,7.58c2.515,3.561 4.439,9.117 2.308,19.312c-4.449,21.288 -30.059,13.347 -31.048,13.549c-17.779,3.631 -20.948,1.234 -20.948,1.234c0,0 -8.037,3.793 -13.287,4.085Z" style="fill:#fff0e5;"/><path d="M81.044,60.886c0,0 12.957,21.952 -16.673,25.147c-16.646,1.795 -17.798,-23.24 -14.174,-29.679c3.855,-6.849 -4.446,-38.957 26.433,-40.96c30.878,-2.004 35.529,12.621 40.206,24.879" style="fill:none;stroke:#000;stroke-width:0.9px;"/><path d="M116.836,40.273c0,0 17.901,4.426 13.089,25.207c-4.812,20.781 -21.818,16.782 -30.437,15.363c-4.07,-0.669 -15.896,4.205 -21.83,1.105" style="fill:none;stroke:#000;stroke-width:0.9px;"/><path d="M108.366,64.9c0,0 -0.506,3.878 -0.202,6.869" style="fill:none;stroke:#000015;stroke-width:0.9px;"/><path d="M107.824,68.27c0,0 -11.59,2.681 -12.745,0.715c-1.155,-1.967 6.137,-3.77 12.745,-0.715Z" style="fill:none;stroke:#000015;stroke-width:0.9px;"/><path d="M50.023,37.54c1.424,-8.959 -4.153,-3.125 5.963,-14.647c7.092,-8.076 18.35,-12.012 22.067,-10.74c1.586,0.543 -1.458,6.006 -1.458,6.006c0,0 -10.083,8.303 -8.539,19.443c-2.168,-5.051 -2.59,-12.649 -0.952,-16.525c1.639,-3.876 -15.824,22.366 -8.808,32.339c-4.279,-3.144 -9.698,-6.917 -8.273,-15.876Z" style="fill:#615050;"/><path d="M76.595,18.159c0,0 -10.083,8.303 -8.539,19.443c-2.168,-5.051 -2.59,-12.649 -0.952,-16.525c1.639,-3.876 -15.824,22.366 -8.808,32.339c-4.279,-3.144 -9.698,-6.917 -8.273,-15.876" style="fill:none;stroke:#000015;stroke-width:0.9px;"/><path d="M80.499,41.834c0,0 -8.5,-3.19 -14.779,2.14c0.488,3.45 1.695,6.286 1.695,6.286c0,0 5.897,2.663 11.864,-0.844c2.589,-4.004 2.619,-5.005 1.22,-7.582" style="fill:#fff;"/><path d="M79.279,49.416c0,0 -6.416,3.261 -11.864,0.844" style="fill:none;stroke:#000;stroke-width:0.9px;"/><path d="M50.554,137.839c-3.612,21.607 1.784,53.7 1.784,53.7c5.196,17.247 43.063,34.265 47.26,36.652c4.197,2.387 15.85,8.501 20.509,4.262c4.659,-4.24 5.819,-5.563 5.351,-6.819c-0.469,-1.257 -8.322,-4.802 -8.026,-2.557c0.34,2.576 4.481,1.895 2.675,2.557c-1.806,0.661 -7.557,-0.875 -4.458,-2.557c3.098,-1.683 8.642,0.789 8.917,-0.853c0.275,-1.641 -4.734,-3.302 -14.267,-4.262c-9.534,-0.959 -9.549,1.983 -14.268,-1.704c-2.23,-1.743 -9.819,-7.895 -16.05,-15.343c-6.953,-8.311 -12.484,-17.9 -12.484,-17.9c0,0 -3.129,-35.011 -0.892,-40.914c1.211,-3.197 -4.028,-0.279 -8.917,0c-4.139,0.236 -7.134,-4.262 -7.134,-4.262Z" style="fill:#fff0e5;"/><path d="M151.317,156.591c0,0 32.779,18.845 45.477,21.31c4.8,3.194 8.066,4.111 4.459,11.081c-3.608,6.969 -11.552,5.085 -12.484,1.704c-0.933,-3.38 -0.851,-1.977 -3.567,-3.409c-2.716,-1.433 -6.074,-7.092 -9.809,-7.672c-3.735,-0.58 -13.376,-3.409 -13.376,-3.409c0,0 -5.691,-17.807 -10.7,-19.605Z" style="fill:#fff0e5;"/><path d="M129.024,125.906c0,0 3.353,0.093 4.459,-1.705c0.851,5.508 3.567,23.014 3.567,23.014c0,0 -10.023,-4.047 -12.484,-4.262c2.889,-2.893 6.028,-11.475 4.458,-17.047" style="fill:#fff0e5;"/><path d="M83.547,83.287c0,0 3.354,4.83 -1.783,5.966c-5.137,1.137 -25.181,10.513 -28.535,21.31c-3.353,10.797 -6.957,60.844 -0.891,80.976c5.196,17.247 43.063,34.265 47.26,36.652c4.197,2.387 15.85,8.501 20.509,4.262c4.659,-4.24 5.819,-5.563 5.351,-6.819c-0.469,-1.257 -8.322,-4.802 -8.026,-2.557c0.34,2.576 4.481,1.895 2.675,2.557c-1.806,0.661 -7.557,-0.875 -4.458,-2.557" style="fill:none;stroke:#000;stroke-width:0.9px;"/><path d="M162.909,176.196c6.332,2.263 9.641,2.174 14.051,4.179c3.35,1.523 6.271,7.408 10.917,8.607" style="fill:none;stroke:#000;stroke-width:0.9px;"/><path d="M193.227,182.163c1.313,0.007 0.892,0.852 0.892,0.852c-0.588,-1.21 -7.106,-1.41 -7.134,0.852c-0.011,0.902 0.605,6.113 1.784,7.672c2.512,3.321 7.515,2.772 9.808,0c8.022,-9.697 2.485,-12.078 -3.566,-13.638c-5.699,-1.47 -14.59,-5.863 -17.835,-7.672c-6.236,-3.478 -25.859,-13.638 -25.859,-13.638" style="fill:none;stroke:#000;stroke-width:0.9px;"/><path d="M113.865,221.372c7.24,-0.299 12.304,4.386 9.809,0c-1.486,-2.613 -5.613,-3.093 -18.726,-2.557c-15.093,0.617 -37.451,-34.948 -37.451,-34.948c-0.976,-8.239 -4.078,-36.652 1.783,-51.142" style="fill:none;stroke:#000;stroke-width:0.9px;"/><path d="M97.815,81.582c0,0 -0.808,5.114 2.675,5.114c3.483,0 18.448,3.961 27.643,11.081c5.021,3.889 3.65,25.856 8.917,49.438" style="fill:none;stroke:#000;stroke-width:0.9px;"/><path d="M97.55,147.215c0,0 -10.786,13.642 -22.92,4.206" style="fill:none;stroke:#000;stroke-width:0.9px;"/><path d="M126.349,115.677c0,0 12.865,30.117 -14.267,31.538" style="fill:none;stroke:#000;stroke-width:0.9px;"/><path d="M124.566,142.953c0,0 36.643,6.535 39.235,40.914" style="fill:none;stroke:#000;stroke-width:0.9px;"/><path d="M134.375,146.363c0,0 -47.296,-5.171 -66.878,35.8" style="fill:none;stroke:#000;stroke-width:0.9px;"/><path d="M76.414,91.811c0,0 15.253,5.457 31.209,-3.41" style="fill:none;stroke:#000;stroke-width:0.9px;"/><path d="M49.663,137.839c0,0 4.007,6.819 16.942,2.557" style="fill:none;stroke:#000;stroke-width:0.9px;"/><path d="M129.916,125.906c0,0 3.115,0 3.567,-1.705" style="fill:none;stroke:#000;stroke-width:0.9px;"/><path d="M127.241,172.786c0,0 2.006,-3.069 2.675,-1.704c0.669,1.364 -1.382,2.897 -1.783,2.557c-0.402,-0.34 -0.892,-0.853 -0.892,-0.853Z" style="fill:none;stroke:#000;stroke-width:0.9px;"/><path d="M182.527,178.753c0,0 2.387,7.321 5.35,8.524c2.963,1.202 1.83,-2.055 0,-5.114c-1.83,-3.06 -0.288,-2.801 0,-3.41" style="fill:#fff0e5;stroke:#000;stroke-width:0.9px;"/><ellipse cx="160.234" cy="212.422" rx="38.343" ry="14.508" style="fill:#f7f7f7;stroke:#000;stroke-width:0.9px;"/><ellipse cx="160.234" cy="212.422" rx="21.401" ry="8.098" style="fill:#f7f7f7;stroke:#000;stroke-width:0.9px;"/><path d="M118.324,225.634c-2.576,0.056 -3.567,-1.705 -3.567,-1.705c0,0 6.704,-10.9 6.365,-14.478c-0.339,-3.578 2.275,-7.999 3.818,-8.517c1.125,-0.378 -2.032,5.01 0,4.867c1.078,-0.076 2.772,-3.657 3.819,-3.65c1.048,0.007 -2.502,5.207 -1.273,4.867c1.23,-0.341 4.116,-3.894 5.092,-2.434c0.412,0.616 -5.703,7.579 -7.638,7.301c-2.324,-0.334 -6.616,13.749 -6.616,13.749Z" style="fill:#b5b5b5;stroke:#000;stroke-width:0.9px;"/><path d="M77.105,18.051c0,0 18.651,1.928 19.798,11.532c2.064,-4.922 -2.781,-10.757 -2.781,-10.757c0,0 16.675,4.595 22.85,20.604c-0.455,-11.699 -10.369,-22.785 -17.631,-25.012c-7.262,-2.227 -18.947,-3.102 -24.203,-0.968c-5.256,2.133 1.967,4.601 1.967,4.601Z" style="fill:#615050;"/><path d="M77.105,18.051c0,0 18.651,1.928 19.798,11.532c2.064,-4.922 -2.781,-10.757 -2.781,-10.757c0,0 16.675,4.595 22.85,20.604c-0.455,-11.699 -10.369,-22.785 -17.631,-25.012" style="fill:none;stroke:#000;stroke-width:0.9px;"/><path d="M80.363,42.676c0,0 -6.011,-4.872 -14.643,1.298" style="fill:none;stroke:#000;stroke-width:0.9px;"/><path d="M79.819,34.835c0,0 -10.703,-3.513 -17.694,3.437" style="fill:none;stroke:#000;stroke-width:0.9px;"/><path d="M75.55,44.556c1.459,0.214 2.462,1.521 2.238,2.916c-0.225,1.395 -1.591,2.353 -3.051,2.139c-1.459,-0.214 -2.462,-1.521 -2.238,-2.916c0.225,-1.395 1.592,-2.353 3.051,-2.139Z" style="stroke:#000;stroke-width:0.9px;"/><path d="M93.198,40.387c0,0 7.539,-4.924 14.906,-1.07c0.33,3.466 -0.184,6.489 -0.184,6.489c0,0 -5.125,3.855 -11.761,1.711c-3.46,-3.349 -3.723,-4.319 -2.961,-7.13" style="fill:#fff;"/><path d="M93.527,41.179c0,0 4.72,-6.032 14.577,-1.862" style="fill:none;stroke:#000;stroke-width:0.9px;"/><path d="M96.159,47.517c0,0 7.017,1.809 11.761,-1.711" style="fill:none;stroke:#000;stroke-width:0.9px;"/><path d="M92.224,33.42c0,0 9.611,-5.71 18.05,-0.429" style="fill:none;stroke:#000;stroke-width:0.9px;"/><path d="M101.437,41.53c-1.372,0.52 -2.044,2.008 -1.499,3.32c0.545,1.312 2.101,1.954 3.473,1.433c1.373,-0.521 2.044,-2.008 1.5,-3.32c-0.545,-1.312 -2.101,-1.954 -3.474,-1.433Z" style="stroke:#000;stroke-width:0.9px;"/><path d="M139.725,214.553c0,0 0.795,0.411 5.35,-0.853c4.556,-1.263 7.631,-1.009 6.242,0.853c-1.389,1.862 -6.339,1.832 -4.459,2.557c1.881,0.725 -7.527,-0.441 -7.133,-2.557" style="fill:#e3bf80;stroke:#000;stroke-width:0.9px;"/></g></g></svg>