<?xml version="1.0" encoding="UTF-8" standalone="no"?><!DOCTYPE svg PUBLIC "-//W3C//DTD SVG 1.1//EN" "http://www.w3.org/Graphics/SVG/1.1/DTD/svg11.dtd"><svg width="100%" height="100%" viewBox="0 0 223 225" version="1.1" xmlns="http://www.w3.org/2000/svg" xmlns:xlink="http://www.w3.org/1999/xlink" xml:space="preserve" xmlns:serif="http://www.serif.com/" style="fill-rule:evenodd;clip-rule:evenodd;stroke-linecap:round;stroke-linejoin:round;stroke-miterlimit:1.5;"><rect id="Plan-de-travail2" serif:id="Plan de travail2" x="0" y="0.333" width="222.26" height="224.003" style="fill:none;"/><circle cx="112.201" cy="114.405" r="108.931" style="fill:none;"/><clipPath id="_clip1"><circle cx="112.201" cy="114.405" r="108.931"/></clipPath><g clip-path="url(#_clip1)"><g><path d="M80.993,154.789l2.303,32.396c0,0 -13.832,6.012 -10.23,10.231c3.602,4.219 7.197,6.58 13.641,1.705c6.443,-4.875 3.41,-46.037 3.41,-46.037" style="fill:#d2bebe;stroke:#000;stroke-width:1.7px;"/><path d="M136.154,163.314l1.705,27.282c0,0 -13.832,6.011 -10.231,10.23c3.602,4.219 7.197,6.58 13.641,1.705c6.444,-4.875 3.41,-46.037 3.41,-46.037" style="fill:#d2bebe;stroke:#000;stroke-width:1.7px;"/><path d="M82.656,157.875c0,0 -58.164,-26.385 -46.037,-56.268c12.127,-29.883 48.687,-87.768 88.664,-76.728c39.977,11.039 31.637,2.033 49.447,20.46c13.831,14.311 14.018,48.071 17.051,59.678c3.034,11.608 -5.875,18.516 -3.41,30.692c2.465,12.176 -38.272,38.408 -46.037,34.101c-7.766,-4.306 -26.905,-10.471 -59.678,-11.935Z" style="fill:#d2bebe;"/><clipPath id="_clip2"><path d="M82.656,157.875c0,0 -58.164,-26.385 -46.037,-56.268c12.127,-29.883 48.687,-87.768 88.664,-76.728c39.977,11.039 31.637,2.033 49.447,20.46c13.831,14.311 14.018,48.071 17.051,59.678c3.034,11.608 -5.875,18.516 -3.41,30.692c2.465,12.176 -38.272,38.408 -46.037,34.101c-7.766,-4.306 -26.905,-10.471 -59.678,-11.935Z"/></clipPath><g clip-path="url(#_clip2)"><path d="M84.403,91.701c0,0 -3.602,-15.018 -6.82,-27.281c-3.219,-12.264 -13.833,-19.565 -15.346,-6.821c-1.513,12.745 9.47,5.444 5.115,15.346c-4.355,9.903 1.514,2.602 -10.23,10.231c-11.744,7.629 -24.631,34.429 -1.705,30.691c22.926,-3.738 10.038,-26.385 18.755,-18.756" style="fill:none;stroke:#000;stroke-width:1.7px;"/><path d="M99.749,86.586c0,0 -10.422,-34.342 -3.41,-25.576c7.011,8.765 34.478,2.033 20.46,-5.116c-14.017,-7.148 -37.703,0.328 -27.281,-13.64c10.422,-13.969 22.166,-13.641 22.166,-13.641c0,0 13.449,1.465 11.936,-1.705c-1.514,-3.17 -18.756,-11.935 -18.756,-11.935" style="fill:none;stroke:#000;stroke-width:1.7px;"/><path d="M92.928,100.226c0,0 15.723,-4.787 23.871,-10.23c8.149,-5.443 -21.789,-7.061 -1.705,-11.936c20.085,-4.874 23.68,-21.838 15.346,-25.576c-8.334,-3.738 -31.451,-11.039 -15.346,-13.64c16.106,-2.602 23.68,-5.356 35.807,3.41c12.127,8.766 -15.537,-0.809 -10.23,6.82c5.306,7.629 41.298,13.969 37.511,-3.41" style="fill:none;stroke:#000;stroke-width:1.7px;"/><path d="M99.749,110.457c0,0 -6.444,-21.27 -17.051,-1.705c-10.607,19.565 -22.926,16.242 -27.281,17.051c-4.356,0.808 3.787,5.443 13.64,15.345c9.854,9.903 9.471,12.832 3.41,13.641" style="fill:none;stroke:#000;stroke-width:1.7px;"/><path d="M132.145,78.06c0,0 11.176,8.854 -5.115,18.756c-16.291,9.903 -6.444,0.897 -15.346,13.641c-8.902,12.744 -10.422,-0.809 -17.051,8.525c-6.628,9.335 -17.81,7.717 -10.23,17.051c7.58,9.334 7.197,15.674 15.346,13.641c8.148,-2.033 8.902,-11.608 5.115,-11.936c-3.787,-0.328 -3.41,-11.935 -3.41,-11.935" style="fill:none;stroke:#000;stroke-width:1.7px;"/><path d="M145.786,62.715c0,0 35.046,-7.061 32.396,8.525c-2.65,15.586 -14.4,-6.492 -20.461,5.115c-6.06,11.608 12.313,9.422 20.461,13.641c8.149,4.219 -3.033,16.81 11.936,17.051" style="fill:none;stroke:#000;stroke-width:1.7px;"/><path d="M147.491,88.291c0,0 -17.811,8.285 -6.82,15.346c10.99,7.06 23.111,0.896 10.23,13.64c-12.881,12.745 -28.041,21.357 -20.461,28.987c7.58,7.629 -11.559,19.652 -3.41,17.05c8.149,-2.601 17.427,4.875 17.051,-5.115c-0.377,-9.99 15.154,-33.774 6.82,-25.576" style="fill:none;stroke:#000;stroke-width:1.7px;"/><path d="M159.426,100.226c0,0 13.449,3.17 17.051,17.051c3.602,13.881 3.787,-9.334 6.82,1.705c3.034,11.04 9.471,24.768 -6.82,28.987c-16.291,4.219 -20.084,-5.356 -11.935,-10.231c8.148,-4.875 1.513,-11.607 0,-15.346c-1.514,-3.738 -9.286,13.401 -10.231,25.577c-0.945,12.176 8.526,6.82 8.526,6.82" style="fill:none;stroke:#000;stroke-width:1.7px;"/></g><path d="M82.656,157.875c0,0 -58.164,-26.385 -46.037,-56.268c12.127,-29.883 48.687,-87.768 88.664,-76.728c39.977,11.039 31.637,2.033 49.447,20.46c13.831,14.311 14.018,48.071 17.051,59.678c3.034,11.608 -5.875,18.516 -3.41,30.692c2.465,12.176 -38.272,38.408 -46.037,34.101c-7.766,-4.306 -26.905,-10.471 -59.678,-11.935Z" style="fill:none;stroke:#000;stroke-width:1.6px;"/><g><path d="M96.549,64.52c0.694,-5.354 -3.1,-10.156 -8.467,-10.718l-21.298,-2.228c-5.367,-0.562 -10.288,3.328 -10.982,8.682l-2.515,19.399c-0.694,5.354 3.1,10.156 8.467,10.718l21.298,2.229c5.367,0.561 10.288,-3.329 10.982,-8.682l2.515,-19.4Z" style="fill:#acc2cc;fill-opacity:0.75;"/><path d="M149.141,70.679c0.694,-5.353 -3.1,-10.156 -8.467,-10.717l-21.297,-2.229c-5.368,-0.562 -10.289,3.329 -10.983,8.682l-2.515,19.4c-0.694,5.353 3.1,10.156 8.468,10.717l21.297,2.229c5.367,0.562 10.288,-3.329 10.982,-8.682l2.515,-19.4Z" style="fill:#acc2cc;fill-opacity:0.75;"/><path d="M96.549,64.52c0.694,-5.354 -3.1,-10.156 -8.467,-10.718l-21.298,-2.228c-5.367,-0.562 -10.288,3.328 -10.982,8.682l-2.515,19.399c-0.694,5.354 3.1,10.156 8.467,10.718l21.298,2.229c5.367,0.561 10.288,-3.329 10.982,-8.682l2.515,-19.4Z" style="fill:none;stroke:#000;stroke-width:5.38px;"/><path d="M149.141,70.679c0.694,-5.353 -3.1,-10.156 -8.467,-10.717l-21.297,-2.229c-5.368,-0.562 -10.289,3.329 -10.983,8.682l-2.515,19.4c-0.694,5.353 3.1,10.156 8.468,10.717l21.297,2.229c5.367,0.562 10.288,-3.329 10.982,-8.682l2.515,-19.4Z" style="fill:none;stroke:#000;stroke-width:5.38px;"/><path d="M96.804,66.494c0,0 5.449,-1.895 11.134,1.895" style="fill:none;stroke:#000;stroke-width:5.38px;"/><path d="M148.685,75.023c0,0 28.903,4.501 40.037,5.448c4.15,1.316 5.314,5.565 4.743,7.829c-0.765,3.036 -4.269,4.016 -4.269,4.016" style="fill:none;stroke:#000;stroke-width:5.38px;"/></g><path d="M161.538,85.042c1.725,-0.345 -12.394,-7.185 -24.1,-8.236c-24.603,-2.211 -41.464,2.83 -41.464,2.83c0,0 -27.565,-13.778 -54.405,-15.856c-7.48,6.565 -1.76,13.407 -1.76,13.407l57.097,28.642l64.632,-20.787Z" style="fill:#fff;stroke:#000;stroke-width:1.7px;"/><g id="journal"><path d="M35.669,63.527c0,0 53.203,11.46 60.906,22.271c18.642,-11.297 63.654,-4.536 66.893,0.313c-0.445,2.27 -14.512,85.759 -14.512,85.759c0,0 -51.781,-8.842 -58.603,-3.324c-3.64,4.013 -4.761,-0.248 -4.761,-0.248c0,0 -48.904,-17.254 -57.494,-14.454c0.101,-8.205 7.571,-90.317 7.571,-90.317Z" style="fill:#559bbd;stroke:#000;stroke-width:1.7px;"/></g><path d="M110.145,130.766c0,0 1.27,7.96 13.566,7.77c12.297,-0.189 11.266,-4.548 11.266,-4.548" style="fill:none;stroke:#000;stroke-width:1.7px;"/><path d="M96.322,92.565l-8.695,71.826" style="fill:none;stroke:#000;stroke-width:1.7px;"/><path d="M170.007,124.496c0,0 -4.921,2.375 -10.89,7.654c-3.277,2.899 -8.634,8.247 -9.609,6.494c-1.956,-3.52 3.244,-4.495 2.652,-4.672c-1.536,-0.461 -6.931,0.16 -6.876,-1.19c0.059,-1.425 6.718,-2.917 6.718,-2.917c0,0 -5.59,-1.967 -5.315,-3.774c0.19,-1.255 6.305,-0.848 7.21,-1.753c2.211,-2.211 -1.295,-8.371 3.001,-8.371c2.685,0 -0.76,3.648 3.317,3.159c3.948,-0.474 5.685,-1.106 9.318,-5.37" style="fill:#d2bebe;stroke:#000;stroke-width:1.7px;"/><path d="M27.419,103.253c0,0 -1.421,4.896 -0.316,7.423c1.106,2.527 1.106,4.896 3.001,4.896c1.895,0 7.107,1.264 6.475,-1.421c-0.632,-2.685 -4.264,-0.79 -4.264,-0.79c0,0 6.791,-2.685 5.054,-4.58c-1.737,-1.895 -5.844,-0.316 -5.844,-0.316c0,0 5.212,-2.685 4.58,-5.054c-0.631,-2.369 -4.738,0.474 -4.738,0.474l1.58,-6.159c0,0 -3.791,0.631 -5.528,5.527Z" style="fill:#d2bebe;stroke:#000;stroke-width:1.7px;"/><circle cx="114.895" cy="113.223" r="3.376"/><circle cx="135.174" cy="113.223" r="3.376"/><circle cx="114.042" cy="114.076" r="1.481" style="fill:#fff;"/><circle cx="134.321" cy="114.076" r="1.481" style="fill:#fff;"/><path d="M121.99,104.327c0,0 -8.528,-4.453 -15.635,0.285" style="fill:none;stroke:#000;stroke-width:1.7px;"/><path d="M128.055,105.37c0,0 8.529,-4.454 15.636,0.284" style="fill:none;stroke:#000;stroke-width:1.7px;"/><path d="M106.639,121.195l-4.454,3.222" style="fill:none;stroke:#000;stroke-width:1.7px;"/><path d="M140.09,122.237l-4.454,3.222" style="fill:none;stroke:#000;stroke-width:1.7px;"/><path d="M109.766,121.763l-4.454,3.222" style="fill:none;stroke:#000;stroke-width:1.7px;"/><path d="M143.217,122.806l-4.454,3.222" style="fill:none;stroke:#000;stroke-width:1.7px;"/><path d="M112.893,122.521l-4.453,3.222" style="fill:none;stroke:#000;stroke-width:1.7px;"/><path d="M146.344,123.564l-4.454,3.222" style="fill:none;stroke:#000;stroke-width:1.7px;"/></g></g></svg>