<?xml version="1.0" encoding="UTF-8" standalone="no"?><!DOCTYPE svg PUBLIC "-//W3C//DTD SVG 1.1//EN" "http://www.w3.org/Graphics/SVG/1.1/DTD/svg11.dtd"><svg width="100%" height="100%" viewBox="0 0 227 226" version="1.1" xmlns="http://www.w3.org/2000/svg" xmlns:xlink="http://www.w3.org/1999/xlink" xml:space="preserve" xmlns:serif="http://www.serif.com/" style="fill-rule:evenodd;clip-rule:evenodd;stroke-linecap:round;stroke-linejoin:round;stroke-miterlimit:1.5;"><rect id="Plan-de-travail1" serif:id="Plan de travail1" x="0.926" y="0" width="225.596" height="225.325" style="fill:none;"/><circle cx="113.988" cy="111.975" r="108.931" style="fill:none;"/><clipPath id="_clip1"><circle cx="113.988" cy="111.975" r="108.931"/></clipPath><g clip-path="url(#_clip1)"><g><path d="M29.541,310.675c-1.039,1.729 -5.05,7.786 -10.8,8.859c-2.466,0.46 -10.056,-10.654 -11.649,-15.727c-1.592,-5.073 4.797,-9.779 8.737,-13.979c3.941,-4.199 10.33,-45.6 11.649,-51.838c1.32,-6.238 11.649,-61.74 11.649,-61.74l20.386,6.989c2.395,-0.68 -0.024,5.63 -1.881,14.682c-3.131,15.266 -7.538,37.325 -7.438,40.069c0.154,4.246 -15.881,41.768 -19.221,47.761c-3.34,5.994 0.428,7.403 0,11.067c-0.428,3.663 5.379,11.48 2.33,14.561c-0.895,0.905 -2.268,0.425 -3.762,-0.704Z" style="fill:#fff0e5;"/><path d="M185.961,308.928c1.04,1.728 5.051,7.786 10.8,8.858c2.467,0.46 10.057,-10.653 11.649,-15.726c1.593,-5.073 -4.796,-9.779 -8.736,-13.979c-3.941,-4.199 -10.33,-45.6 -11.65,-51.838c-1.319,-6.238 -12.603,-64.653 -12.603,-64.653l-20.596,9.902c-1.085,-0.389 0.287,5.434 3.046,14.682c3.131,15.266 7.538,37.325 7.438,40.069c-0.155,4.246 15.881,41.767 19.221,47.761c3.34,5.993 -0.428,7.403 0,11.066c0.428,3.664 -5.379,11.481 -2.33,14.562c0.895,0.904 2.268,0.425 3.761,-0.704Z" style="fill:#fff0e5;"/><path d="M121.836,14.91c-21.826,0.235 -50.762,5.654 -60.575,30.288c-9.814,24.634 -7.272,28.563 -14.562,27.958c-7.289,-0.606 -26.492,-3.278 -21.551,14.561c4.942,17.839 7.096,-2.307 4.66,24.463c-2.436,26.77 6.707,7.789 14.561,9.902c7.855,2.112 14.668,6.042 22.716,4.659c8.048,-1.382 10.202,-9.101 25.628,-9.319c15.426,-0.217 40.49,-2.112 53.003,1.165c12.514,3.277 13.891,-4.83 13.397,-5.242c-0.495,-0.412 33.111,16.332 30.87,2.912c-2.242,-13.42 -5.825,-12.231 -5.825,-12.231c0,0 24.863,-9.498 1.165,-16.891c-18.744,-5.848 8.834,-73.001 -63.487,-72.225Z" style="fill:#615050;stroke:#000;stroke-width:0.9px;"/><path d="M95.625,108.685c0,0 1.416,7.858 -0.582,8.155c-1.998,0.297 -15.144,4.077 -15.144,4.077c0,0 19.938,20.788 37.86,17.473c17.921,-3.314 24.463,-14.561 24.463,-14.561c0,0 -9.185,-2.743 -12.232,-3.495c-3.047,-0.751 -6.738,-1.578 -6.989,-6.407c-0.219,-4.2 1.747,-4.077 1.747,-4.077l-29.123,-1.165Z" style="fill:#fff0e5;"/><path d="M66.503,174.503l-2.33,7.571c-6.398,4.392 -17.483,2.598 -25.628,-5.824c-2.321,-9.393 9.846,-34.221 15.726,-41.937c7.824,-8.81 22.551,-11.381 25.628,-13.396c0,0 6.756,4.189 9.926,5.841c19.19,9.996 31.509,6.807 35.901,5.796c0,0 12.074,-3.419 15.369,-9.384c9.43,3.2 19.863,8.33 22.677,13.473c2.724,4.977 12.814,34.365 12.814,34.365c0,0 -6.971,14.843 -21.55,11.066c-1.228,-0.318 -3.093,-3.673 -4.588,-6.788c-1.266,-3.241 -2.402,-5.443 -2.402,-5.443c0,0 1.05,2.623 2.402,5.443c2.817,7.208 6.283,19.557 -0.655,24.262c-0.244,0.166 -0.582,1.165 -0.582,1.165c0,0 3.455,62.686 12.232,99.6c0,0 -123.013,8.142 -116.491,-4.66c15.201,-31.187 23.88,-100.765 23.88,-100.765l0.012,-0.304c-2.989,-4.786 -2.928,-14.62 -2.341,-20.081Z" style="fill:#fff;"/><path d="M26.313,303.807c0,0 3.941,10.653 6.99,7.572c3.049,-3.081 -2.758,-10.898 -2.33,-14.561c0.428,-3.664 -3.34,-5.073 0,-11.067c3.34,-5.993 19.375,-43.515 19.221,-47.761c-0.155,-4.246 10.484,-54.751 10.484,-54.751" style="fill:none;stroke:#000;stroke-width:0.9px;"/><path d="M39.127,176.25c0,0 -10.329,55.502 -11.649,61.74c-1.319,6.238 -7.708,47.639 -11.649,51.838c-3.94,4.2 -10.329,8.906 -8.737,13.979c1.593,5.073 9.183,16.187 11.649,15.727c6.721,-1.254 11.067,-9.32 11.067,-9.32c0,0 -4.505,-10.606 -6.407,-8.737c-1.902,1.87 1.924,7.002 -2.912,8.737" style="fill:none;stroke:#000;stroke-width:0.9px;"/><path d="M188.818,302.06c0,0 -3.941,10.653 -6.99,7.572c-3.048,-3.081 2.758,-10.898 2.33,-14.562c-0.428,-3.663 3.34,-5.073 0,-11.066c-3.34,-5.994 -19.375,-43.515 -19.221,-47.761c0.155,-4.246 -10.484,-54.751 -10.484,-54.751" style="fill:none;stroke:#000;stroke-width:0.9px;"/><path d="M176.004,173.338c0,0 10.329,56.667 11.649,62.905c1.319,6.238 7.709,47.639 11.649,51.838c3.941,4.2 10.33,8.906 8.737,13.979c-1.593,5.073 -9.183,16.186 -11.649,15.726c-6.721,-1.254 -11.067,-9.319 -11.067,-9.319c0,0 4.505,-10.607 6.407,-8.737c1.902,1.87 -1.924,7.002 2.912,8.737" style="fill:none;stroke:#000;stroke-width:0.9px;"/><path d="M149.211,200.713c0,0 7.144,94.526 12.814,99.017" style="fill:none;stroke:#000;stroke-width:0.9px;"/><path d="M68.832,194.888c0,0 -13.533,84.916 -23.298,99.6" style="fill:none;stroke:#000;stroke-width:0.9px;"/><path d="M79.317,120.334c0,0 18.647,14.294 37.859,13.397c19.212,-0.897 23.298,-10.484 23.298,-10.484" style="fill:none;stroke:#000;stroke-width:0.9px;"/><path d="M123.001,112.18c0,0 -2.515,6.333 7.572,8.154c10.086,1.822 29.228,9.052 33.199,16.309c2.724,4.977 12.814,34.365 12.814,34.365c0,0 -6.971,14.843 -21.55,11.066c-2.339,-0.605 -6.99,-12.231 -6.99,-12.231c0,0 11.804,22.885 1.747,29.705c-7.726,5.24 -14.561,4.077 -14.561,4.077" style="fill:none;stroke:#000;stroke-width:0.9px;"/><path d="M95.625,109.85c0,0 1.562,6.722 -1.165,6.99c-2.727,0.268 -33.967,8.663 -40.189,17.473c-6.222,8.811 -18.047,32.544 -15.726,41.937c8.145,8.422 19.23,10.216 25.628,5.824l3.495,-12.231" style="fill:none;stroke:#000;stroke-width:0.9px;"/><path d="M67.668,169.843c0,0 -5.088,20.555 3.494,27.375c8.582,6.821 13.979,5.242 13.979,5.242" style="fill:none;stroke:#000;stroke-width:0.9px;"/><path d="M151.541,65.584l1.747,-5.825l5.825,1.165" style="fill:none;stroke:#000;stroke-width:0.9px;"/><path d="M159.695,92.959c10.056,-16.722 -14.716,-26.088 -16.309,-27.375c-1.592,-1.287 -22.715,-1.165 -22.715,-1.165c0,0 -15.007,1.578 -29.705,8.154c-14.698,6.576 -16.891,21.551 -16.891,21.551c0,0 12.521,19.398 43.684,18.056c29.157,-1.256 41.936,-19.221 41.936,-19.221Z" style="fill:#fff0e5;"/><path d="M141.057,58.012l6.989,0.582l-2.33,6.407" style="fill:none;stroke:#000;stroke-width:0.9px;"/><path d="M155.036,49.275l-1.165,5.242l6.407,1.165" style="fill:none;stroke:#000;stroke-width:0.9px;"/><path d="M149.793,48.11l-1.164,6.99l-8.155,-0.583" style="fill:none;stroke:#000;stroke-width:0.9px;"/><path d="M109.604,107.52l6.407,0.583" style="fill:none;stroke:#000;stroke-width:0.9px;"/><path d="M130.573,99.949c0,0 7.969,1.285 13.978,-1.165" style="fill:none;stroke:#000;stroke-width:0.9px;"/><path d="M143.386,64.419c0,0 20.492,15.944 16.892,40.189c9.601,-27.787 8.154,-31.452 8.154,-31.452" style="fill:#615050;stroke:#000;stroke-width:0.9px;"/><path d="M120.088,64.419c0,0 -54.45,12.061 -54.168,54.75c-2.436,-19.05 14.862,-56.28 30.288,-64.652" style="fill:#615050;stroke:#000;stroke-width:0.9px;"/><path d="M117.176,81.31c0,0 -4.942,8.372 -8.154,9.319c-3.213,0.948 -26.793,-13.979 -26.793,-13.979" style="fill:none;stroke:#000;stroke-width:0.9px;"/><path d="M74.075,94.124c0,0 12.521,19.398 43.684,18.056c29.157,-1.256 41.936,-19.221 41.936,-19.221" style="fill:none;stroke:#000;stroke-width:0.9px;"/><path d="M132.32,81.31c0,0 3.989,9.925 5.824,10.484c1.836,0.559 20.969,-8.154 20.969,-8.154" style="fill:none;stroke:#000;stroke-width:0.9px;"/><path d="M105.527,96.454c0,0 -7.757,3.032 -14.561,-1.165" style="fill:none;stroke:#000;stroke-width:0.9px;"/></g></g></svg>