<?xml version="1.0" encoding="UTF-8" standalone="no"?><!DOCTYPE svg PUBLIC "-//W3C//DTD SVG 1.1//EN" "http://www.w3.org/Graphics/SVG/1.1/DTD/svg11.dtd"><svg width="100%" height="100%" viewBox="0 0 227 226" version="1.1" xmlns="http://www.w3.org/2000/svg" xmlns:xlink="http://www.w3.org/1999/xlink" xml:space="preserve" xmlns:serif="http://www.serif.com/" style="fill-rule:evenodd;clip-rule:evenodd;stroke-linecap:round;stroke-linejoin:round;stroke-miterlimit:1.5;"><rect id="Plan-de-travail1" serif:id="Plan de travail1" x="0.592" y="0" width="225.596" height="225.325" style="fill:none;"/><circle cx="113.654" cy="111.975" r="108.931" style="fill:none;"/><clipPath id="_clip1"><circle cx="113.654" cy="111.975" r="108.931"/></clipPath><g clip-path="url(#_clip1)"><g><path d="M87.403,23.224c-12.371,2.867 -26.986,14.287 -31.748,36.829c-3.449,16.325 -7.937,48.575 -22.859,50.798c-14.922,2.222 -13.652,31.431 -1.27,29.208c12.382,-2.222 22.541,12.382 25.399,-1.27c2.857,-13.652 11.112,7.302 20.319,2.54c9.207,-4.762 9.842,-9.842 15.239,-3.81c5.397,6.033 42.861,-11.112 49.528,-3.81c6.667,7.303 46.369,17.507 50.798,1.27c4.762,-17.461 -10.477,-17.461 -15.24,-30.478c-4.762,-13.017 -0.635,-102.019 -90.166,-81.277Z" style="fill:#615050;stroke:#000;stroke-width:0.9px;"/><path d="M103.198,126.78c0,0 -0.408,10.589 -2.54,11.43c-8.693,3.427 -13.969,7.619 -13.969,7.619c0,0 6.509,11.173 25.399,10.16c18.89,-1.013 22.859,-11.43 22.859,-11.43c0,0 -14.354,-5.881 -19.049,-7.619c-1.611,-2.102 -3.651,-8.058 -2.54,-11.43c1.11,-3.371 -10.16,1.27 -10.16,1.27Z" style="fill:#fff0e5;"/><path d="M153.44,85.452c0,0 6.826,-3.334 6.35,6.349c-0.432,8.791 -11.429,7.62 -11.429,7.62" style="fill:#fff0e5;stroke:#000;stroke-width:0.9px;"/><path d="M67.64,162.338c-1.503,10.858 -16.052,61.783 -21.589,66.038c-5.537,4.254 -54.404,25.462 -59.687,34.288c-5.284,8.826 -3.81,6.35 -3.81,6.35c0,0 1.473,11.493 3.81,11.429c3.086,-0.084 0.292,-2.51 0.098,-6.651c-0.303,-6.445 4.983,-10.17 4.981,-11.128c-0.001,-0.976 -5.936,7.683 -4.981,11.128c1.257,4.538 3.294,8.158 4.981,7.921c3.165,-0.443 5.885,0.122 3.81,-3.81c-1.06,-2.009 -2.005,-6.059 -1.27,-7.619c1.422,-3.017 10.16,-5.08 10.16,-5.08c0,0 -2.591,5.143 -2.54,7.62c0.05,2.476 0.545,3.801 5.08,-2.54c5.13,-7.176 2.235,-7.811 7.619,-8.89c5.385,-1.079 43.636,-7.302 49.528,-15.239c0,0 9.668,-16.962 12.7,-35.559" style="fill:#fff0e5;"/><path d="M86.689,145.829c0,0 9.191,11.274 24.129,10.16c20.885,-1.557 24.129,-11.43 24.129,-11.43c0,0 19.027,10.266 19.049,15.24c0.022,4.974 7.62,62.227 7.62,62.227c0,0 -11.452,11.717 -25.399,11.429c-13.947,-0.287 -60.957,-11.429 -60.957,-11.429l-22.859,-7.62c0,0 15.761,-44.705 15.239,-52.068c-0.522,-7.362 15.217,-14.045 19.049,-16.509Z" style="fill:#e5d7bb;"/><path d="M103.198,122.97c0,0 0.487,14.033 -2.54,15.24c0,0 -31.515,13.27 -33.018,24.128c-1.503,10.858 -16.052,61.783 -21.589,66.038c-5.537,4.254 -54.404,25.462 -59.687,34.288c-5.284,8.826 -3.81,6.35 -3.81,6.35c0,0 1.473,11.493 3.81,11.429c3.086,-0.084 0.292,-2.51 0.098,-6.651c-0.303,-6.445 4.983,-10.17 4.981,-11.128c-0.001,-0.976 -5.936,7.683 -4.981,11.128c1.257,4.538 3.294,8.158 4.981,7.921c3.165,-0.443 5.885,0.122 3.81,-3.81c-1.06,-2.009 -2.005,-6.059 -1.27,-7.619c1.422,-3.017 10.16,-5.08 10.16,-5.08c0,0 -2.591,5.143 -2.54,7.62c0.05,2.476 0.545,3.801 5.08,-2.54c5.13,-7.176 2.235,-7.811 7.619,-8.89c5.385,-1.079 43.636,-7.302 49.528,-15.239c0,0 9.668,-16.962 12.7,-35.559" style="fill:none;stroke:#000;stroke-width:0.9px;"/><path d="M113.358,122.97c0,0 -0.915,14.364 5.08,15.24c5.994,0.875 34.22,12.247 35.558,22.859c1.338,10.611 10.16,90.165 10.16,90.165" style="fill:none;stroke:#000;stroke-width:0.9px;"/><path d="M152.171,85.452c-20.108,-2.329 -26.669,-29.421 -30.479,-39.369c-21.077,-2.299 -13.024,-11.364 -39.368,-6.349c-9.536,1.815 -12.7,16.509 -12.7,16.509c0,0 -16.192,66.354 30.479,69.847c46.67,3.492 52.068,-40.638 52.068,-40.638Z" style="fill:#fff0e5;"/><path d="M92.483,71.482c0,0 -12.488,-6.773 -19.049,2.54c-0.212,6.35 1.27,7.62 1.27,7.62c0,0 5.926,5.503 17.779,0c2.117,-1.905 0,-10.16 0,-10.16Z" style="fill:#fff;"/><path d="M117.214,71.482c0,0 12.488,-6.773 19.049,2.54c0.212,6.35 -0.602,6.35 -0.602,6.35c0,0 -2.963,7.196 -17.779,1.27c-2.117,-1.905 -0.668,-10.16 -0.668,-10.16Z" style="fill:#fff;"/><path d="M69.624,56.243c0,0 -16.192,66.354 30.479,69.847c46.67,3.492 52.068,-40.638 52.068,-40.638" style="fill:none;stroke:#000;stroke-width:0.9px;"/><path d="M92.483,71.482c0,0 -13.652,-6.032 -19.049,2.54" style="fill:none;stroke:#000;stroke-width:0.9px;"/><path d="M92.483,81.642c0,0 -14.287,6.032 -19.049,-1.27" style="fill:none;stroke:#000;stroke-width:0.9px;"/><path d="M116.612,71.482c0,0 13.652,-6.032 19.049,2.54" style="fill:none;stroke:#000;stroke-width:0.9px;"/><path d="M116.612,81.642c0,0 14.287,6.032 19.049,-1.27" style="fill:none;stroke:#000;stroke-width:0.9px;"/><path d="M96.293,60.053c0,0 -17.462,-6.032 -27.939,5.08" style="fill:none;stroke:#000;stroke-width:0.9px;"/><path d="M112.802,60.053c0,0 17.462,-6.032 27.939,5.08" style="fill:none;stroke:#000;stroke-width:0.9px;"/><path d="M93.753,108.311c0.324,-1.715 5.397,-7.303 12.7,-5.08c7.302,2.222 7.302,8.572 2.539,10.159c-4.762,1.588 -16.085,-0.592 -15.239,-5.079Z" style="fill:none;stroke:#000;stroke-width:0.9px;"/><path d="M152.171,85.452c22.7,3.651 6.138,-23.283 -1.27,-34.289c-7.408,-11.006 -29.209,-5.08 -29.209,-5.08c0,0 7.778,35.718 30.479,39.369Z" style="fill:#615050;"/><path d="M121.692,46.083c0,0 7.778,35.718 30.479,39.369" style="fill:none;stroke:#000;stroke-width:0.9px;"/><path d="M128.042,85.452l0,7.619" style="fill:none;stroke:#000;stroke-width:0.9px;"/><path d="M132.698,84.605l0,7.62" style="fill:none;stroke:#000;stroke-width:0.9px;"/><path d="M130.37,85.24l0,10.371" style="fill:none;stroke:#000;stroke-width:0.9px;"/><path d="M76.53,175.038c0,0 -9.805,25.37 0,34.288c-1.626,18.655 2.895,32.99 -5.08,41.908" style="fill:none;stroke:#000;stroke-width:0.9px;"/><path d="M145.106,176.308c1.974,6.212 7.477,23.206 -0.799,33.018c1.626,18.655 -2.895,32.99 5.08,41.908" style="fill:none;stroke:#000;stroke-width:0.9px;"/><path d="M86.689,145.829c0,0 7.552,12.248 26.669,10.16c19.117,-2.088 21.589,-11.43 21.589,-11.43" style="fill:none;stroke:#000;stroke-width:0.9px;"/></g></g></svg>