<?xml version="1.0" encoding="UTF-8" standalone="no"?>
<!DOCTYPE svg PUBLIC "-//W3C//DTD SVG 1.1//EN" "http://www.w3.org/Graphics/SVG/1.1/DTD/svg11.dtd">
<svg width="100%" height="100%" viewBox="0 0 720 914" version="1.1" xmlns="http://www.w3.org/2000/svg" xmlns:xlink="http://www.w3.org/1999/xlink" xml:space="preserve" xmlns:serif="http://www.serif.com/" style="fill-rule:evenodd;clip-rule:evenodd;stroke-linecap:round;stroke-linejoin:round;stroke-miterlimit:1.5;">
    <g transform="matrix(1,0,0,1,-770,-140)">
        <g id="Plan-de-travail2" serif:id="Plan de travail2" transform="matrix(1,0,0,0.780529,0,140)">
            <rect x="770" y="0" width="720" height="1171" style="fill:none;"/>
            <clipPath id="_clip1">
                <rect x="770" y="0" width="720" height="1171"/>
            </clipPath>
            <g clip-path="url(#_clip1)">
                <g transform="matrix(1.44769,0,0,2.19824,-487.868,-325.55)">
                    <path d="M909.316,170.197C911.089,218.034 891.395,648.454 923.452,658.647C955.509,668.84 1309.53,686.785 1319.26,660.979C1328.98,635.172 1332.01,156.757 1312.4,160.616C1292.79,164.476 908.016,135.111 909.316,170.197Z" style="fill:none;"/>
                    <clipPath id="_clip2">
                        <path d="M909.316,170.197C911.089,218.034 891.395,648.454 923.452,658.647C955.509,668.84 1309.53,686.785 1319.26,660.979C1328.98,635.172 1332.01,156.757 1312.4,160.616C1292.79,164.476 908.016,135.111 909.316,170.197Z"/>
                    </clipPath>
                    <g clip-path="url(#_clip2)">
                        <g transform="matrix(0.946215,0,0,1.59047,49.1174,-381.958)">
                            <rect x="897" y="525" width="469" height="141" style="fill:rgb(41,55,78);"/>
                        </g>
                        <g transform="matrix(0.973208,0,0,0.986642,24.7966,-22.8464)">
                            <rect x="901" y="173" width="444" height="360" style="fill:rgb(215,211,201);"/>
                            <path d="M1345,533L901,533L901,173L1345,173L1345,533ZM901.639,173.532L901.639,532.468L1344.36,532.468L1344.36,173.532L901.639,173.532Z"/>
                        </g>
                        <g transform="matrix(0.946215,0,0,0.798362,48.5236,76.7483)">
                            <rect x="894" y="523" width="486" height="16" style="fill:white;"/>
                            <path d="M1380,539L894,539L894,523L1380,523L1380,539ZM894.657,523.657L894.657,538.343L1379.34,538.343L1379.34,523.657L894.657,523.657Z"/>
                        </g>
                        <g transform="matrix(0.690757,0,0,0.582821,336.999,66.5007)">
                            <rect x="846" y="561" width="565" height="22" style="fill:rgb(39,34,34);stroke:rgb(13,6,0);stroke-width:0.9px;"/>
                        </g>
                        <g transform="matrix(0.690757,0,0,0.264919,341.834,329.353)">
                            <rect x="846" y="561" width="565" height="22" style="fill:rgb(39,34,34);stroke:rgb(13,6,0);stroke-width:1.16px;"/>
                        </g>
                        <g transform="matrix(0.971806,0,0,0.819954,112.129,95.4668)">
                            <g>
                                <g>
                                    <g transform="matrix(1.67302,-0.0411261,0.0411261,1.67302,-5881.8,-533.924)">
                                        <path d="M4127.93,710.922C4118.14,708.103 4130.99,681.998 4130.81,681.814C4130.81,681.814 4123.49,633.715 4130.08,628.526C4136.74,623.273 4169.64,623.471 4181.79,630.113C4189.19,634.157 4181.55,684.142 4181.55,684.142C4181.55,684.142 4187.51,710.987 4180,713C4167.66,716.307 4134.5,712.813 4127.93,710.922Z" style="fill:rgb(48,69,102);stroke:black;stroke-width:0.38px;"/>
                                    </g>
                                    <g transform="matrix(1.67302,-0.0411261,0.0411261,1.67302,-6124.9,-533.924)">
                                        <path d="M4127.93,710.922C4118.14,708.103 4130.99,681.998 4130.81,681.814C4130.81,681.814 4123.49,633.715 4130.08,628.526C4136.74,623.273 4169.64,623.471 4181.79,630.113C4189.19,634.157 4181.55,684.142 4181.55,684.142C4181.55,684.142 4187.51,710.987 4180,713C4167.66,716.307 4134.5,712.813 4127.93,710.922Z" style="fill:rgb(48,69,102);stroke:black;stroke-width:0.38px;"/>
                                    </g>
                                    <g transform="matrix(1.67302,-0.0411261,0.0411261,1.67302,-5758.13,-533.924)">
                                        <path d="M4127.93,710.922C4118.14,708.103 4130.99,681.998 4130.81,681.814C4130.81,681.814 4123.49,633.715 4130.08,628.526C4136.74,623.273 4169.64,623.471 4181.79,630.113C4189.19,634.157 4181.55,684.142 4181.55,684.142C4181.55,684.142 4187.51,710.987 4180,713C4167.66,716.307 4134.5,712.813 4127.93,710.922Z" style="fill:rgb(48,69,102);stroke:black;stroke-width:0.38px;"/>
                                    </g>
                                </g>
                            </g>
                        </g>
                        <g transform="matrix(0.690757,0,0,0.582821,336.999,68.6161)">
                            <path d="M832,659C832,659 891.832,654.204 922,662.37" style="fill:none;stroke:black;stroke-width:0.9px;"/>
                        </g>
                        <g transform="matrix(0.690757,0,0,0.582821,458.572,68.6161)">
                            <path d="M832,659C832,659 891.832,654.204 922,662.37" style="fill:none;stroke:black;stroke-width:0.9px;"/>
                        </g>
                        <g transform="matrix(0.690757,0,0,0.582821,573.928,68.6161)">
                            <path d="M832,659C832,659 891.832,654.204 922,662.37" style="fill:none;stroke:black;stroke-width:0.9px;"/>
                        </g>
                        <g transform="matrix(0.690757,0,0,0.582821,694.466,68.6161)">
                            <path d="M832,659C832,659 891.832,654.204 922,662.37" style="fill:none;stroke:black;stroke-width:0.9px;"/>
                        </g>
                        <g transform="matrix(0.971806,0,0,0.819954,112.129,95.4668)">
                            <path d="M1083,546C1083,546 1086.22,567.183 1084,572C1081.78,576.817 1097.89,577.517 1097,563C1096.11,548.483 1093,545 1093,545" style="fill:white;stroke:black;stroke-width:0.64px;"/>
                            <g transform="matrix(0.955618,0.294608,-0.294608,0.955618,236.158,-294.828)">
                                <path d="M1083,546C1083,546 1086.22,567.183 1084,572C1081.78,576.817 1097.89,577.517 1097,563C1096.11,548.483 1093,545 1093,545" style="fill:white;stroke:black;stroke-width:0.64px;"/>
                            </g>
                            <path d="M1106,289C1106,289 1094.02,281.058 1087,302C1079.98,322.942 1093.52,313.058 1086,322C1078.48,330.942 1083.77,341.058 1076,339C1068.23,336.942 1067.02,350.058 1074,349C1080.98,347.942 1081.02,343.308 1085,349C1088.98,354.692 1095.02,353.058 1104,348C1112.98,342.942 1124.77,337.308 1135,344C1145.23,350.692 1151.27,350.558 1150,343C1148.73,335.442 1159.77,340.558 1163,329C1166.23,317.442 1142.77,333.058 1146,311C1149.23,288.942 1126.52,276.808 1106,289Z" style="fill:rgb(97,80,80);stroke:black;stroke-width:0.64px;"/>
                            <g transform="matrix(0.721704,0,0,0.616,315.866,125.346)">
                                <path d="M1135,314C1135,314 1144.89,309 1146,319C1147.11,329 1137,326 1137,326" style="fill:rgb(255,240,229);stroke:black;stroke-width:0.95px;"/>
                            </g>
                            <path d="M1124.7,342C1124.7,342 1124.28,351.334 1125,353C1126.09,355.531 1129.56,355.793 1130.02,356.104C1134.6,357.687 1141.42,360.242 1143.29,364.513C1146.09,370.892 1146.39,443.309 1146.39,443.309C1146.39,443.309 1153.71,440.307 1153.61,442.183C1153.52,444.059 1152.68,447.286 1153.61,448.937C1154.55,450.588 1153.3,451.339 1150.52,453.44C1147.74,455.541 1147.42,451.188 1147.42,451.188C1147.42,451.188 1145.45,456.291 1145.35,457.942C1145.26,459.593 1141.73,454.941 1142.26,452.314C1142.78,449.688 1136.06,405.037 1136.06,405.037L1131.55,380.016C1128.55,377.004 1124.68,374.438 1120,374C1107.69,372.85 1097,381 1097,381L1090.63,396.031C1091.02,396.082 1077.26,422.523 1073.07,428.675C1069.36,434.137 1060.67,449.265 1058.62,450.063C1056.57,450.86 1053.7,456.864 1052.42,455.691C1051.15,454.519 1053.7,449.547 1052.42,448.937C1051.15,448.327 1049.76,457.891 1049,457C1048.24,456.109 1044.82,452.331 1047,444C1048.22,439.327 1049.05,438.853 1051.39,437.681C1053.73,436.508 1058.04,444.059 1060.68,436.555C1063.33,429.051 1083.51,378.771 1088.56,369.016C1093.61,359.26 1111.05,355.508 1113.34,355.508C1115.64,355.508 1114.38,344.251 1114.38,344.251L1124.7,342Z" style="fill:rgb(255,240,229);"/>
                            <path d="M1137,327C1137,327 1136,321.775 1137,311C1137.45,314.114 1136.22,323.219 1133,327C1131,325.225 1130.78,317.775 1131,314C1131.23,310.225 1123,301 1123,301C1123,301 1123.44,305.997 1121,311C1117.78,300.781 1104,296 1104,296L1101,297C1101,297 1081.22,335.333 1111,344C1137.36,344.083 1137,327 1137,327Z" style="fill:rgb(255,240,229);"/>
                            <path d="M1101,297C1101,297 1081.22,335.333 1111,344C1137.36,344.083 1137,327 1137,327" style="fill:none;stroke:black;stroke-width:0.64px;"/>
                            <path d="M1110,356C1110,356 1112.14,360.008 1119,360C1125.86,359.992 1131,357 1131,357C1131,357 1143.98,360.675 1144,366C1144.03,371.325 1145,391 1145,391C1145,391 1139.14,395.008 1135,393C1130.86,390.992 1094,384 1094,384C1094,384 1086.14,384.675 1084,380C1087.22,372.125 1088.55,368.736 1092,365C1095.16,360.559 1109.64,356.008 1110,356" style="fill:rgb(97,155,184);"/>
                            <g transform="matrix(1.03256,0,0,1.12565,-34.868,-42.9738)">
                                <path d="M1113,344C1113,344 1114.23,354 1112,354C1109.78,354 1092.89,357.333 1088,366C1083.11,374.667 1063.56,419.333 1061,426C1058.44,432.667 1054.27,425.958 1052,427C1049.73,428.042 1048.97,429.359 1047.75,433.502C1045.31,441.792 1048.95,444.259 1049.68,445.051C1050.42,445.843 1051.77,436.458 1053,437C1054.23,437.542 1051.77,441.958 1053,443C1054.23,444.042 1057.02,438.708 1059,438C1060.98,437.292 1069.4,423.852 1073,419C1077.06,413.534 1090.38,390.045 1090,390" style="fill:none;stroke:black;stroke-width:0.59px;"/>
                            </g>
                            <g transform="matrix(1.03256,0,0,1.12565,-34.868,-42.9738)">
                                <path d="M1123,342C1123,342 1123.09,351.933 1124,353C1124.91,354.067 1138.29,356.333 1141,362C1143.71,367.667 1144,432 1144,432C1144,432 1151.09,429.333 1151,431C1150.91,432.667 1150.09,435.533 1151,437C1151.91,438.467 1150.69,439.133 1148,441C1145.31,442.867 1145,439 1145,439C1145,439 1143.09,443.533 1143,445C1142.91,446.467 1139.49,442.333 1140,440C1140.51,437.667 1134,398 1134,398" style="fill:none;stroke:black;stroke-width:0.59px;"/>
                            </g>
                            <g transform="matrix(1.05842,0,0,1.43723,-64.2197,-174.146)">
                                <path d="M1089.15,422.566C1089.15,422.566 1064.27,438.058 1062,449C1059.73,459.942 1082,500 1082,500C1082,500 1087.02,506.808 1092,504C1096.98,501.192 1092.52,466.308 1086,457C1091.86,446.318 1107.52,439.141 1107.52,439.141C1107.52,439.141 1108.02,456.558 1108,459C1107.98,461.442 1113.52,489.058 1107,504C1109.98,510.442 1118.77,509.808 1121,505C1123.23,500.192 1131.52,463.308 1132,459C1132.48,454.692 1137.52,436.308 1134,425" style="stroke:black;stroke-width:0.51px;"/>
                            </g>
                            <path d="M1084,379C1083.03,380.086 1088.6,385.405 1095,384" style="fill:none;stroke:black;stroke-width:0.64px;"/>
                            <path d="M1134,391C1134,391 1139.31,395.008 1145,391" style="fill:none;stroke:black;stroke-width:0.64px;"/>
                            <g transform="matrix(1.03256,0,0,1.12565,-34.868,-42.9738)">
                                <path d="M1095,377C1095,377 1086.96,388.284 1091,394C1093.31,397.267 1093.09,415.733 1089,420C1084.91,424.267 1100.29,435.333 1110,432C1119.71,428.667 1135,426 1135,426L1133,401C1133,401 1138.49,392.133 1137,385" style="fill:rgb(97,155,184);stroke:black;stroke-width:0.59px;"/>
                            </g>
                            <path d="M1109,331C1109,331 1113.18,331.773 1112,334C1109.64,338.452 1104.56,334.183 1105,332C1105.44,329.817 1109,331 1109,331Z" style="fill:none;stroke:black;stroke-width:0.64px;"/>
                            <path d="M1104,296C1104,296 1119.14,302.6 1120,309C1120.86,315.4 1123.48,303.1 1123,301C1122.53,298.9 1131.48,310.267 1131,317C1130.53,323.733 1133,327 1133,327C1133,327 1138.64,318.933 1138,306" style="fill:rgb(97,80,80);stroke:black;stroke-width:0.64px;"/>
                            <path d="M1115,314L1116,318C1116,318 1118.63,319.67 1123,318C1125.37,315.77 1125,315 1125,315C1125,315 1118.87,310.31 1115,314Z" style="fill:white;"/>
                            <path d="M1106,313C1106,313 1100.79,309.83 1097,312C1096.97,314.81 1097,316 1097,316C1097,316 1100.07,317.99 1104,317C1105.2,316.698 1106.55,314.71 1106,313" style="fill:white;"/>
                            <path d="M1106,313C1106,313 1099.94,309.773 1097,312" style="fill:none;stroke:black;stroke-width:0.64px;"/>
                            <path d="M1115,314C1115,314 1118.64,310.267 1125,315" style="fill:none;stroke:black;stroke-width:0.64px;"/>
                            <g transform="matrix(1,0,0,1,-1,7.10543e-15)">
                                <circle cx="1100" cy="314" r="2" style="stroke:black;stroke-width:0.64px;"/>
                            </g>
                            <g transform="matrix(1,0,0,1,17,1.16667)">
                                <circle cx="1100" cy="314" r="2" style="stroke:black;stroke-width:0.64px;"/>
                            </g>
                            <path d="M1097,316C1097,316 1099.31,317.6 1104,317" style="fill:none;stroke:black;stroke-width:0.64px;"/>
                            <g transform="matrix(1,0,0,1,-5.68434e-14,1)">
                                <path d="M1116,317C1116,317 1118.48,318.433 1123,317" style="fill:none;stroke:black;stroke-width:0.64px;"/>
                            </g>
                            <path d="M1107,307C1107,307 1104.4,309.699 1098,306" style="fill:none;stroke:black;stroke-width:0.64px;"/>
                            <path d="M1110,356C1110,356 1116.14,363.675 1131,357" style="fill:none;stroke:black;stroke-width:0.64px;"/>
                            <path d="M1115,307C1115,307 1119.04,313.066 1128,310" style="fill:none;stroke:black;stroke-width:0.64px;"/>
                            <g transform="matrix(0.666667,0,0,1,361.333,7.10543e-15)">
                                <path d="M1087,556L1093,555L1089,559L1093,559L1088,563L1093,563L1088,567" style="fill:none;stroke:rgb(48,69,102);stroke-width:0.75px;"/>
                            </g>
                            <g transform="matrix(0.644542,0.170323,-0.255484,0.966813,551.49,-164.32)">
                                <path d="M1087,556L1093,555L1089,559L1093,559L1088,563L1093,563L1088,567" style="fill:none;stroke:rgb(48,69,102);stroke-width:0.75px;"/>
                            </g>
                            <g transform="matrix(-0.666667,0,0,1,1814.67,7.10543e-15)">
                                <path d="M1087,556L1093,555L1089,559L1093,559L1088,563L1093,563L1088,567" style="fill:none;stroke:rgb(48,69,102);stroke-width:0.75px;"/>
                            </g>
                            <g transform="matrix(-0.644542,-0.170323,-0.255484,0.966813,1956.59,206.984)">
                                <path d="M1087,556L1093,555L1089,559L1093,559L1088,563L1093,563L1088,567" style="fill:none;stroke:rgb(48,69,102);stroke-width:0.75px;"/>
                            </g>
                            <path d="M1119,329C1119,329 1118,331.8 1118,333C1118,333.552 1118.45,334 1119,334C1119.55,334 1120,333.552 1120,333C1120,331.8 1119,329 1119,329Z" style="fill:rgb(147,173,186);"/>
                            <g transform="matrix(1,0,0,1,-17.6,-8)">
                                <path d="M1119,329C1119,329 1118,331.8 1118,333C1118,333.552 1118.45,334 1119,334C1119.55,334 1120,333.552 1120,333C1120,331.8 1119,329 1119,329Z" style="fill:rgb(147,173,186);"/>
                            </g>
                            <g transform="matrix(1,0,0,1,-12.6,-28.6)">
                                <path d="M1119,329C1119,329 1118,331.8 1118,333C1118,333.552 1118.45,334 1119,334C1119.55,334 1120,333.552 1120,333C1120,331.8 1119,329 1119,329Z" style="fill:rgb(147,173,186);"/>
                            </g>
                            <g transform="matrix(1,0,0,1,-7.6,-25.8)">
                                <path d="M1119,329C1119,329 1118,331.8 1118,333C1118,333.552 1118.45,334 1119,334C1119.55,334 1120,333.552 1120,333C1120,331.8 1119,329 1119,329Z" style="fill:rgb(147,173,186);"/>
                            </g>
                            <g transform="matrix(1,0,0,1,-6,-8)">
                                <path d="M1119,329C1119,329 1118,331.8 1118,333C1118,333.552 1118.45,334 1119,334C1119.55,334 1120,333.552 1120,333C1120,331.8 1119,329 1119,329Z" style="fill:rgb(147,173,186);"/>
                            </g>
                            <g transform="matrix(1,0,0,1,9.6,-1.8)">
                                <path d="M1119,329C1119,329 1118,331.8 1118,333C1118,333.552 1118.45,334 1119,334C1119.55,334 1120,333.552 1120,333C1120,331.8 1119,329 1119,329Z" style="fill:rgb(147,173,186);"/>
                            </g>
                            <g transform="matrix(1,0,0,1,-18.2,1.6)">
                                <path d="M1119,329C1119,329 1118,331.8 1118,333C1118,333.552 1118.45,334 1119,334C1119.55,334 1120,333.552 1120,333C1120,331.8 1119,329 1119,329Z" style="fill:rgb(147,173,186);"/>
                            </g>
                            <path d="M1119,320C1119,320 1121.15,320.399 1124,319" style="fill:none;stroke:black;stroke-width:0.36px;"/>
                            <g transform="matrix(0.8,0,0,0.949901,224.8,16.9816)">
                                <path d="M1119,320C1119,320 1121.15,320.399 1124,319" style="fill:none;stroke:black;stroke-width:0.4px;"/>
                            </g>
                            <path d="M1096,317C1096,317 1096.95,317.612 1099,318" style="fill:none;stroke:black;stroke-width:0.36px;"/>
                            <path d="M1096,318C1096,318 1097.15,318.572 1098,319" style="fill:none;stroke:black;stroke-width:0.36px;"/>
                        </g>
                        <g transform="matrix(0.971806,0,0,0.819954,112.129,95.4668)">
                            <g transform="matrix(1.67671,0,0,1.67671,-5993.64,-734.388)">
                                <path d="M4138,771C4138,771 4128.12,785.848 4132,787C4135.88,788.152 4141.79,790.062 4147,778C4149.5,772.205 4147,769 4147,769" style="fill:rgb(84,84,80);stroke:black;stroke-width:0.38px;"/>
                            </g>
                            <g transform="matrix(-1.67671,0,0,1.67671,7951.51,-734.388)">
                                <path d="M4138.47,769C4138.47,769 4129.57,783.394 4133.47,785C4139.94,787.66 4145.37,784.098 4147,778C4148.63,771.902 4147,769 4147,769" style="fill:rgb(84,84,80);stroke:black;stroke-width:0.38px;"/>
                            </g>
                            <g transform="matrix(1.67302,-0.0411261,0.0411261,1.67302,-6005.8,-533.924)">
                                <path d="M4127.93,710.922C4118.14,708.103 4130.99,681.998 4130.81,681.814C4130.81,681.814 4123.49,633.715 4130.08,628.526C4136.74,623.273 4169.64,623.471 4181.79,630.113C4189.19,634.157 4181.55,684.142 4181.55,684.142C4181.55,684.142 4187.51,710.987 4180,713C4167.66,716.307 4134.5,712.813 4127.93,710.922Z" style="fill:rgb(48,69,102);stroke:black;stroke-width:0.38px;"/>
                            </g>
                            <g transform="matrix(1.41406,0,0,1.56204,-4904.31,-643.994)">
                                <path d="M4177,685C4177,685 4179.69,690.056 4178,691C4176.31,691.944 4191.3,712.856 4191,718C4190.7,723.144 4184,767 4184,767C4184,767 4176.69,771.656 4174,769C4171.31,766.344 4172.49,728.456 4173,721C4170.9,718.944 4160.9,701.456 4159,701C4157.11,700.544 4155.1,697.856 4153,699C4150.9,700.144 4140.29,714.786 4140.79,718.93C4141.3,723.074 4148,766 4148,766C4148,766 4141.69,775.856 4136,769C4130.31,762.144 4120.69,722.256 4121,717C4121.31,711.744 4133,685 4133,685L4134.39,682.439" style="fill:rgb(53,95,117);stroke:black;stroke-width:0.43px;"/>
                            </g>
                            <g transform="matrix(1.6225,0,0,1.6225,-5774.15,-695.733)">
                                <path d="M4140,606C4140,606 4138.75,607.913 4135,602C4132.85,598.613 4137.66,597.854 4137,592C4136.51,587.645 4139.26,587.479 4141.84,587.816C4150.36,588.928 4148.39,578.566 4152.93,582.886C4155.76,585.573 4163.56,583.056 4165.26,587.2C4166.97,591.344 4169.9,586.056 4172,589C4174.11,591.944 4176.69,596.656 4176,600C4175.31,603.344 4171,612 4171,612L4140,606Z" style="fill:rgb(66,63,63);stroke:black;stroke-width:0.39px;"/>
                            </g>
                            <g transform="matrix(1.80803,0,0,1.80803,-6541.88,-813.646)">
                                <path d="M4151,624C4151,624 4152.57,628.906 4148,631C4143.43,633.094 4154.74,644.906 4161,639C4167.26,633.094 4162,630 4162,630C4162,630 4157.74,630.906 4159,624" style="fill:rgb(253,230,212);stroke:black;stroke-width:0.35px;"/>
                            </g>
                            <g transform="matrix(1.41795,0,0,1.31952,-4927.09,-512.275)">
                                <path d="M4140,606C4140,606 4134.11,603.448 4135,610C4135.81,616.008 4141,612 4141,612" style="fill:rgb(253,230,212);stroke:black;stroke-width:0.47px;"/>
                            </g>
                            <g transform="matrix(-1.28649,0,0,1.31952,6320.53,-512.275)">
                                <path d="M4140,606C4140,606 4134.11,603.448 4135,610C4135.81,616.008 4141,612 4141,612" style="fill:rgb(253,230,212);stroke:black;stroke-width:0.49px;"/>
                            </g>
                            <g transform="matrix(1.6225,0,0,1.6225,-5774.15,-695.733)">
                                <path d="M4140,599C4140,599 4137.11,617.948 4148,623C4158.89,628.052 4169.36,621.448 4171,614C4172.64,606.552 4172.61,595.948 4164,592C4155.39,588.052 4143.11,588.198 4140,599Z" style="fill:rgb(253,230,212);stroke:black;stroke-width:0.39px;"/>
                            </g>
                            <g transform="matrix(1.6226,0,0,1.80803,-5770.21,-813.646)">
                                <path d="M4162,630C4162,630 4176.74,631.144 4178.62,638.621C4180.39,645.703 4181.7,653.001 4181.7,653.001L4172.41,654.841L4171.84,651.342C4171.84,651.342 4171.27,685.54 4173.54,685.634C4160.46,691.227 4141.11,692.547 4137.03,683.974C4140.96,669.068 4136.71,650.789 4136.71,650.789L4137.51,655.092L4128.08,653.554C4128.08,653.554 4127.36,643.928 4131.16,636.962C4133.04,633.527 4141.63,631.265 4147.19,630.878C4149.24,634.417 4152.2,635.052 4156,635C4160.11,634.944 4162,630 4162,630Z" style="fill:rgb(161,145,113);stroke:black;stroke-width:0.37px;"/>
                            </g>
                            <path d="M997,281C997.352,275.933 995.952,270.733 986,262C976.048,253.267 949.952,257.533 944,264C938.048,270.467 941,286 941,286C941,286 943.448,297.467 944,297C944.552,296.533 941.848,281.067 946,275C950.152,268.933 959.048,264.867 964,266C968.952,267.133 978.448,265.667 983,270C985,271.904 990.297,276.046 992,281C994.174,287.323 992.475,294.579 992,296C991.152,298.533 994.448,298.867 995,294C995.552,289.133 996.648,286.067 997,281Z" style="fill:rgb(66,63,63);"/>
                            <path d="M941,286C941,286 943.448,297.467 944,297C944.552,296.533 940.848,281.067 945,275C949.152,268.933 959.048,264.867 964,266C968.952,267.133 978.448,265.667 983,270C984.968,271.874 990.311,275.131 992,280C994.218,286.392 992.481,294.562 992,296C991.152,298.533 994.448,298.867 995,294C995.552,289.133 996.648,286.067 997,281" style="fill:none;stroke:black;stroke-width:0.64px;"/>
                            <g transform="matrix(0.782609,0,0,1.1,-2275.43,-339.8)">
                                <rect x="4115" y="568" width="23" height="10" style="fill:none;stroke:black;stroke-width:0.67px;"/>
                            </g>
                            <g transform="matrix(0.782609,0,0,1.1,-2250.43,-339.8)">
                                <rect x="4115" y="568" width="23" height="10" style="fill:none;stroke:black;stroke-width:0.67px;"/>
                            </g>
                            <g transform="matrix(1,0,0,1,-3173,-281)">
                                <path d="M4118,569C4118,569 4116.48,568.625 4115,568" style="fill:none;stroke:black;stroke-width:0.64px;"/>
                            </g>
                            <g transform="matrix(1,0,0,1,-3173,-281)">
                                <path d="M4136,568C4136,568 4138.91,566.437 4143,568" style="fill:none;stroke:black;stroke-width:0.64px;"/>
                            </g>
                            <g transform="matrix(1,0,0,1,-3173,-281)">
                                <path d="M4161,568C4161,568 4165.79,567.562 4169,568" style="fill:none;stroke:black;stroke-width:0.64px;"/>
                            </g>
                            <g transform="matrix(1.57679,-0.599341,0.436724,1.14897,-5818.98,2112)">
                                <path d="M4140,590C4140,590 4143.04,589.938 4143,592C4142.96,594.062 4141.04,594.438 4140,593C4138.96,591.562 4139.16,590.813 4140,590Z" style="fill:none;stroke:black;stroke-width:0.43px;"/>
                            </g>
                            <g transform="matrix(1,0,0,1,-3173,-281)">
                                <path d="M4132,570C4132,570 4126.82,565.275 4122,570C4122.48,573.725 4123,575 4123,575C4124.68,575.705 4127.03,575.695 4130,575L4132,570Z" style="fill:white;"/>
                            </g>
                            <g transform="matrix(1,0,0,1,-3173,-281)">
                                <path d="M4132,570C4132,570 4127.16,565.062 4122,570" style="fill:none;stroke:black;stroke-width:0.64px;"/>
                            </g>
                            <g transform="matrix(1,0,0,1,-3173,-281)">
                                <path d="M4130,575C4130,575 4124.79,576.187 4123,575" style="fill:none;stroke:black;stroke-width:0.64px;"/>
                            </g>
                            <g transform="matrix(1,0,0,1,-3172,-281)">
                                <circle cx="4127" cy="573" r="2" style="stroke:black;stroke-width:0.64px;"/>
                            </g>
                            <g transform="matrix(-1,0,0,1,5106,-281)">
                                <path d="M4132,570C4132,570 4126.82,565.275 4122,570C4122.48,573.725 4123,575 4123,575C4124.68,575.705 4127.03,575.695 4130,575L4132,570Z" style="fill:white;"/>
                            </g>
                            <g transform="matrix(-1,0,0,1,5106,-281)">
                                <path d="M4132,570C4132,570 4127.16,565.062 4122,570" style="fill:none;stroke:black;stroke-width:0.64px;"/>
                            </g>
                            <g transform="matrix(-1,0,0,1,5106,-281)">
                                <path d="M4130,575C4130,575 4124.79,576.187 4123,575" style="fill:none;stroke:black;stroke-width:0.64px;"/>
                            </g>
                            <g transform="matrix(-1,0,0,1,5107,-281)">
                                <circle cx="4127" cy="573" r="2" style="stroke:black;stroke-width:0.64px;"/>
                            </g>
                            <g transform="matrix(1,0,0,1,-3173,-281)">
                                <path d="M4134,841C4134,841 4133.19,846.656 4130,853C4127.41,858.154 4122.87,863.788 4119,867" style="fill:none;stroke:black;stroke-width:0.64px;"/>
                            </g>
                            <g transform="matrix(-1,0,0,1,5131,-282)">
                                <path d="M4134,841C4134,841 4133.19,848.656 4130,855C4127.41,860.154 4127.87,860.788 4124,864" style="fill:none;stroke:black;stroke-width:0.64px;"/>
                            </g>
                            <g transform="matrix(1,0,0,1,-3173,-281)">
                                <path d="M4113,856L4120,856L4116,852L4122,851L4118,848C4118,848 4110.27,845.989 4115,843C4118,841.105 4121.3,841.167 4118,848" style="fill:none;stroke:black;stroke-width:0.64px;"/>
                            </g>
                            <g transform="matrix(1,0,0,1,-3173,-281)">
                                <path d="M4118,857L4114,854L4122,854L4118,850L4123,848C4123,848 4130.63,844.833 4127,843C4123.37,841.167 4119.44,842.44 4121.48,848.607" style="fill:none;stroke:black;stroke-width:0.64px;"/>
                            </g>
                            <g transform="matrix(-1,0,0,1,5126.98,-286.935)">
                                <path d="M4113,856L4120,856L4116,852L4122,851L4118,848C4118,848 4110.27,845.989 4115,843C4118,841.105 4121.3,841.167 4118,848" style="fill:none;stroke:black;stroke-width:0.64px;"/>
                            </g>
                            <g transform="matrix(-1,0,0,1,5126.98,-286.935)">
                                <path d="M4118,857L4114,854L4122,854L4118,850L4123,848C4123,848 4130.63,844.833 4127,843C4123.37,841.167 4119.44,842.44 4121.48,848.607" style="fill:none;stroke:black;stroke-width:0.64px;"/>
                            </g>
                            <path d="M929,369C929,369 926.065,403.333 934,404C941.935,404.667 998.398,395.667 1002,391C1005.6,386.333 1004,380.533 995,382C990.609,382.716 943,391 943,391L943,371" style="fill:rgb(253,230,212);stroke:black;stroke-width:0.64px;"/>
                            <g transform="matrix(-1,0,0,1,1941.21,0)">
                                <path d="M927.205,368C927.205,368 927.27,404.333 935.205,405C943.14,405.667 997.604,395.667 1001.21,391C1004.81,386.333 1000.13,380.907 999.205,382C996.559,385.142 992.455,383.767 991.205,384C979.734,386.14 942,391 942,391L940.205,371" style="fill:rgb(253,230,212);stroke:black;stroke-width:0.64px;"/>
                            </g>
                            <g transform="matrix(1,0,0,1,-1,0)">
                                <path d="M962,282C962,282 951.315,281.267 949,286" style="fill:none;stroke:black;stroke-width:0.64px;"/>
                            </g>
                            <g transform="matrix(-1,0,0,1,1934,0)">
                                <path d="M961,282C961,282 951.315,281.267 949,286" style="fill:none;stroke:black;stroke-width:0.64px;"/>
                            </g>
                        </g>
                    </g>
                </g>
                <g transform="matrix(1,0,0,1.28118,1,-130.681)">
                    <g transform="matrix(1.11133,0.0144283,-0.0157743,1.215,739.493,-95.1998)">
                        <path d="M297,277C297,277 271.904,318.165 331,329C390.096,339.835 497.327,336.027 502.522,314.361C507.062,295.424 515.004,273.135 481.1,267.97C447.196,262.805 313.904,257.165 297,277Z" style="fill:rgb(220,229,233);"/>
                    </g>
                    <g transform="matrix(-0.935572,8.76154e-18,-2.47164e-17,-0.786946,1487.91,1122.02)">
                        <path d="M297,277C297,277 271.904,318.165 331,329C390.096,339.835 494.904,338.165 494,316C493.096,293.835 497.698,273.314 463.794,268.149C429.89,262.984 313.904,257.165 297,277Z" style="fill:rgb(220,229,233);"/>
                    </g>
                    <g transform="matrix(0.420311,-0.0192531,0.0265418,0.579429,999.559,200.031)">
                        <path d="M297,277C297,277 271.904,318.165 331,329C390.096,339.835 494.904,338.165 494,316C493.096,293.835 507.904,283.165 474,278C440.096,272.835 313.904,257.165 297,277Z" style="fill:rgb(239,232,217);"/>
                    </g>
                    <g transform="matrix(0.693531,-0.0317685,0.0265418,0.579429,885.788,788.297)">
                        <path d="M297,277C297,277 271.904,318.165 331,329C390.096,339.835 494.904,338.165 494,316C493.096,293.835 507.904,283.165 474,278C440.096,272.835 313.904,257.165 297,277Z" style="fill:rgb(239,232,217);"/>
                    </g>
                    <g transform="matrix(1,0,0,1,129.926,-477.674)">
                        <g>
                            <text x="958.42px" y="735.45px" style="font-family:'HelvetiHand';font-weight:500;font-size:17px;">Matthieu ? Je t&apos;oﬀre un</text>
                            <text x="948.05px" y="753.98px" style="font-family:'HelvetiHand';font-weight:500;font-size:17px;">Mars si tu te fais opérer à</text>
                            <text x="1007.74px" y="772.51px" style="font-family:'HelvetiHand';font-weight:500;font-size:17px;">ma place !</text>
                        </g>
                    </g>
                    <g transform="matrix(1,0,0,1,205.13,-363.221)">
                        <text x="955.896px" y="735.45px" style="font-family:'HelvetiHand';font-weight:500;font-size:17px;">Non</text>
                    </g>
                    <g transform="matrix(1,0,0,1,115,148)">
                        <g>
                            <text x="949.827px" y="735.45px" style="font-family:'HelvetiHand';font-weight:500;font-size:17px;">Et un Mars et</text>
                            <text x="956.975px" y="753.98px" style="font-family:'HelvetiHand';font-weight:500;font-size:17px;">100 balles ?</text>
                        </g>
                    </g>
                    <g transform="matrix(1,0,0,1,166,219.446)">
                        <g>
                            <text x="944.456px" y="735.45px" style="font-family:'HelvetiHand';font-weight:500;font-size:17px;">Hmmm</text>
                            <text x="997.122px" y="735.45px" style="font-family:'ArialMT', 'Arial', sans-serif;font-size:17px;">…</text>
                            <text x="1019.22px" y="735.45px" style="font-family:'HelvetiHand';font-weight:500;font-size:17px;">Non.</text>
                        </g>
                    </g>
                    <path d="M1235,310C1235,310 1273.05,329.06 1272,388C1284.29,316.273 1243,299 1243,299" style="fill:rgb(220,229,233);"/>
                    <path d="M1162,382C1162,382 1163.05,423.06 1111,431C1132.95,420.273 1154.38,419.727 1148,374" style="fill:rgb(239,232,217);"/>
                    <path d="M1201,881C1201,881 1290.35,849.393 1292,782C1290.14,857.854 1204,888 1204,888" style="fill:rgb(220,229,233);"/>
                </g>
                <g transform="matrix(1,0,0,1.28118,858.248,-186.78)">
                    <g>
                        <text x="92.199px" y="91.9px" style="font-family:'HelvetiHand';font-weight:500;font-size:22px;">Arrivée à l&apos;hôpital, je m&apos;étais fait une</text>
                        <text x="95.697px" y="115.88px" style="font-family:'HelvetiHand';font-weight:500;font-size:22px;">raison : j&apos;allais me faire opérer, plus</text>
                        <text x="176.591px" y="139.86px" style="font-family:'HelvetiHand';font-weight:500;font-size:22px;">possible de reculer.</text>
                    </g>
                </g>
                <g transform="matrix(1,0,0,1.28118,858.248,1073.9)">
                    <g>
                        <text x="87.04px" y="91.9px" style="font-family:'HelvetiHand';font-weight:500;font-size:22px;">Bon, après avoir tenté la négociation,</text>
                        <text x="149.278px" y="115.88px" style="font-family:'HelvetiHand';font-weight:500;font-size:22px;">j&apos;étais vraiment résignée.</text>
                    </g>
                </g>
                <g transform="matrix(1,0,0,1.28118,760,-257.518)">
                    <g transform="matrix(1,0,0,1,-3838,-265)">
                        <rect x="4061" y="498" width="294" height="31" style="fill:white;stroke:black;stroke-width:0.9px;"/>
                    </g>
                    <g transform="matrix(1,0,0,1,-3604.35,-275.584)">
                        <text x="3837.53px" y="533.866px" style="font-family:'HelvetiHand';font-weight:500;font-size:30px;">SALLE D&apos;ATTENTE</text>
                    </g>
                </g>
            </g>
        </g>
    </g>
</svg>
