<?xml version="1.0" encoding="UTF-8" standalone="no"?>
<!DOCTYPE svg PUBLIC "-//W3C//DTD SVG 1.1//EN" "http://www.w3.org/Graphics/SVG/1.1/DTD/svg11.dtd">
<svg width="100%" height="100%" viewBox="0 0 720 1105" version="1.1" xmlns="http://www.w3.org/2000/svg" xmlns:xlink="http://www.w3.org/1999/xlink" xml:space="preserve" xmlns:serif="http://www.serif.com/" style="fill-rule:evenodd;clip-rule:evenodd;stroke-linecap:round;stroke-miterlimit:1;">
    <g transform="matrix(1,0,0,1,-2356,-31)">
        <g id="Plan-de-travail4" serif:id="Plan de travail4" transform="matrix(1,0,0,0.944444,-428.333,31)">
            <rect x="2784.33" y="0" width="720" height="1170" style="fill:none;"/>
            <g transform="matrix(1,0,0,3.15163,2004.8,-2404.05)">
                <path d="M825.535,1121.27C820.297,1115.53 819.36,787.501 828.535,774.89C1000.46,771.81 1421.29,773.224 1447.54,775.562C1455.5,803.878 1465.67,1116.31 1447.54,1122.61C1441.54,1125.1 835.284,1125.79 825.535,1121.27Z" style="fill:rgb(42,42,42);"/>
            </g>
            <g transform="matrix(1,0,0,1.05882,47,102.706)">
                <g transform="matrix(1,0,0,1,429.333,-12)">
                    <path d="M2926,389.098C2926,369.727 2910.27,354 2890.9,354L2572.1,354C2552.73,354 2537,369.727 2537,389.098L2537,835.902C2537,855.273 2552.73,871 2572.1,871L2890.9,871C2910.27,871 2926,855.273 2926,835.902L2926,389.098Z" style="fill:rgb(216,232,238);stroke:black;stroke-width:0.9px;"/>
                </g>
                <g transform="matrix(1,0,0,1,428.333,0)">
                    <path d="M2798,508C2798,508 2792.5,513.547 2789,512C2785.5,510.453 2772.83,477.213 2773,464C2773.17,450.787 2790,444 2790,444C2790,444 2792.83,483.547 2796,485" style="fill:rgb(253,230,212);stroke:black;stroke-width:0.9px;"/>
                </g>
                <g transform="matrix(1,0,0,1,428.333,0)">
                    <path d="M2565,364C2561.99,363.355 2561.23,371.547 2562,377C2562.77,382.453 2574.56,439.213 2570,448C2565.44,456.787 2568.56,458.213 2574,457C2579.44,455.787 2604.23,454.213 2624,456C2643.77,457.787 2684.56,454.547 2690,451C2695.44,447.453 2688.23,449.547 2688,435C2687.77,420.453 2680.56,388.213 2686,379C2691.44,369.787 2686.56,357.88 2683,358C2679.44,358.12 2587.5,368.833 2565,364Z" style="fill:rgb(138,192,209);stroke:black;stroke-width:0.9px;"/>
                </g>
                <g transform="matrix(1,0,0,1,428.333,0)">
                    <path d="M2753,365C2753,365 2754.17,368.88 2757,378C2759.83,387.12 2764.5,449.88 2761,455C2757.5,460.12 2755.83,463.213 2764,465C2772.17,466.787 2856.5,456.213 2868,463C2879.5,469.787 2893.5,467.547 2892,460C2890.5,452.453 2888.17,447.88 2889,443C2889.83,438.12 2885.83,375.547 2889,372C2892.17,368.453 2893.83,356.547 2890,357C2886.17,357.453 2835.5,357.547 2826,357C2816.5,356.453 2758.83,359.213 2757,359C2755.17,358.787 2750.17,364.213 2753,365Z" style="fill:rgb(138,192,209);stroke:black;stroke-width:0.9px;"/>
                </g>
                <g>
                    <g transform="matrix(0.86722,0,0,0.94667,775.693,23.7323)">
                        <path d="M2632,370C2632,370 2599.51,371.023 2591,392C2582.49,412.977 2585.66,410.166 2579,408C2572.34,405.834 2575.08,416.023 2571,415C2566.92,413.977 2561.66,412.451 2560,417C2558.34,421.549 2561.08,426.594 2563,432C2564.92,437.406 2571.08,432.594 2575,431C2578.92,429.406 2589.66,430.166 2592,436C2594.34,441.834 2596.67,438.118 2597.54,440.774C2598.03,442.263 2596.08,445.166 2602,445C2607.92,444.834 2611.8,442.166 2617,442C2622.2,441.834 2644.8,435.166 2652,438C2659.2,440.834 2657.94,437.166 2659,438C2660.06,438.834 2666.94,446.166 2674,443C2681.06,439.834 2689.8,439.166 2686,433C2682.2,426.834 2674.51,431.737 2675,424C2675.49,416.263 2682.23,405.451 2675,397C2667.77,388.549 2663.23,370.023 2632,370Z" style="fill:rgb(97,80,80);stroke:black;stroke-width:0.99px;"/>
                    </g>
                    <g transform="matrix(1,0,0,1,428.333,0)">
                        <path d="M2603,412C2603,412 2597.08,411.451 2597,416C2596.9,421.403 2604,420 2604,420" style="fill:rgb(255,240,229);stroke:black;stroke-width:0.9px;"/>
                    </g>
                    <g transform="matrix(-1,0,0,1,5688.33,0.020726)">
                        <path d="M2603,412C2603,412 2597.08,411.451 2597,416C2596.9,421.403 2604,420 2604,420" style="fill:rgb(255,240,229);stroke:black;stroke-width:0.9px;"/>
                    </g>
                    <g transform="matrix(1,0,0,1,428.333,0)">
                        <path d="M2614,456C2614,456 2624.09,462.547 2634,462C2643.91,461.453 2650,455 2650,455L2665,475L2667,495C2667,495 2664.89,501.547 2659,504C2653.11,506.453 2608,505 2608,505C2608,505 2602.29,503.547 2601,494C2599.71,484.453 2609.49,459.347 2614,456Z" style="fill:rgb(189,63,63);"/>
                    </g>
                    <g transform="matrix(0.857143,0,0,0.807691,806.048,85.616)">
                        <path d="M2623,440C2623,440 2625.35,452.561 2620,455C2616.92,456.406 2609,458.571 2609,458.571C2609,458.571 2617.48,466.022 2631,466C2644.77,465.977 2651,457.333 2651,457.333C2651,457.333 2638.08,457.166 2636,451C2635.12,448.4 2636,441 2636,441" style="fill:rgb(255,240,229);stroke:black;stroke-width:1.08px;"/>
                    </g>
                    <g transform="matrix(1,0,0,1,428.333,0)">
                        <path d="M2655,399C2652.86,397.851 2639.54,389.549 2638,388C2636.46,386.451 2615.14,390.749 2613,391C2610.86,391.251 2604,400 2604,400C2604,400 2595.76,441.633 2632,441C2663.95,440.442 2655,399 2655,399Z" style="fill:rgb(255,240,229);"/>
                    </g>
                    <g transform="matrix(1,0,0,1,428.333,0)">
                        <path d="M2609,555C2609,555 2601.29,560.547 2602,563C2602.71,565.453 2631.49,577.147 2646,574C2660.51,570.853 2668,560 2668,560L2668,555L2609,555Z" style="fill:rgb(255,240,229);"/>
                    </g>
                    <g transform="matrix(1,0,0,1,428.333,0)">
                        <path d="M2604,560C2604,560 2601.56,562.547 2605,565C2608.44,567.453 2652.89,570.547 2659,567C2665.11,563.453 2668,557 2668,557C2668,557 2671.25,561.524 2672,567C2673.11,575.12 2676.89,586.88 2680,591C2683.11,595.12 2629.56,628.88 2614,632C2598.44,635.12 2589,621 2589,621C2589,621 2592.56,573.88 2604,560Z" style="fill:white;"/>
                        <clipPath id="_clip1">
                            <path d="M2604,560C2604,560 2601.56,562.547 2605,565C2608.44,567.453 2652.89,570.547 2659,567C2665.11,563.453 2668,557 2668,557C2668,557 2671.25,561.524 2672,567C2673.11,575.12 2676.89,586.88 2680,591C2683.11,595.12 2629.56,628.88 2614,632C2598.44,635.12 2589,621 2589,621C2589,621 2592.56,573.88 2604,560Z"/>
                        </clipPath>
                        <g clip-path="url(#_clip1)">
                            <g transform="matrix(1,0,0,1,-475.333,-128)">
                                <g transform="matrix(1,0,0,1,428.333,0)">
                                    <path d="M2702,695C2702,695 2703.74,709.796 2704,712" style="fill:none;stroke:rgb(189,63,63);stroke-width:4.2px;stroke-linejoin:bevel;"/>
                                </g>
                                <g transform="matrix(1,0,0,1,415.333,2.75)">
                                    <path d="M2702,695C2702,695 2703.74,709.796 2704,712" style="fill:none;stroke:rgb(189,63,63);stroke-width:4.2px;stroke-linejoin:bevel;"/>
                                </g>
                                <g transform="matrix(1,0,0,1,428.333,0)">
                                    <path d="M2711,691C2711,691 2716.99,700.296 2718,710" style="fill:none;stroke:rgb(189,63,63);stroke-width:4.2px;stroke-linejoin:bevel;"/>
                                </g>
                                <g transform="matrix(1,0,0,1,428.333,0)">
                                    <path d="M2652,691C2652,691 2648.24,697.796 2649,702" style="fill:none;stroke:rgb(189,63,63);stroke-width:4.2px;stroke-linejoin:bevel;"/>
                                </g>
                            </g>
                        </g>
                        <path d="M2604,560C2604,560 2601.56,562.547 2605,565C2608.44,567.453 2652.89,570.547 2659,567C2665.11,563.453 2668,557 2668,557C2668,557 2671.25,561.524 2672,567C2673.11,575.12 2676.89,586.88 2680,591C2683.11,595.12 2629.56,628.88 2614,632C2598.44,635.12 2589,621 2589,621C2589,621 2592.56,573.88 2604,560Z" style="fill:none;stroke:black;stroke-width:0.9px;"/>
                    </g>
                    <g transform="matrix(1,0,0,1,428.333,0)">
                        <path d="M2604,400C2604,400 2595.76,441.633 2632,441C2663.95,440.442 2655,399 2655,399" style="fill:none;stroke:black;stroke-width:0.9px;"/>
                    </g>
                    <g transform="matrix(1,0,0,1,432.333,-2)">
                        <path d="M2620,408C2620,408 2613.06,403.623 2606,409" style="fill:none;stroke:black;stroke-width:0.9px;"/>
                    </g>
                    <g transform="matrix(1,0,0,1,428.333,-2)">
                        <path d="M2623,413C2623,413 2616.66,410.451 2612,414C2612.49,418.12 2613,419 2613,419C2613,419 2617.8,421.737 2621,419C2622.06,418.095 2623.37,418.166 2623,413Z" style="fill:white;"/>
                    </g>
                    <g transform="matrix(1,0,0,1,432.333,-2)">
                        <path d="M2619,413C2619,413 2612.86,410.423 2608,414" style="fill:none;stroke:black;stroke-width:0.9px;"/>
                    </g>
                    <g transform="matrix(1,0,0,1,432.333,-2)">
                        <path d="M2617,419C2617,419 2613.66,421.68 2609,419" style="fill:none;stroke:black;stroke-width:0.9px;"/>
                    </g>
                    <g transform="matrix(0.5,0,0,0.5,1739.83,205.5)">
                        <circle cx="2613" cy="417" r="2" style="stroke:black;stroke-width:1.8px;"/>
                    </g>
                    <g transform="matrix(1,0,0,1,428.333,-2)">
                        <path d="M2622,421C2622,421 2620.66,423.88 2618,424" style="fill:none;stroke:black;stroke-width:0.5px;"/>
                    </g>
                    <g transform="matrix(-1,0,0,1,5683.33,-2)">
                        <path d="M2620,408C2620,408 2613.06,403.623 2606,409" style="fill:none;stroke:black;stroke-width:0.9px;"/>
                    </g>
                    <g transform="matrix(-1,0,0,1,5687.33,-2)">
                        <path d="M2623,413C2623,413 2616.66,410.451 2612,414C2612.49,418.12 2613,419 2613,419C2613,419 2617.8,421.737 2621,419C2622.06,418.095 2623.37,418.166 2623,413Z" style="fill:white;"/>
                    </g>
                    <g transform="matrix(-1,0,0,1,5683.33,-2)">
                        <path d="M2619,413C2619,413 2612.86,410.423 2608,414" style="fill:none;stroke:black;stroke-width:0.9px;"/>
                    </g>
                    <g transform="matrix(-1,0,0,1,5683.33,-2)">
                        <path d="M2617,419C2617,419 2613.66,421.68 2609,419" style="fill:none;stroke:black;stroke-width:0.9px;"/>
                    </g>
                    <g transform="matrix(-0.5,0,0,0.5,4375.83,205.5)">
                        <circle cx="2613" cy="417" r="2" style="stroke:black;stroke-width:1.8px;"/>
                    </g>
                    <g transform="matrix(-1,0,0,1,5687.33,-2)">
                        <path d="M2622,421C2622,421 2620.66,423.88 2618,424" style="fill:none;stroke:black;stroke-width:0.5px;"/>
                    </g>
                    <g transform="matrix(1,0,0,1,428.333,0)">
                        <path d="M2629,431C2629,431 2634.8,429.594 2637,431" style="fill:none;stroke:black;stroke-width:0.9px;"/>
                    </g>
                    <g transform="matrix(1,0,0,1,426.333,3)">
                        <path d="M2636,378C2636,378 2635.51,394.451 2656,403C2657.63,402.834 2655,393 2655,393C2655,393 2659.37,407.737 2659,413C2658.63,418.263 2664.08,401.451 2663,398" style="fill:rgb(97,80,80);stroke:black;stroke-width:0.9px;"/>
                    </g>
                    <g transform="matrix(1,0,0,1,428.333,-3)">
                        <path d="M2571,570C2571,570 2571.56,577.213 2570,579C2568.44,580.787 2558.89,603.88 2561,605C2563.76,606.47 2566.33,592.667 2569,594C2569.84,594.422 2562.23,608.547 2565,609C2567.77,609.453 2572,594.635 2573,595C2574.83,595.667 2566.67,613.864 2570,613C2572.11,612.453 2578,596 2578,596C2578,596 2577.56,612.547 2580,612C2582.44,611.453 2581.23,595.88 2582,594C2582.77,592.12 2583,588 2583,588C2583,588 2588.56,591.88 2591,592C2593.44,592.12 2586.89,584.547 2586,579C2585.11,573.453 2584,565 2584,565" style="fill:rgb(255,240,229);stroke:black;stroke-width:0.9px;"/>
                    </g>
                    <g transform="matrix(-0.980535,0.196343,0.196343,0.980535,5543.31,-510.353)">
                        <path d="M2571,570C2571,570 2571.56,577.213 2570,579C2568.44,580.787 2558.89,603.88 2561,605C2563.76,606.47 2566.33,592.667 2569,594C2569.84,594.422 2562.23,608.547 2565,609C2567.77,609.453 2572,594.635 2573,595C2574.83,595.667 2566.67,613.864 2570,613C2572.11,612.453 2578,596 2578,596C2578,596 2577.56,612.547 2580,612C2582.44,611.453 2581.23,595.88 2582,594C2582.77,592.12 2583,588 2583,588C2583,588 2588.56,591.88 2591,592C2593.44,592.12 2586.89,584.547 2586,579C2585.11,573.453 2584,565 2584,565" style="fill:rgb(255,240,229);stroke:black;stroke-width:0.9px;"/>
                    </g>
                    <g transform="matrix(1,0,0,1,428.333,0)">
                        <path d="M2613,391C2613,391 2598.08,405.594 2597,411C2598.34,406.12 2597.8,399.594 2602,393" style="fill:rgb(97,80,80);stroke:black;stroke-width:0.9px;"/>
                    </g>
                    <g transform="matrix(1,0,0,1,430.333,-2)">
                        <path d="M2612,458C2612,458 2593.46,460.651 2590,469C2586.54,477.349 2567,525 2567,525L2567,572C2567,572 2584.66,570.451 2585,563C2585.34,555.549 2583,532 2583,532L2599,497" style="fill:rgb(189,63,63);stroke:black;stroke-width:0.9px;"/>
                    </g>
                    <g transform="matrix(1,0,0,1,430.333,-2)">
                        <path d="M2648,457C2648,457 2659.86,458.251 2664,462C2668.14,465.749 2696,511 2696,511L2705,554C2705,554 2691.26,564.851 2690,561C2688.74,557.149 2680,522 2680,522L2665,499" style="fill:rgb(189,63,63);stroke:black;stroke-width:0.9px;"/>
                    </g>
                    <g transform="matrix(1,0,0,1,430.333,-2)">
                        <path d="M2599,492C2599,492 2596.66,504.251 2608,508" style="fill:none;stroke:black;stroke-width:0.9px;"/>
                    </g>
                    <g transform="matrix(1,0,0,1,430.333,-2)">
                        <path d="M2605,507C2605,507 2611.66,548.051 2600,560C2614.94,570.949 2663.86,572.651 2668,557C2664.34,544.149 2655.86,516.651 2659,504" style="fill:rgb(189,63,63);stroke:black;stroke-width:0.9px;"/>
                    </g>
                    <g transform="matrix(1,0,0,1,430.333,-2)">
                        <path d="M2666,492C2666,492 2665.46,504.251 2654,506" style="fill:none;stroke:black;stroke-width:0.9px;"/>
                    </g>
                    <g transform="matrix(1,0,0,1,428.333,0)">
                        <path d="M2615,531C2615,531 2624.29,522.947 2627,525C2629.71,527.053 2632.49,528.147 2640,530C2647.51,531.853 2650.51,530.547 2653,533C2656.31,536.253 2655.29,541.547 2657,545C2658.71,548.453 2658.09,554.347 2656,556C2653.91,557.653 2651.69,569.747 2644,567C2636.31,564.253 2634.49,562.947 2628,564C2621.51,565.053 2617.49,563.547 2614,560C2610.51,556.453 2606.29,545.947 2609,542C2611.71,538.053 2616.49,534.947 2615,531Z" style="fill:rgb(209,185,152);stroke:black;stroke-width:0.9px;"/>
                    </g>
                    <g transform="matrix(1,0,0,1,428.333,0)">
                        <path d="M2630,535C2625.91,536.653 2624.89,541.147 2623,543C2621.11,544.853 2617.89,546.747 2623,553C2628.11,559.253 2633.89,561.947 2640,559C2646.11,556.053 2646.29,553.747 2647,549C2647.71,544.253 2651.09,540.347 2645,538C2638.91,535.653 2634.09,533.347 2630,535Z" style="fill:rgb(158,136,106);stroke:black;stroke-width:0.9px;"/>
                    </g>
                    <g transform="matrix(1,0,0,1,428.333,0)">
                        <circle cx="2635.5" cy="547.5" r="9.5" style="fill:none;stroke:black;stroke-width:0.9px;"/>
                    </g>
                    <g transform="matrix(1,0,0,1,428.333,0)">
                        <path d="M2688,593C2688,593 2693.25,589.725 2696,588C2698.75,586.275 2693.75,597.725 2690,603C2686.25,608.275 2684.36,613.048 2691,615C2697.64,616.952 2687.25,621.725 2690,622C2692.75,622.275 2686.25,625.725 2689,631C2691.75,636.275 2681.25,630.225 2689,640" style="fill:none;stroke:black;stroke-width:0.9px;"/>
                    </g>
                </g>
                <g transform="matrix(1,0,0,1,428.333,0)">
                    <rect x="2406" y="362" width="121" height="112" style="fill:white;stroke:black;stroke-width:0.9px;"/>
                </g>
                <g transform="matrix(1,0,0,1,11,7)">
                    <g transform="matrix(1,0,0,1,428.333,0)">
                        <path d="M2491,406.37C2491,403.958 2489.04,402 2486.63,402L2468.37,402C2465.96,402 2464,403.958 2464,406.37L2464,444.63C2464,447.042 2465.96,449 2468.37,449L2486.63,449C2489.04,449 2491,447.042 2491,444.63L2491,406.37Z" style="fill:white;stroke:black;stroke-width:0.9px;"/>
                    </g>
                    <g transform="matrix(0.914894,0,0,0.914894,639.184,36.2128)">
                        <path d="M2491,406.37C2491,403.958 2489.04,402 2486.63,402L2468.37,402C2465.96,402 2464,403.958 2464,406.37L2464,444.63C2464,447.042 2465.96,449 2468.37,449L2486.63,449C2489.04,449 2491,447.042 2491,444.63L2491,406.37Z"/>
                        <clipPath id="_clip2">
                            <path d="M2491,406.37C2491,403.958 2489.04,402 2486.63,402L2468.37,402C2465.96,402 2464,403.958 2464,406.37L2464,444.63C2464,447.042 2465.96,449 2468.37,449L2486.63,449C2489.04,449 2491,447.042 2491,444.63L2491,406.37Z"/>
                        </clipPath>
                        <g clip-path="url(#_clip2)">
                            <g transform="matrix(1.08311,0.14691,-0.14691,1.08311,-875.523,-615.699)">
                                <g opacity="0.35">
                                    <g transform="matrix(0.748228,-0.663441,-0.663441,-0.748228,1485.52,2790.59)">
                                        <path d="M2760,545L2774,540C2774,540 2781.38,532.1 2784,534C2786.62,535.9 2786.13,538.1 2785,539C2783.87,539.9 2789.63,540.85 2788,543C2786.37,545.15 2783,546 2783,546C2783,546 2786.88,550.1 2783,550C2779.12,549.9 2779,548 2779,548L2763,554" style="fill:rgb(91,80,80);"/>
                                        <clipPath id="_clip3">
                                            <path d="M2760,545L2774,540C2774,540 2781.38,532.1 2784,534C2786.62,535.9 2786.13,538.1 2785,539C2783.87,539.9 2789.63,540.85 2788,543C2786.37,545.15 2783,546 2783,546C2783,546 2786.88,550.1 2783,550C2779.12,549.9 2779,548 2779,548L2763,554"/>
                                        </clipPath>
                                        <g clip-path="url(#_clip3)">
                                            <g transform="matrix(0.748228,-0.663441,-0.663441,-0.748228,1060.37,2789.38)">
                                                <path d="M2771,529C2771,529 2771.38,550.35 2778,551C2784.62,551.65 2792.13,550.6 2789,541C2785.87,531.4 2774.88,519.1 2771,529Z" style="fill:rgb(209,203,186);stroke:black;stroke-width:0.9px;"/>
                                            </g>
                                        </g>
                                        <path d="M2760,545L2774,540C2774,540 2781.38,532.1 2784,534C2786.62,535.9 2786.13,538.1 2785,539C2783.87,539.9 2789.63,540.85 2788,543C2786.37,545.15 2783,546 2783,546C2783,546 2786.88,550.1 2783,550C2779.12,549.9 2779,548 2779,548L2763,554" style="fill:none;stroke:black;stroke-width:0.9px;"/>
                                    </g>
                                    <g transform="matrix(-0.748228,-0.663441,0.663441,-0.748228,4856.28,2796.59)">
                                        <path d="M2760,545L2774,540C2774,540 2781.38,532.1 2784,534C2786.62,535.9 2786.13,538.1 2785,539C2783.87,539.9 2789.63,540.85 2788,543C2786.37,545.15 2783,546 2783,546C2783,546 2786.88,550.1 2783,550C2779.12,549.9 2779,548 2779,548L2763,554" style="fill:rgb(91,80,80);"/>
                                        <clipPath id="_clip4">
                                            <path d="M2760,545L2774,540C2774,540 2781.38,532.1 2784,534C2786.62,535.9 2786.13,538.1 2785,539C2783.87,539.9 2789.63,540.85 2788,543C2786.37,545.15 2783,546 2783,546C2783,546 2786.88,550.1 2783,550C2779.12,549.9 2779,548 2779,548L2763,554"/>
                                        </clipPath>
                                        <g clip-path="url(#_clip4)">
                                            <g transform="matrix(0.748228,-0.663441,-0.663441,-0.748228,1060.37,2789.38)">
                                                <path d="M2771,529C2771,529 2771.38,550.35 2778,551C2784.62,551.65 2792.13,550.6 2789,541C2785.87,531.4 2774.88,519.1 2771,529Z" style="fill:rgb(209,203,186);stroke:black;stroke-width:0.9px;"/>
                                            </g>
                                        </g>
                                        <path d="M2760,545L2774,540C2774,540 2781.38,532.1 2784,534C2786.62,535.9 2786.13,538.1 2785,539C2783.87,539.9 2789.63,540.85 2788,543C2786.37,545.15 2783,546 2783,546C2783,546 2786.88,550.1 2783,550C2779.12,549.9 2779,548 2779,548L2763,554" style="fill:none;stroke:black;stroke-width:0.9px;"/>
                                    </g>
                                    <g transform="matrix(1.26418,-0.170235,0.170235,1.26418,-179.282,413.864)">
                                        <path d="M2576,451C2576,451 2571.04,468.694 2575,477C2578.96,485.306 2601.87,484.194 2604,474C2606.13,463.806 2601,451 2601,451" style="fill:rgb(85,74,74);"/>
                                        <clipPath id="_clip5">
                                            <path d="M2576,451C2576,451 2571.04,468.694 2575,477C2578.96,485.306 2601.87,484.194 2604,474C2606.13,463.806 2601,451 2601,451"/>
                                        </clipPath>
                                        <g clip-path="url(#_clip5)">
                                            <ellipse cx="2589" cy="466.5" rx="11" ry="12.5" style="fill:rgb(209,203,186);stroke:black;stroke-width:0.71px;stroke-linejoin:round;stroke-miterlimit:1.5;"/>
                                        </g>
                                        <path d="M2576,451C2576,451 2571.04,468.694 2575,477C2578.96,485.306 2601.87,484.194 2604,474C2606.13,463.806 2601,451 2601,451" style="fill:none;stroke:black;stroke-width:0.71px;stroke-linejoin:round;stroke-miterlimit:1.5;"/>
                                    </g>
                                    <g transform="matrix(0.639351,-0.504401,0.610251,0.773521,1240.25,1485.07)">
                                        <path d="M2574,434C2574,434 2566.78,427.417 2574,423C2582.92,417.542 2584.49,426.708 2585.72,428.054" style="fill:rgb(91,80,80);"/>
                                        <clipPath id="_clip6">
                                            <path d="M2574,434C2574,434 2566.78,427.417 2574,423C2582.92,417.542 2584.49,426.708 2585.72,428.054"/>
                                        </clipPath>
                                        <g clip-path="url(#_clip6)">
                                            <g transform="matrix(1.34821,0.659071,-0.79738,1.11436,-552.983,-1747.07)">
                                                <ellipse cx="2575.5" cy="429" rx="2.5" ry="3" style="fill:rgb(209,203,186);stroke:black;stroke-width:0.71px;stroke-linejoin:round;stroke-miterlimit:1.5;"/>
                                            </g>
                                        </g>
                                        <path d="M2574,434C2574,434 2566.78,427.417 2574,423C2582.92,417.542 2584.49,426.708 2585.72,428.054" style="fill:none;stroke:black;stroke-width:1px;stroke-linejoin:round;stroke-miterlimit:1.5;"/>
                                    </g>
                                    <g transform="matrix(-0.750003,-0.31731,-0.383899,0.907393,5282.25,940.375)">
                                        <path d="M2574,434C2574,434 2566.78,427.417 2574,423C2582.92,417.542 2584.49,426.708 2585.72,428.054" style="fill:rgb(91,80,80);"/>
                                        <clipPath id="_clip7">
                                            <path d="M2574,434C2574,434 2566.78,427.417 2574,423C2582.92,417.542 2584.49,426.708 2585.72,428.054"/>
                                        </clipPath>
                                        <g clip-path="url(#_clip7)">
                                            <g transform="matrix(1.34821,0.659071,-0.79738,1.11436,-552.983,-1747.07)">
                                                <ellipse cx="2575.5" cy="429" rx="2.5" ry="3" style="fill:rgb(209,203,186);stroke:black;stroke-width:0.71px;stroke-linejoin:round;stroke-miterlimit:1.5;"/>
                                            </g>
                                        </g>
                                        <path d="M2574,434C2574,434 2566.78,427.417 2574,423C2582.92,417.542 2584.49,426.708 2585.72,428.054" style="fill:none;stroke:black;stroke-width:1px;stroke-linejoin:round;stroke-miterlimit:1.5;"/>
                                    </g>
                                    <g transform="matrix(1.26418,-0.170235,0.170235,1.26418,-179.282,413.864)">
                                        <path d="M2573,436C2573,436 2574.2,419.219 2594,422C2608.05,423.973 2602.79,435.194 2605,439C2607.21,442.806 2602.79,455.861 2587,455C2571.21,454.139 2572.12,445.861 2573,436Z" style="fill:rgb(91,80,80);"/>
                                        <clipPath id="_clip8">
                                            <path d="M2573,436C2573,436 2574.2,419.219 2594,422C2608.05,423.973 2602.79,435.194 2605,439C2607.21,442.806 2602.79,455.861 2587,455C2571.21,454.139 2572.12,445.861 2573,436Z"/>
                                        </clipPath>
                                        <g clip-path="url(#_clip8)">
                                            <path d="M2578.54,440.252C2578.19,439.228 2578,438.135 2578,437C2578,431.218 2582.93,426.524 2589,426.524C2595.07,426.524 2600,431.218 2600,437C2600,438.382 2599.72,439.702 2599.21,440.911C2600.96,442.598 2602,444.709 2602,447C2602,452.519 2595.95,457 2588.5,457C2581.05,457 2575,452.519 2575,447C2575,444.4 2576.34,442.031 2578.54,440.252Z" style="fill:rgb(209,203,186);stroke:black;stroke-width:0.71px;stroke-linejoin:round;stroke-miterlimit:1.5;"/>
                                        </g>
                                        <path d="M2573,436C2573,436 2574.2,419.219 2594,422C2608.05,423.973 2602.79,435.194 2605,439C2607.21,442.806 2602.79,455.861 2587,455C2571.21,454.139 2572.12,445.861 2573,436Z" style="fill:none;stroke:black;stroke-width:0.71px;stroke-linejoin:round;stroke-miterlimit:1.5;"/>
                                    </g>
                                    <g transform="matrix(1.26418,-0.170235,0.170235,1.26418,-179.282,413.864)">
                                        <path d="M2581,449C2581,449 2586.58,453.902 2595,449" style="fill:none;stroke:black;stroke-width:0.71px;stroke-linejoin:round;stroke-miterlimit:1.5;"/>
                                    </g>
                                    <g transform="matrix(1.26418,-0.170235,0.170235,1.26418,-180.546,414.034)">
                                        <circle cx="2585" cy="439" r="1" style="stroke:black;stroke-width:0.71px;stroke-linejoin:round;stroke-miterlimit:1.5;"/>
                                    </g>
                                    <g transform="matrix(1.26418,-0.170235,0.170235,1.26418,-169.351,412.741)">
                                        <circle cx="2585" cy="439" r="1" style="stroke:black;stroke-width:0.71px;stroke-linejoin:round;stroke-miterlimit:1.5;"/>
                                    </g>
                                    <g transform="matrix(-0.63209,0.0851175,0.0851175,0.63209,4767.07,31.593)">
                                        <path d="M2588,445L2586,447" style="fill:none;stroke:black;stroke-width:1.41px;stroke-linejoin:round;stroke-miterlimit:1.5;"/>
                                    </g>
                                    <g transform="matrix(0.63209,-0.0851175,0.0851175,0.63209,1492.84,472.502)">
                                        <path d="M2588,445L2586,447" style="fill:none;stroke:black;stroke-width:1.41px;stroke-linejoin:round;stroke-miterlimit:1.5;"/>
                                    </g>
                                    <g transform="matrix(0.63209,-0.0851175,0.0851175,0.63209,1486.11,479.844)">
                                        <path d="M2588,445L2586,447" style="fill:none;stroke:black;stroke-width:1.41px;stroke-linejoin:round;stroke-miterlimit:1.5;"/>
                                    </g>
                                    <g transform="matrix(-0.63209,0.0851175,0.0851175,0.63209,4775.5,36.8925)">
                                        <path d="M2588,445L2586,447" style="fill:none;stroke:black;stroke-width:1.41px;stroke-linejoin:round;stroke-miterlimit:1.5;"/>
                                    </g>
                                </g>
                            </g>
                        </g>
                        <path d="M2491,406.37C2491,403.958 2489.04,402 2486.63,402L2468.37,402C2465.96,402 2464,403.958 2464,406.37L2464,444.63C2464,447.042 2465.96,449 2468.37,449L2486.63,449C2489.04,449 2491,447.042 2491,444.63L2491,406.37Z" style="fill:none;stroke:black;stroke-width:0.98px;"/>
                    </g>
                    <g transform="matrix(0.705682,0,0,0.705682,1153.95,115.302)">
                        <text x="2467.41px" y="425.233px" style="font-family:'Helsinki';font-size:12px;fill:white;">01:00</text>
                    </g>
                    <g transform="matrix(1,0,0,1,428.333,-1)">
                        <path d="M2481,446.75C2481,446.336 2480.66,446 2480.25,446L2474.75,446C2474.34,446 2474,446.336 2474,446.75L2474,448.25C2474,448.664 2474.34,449 2474.75,449L2480.25,449C2480.66,449 2481,448.664 2481,448.25L2481,446.75Z" style="fill:white;stroke:black;stroke-width:0.9px;"/>
                    </g>
                </g>
                <g>
                    <g transform="matrix(1,0,0,1,428.333,0)">
                        <path d="M2862,557C2862,557 2865.5,579.808 2861,588C2856.5,596.192 2820,586 2820,586C2820,586 2813.17,558.475 2862,557Z" style="fill:rgb(128,128,128);stroke:black;stroke-width:0.9px;"/>
                    </g>
                    <g transform="matrix(1,0,0,1,428.333,0)">
                        <path d="M2812,438C2812,438 2815.83,446.88 2814,452C2812.17,457.12 2834,455 2834,455C2834,455 2826.5,435.88 2830,429" style="fill:rgb(253,230,212);stroke:black;stroke-width:0.9px;"/>
                    </g>
                    <g transform="matrix(1,0,0,1,429.333,8)">
                        <path d="M2828,428C2828,428 2834.5,432.213 2840,429C2845.5,425.787 2845.17,419.88 2846,416C2846.83,412.12 2848.5,412.213 2853,408C2857.5,403.787 2848.5,391.213 2846,390C2843.5,388.787 2846.5,380.213 2842,379C2837.5,377.787 2837.83,371.213 2832,371C2826.17,370.787 2821.17,361.547 2816,365C2810.83,368.453 2806.83,362.213 2806,366C2805.17,369.787 2800.5,365.547 2797,369C2793.5,372.453 2789.17,366.213 2788,372C2786.83,377.787 2778.5,378.213 2783,384C2787.5,389.787 2789,387 2789,387" style="fill:rgb(66,63,63);stroke:black;stroke-width:0.9px;"/>
                    </g>
                    <g transform="matrix(1,0,0,1,429.333,8)">
                        <path d="M2825,427C2834.25,418.225 2830.75,396.275 2823,389C2815.25,381.725 2812.75,389.275 2808,385C2803.25,380.725 2790,384 2790,384C2790,384 2770.19,424.921 2801,438C2810.66,442.1 2825,427 2825,427Z" style="fill:rgb(253,230,212);"/>
                    </g>
                    <g transform="matrix(1,0,0,1,427.333,8)">
                        <path d="M2832,403C2832,403 2838.83,403.88 2838,410C2837.17,416.12 2833,416 2833,416" style="fill:rgb(253,230,212);stroke:black;stroke-width:0.9px;"/>
                    </g>
                    <g transform="matrix(1,0,0,1,429.333,8)">
                        <path d="M2790,384C2790,384 2770.19,424.921 2801,438C2810.66,442.1 2825,427 2825,427C2825,427 2834.13,416.6 2830,404" style="fill:none;stroke:black;stroke-width:0.9px;"/>
                    </g>
                    <g transform="matrix(1,0,0,1,429.333,8)">
                        <path d="M2792,426C2792,426 2800.17,424.213 2800,430C2799.83,435.787 2791.17,430.547 2792,429" style="fill:none;stroke:black;stroke-width:0.9px;"/>
                    </g>
                    <g transform="matrix(1,0,0,1,429.333,8)">
                        <path d="M2795,401C2795,401 2800.17,399.88 2806,402" style="fill:none;stroke:black;stroke-width:0.9px;"/>
                    </g>
                    <g transform="matrix(1,0,0,1,429.333,8)">
                        <path d="M2789,402C2789,402 2785.83,401.88 2784,403" style="fill:none;stroke:black;stroke-width:0.9px;"/>
                    </g>
                    <g transform="matrix(1,0,0,1,428.333,0)">
                        <path d="M2804,483L2761,496C2761,496 2717.83,457.547 2713,442C2708.17,426.453 2701.17,412.547 2706,416C2710.83,419.453 2709.67,427.667 2714,425C2715.02,424.37 2705.71,411.4 2710,409C2712.17,407.787 2716.45,425.044 2719,424C2721.3,423.06 2709.5,401.791 2715,402C2718.17,402.12 2721.17,420.5 2723,421C2724.83,421.5 2719.51,404.303 2724,404C2727.17,403.787 2727.35,422.244 2728,424C2730.5,430.787 2735.5,421.88 2739,420C2742.5,418.12 2736.17,430.547 2733,436C2730.06,441.056 2738,450 2738,450C2738,450 2759.5,468.88 2764,473C2768.5,477.12 2791.17,465.547 2794,464" style="fill:rgb(253,230,212);stroke:black;stroke-width:0.9px;"/>
                    </g>
                    <g transform="matrix(1,0,0,1,428.333,0)">
                        <path d="M2818,479C2818,479 2803.81,482.869 2804,483C2791.83,474.547 2794,463 2794,463C2794,463 2808.83,450.547 2822,451C2835.17,451.453 2840.06,453.069 2842,457C2847.17,467.453 2840.17,471.547 2842,478C2843.83,484.453 2860.17,548.88 2864,553C2867.83,557.12 2836.83,572.88 2827,569C2817.17,565.12 2803,552 2803,552L2795,486" style="stroke:black;stroke-width:0.9px;"/>
                    </g>
                    <g transform="matrix(1,0,0,1,429.333,8)">
                        <path d="M2796,408C2796,408 2801.83,406.547 2805,409" style="fill:none;stroke:black;stroke-width:0.9px;"/>
                    </g>
                    <g transform="matrix(1,0,0,1,429.333,8)">
                        <path d="M2789,409C2789,409 2786.83,408.547 2785,410" style="fill:none;stroke:black;stroke-width:0.9px;"/>
                    </g>
                    <g transform="matrix(1,0,0,1,428.333,0)">
                        <path d="M2864,580C2864,580 2873.83,577.808 2876,579C2878.17,580.192 2860.83,585.475 2864,587C2867.17,588.525 2878.83,591.142 2883,598" style="fill:none;stroke:black;stroke-width:0.9px;"/>
                    </g>
                    <g transform="matrix(1,0,0,1,428.333,0)">
                        <path d="M2788,437C2785.5,438.192 2789,439 2789,439C2789,439 2790.4,436.392 2793,438C2796,439.858 2795.17,433.808 2793,434C2790.83,434.192 2790.5,435.808 2788,437Z" style="fill:rgb(163,213,238);"/>
                    </g>
                </g>
                <g transform="matrix(0.990926,0.134407,-0.134407,0.990926,100.174,-435.086)">
                    <g transform="matrix(0.748228,-0.663441,-0.663441,-0.748228,1485.52,2790.59)">
                        <path d="M2760,545L2774,540C2774,540 2781.38,532.1 2784,534C2786.62,535.9 2786.13,538.1 2785,539C2783.87,539.9 2789.63,540.85 2788,543C2786.37,545.15 2783,546 2783,546C2783,546 2786.88,550.1 2783,550C2779.12,549.9 2779,548 2779,548L2763,554" style="fill:rgb(91,80,80);"/>
                        <clipPath id="_clip9">
                            <path d="M2760,545L2774,540C2774,540 2781.38,532.1 2784,534C2786.62,535.9 2786.13,538.1 2785,539C2783.87,539.9 2789.63,540.85 2788,543C2786.37,545.15 2783,546 2783,546C2783,546 2786.88,550.1 2783,550C2779.12,549.9 2779,548 2779,548L2763,554"/>
                        </clipPath>
                        <g clip-path="url(#_clip9)">
                            <g transform="matrix(0.748228,-0.663441,-0.663441,-0.748228,1060.37,2789.38)">
                                <path d="M2771,529C2771,529 2771.38,550.35 2778,551C2784.62,551.65 2792.13,550.6 2789,541C2785.87,531.4 2774.88,519.1 2771,529Z" style="fill:rgb(209,203,186);stroke:black;stroke-width:0.9px;"/>
                            </g>
                        </g>
                        <path d="M2760,545L2774,540C2774,540 2781.38,532.1 2784,534C2786.62,535.9 2786.13,538.1 2785,539C2783.87,539.9 2789.63,540.85 2788,543C2786.37,545.15 2783,546 2783,546C2783,546 2786.88,550.1 2783,550C2779.12,549.9 2779,548 2779,548L2763,554" style="fill:none;stroke:black;stroke-width:0.9px;"/>
                    </g>
                    <g transform="matrix(-0.748228,-0.663441,0.663441,-0.748228,4856.28,2796.59)">
                        <path d="M2760,545L2774,540C2774,540 2781.38,532.1 2784,534C2786.62,535.9 2786.13,538.1 2785,539C2783.87,539.9 2789.63,540.85 2788,543C2786.37,545.15 2783,546 2783,546C2783,546 2786.88,550.1 2783,550C2779.12,549.9 2779,548 2779,548L2763,554" style="fill:rgb(91,80,80);"/>
                        <clipPath id="_clip10">
                            <path d="M2760,545L2774,540C2774,540 2781.38,532.1 2784,534C2786.62,535.9 2786.13,538.1 2785,539C2783.87,539.9 2789.63,540.85 2788,543C2786.37,545.15 2783,546 2783,546C2783,546 2786.88,550.1 2783,550C2779.12,549.9 2779,548 2779,548L2763,554"/>
                        </clipPath>
                        <g clip-path="url(#_clip10)">
                            <g transform="matrix(0.748228,-0.663441,-0.663441,-0.748228,1060.37,2789.38)">
                                <path d="M2771,529C2771,529 2771.38,550.35 2778,551C2784.62,551.65 2792.13,550.6 2789,541C2785.87,531.4 2774.88,519.1 2771,529Z" style="fill:rgb(209,203,186);stroke:black;stroke-width:0.9px;"/>
                            </g>
                        </g>
                        <path d="M2760,545L2774,540C2774,540 2781.38,532.1 2784,534C2786.62,535.9 2786.13,538.1 2785,539C2783.87,539.9 2789.63,540.85 2788,543C2786.37,545.15 2783,546 2783,546C2783,546 2786.88,550.1 2783,550C2779.12,549.9 2779,548 2779,548L2763,554" style="fill:none;stroke:black;stroke-width:0.9px;"/>
                    </g>
                    <g transform="matrix(1.26418,-0.170235,0.170235,1.26418,-179.282,413.864)">
                        <path d="M2576,451C2576,451 2571.04,468.694 2575,477C2578.96,485.306 2601.87,484.194 2604,474C2606.13,463.806 2601,451 2601,451" style="fill:rgb(85,74,74);"/>
                        <clipPath id="_clip11">
                            <path d="M2576,451C2576,451 2571.04,468.694 2575,477C2578.96,485.306 2601.87,484.194 2604,474C2606.13,463.806 2601,451 2601,451"/>
                        </clipPath>
                        <g clip-path="url(#_clip11)">
                            <ellipse cx="2589" cy="466.5" rx="11" ry="12.5" style="fill:rgb(209,203,186);stroke:black;stroke-width:0.71px;stroke-linejoin:round;stroke-miterlimit:1.5;"/>
                        </g>
                        <path d="M2576,451C2576,451 2571.04,468.694 2575,477C2578.96,485.306 2601.87,484.194 2604,474C2606.13,463.806 2601,451 2601,451" style="fill:none;stroke:black;stroke-width:0.71px;stroke-linejoin:round;stroke-miterlimit:1.5;"/>
                    </g>
                    <g transform="matrix(0.639351,-0.504401,0.610251,0.773521,1240.25,1485.07)">
                        <path d="M2574,434C2574,434 2566.78,427.417 2574,423C2582.92,417.542 2584.49,426.708 2585.72,428.054" style="fill:rgb(91,80,80);"/>
                        <clipPath id="_clip12">
                            <path d="M2574,434C2574,434 2566.78,427.417 2574,423C2582.92,417.542 2584.49,426.708 2585.72,428.054"/>
                        </clipPath>
                        <g clip-path="url(#_clip12)">
                            <g transform="matrix(1.34821,0.659071,-0.79738,1.11436,-552.983,-1747.07)">
                                <ellipse cx="2575.5" cy="429" rx="2.5" ry="3" style="fill:rgb(209,203,186);stroke:black;stroke-width:0.71px;stroke-linejoin:round;stroke-miterlimit:1.5;"/>
                            </g>
                        </g>
                        <path d="M2574,434C2574,434 2566.78,427.417 2574,423C2582.92,417.542 2584.49,426.708 2585.72,428.054" style="fill:none;stroke:black;stroke-width:1px;stroke-linejoin:round;stroke-miterlimit:1.5;"/>
                    </g>
                    <g transform="matrix(-0.750003,-0.31731,-0.383899,0.907393,5282.25,940.375)">
                        <path d="M2574,434C2574,434 2566.78,427.417 2574,423C2582.92,417.542 2584.49,426.708 2585.72,428.054" style="fill:rgb(91,80,80);"/>
                        <clipPath id="_clip13">
                            <path d="M2574,434C2574,434 2566.78,427.417 2574,423C2582.92,417.542 2584.49,426.708 2585.72,428.054"/>
                        </clipPath>
                        <g clip-path="url(#_clip13)">
                            <g transform="matrix(1.34821,0.659071,-0.79738,1.11436,-552.983,-1747.07)">
                                <ellipse cx="2575.5" cy="429" rx="2.5" ry="3" style="fill:rgb(209,203,186);stroke:black;stroke-width:0.71px;stroke-linejoin:round;stroke-miterlimit:1.5;"/>
                            </g>
                        </g>
                        <path d="M2574,434C2574,434 2566.78,427.417 2574,423C2582.92,417.542 2584.49,426.708 2585.72,428.054" style="fill:none;stroke:black;stroke-width:1px;stroke-linejoin:round;stroke-miterlimit:1.5;"/>
                    </g>
                    <g transform="matrix(1.26418,-0.170235,0.170235,1.26418,-179.282,413.864)">
                        <path d="M2573,436C2573,436 2574.2,419.219 2594,422C2608.05,423.973 2602.79,435.194 2605,439C2607.21,442.806 2602.79,455.861 2587,455C2571.21,454.139 2572.12,445.861 2573,436Z" style="fill:rgb(91,80,80);"/>
                        <clipPath id="_clip14">
                            <path d="M2573,436C2573,436 2574.2,419.219 2594,422C2608.05,423.973 2602.79,435.194 2605,439C2607.21,442.806 2602.79,455.861 2587,455C2571.21,454.139 2572.12,445.861 2573,436Z"/>
                        </clipPath>
                        <g clip-path="url(#_clip14)">
                            <path d="M2578.54,440.252C2578.19,439.228 2578,438.135 2578,437C2578,431.218 2582.93,426.524 2589,426.524C2595.07,426.524 2600,431.218 2600,437C2600,438.382 2599.72,439.702 2599.21,440.911C2600.96,442.598 2602,444.709 2602,447C2602,452.519 2595.95,457 2588.5,457C2581.05,457 2575,452.519 2575,447C2575,444.4 2576.34,442.031 2578.54,440.252Z" style="fill:rgb(209,203,186);stroke:black;stroke-width:0.71px;stroke-linejoin:round;stroke-miterlimit:1.5;"/>
                        </g>
                        <path d="M2573,436C2573,436 2574.2,419.219 2594,422C2608.05,423.973 2602.79,435.194 2605,439C2607.21,442.806 2602.79,455.861 2587,455C2571.21,454.139 2572.12,445.861 2573,436Z" style="fill:none;stroke:black;stroke-width:0.71px;stroke-linejoin:round;stroke-miterlimit:1.5;"/>
                    </g>
                    <g transform="matrix(1.26418,-0.170235,0.170235,1.26418,-179.282,413.864)">
                        <path d="M2581,449C2581,449 2586.58,453.902 2595,449" style="fill:none;stroke:black;stroke-width:0.71px;stroke-linejoin:round;stroke-miterlimit:1.5;"/>
                    </g>
                    <g transform="matrix(1.26418,-0.170235,0.170235,1.26418,-180.546,414.034)">
                        <circle cx="2585" cy="439" r="1" style="stroke:black;stroke-width:0.71px;stroke-linejoin:round;stroke-miterlimit:1.5;"/>
                    </g>
                    <g transform="matrix(1.26418,-0.170235,0.170235,1.26418,-169.351,412.741)">
                        <circle cx="2585" cy="439" r="1" style="stroke:black;stroke-width:0.71px;stroke-linejoin:round;stroke-miterlimit:1.5;"/>
                    </g>
                    <g transform="matrix(-0.63209,0.0851175,0.0851175,0.63209,4767.07,31.593)">
                        <path d="M2588,445L2586,447" style="fill:none;stroke:black;stroke-width:1.41px;stroke-linejoin:round;stroke-miterlimit:1.5;"/>
                    </g>
                    <g transform="matrix(0.63209,-0.0851175,0.0851175,0.63209,1492.84,472.502)">
                        <path d="M2588,445L2586,447" style="fill:none;stroke:black;stroke-width:1.41px;stroke-linejoin:round;stroke-miterlimit:1.5;"/>
                    </g>
                    <g transform="matrix(0.63209,-0.0851175,0.0851175,0.63209,1486.11,479.844)">
                        <path d="M2588,445L2586,447" style="fill:none;stroke:black;stroke-width:1.41px;stroke-linejoin:round;stroke-miterlimit:1.5;"/>
                    </g>
                    <g transform="matrix(-0.63209,0.0851175,0.0851175,0.63209,4775.5,36.8925)">
                        <path d="M2588,445L2586,447" style="fill:none;stroke:black;stroke-width:1.41px;stroke-linejoin:round;stroke-miterlimit:1.5;"/>
                    </g>
                </g>
                <g>
                    <g transform="matrix(1,0,0,1,428.333,0)">
                        <path d="M2508,622C2508,622 2531.67,612.975 2552,603C2572.33,593.025 2595,570.308 2607,568C2619,565.692 2660.33,571.642 2676,572C2691.67,572.358 2701.67,557.642 2721,556C2740.33,554.358 2775,554.308 2782,556C2789,557.692 2798.33,543.642 2804,548C2809.67,552.358 2825,566.308 2852,570C2879,573.692 2886.33,555.642 2902,558C2917.67,560.358 2928.33,569.642 2934,569C2939.67,568.358 2938.33,575.642 2934,586C2929.67,596.358 2926.33,609.642 2932,635C2937.67,660.358 2941.67,666.308 2938,684C2934.33,701.692 2932.33,715.642 2939,732C2945.67,748.358 2928.33,745.642 2936,762C2943.67,778.358 2933,779.642 2938,796C2943,812.358 2935,810.308 2929,819C2923,827.692 2931,845.308 2920,857C2913.37,864.046 2892.67,857.975 2845,863C2797.33,868.025 2564,874.308 2557,866C2550,857.692 2544,877.642 2541,853C2538,828.358 2537.67,768.975 2536,754C2534.33,739.025 2519.67,734.308 2526,704C2532.33,673.692 2501.67,641.642 2508,622Z" style="fill:rgb(138,192,209);stroke:black;stroke-width:0.9px;"/>
                    </g>
                    <g transform="matrix(1,0,0,1,428.333,0)">
                        <path d="M2714,650C2714,650 2736.83,574.808 2743,567" style="fill:none;stroke:black;stroke-width:0.9px;"/>
                    </g>
                    <g transform="matrix(1,0,0,1,428.333,0)">
                        <path d="M2737,685C2737,685 2737.17,663.808 2731,665C2724.83,666.192 2746.5,631.142 2750,630C2753.5,628.858 2761.83,635.808 2768,640" style="fill:none;stroke:black;stroke-width:0.9px;"/>
                    </g>
                    <g transform="matrix(1,0,0,1,428.333,0)">
                        <path d="M2759,617L2755,623C2755,623 2762.83,627.475 2765,631" style="fill:none;stroke:black;stroke-width:0.9px;"/>
                    </g>
                    <g transform="matrix(1,0,0,1,428.333,0)">
                        <path d="M2778,604C2778,604 2770.17,595.808 2769,601C2767.83,606.192 2766.5,602.475 2770,610C2773.5,617.525 2776.83,621.475 2777,629" style="fill:none;stroke:black;stroke-width:0.9px;"/>
                    </g>
                    <g transform="matrix(1,0,0,1,428.333,0)">
                        <path d="M2731,705C2731,705 2727.5,694.808 2732,697C2736.5,699.192 2739,704 2739,704" style="fill:none;stroke:black;stroke-width:0.9px;"/>
                    </g>
                    <g transform="matrix(1,0,0,1,428.333,0)">
                        <path d="M2814,628L2802,636L2817,633" style="fill:none;stroke:black;stroke-width:0.9px;"/>
                    </g>
                    <g transform="matrix(1,0,0,1,428.333,0)">
                        <path d="M2811,641C2811,641 2823.5,631.808 2813,654" style="fill:none;stroke:black;stroke-width:0.9px;"/>
                    </g>
                    <g transform="matrix(1,0,0,1,428.333,0)">
                        <path d="M2856,632C2856,632 2851.83,640.808 2856,645C2860.17,649.192 2857.83,652.808 2858,656C2858.17,659.192 2853,656 2853,656L2861,665C2861,665 2859.83,665.142 2865,673" style="fill:none;stroke:black;stroke-width:0.9px;"/>
                    </g>
                    <g transform="matrix(1,0,0,1,428.333,0)">
                        <path d="M2820,657C2820,657 2811.17,671.808 2815,670C2818.83,668.192 2820.83,670.475 2819,673C2817.17,675.525 2816.83,680.142 2822,680C2827.17,679.858 2828,689 2828,689C2828,689 2832.83,703.475 2832,710C2831.17,716.525 2824,724 2824,724" style="fill:none;stroke:black;stroke-width:0.9px;"/>
                    </g>
                    <g transform="matrix(1,0,0,1,428.333,0)">
                        <path d="M2775,693C2775,693 2792,685.667 2809,689" style="fill:none;stroke:black;stroke-width:0.9px;"/>
                    </g>
                    <g transform="matrix(1,0,0,1,428.333,0)">
                        <path d="M2773,719C2773,719 2789.83,701.142 2800,698" style="fill:none;stroke:black;stroke-width:0.9px;"/>
                    </g>
                    <g transform="matrix(1,0,0,1,428.333,0)">
                        <path d="M2570,644C2570,644 2586,639 2588,640C2590,641 2578.25,650.725 2582,650C2585.75,649.275 2575,663 2575,663C2575,663 2564.83,670.667 2567,671C2569.17,671.333 2584.25,663.225 2588,665" style="fill:none;stroke:black;stroke-width:0.9px;"/>
                    </g>
                    <g transform="matrix(1,0,0,1,428.333,0)">
                        <path d="M2644,642C2644,642 2635.83,644.5 2636,646C2636.17,647.5 2650.25,647.225 2645,651C2639.75,654.775 2637.5,657.333 2637,660C2636.5,662.667 2644.25,658.225 2642,667C2639.75,675.775 2639,684 2639,684" style="fill:none;stroke:black;stroke-width:0.9px;"/>
                    </g>
                    <g transform="matrix(1,0,0,1,428.333,0)">
                        <path d="M2561,717C2561,717 2587.25,692.225 2588,699C2588.75,705.775 2576.25,707.725 2583,711" style="fill:none;stroke:black;stroke-width:0.9px;"/>
                    </g>
                    <g transform="matrix(1,0,0,1,428.333,0)">
                        <path d="M2567,731C2567,731 2587.25,717.225 2585,724C2582.75,730.775 2565.25,749.725 2567,749C2568.75,748.275 2586.75,737.725 2592,737C2597.25,736.275 2583.25,754.725 2587,754C2590.75,753.275 2586.25,759.225 2587,762C2587.75,764.775 2579.25,771.725 2584,774C2588.75,776.275 2585.25,787.225 2585,789" style="fill:none;stroke:black;stroke-width:0.9px;"/>
                    </g>
                    <g transform="matrix(1,0,0,1,428.333,0)">
                        <path d="M2698,704C2698,704 2680.25,710.225 2688,712C2695.75,713.775 2699.25,717.225 2698,722C2696.75,726.775 2697.25,729.225 2700,730C2702.75,730.775 2693.75,739.225 2693,742C2692.25,744.775 2703.25,735.225 2710,740" style="fill:none;stroke:black;stroke-width:0.9px;"/>
                    </g>
                    <g transform="matrix(1,0,0,1,428.333,0)">
                        <path d="M2824,781C2824,781 2794.25,785.725 2800,789C2805.75,792.275 2798.75,798.225 2792,801C2785.25,803.775 2773.75,804.225 2781,808C2788.25,811.775 2774,812 2774,812" style="fill:none;stroke:black;stroke-width:0.9px;"/>
                    </g>
                    <g transform="matrix(1,0,0,1,428.333,0)">
                        <path d="M2867,730L2898,733C2898,733 2869.25,737.725 2865,744C2860.75,750.275 2863.75,746.725 2867,750C2870.25,753.275 2859.25,752.225 2865,756C2870.75,759.775 2871.25,762.725 2869,765C2866.75,767.275 2863.75,773.225 2870,775" style="fill:none;stroke:black;stroke-width:0.9px;"/>
                    </g>
                </g>
                <g transform="matrix(1,0,0,1,13,11.7648)">
                    <g transform="matrix(1,0,0,1,428.333,0)">
                        <rect x="2413" y="373" width="21" height="21" style="fill:rgb(128,128,128);stroke:black;stroke-width:0.9px;"/>
                    </g>
                    <g transform="matrix(1,0,0,1,428.333,0)">
                        <path d="M2434,381C2434,381 2451.82,377.642 2458,370C2464.18,362.358 2465.82,352.842 2476,356C2486.18,359.158 2506.41,359.077 2527,351.235" style="fill:none;stroke:black;stroke-width:0.9px;"/>
                    </g>
                    <g transform="matrix(1,0,0,1,428.333,0)">
                        <path d="M2424,355C2439.45,355 2452,367.546 2452,383C2452,398.454 2439.45,411 2424,411C2408.55,411 2396,398.454 2396,383C2396,367.546 2408.55,355 2424,355ZM2424,358C2437.8,358 2449,369.202 2449,383C2449,396.798 2437.8,408 2424,408C2410.2,408 2399,396.798 2399,383C2399,369.202 2410.2,358 2424,358Z" style="fill:rgb(113,78,76);stroke:black;stroke-width:0.9px;"/>
                    </g>
                    <g transform="matrix(1,0,0,1,428.333,0)">
                        <circle cx="2424" cy="384" r="8" style="fill:none;stroke:black;stroke-width:0.9px;"/>
                    </g>
                    <g transform="matrix(1,0,0,1,428.333,0)">
                        <path d="M2413,361L2420,377" style="fill:none;stroke:black;stroke-width:0.9px;"/>
                    </g>
                    <g transform="matrix(1,0,0,1,428.333,0)">
                        <path d="M2430,378L2440,364" style="fill:none;stroke:black;stroke-width:0.9px;"/>
                    </g>
                    <g transform="matrix(1,0,0,1,428.333,0)">
                        <path d="M2416,385L2400,386" style="fill:none;stroke:black;stroke-width:0.9px;"/>
                    </g>
                    <g transform="matrix(1,0,0,1,428.333,0)">
                        <path d="M2424,393L2423,407" style="fill:none;stroke:black;stroke-width:0.9px;"/>
                    </g>
                    <g transform="matrix(1,0,0,1,428.333,0)">
                        <path d="M2432,387L2447,391" style="fill:none;stroke:black;stroke-width:0.9px;"/>
                    </g>
                    <g transform="matrix(1.11111,0,0,1.11111,158.444,-44.3333)">
                        <circle cx="2424.5" cy="385.5" r="4.5" style="fill:rgb(249,239,187);stroke:black;stroke-width:0.81px;"/>
                    </g>
                </g>
            </g>
            <g transform="matrix(1,0,0,1.05882,467.333,-29.6471)">
                <text x="2491.47px" y="122.45px" style="font-family:'HelvetiHand';font-weight:500;font-size:17px;fill:white;">C&apos;est horrible, je ne peux pas bouger.</text>
            </g>
            <g transform="matrix(1,0,0,1.05882,516.333,22.2353)">
                <g>
                    <text x="2488.76px" y="122.45px" style="font-family:'HelvetiHand';font-weight:500;font-size:17px;fill:white;">J&apos;ai mal au dos, au ventre, aux jambes, je ne</text>
                    <text x="2592.85px" y="140.98px" style="font-family:'HelvetiHand';font-weight:500;font-size:17px;fill:white;">peux pas bouger.</text>
                </g>
            </g>
            <g transform="matrix(1,0,0,1.05882,641.333,160.941)">
                <text x="2494.68px" y="122.45px" style="font-family:'HelvetiHand';font-weight:500;font-size:17px;fill:white;">Quelle heure il est ?</text>
            </g>
            <g transform="matrix(1,0,0,1.05882,529.333,110.118)">
                <g>
                    <text x="2496.59px" y="122.45px" style="font-family:'HelvetiHand';font-weight:500;font-size:17px;fill:white;">La glace a fondu</text>
                    <text x="2626.41px" y="122.45px" style="font-family:'ArialMT', 'Arial', sans-serif;font-size:17px;fill:white;"></text>
                </g>
            </g>
            <g transform="matrix(1,0,0,1.05882,445.333,216)">
                <text x="2495.12px" y="122.45px" style="font-family:'HelvetiHand';font-weight:500;font-size:17px;fill:white;">J&apos;ai vraiment mal, je veux de la glace.</text>
            </g>
            <g transform="matrix(1,0,0,1.05882,540.333,290.118)">
                <text x="2489.27px" y="122.45px" style="font-family:'HelvetiHand';font-weight:500;font-size:17px;fill:white;">Regardez le dormir paisiblement sur le ct.</text>
            </g>
            <g transform="matrix(1,0,0,1.05882,487.667,945.176)">
                <text x="2556.73px" y="122.45px" style="font-family:'HelvetiHand';font-weight:500;font-size:17px;fill:white;">Bon tant pis, je le rveille !</text>
            </g>
        </g>
    </g>
</svg>
