<?xml version="1.0" encoding="UTF-8" standalone="no"?>
<!DOCTYPE svg PUBLIC "-//W3C//DTD SVG 1.1//EN" "http://www.w3.org/Graphics/SVG/1.1/DTD/svg11.dtd">
<svg width="100%" height="100%" viewBox="0 0 720 1114" version="1.1" xmlns="http://www.w3.org/2000/svg" xmlns:xlink="http://www.w3.org/1999/xlink" xml:space="preserve" xmlns:serif="http://www.serif.com/" style="fill-rule:evenodd;clip-rule:evenodd;stroke-linecap:round;stroke-linejoin:round;stroke-miterlimit:1.5;">
    <g transform="matrix(1,0,0,1,-3841,-25)">
        <g id="Plan-de-travail8" serif:id="Plan de travail8" transform="matrix(1,0,0,0.951324,-1549,25)">
            <rect x="5390" y="0" width="720" height="1171" style="fill:none;"/>
            <g transform="matrix(1,0,0,1.05117,4625.97,-61.7346)">
                <path d="M826,94C819.333,119.667 823,137.333 823,214C823,280.281 822.874,686.066 821,739C818.333,814.333 808,1138 825,1136C864.838,1131.31 1414,1148.67 1437,1131C1460,1113.33 1434,953.333 1441,868C1446.77,797.695 1443.33,656.333 1443,615C1442.78,587.82 1432,238.667 1440,164C1439.24,98.758 1442.33,96.667 1429,94C1399.67,94.333 861.769,88.729 826,94Z" style="fill:none;"/>
                <clipPath id="_clip1">
                    <path d="M826,94C819.333,119.667 823,137.333 823,214C823,280.281 822.874,686.066 821,739C818.333,814.333 808,1138 825,1136C864.838,1131.31 1414,1148.67 1437,1131C1460,1113.33 1434,953.333 1441,868C1446.77,797.695 1443.33,656.333 1443,615C1442.78,587.82 1432,238.667 1440,164C1439.24,98.758 1442.33,96.667 1429,94C1399.67,94.333 861.769,88.729 826,94Z"/>
                </clipPath>
                <g clip-path="url(#_clip1)">
                    <g transform="matrix(1,0,0,2.97654,-1.55102,-2209.76)">
                        <path d="M814,1130C814,1130 792.881,789.125 814,772C835.119,754.875 1379.88,740.605 1460,780.937C1480.12,833.812 1477.55,1127.53 1440,1127.31C1381.12,1139.19 814,1130 814,1130Z" style="fill:rgb(20,20,20);"/>
                    </g>
                </g>
            </g>
            <g transform="matrix(1,0,0,1.05117,1681.67,843.036)">
                <g>
                    <text x="3981.91px" y="136.577px" style="font-family:'HelvetiHand';font-weight:500;font-size:24px;fill:white;">Et votre rêve s&apos;est</text>
                    <text x="4039.09px" y="162.737px" style="font-family:'HelvetiHand';font-weight:500;font-size:24px;fill:white;">réalisé !</text>
                </g>
            </g>
            <g transform="matrix(1,0,0,1.05117,3092.42,-26.2792)">
                <path d="M2369,555.602C2369,555.602 2512.17,502.519 2652,552.301C2527.83,589.615 2369,555.602 2369,555.602ZM2961,555.602C2961,555.602 2817.83,502.519 2678,552.301C2802.17,589.615 2961,555.602 2961,555.602Z" style="fill:white;"/>
                <clipPath id="_clip2">
                    <path d="M2369,555.602C2369,555.602 2512.17,502.519 2652,552.301C2527.83,589.615 2369,555.602 2369,555.602ZM2961,555.602C2961,555.602 2817.83,502.519 2678,552.301C2802.17,589.615 2961,555.602 2961,555.602Z"/>
                </clipPath>
                <g clip-path="url(#_clip2)">
                    <g transform="matrix(1.18692,0,-5.55112e-17,1.44151,-1313.04,-108.721)">
                        <g transform="matrix(1,0,-0.31,0.29,188.07,282.87)">
                            <rect x="3185" y="397" width="104" height="100" style="fill:rgb(233,233,233);stroke:rgb(160,160,160);stroke-width:5.49px;"/>
                        </g>
                        <g transform="matrix(1,0,-0.31,0.29,158.07,312.87)">
                            <rect x="3185" y="397" width="104" height="100" style="fill:white;stroke:rgb(160,160,160);stroke-width:5.49px;"/>
                        </g>
                        <g transform="matrix(1,0,-0.31,0.29,128.737,342.203)">
                            <rect x="3185" y="397" width="104" height="100" style="fill:rgb(233,233,233);stroke:rgb(160,160,160);stroke-width:5.49px;"/>
                        </g>
                        <g transform="matrix(1,0,-0.31,0.29,83.4033,282.87)">
                            <rect x="3185" y="397" width="104" height="100" style="fill:rgb(233,233,233);stroke:rgb(160,160,160);stroke-width:5.49px;"/>
                        </g>
                        <g transform="matrix(1,0,-0.31,0.29,53.4033,312.87)">
                            <rect x="3185" y="397" width="104" height="100" style="fill:rgb(233,233,233);stroke:rgb(160,160,160);stroke-width:5.49px;"/>
                        </g>
                        <g transform="matrix(1,0,-0.31,0.29,24.07,342.203)">
                            <rect x="3185" y="397" width="104" height="100" style="fill:rgb(233,233,233);stroke:rgb(160,160,160);stroke-width:5.49px;"/>
                        </g>
                        <g transform="matrix(1,0,-0.31,0.29,292.737,282.87)">
                            <rect x="3185" y="397" width="104" height="100" style="fill:rgb(233,233,233);stroke:rgb(160,160,160);stroke-width:5.49px;"/>
                        </g>
                        <g transform="matrix(1,0,-0.31,0.29,262.737,312.87)">
                            <rect x="3185" y="397" width="104" height="100" style="fill:rgb(233,233,233);stroke:rgb(160,160,160);stroke-width:5.49px;"/>
                        </g>
                        <g transform="matrix(1,0,-0.31,0.29,233.403,342.203)">
                            <rect x="3185" y="397" width="104" height="100" style="fill:rgb(233,233,233);stroke:rgb(160,160,160);stroke-width:5.49px;"/>
                        </g>
                        <g transform="matrix(1,0,-0.31,0.29,397.403,282.87)">
                            <rect x="3185" y="397" width="104" height="100" style="fill:rgb(233,233,233);stroke:rgb(160,160,160);stroke-width:5.49px;"/>
                        </g>
                        <g transform="matrix(1,0,-0.31,0.29,367.403,312.87)">
                            <rect x="3185" y="397" width="104" height="100" style="fill:white;stroke:rgb(160,160,160);stroke-width:5.49px;"/>
                        </g>
                        <g transform="matrix(1,0,-0.31,0.29,338.07,342.203)">
                            <rect x="3185" y="397" width="104" height="100" style="fill:rgb(233,233,233);stroke:rgb(160,160,160);stroke-width:5.49px;"/>
                        </g>
                        <g transform="matrix(1,0,-0.31,0.29,500.737,282.87)">
                            <rect x="3185" y="397" width="104" height="100" style="fill:rgb(233,233,233);stroke:rgb(160,160,160);stroke-width:5.49px;"/>
                        </g>
                        <g transform="matrix(1,0,-0.31,0.29,470.737,312.87)">
                            <rect x="3185" y="397" width="104" height="100" style="fill:rgb(233,233,233);stroke:rgb(160,160,160);stroke-width:5.49px;"/>
                        </g>
                        <g transform="matrix(1,0,-0.31,0.29,441.403,342.203)">
                            <rect x="3185" y="397" width="104" height="100" style="fill:rgb(233,233,233);stroke:rgb(160,160,160);stroke-width:5.49px;"/>
                        </g>
                    </g>
                    <g transform="matrix(3.02503,0,-0.140828,0.16,-7063.33,479.48)">
                        <rect x="3185" y="397" width="104" height="100" style="fill:white;stroke:rgb(76,76,76);stroke-width:1.22px;"/>
                    </g>
                    <g transform="matrix(1,0,-0.208333,0.333333,-625.958,417.333)">
                        <path d="M3521,395C3521,391.689 3520.1,389 3519,389L3237,389C3235.9,389 3235,391.689 3235,395L3235,407C3235,410.311 3235.9,413 3237,413L3519,413C3520.1,413 3521,410.311 3521,407L3521,395Z" style="fill:white;stroke:rgb(202,202,202);stroke-width:3.29px;"/>
                    </g>
                </g>
            </g>
            <g transform="matrix(0.9965,0.0878687,-0.120936,1.51545,3123.07,251.31)">
                <path d="M2589.28,197.325C2574.03,205.31 2581.98,250.957 2613.82,250.699C2650.63,250.401 2753.56,255.673 2754.06,223.839C2754.55,192.006 2737.84,188.5 2721,190C2704.16,191.5 2606.78,188.158 2589.28,197.325Z" style="fill:white;"/>
            </g>
            <g transform="matrix(1,0,0,1.05117,3140.67,147.163)">
                <text x="2538.75px" y="174.577px" style="font-family:'HelvetiHand';font-weight:500;font-size:24px;fill:white;">Réveillez-vous !</text>
            </g>
            <g transform="matrix(1,0,0,1.05117,3161.42,627.196)">
                <g>
                    <text x="2526.37px" y="169.45px" style="font-family:'HelvetiHand';font-weight:500;font-size:17px;">Hmmm</text>
                    <text x="2579.03px" y="169.45px" style="font-family:'ArialMT', 'Arial', sans-serif;font-size:17px;">…</text>
                    <text x="2601.13px" y="169.45px" style="font-family:'HelvetiHand';font-weight:500;font-size:17px;">J&apos;ai rêvé</text>
                    <text x="2531.74px" y="187.98px" style="font-family:'HelvetiHand';font-weight:500;font-size:17px;">que je me faisais</text>
                    <text x="2570.96px" y="206.51px" style="font-family:'HelvetiHand';font-weight:500;font-size:17px;">opérer</text>
                </g>
            </g>
            <g transform="matrix(1,0,0,1.05117,2323.42,-26.2792)">
                <path d="M3358,768C3358,768 3332,759.833 3331,692C3324.67,736.833 3354,779 3354,779" style="fill:white;"/>
            </g>
        </g>
    </g>
</svg>
