<?xml version="1.0" encoding="UTF-8" standalone="no"?><!DOCTYPE svg PUBLIC "-//W3C//DTD SVG 1.1//EN" "http://www.w3.org/Graphics/SVG/1.1/DTD/svg11.dtd"><svg width="100%" height="100%" viewBox="0 0 226 226" version="1.1" xmlns="http://www.w3.org/2000/svg" xmlns:xlink="http://www.w3.org/1999/xlink" xml:space="preserve" xmlns:serif="http://www.serif.com/" style="fill-rule:evenodd;clip-rule:evenodd;stroke-linecap:round;stroke-linejoin:round;stroke-miterlimit:1.5;"><rect id="Plan-de-travail1" serif:id="Plan de travail1" x="0" y="0" width="225.596" height="225.325" style="fill:none;"/><circle cx="113.063" cy="111.975" r="108.931" style="fill:none;"/><clipPath id="_clip1"><circle cx="113.063" cy="111.975" r="108.931"/></clipPath><g clip-path="url(#_clip1)"><g><path d="M64.566,-1.278l126.927,-4.009c0,0 13.859,1.114 9.353,18.705c-4.506,17.592 0.052,84.841 6.68,89.518c6.628,4.676 3.17,20.264 -5.344,25.385c-8.514,5.122 -171.411,2.004 -180.371,13.361c-8.959,11.357 3.616,-93.303 1.336,-98.87c-2.279,-5.567 -15.535,-27.389 -10.688,-34.738c4.846,-7.348 52.107,-9.352 52.107,-9.352Z" style="fill:#dce5e9;stroke:#000;stroke-width:0.9px;"/><path d="M68.574,70.87c0,0 -18.183,4.622 -21.377,1.336c-3.194,-3.286 -10.969,-0.188 -8.017,2.672c2.953,2.86 6.401,1.683 6.681,4.008c0.28,2.326 0,-4.008 0,-4.008c0,0 6.667,0.881 8.016,2.672c1.349,1.791 0.789,1.149 -5.344,8.017c-6.133,6.868 -1.208,16.402 -1.336,10.688c-0.254,-11.302 2.392,-3.127 5.344,-8.016c2.952,-4.89 10.689,-8.017 10.689,-8.017c0,0 -3.22,15.311 -5.344,17.369c-2.125,2.059 -8.832,2.485 -5.345,4.009c3.487,1.523 6.681,0 6.681,0c0,0 3.46,-14.083 8.016,-14.697c4.556,-0.614 78.829,-6.681 78.829,-6.681c0,0 8.538,6.493 9.352,10.689c0.815,4.196 0.255,5.424 4.009,1.336c3.753,-4.088 3.193,-6.066 1.336,-5.344c-1.858,0.722 0.254,1.683 -4.009,-2.672c-4.262,-4.355 -2.672,-5.345 -2.672,-5.345c0,0 7.469,0.347 9.353,-2.672c1.883,-3.019 8.805,-0.455 9.352,1.336c0.548,1.791 0.789,-4.997 -2.672,-5.344c-3.461,-0.347 -8.831,0.614 -10.688,0c-1.858,-0.614 3.728,-0.188 6.68,-4.008c2.952,-3.821 1.056,-0.455 1.336,-6.681c0.28,-6.225 8.538,-6.868 9.353,-4.008c0.814,2.86 -5.358,-9.54 -9.353,-4.008c-3.995,5.532 -7.495,16.647 -9.353,14.697c-1.857,-1.95 -41.418,-16.033 -41.418,-16.033l-48.099,18.705" style="fill:#615050;stroke:#000;stroke-width:0.9px;"/><path d="M67.238,76.933c0,0 -8.67,-2.393 -9.352,6.681c-0.683,9.074 12.024,6.68 12.024,6.68" style="fill:#fff0e5;stroke:#000;stroke-width:0.9px;"/><path d="M150.075,74.261c0,0 8.031,-1.058 6.68,6.681c-2.077,11.905 -9.352,5.344 -9.352,5.344" style="fill:#fff0e5;stroke:#000;stroke-width:0.9px;"/><path d="M104.648,118.352l-1.336,9.352l-14.697,6.681c0,0 2.609,10.198 20.042,9.352c22.95,-1.113 18.705,-9.352 18.705,-9.352l-14.697,-6.681l0,-9.352l-8.017,0Z" style="fill:#fff0e5;"/><path d="M150.072,68.917c0,0 -24.042,-8.923 -41.384,-10.689c-17.342,-1.765 -40.131,12.025 -40.131,12.025c0,0 -6.126,48.997 41.385,48.099c41.214,-0.78 40.13,-49.435 40.13,-49.435Z" style="fill:#fff0e5;"/><path d="M68.557,70.253c0,0 -6.126,48.997 41.385,48.099c41.214,-0.78 40.13,-49.435 40.13,-49.435" style="fill:none;stroke:#000;stroke-width:0.9px;"/><path d="M88.615,134.385c0,0 -30.521,13.583 -33.402,24.049c0.46,14.474 -9.352,40.082 -9.352,40.082l18.705,6.681l0,6.68l57.451,-4.008l26.722,-2.672l1.336,-2.672l20.041,-9.353c0,0 -15.602,-41.864 -20.041,-45.427c-4.439,-3.562 -22.713,-13.36 -22.713,-13.36c0,0 0.881,8.86 -20.042,9.352c-18.913,0.446 -18.705,-9.352 -18.705,-9.352Z" style="fill:#93adba;"/><path d="M66.968,72.925c0,0 31.602,-26.109 85.071,-4.008c4.991,-1.281 5.643,0.946 6.255,-5.345c0.612,-6.29 2.828,-7.404 3.753,-18.705c0.925,-11.301 -10.62,-17.09 -16.263,-17.369c-5.643,-0.278 -11.559,-14.752 -18.766,-10.688c-7.207,4.064 -21.268,8.016 -21.268,8.016c0,0 -5.303,-8.072 -21.267,-1.336c-15.965,6.736 -18.753,4.287 -21.268,12.025c-2.516,7.738 -5.304,12.637 -8.758,17.369c-3.453,4.732 -5.616,17.313 1.252,17.369c6.867,0.056 8.77,1.948 11.259,2.672Z" style="fill:#93adba;stroke:#000;stroke-width:0.9px;"/><path d="M91.287,72.206c-2.449,0.891 -8.915,1.91 -5.344,10.689c2.685,6.6 6.935,5.156 10.689,4.008c3.754,-1.149 5.224,-4.859 4.008,-9.353c-1.323,-4.889 -6.903,-6.235 -9.353,-5.344Z" style="fill:#fff;stroke:#000;stroke-width:0.9px;"/><path d="M126.727,72.206c2.45,0.891 8.915,1.91 5.344,10.689c-2.685,6.6 -6.934,5.156 -10.688,4.008c-3.754,-1.149 -5.224,-4.859 -4.008,-9.353c1.323,-4.889 6.903,-6.235 9.352,-5.344Z" style="fill:#fff;stroke:#000;stroke-width:0.9px;"/><circle cx="93.292" cy="80.273" r="3.34" style="stroke:#000;stroke-width:0.9px;"/><path d="M99.304,65.526c0,0 -6.945,-8.077 -18.705,3.391" style="fill:none;stroke:#000;stroke-width:0.9px;"/><path d="M118.009,65.526c0,0 6.945,-8.077 18.705,3.391" style="fill:none;stroke:#000;stroke-width:0.9px;"/><circle cx="125.357" cy="80.45" r="3.34" style="stroke:#000;stroke-width:0.9px;"/><path d="M88.615,134.385c0,0 2.547,11.022 21.378,9.352c18.83,-1.67 17.369,-8.016 17.369,-8.016" style="fill:none;stroke:#000;stroke-width:0.9px;"/><path d="M104.648,118.352l-1.336,9.352c0,0 -47.334,19.039 -48.099,32.066c-0.765,13.027 -9.352,38.746 -9.352,38.746l20.041,6.681l6.68,-21.377" style="fill:none;stroke:#000;stroke-width:0.9px;"/><path d="M112.665,119.688c0,0 -0.237,7.496 1.336,8.016c1.684,0.557 33.695,17.281 36.074,20.041c5.47,6.347 20.041,45.427 20.041,45.427l-21.377,10.689l-6.681,-18.705" style="fill:none;stroke:#000;stroke-width:0.9px;"/><path d="M104.648,105.608c0.223,-0.668 2.125,-5.265 8.017,-4.008c5.891,1.256 1.616,2.741 -1.336,4.008c-4.797,2.058 -6.903,0.668 -6.681,0Z" style="fill:none;stroke:#000;stroke-width:0.9px;"/><path d="M119.897,103.135c0,0 2.387,1.641 2.105,3.138c-0.281,1.498 3.432,0.484 2.106,3.138c-1.326,2.654 -4.687,1.61 -5.243,-1.032c-0.557,-2.642 -4.808,-3.316 -4.986,-2.343c-0.178,0.973 -1.773,-4.897 0.774,-3.933c2.547,0.965 5.244,1.032 5.244,1.032Z" style="fill:#d2edf3;"/><path d="M100.64,88.239c0,0 -1.883,5.157 -8.016,5.344" style="fill:none;stroke:#000;stroke-width:0.5px;"/><path d="M116.673,88.239c0,0 1.883,5.157 8.016,5.344" style="fill:none;stroke:#000;stroke-width:0.5px;"/><path d="M-38.238,397.202c0,0 -13.609,-231.203 13.287,-230.134c13.008,0.516 34.345,-15.365 46.762,-8.017c12.418,7.349 27.665,-2.004 50.771,0c23.107,2.004 68.638,-15.365 90.854,-8.016c22.215,7.348 69.681,13.436 84.173,18.705c31.974,11.625 14.108,228.26 14.108,228.26" style="fill:#dce5e9;stroke:#000;stroke-width:0.9px;"/></g></g></svg>