<?xml version="1.0" encoding="UTF-8" standalone="no"?>
<!DOCTYPE svg PUBLIC "-//W3C//DTD SVG 1.1//EN" "http://www.w3.org/Graphics/SVG/1.1/DTD/svg11.dtd">
<svg width="100%" height="100%" viewBox="0 0 213 238" version="1.1" xmlns="http://www.w3.org/2000/svg" xmlns:xlink="http://www.w3.org/1999/xlink" xml:space="preserve" xmlns:serif="http://www.serif.com/" style="fill-rule:evenodd;clip-rule:evenodd;stroke-linecap:round;stroke-linejoin:round;stroke-miterlimit:1.5;">
    <g id="Plan-de-travail1" serif:id="Plan de travail1" transform="matrix(0.295833,0,0,0.330556,0,0)">
        <rect x="0" y="0" width="720" height="720" style="fill:none;"/>
        <clipPath id="_clip1">
            <rect x="0" y="0" width="720" height="720"/>
        </clipPath>
        <g clip-path="url(#_clip1)">
            <g transform="matrix(4.51632,0,0,4.04192,-18652,-525.325)">
                <g transform="matrix(1,0,0,15.8182,4,-1677.27)">
                    <rect x="4096" y="114" width="218" height="11" style="fill:rgb(247,247,247);stroke:rgb(39,34,34);stroke-width:0.06px;"/>
                </g>
                <path d="M4101,299C4101,299 4094.23,137.75 4110,132C4125.77,126.25 4303.74,124.17 4310,132C4326.49,152.64 4318,298 4318,298" style="fill:rgb(247,247,247);stroke:rgb(39,34,34);stroke-width:0.67px;"/>
                <path d="M4175,135L4270,132C4270,132 4280.37,132.833 4277,146C4273.63,159.167 4277.04,209.5 4282,213C4286.96,216.5 4284.37,228.167 4278,232C4271.63,235.833 4149.71,233.5 4143,242C4136.29,250.5 4145.71,172.167 4144,168C4142.29,163.833 4132.37,147.5 4136,142C4139.63,136.5 4175,135 4175,135Z" style="fill:rgb(220,229,233);stroke:black;stroke-width:0.67px;"/>
                <path d="M4178,189C4178,189 4164.39,192.46 4162,190C4159.61,187.54 4153.79,189.86 4156,192C4158.21,194.14 4160.79,193.26 4161,195C4161.21,196.74 4161,192 4161,192C4161,192 4165.99,192.66 4167,194C4168.01,195.34 4167.59,194.86 4163,200C4158.41,205.14 4162.1,212.276 4162,208C4161.81,199.54 4163.79,205.66 4166,202C4168.21,198.34 4174,196 4174,196C4174,196 4171.59,207.46 4170,209C4168.41,210.54 4163.39,210.86 4166,212C4168.61,213.14 4171,212 4171,212C4171,212 4173.59,201.46 4177,201C4180.41,200.54 4236,196 4236,196C4236,196 4242.39,200.86 4243,204C4243.61,207.14 4243.19,208.06 4246,205C4248.81,201.94 4248.39,200.46 4247,201C4245.61,201.54 4247.19,202.26 4244,199C4240.81,195.74 4242,195 4242,195C4242,195 4247.59,195.26 4249,193C4250.41,190.74 4255.59,192.66 4256,194C4256.41,195.34 4256.59,190.26 4254,190C4251.41,189.74 4247.39,190.46 4246,190C4244.61,189.54 4248.79,189.86 4251,187C4253.21,184.14 4251.79,186.66 4252,182C4252.21,177.34 4258.39,176.86 4259,179C4259.61,181.14 4254.99,171.86 4252,176C4249.01,180.14 4246.39,188.46 4245,187C4243.61,185.54 4214,175 4214,175L4178,189" style="fill:rgb(97,80,80);stroke:black;stroke-width:0.67px;"/>
                <g transform="matrix(1,0,0,1,2238,-54.4618)">
                    <path d="M1939,248C1939,248 1932.51,246.208 1932,253C1931.49,259.792 1941,258 1941,258" style="fill:rgb(255,240,229);stroke:black;stroke-width:0.67px;"/>
                </g>
                <g transform="matrix(1,0,0,1,2235,-54.4618)">
                    <path d="M2004,246C2004,246 2010.01,245.208 2009,251C2007.44,259.911 2002,255 2002,255" style="fill:rgb(255,240,229);stroke:black;stroke-width:0.67px;"/>
                </g>
                <g transform="matrix(1,0,0,1,2238,-54.4618)">
                    <path d="M1967,279L1966,286L1955,291C1955,291 1956.95,298.633 1970,298C1987.18,297.167 1984,291 1984,291L1973,286L1973,279L1967,279Z" style="fill:rgb(255,240,229);"/>
                </g>
                <g transform="matrix(0.938624,0,0,1,2358,-54.4618)">
                    <path d="M2004,242C2004,242 1984.83,235.321 1971,234C1957.17,232.679 1939,243 1939,243C1939,243 1934.12,279.672 1972,279C2004.86,278.417 2004,242 2004,242Z" style="fill:rgb(255,240,229);"/>
                </g>
                <g transform="matrix(0.938624,0,0,1,2358,-54.4618)">
                    <path d="M1939,243C1939,243 1934.12,279.672 1972,279C2004.86,278.417 2004,242 2004,242" style="fill:none;stroke:black;stroke-width:0.69px;"/>
                </g>
                <g transform="matrix(1,0,0,1,2238,-54.4618)">
                    <path d="M1955,291C1955,291 1932.16,301.167 1930,309C1930.34,319.833 1923,339 1923,339L1937,344L1937,349L1980,346L2000,344L2001,342L2016,335C2016,335 2004.32,303.667 2001,301C1997.68,298.333 1984,291 1984,291C1984,291 1984.66,297.631 1969,298C1954.84,298.333 1955,291 1955,291Z" style="fill:rgb(147,173,186);"/>
                </g>
                <g transform="matrix(0.936355,0,0,1,2363.08,-54.4618)">
                    <path d="M1937,245C1937,245 1962.26,225.458 2005,242C2008.99,241.042 2009.51,242.708 2010,238C2010.49,233.292 2012.26,232.458 2013,224C2013.74,215.542 2004.51,211.208 2000,211C1995.49,210.792 1990.76,199.958 1985,203C1979.24,206.042 1968,209 1968,209C1968,209 1963.76,202.958 1951,208C1938.24,213.042 1936.01,211.208 1934,217C1931.99,222.792 1929.76,226.458 1927,230C1924.24,233.542 1922.51,242.958 1928,243C1933.49,243.042 1935.01,244.458 1937,245Z" style="fill:rgb(147,173,186);stroke:black;stroke-width:0.7px;"/>
                </g>
                <path d="M4195,190C4193.17,190.667 4188.33,191.429 4191,198C4193.01,202.94 4196.19,201.86 4199,201C4201.81,200.14 4202.91,197.363 4202,194C4201.01,190.34 4196.83,189.333 4195,190Z" style="fill:white;stroke:black;stroke-width:0.67px;"/>
                <g transform="matrix(-1,0,0,1,8416.53,0)">
                    <path d="M4195,190C4193.17,190.667 4188.33,191.429 4191,198C4193.01,202.94 4196.19,201.86 4199,201C4201.81,200.14 4202.91,197.363 4202,194C4201.01,190.34 4196.83,189.333 4195,190Z" style="fill:white;stroke:black;stroke-width:0.67px;"/>
                </g>
                <g transform="matrix(1,0,0,1,2236,-55.4618)">
                    <circle cx="1960.5" cy="251.5" r="2.5" style="stroke:black;stroke-width:0.67px;"/>
                </g>
                <g transform="matrix(1,0,0,1,2237,-54.4618)">
                    <path d="M1964,239.462C1964,239.462 1958.8,233.417 1950,242" style="fill:none;stroke:black;stroke-width:0.67px;"/>
                </g>
                <g transform="matrix(-1,0,0,1,6179,-54.4618)">
                    <path d="M1964,239.462C1964,239.462 1958.8,233.417 1950,242" style="fill:none;stroke:black;stroke-width:0.67px;"/>
                </g>
                <g transform="matrix(-1,0,0,1,6181,-55.3297)">
                    <circle cx="1960.5" cy="251.5" r="2.5" style="stroke:black;stroke-width:0.67px;"/>
                </g>
                <g transform="matrix(1,0,0,1,2238,-54.4618)">
                    <path d="M1955,291C1955,291 1956.91,299.25 1971,298C1985.09,296.75 1984,292 1984,292" style="fill:none;stroke:black;stroke-width:0.67px;"/>
                </g>
                <g transform="matrix(1,0,0,1,2238,-54.4618)">
                    <path d="M1967,279L1966,286C1966,286 1930.57,300.25 1930,310C1929.43,319.75 1923,339 1923,339L1938,344L1943,328" style="fill:none;stroke:black;stroke-width:0.67px;"/>
                </g>
                <g transform="matrix(1,0,0,1,2238,-54.4618)">
                    <path d="M1973,280C1973,280 1972.82,285.611 1974,286C1975.26,286.417 1999.22,298.934 2001,301C2005.09,305.75 2016,335 2016,335L2000,343L1995,329" style="fill:none;stroke:black;stroke-width:0.67px;"/>
                </g>
                <path d="M4205,215C4205.17,214.5 4206.59,211.06 4211,212C4215.41,212.94 4212.21,214.052 4210,215C4206.41,216.54 4204.83,215.5 4205,215Z" style="fill:none;stroke:black;stroke-width:0.67px;"/>
                <g transform="matrix(0.981182,0.193086,-0.193086,0.981182,123.821,-809.314)">
                    <path d="M4213,213C4213,213 4214.99,213.86 4215,215C4215.01,216.14 4217.59,214.86 4217,217C4216.41,219.14 4213.79,218.86 4213,217C4212.21,215.14 4208.99,215.26 4209,216C4209.01,216.74 4206.99,212.66 4209,213C4211.01,213.34 4213,213 4213,213Z" style="fill:rgb(210,237,243);"/>
                </g>
                <g transform="matrix(1,0,0,1,-2,-1)">
                    <path d="M4204,203C4204,203 4202.59,206.86 4198,207" style="fill:none;stroke:black;stroke-width:0.37px;"/>
                </g>
                <g transform="matrix(-1,0,0,1,8418,-1)">
                    <path d="M4204,203C4204,203 4202.59,206.86 4198,207" style="fill:none;stroke:black;stroke-width:0.37px;"/>
                </g>
                <path d="M4098.06,433.246C4098.06,433.246 4087.87,260.2 4108,261C4117.74,261.387 4133.71,249.5 4143,255C4152.29,260.5 4163.71,253.5 4181,255C4198.29,256.5 4232.37,243.5 4249,249C4265.63,254.5 4301.15,259.056 4312,263C4335.93,271.701 4322.56,433.843 4322.56,433.843" style="fill:rgb(220,229,233);stroke:black;stroke-width:0.67px;"/>
            </g>
        </g>
    </g>
</svg>
