<?xml version="1.0" encoding="UTF-8" standalone="no"?>
<!DOCTYPE svg PUBLIC "-//W3C//DTD SVG 1.1//EN" "http://www.w3.org/Graphics/SVG/1.1/DTD/svg11.dtd">
<svg width="100%" height="100%" viewBox="0 0 213 238" version="1.1" xmlns="http://www.w3.org/2000/svg" xmlns:xlink="http://www.w3.org/1999/xlink" xml:space="preserve" xmlns:serif="http://www.serif.com/" style="fill-rule:evenodd;clip-rule:evenodd;stroke-linecap:round;stroke-linejoin:round;stroke-miterlimit:1.5;">
    <g id="Plan-de-travail1" serif:id="Plan de travail1" transform="matrix(0.295833,0,0,0.330556,0,0)">
        <rect x="0" y="0" width="720" height="720" style="fill:none;"/>
        <clipPath id="_clip1">
            <rect x="0" y="0" width="720" height="720"/>
        </clipPath>
        <g clip-path="url(#_clip1)">
            <g transform="matrix(4.16538,0,0,3.72784,-2415.03,-56.9522)">
                <g transform="matrix(0.585122,0.0678823,-0.0649536,0.559877,493.048,-63.6955)">
                    <path d="M325,144C325,144 268.833,137.6 256,185C243.167,232.4 253.833,266.6 242,270C230.167,273.4 225.833,294.267 235,291C244.167,287.733 247.167,291.6 254,294C260.833,296.4 259.833,269.933 274,281C288.167,292.067 295.833,294.6 303,287C310.167,279.4 354.167,266.6 362,276C369.833,285.4 388.167,279.6 398,273C407.833,266.4 422.171,264.186 415,259C404.299,251.262 417.423,244.367 410.59,238.1C403.756,231.833 385.167,244.267 391,235C396.833,225.733 385.5,143.933 325,144" style="fill:rgb(97,80,80);stroke:black;stroke-width:1.27px;"/>
                </g>
                <g transform="matrix(0.616935,-2.56851e-17,5.13701e-17,0.616935,439.926,-323.379)">
                    <path d="M322,629C322,629 334.22,619.267 338.18,616.722C341.229,614.763 373.168,607.886 376.876,611.194C380.583,614.503 405.959,622.358 408,632C410.041,641.642 322,629 322,629Z" style="fill:rgb(255,240,229);"/>
                </g>
                <g transform="matrix(0.682079,0,0,0.682079,417.336,-409.444)">
                    <path d="M355,763C355,763 356.876,775.527 352,780C347.124,784.473 343,785 343,785C343,785 345.543,802.694 367,802C388.457,801.306 388,786 388,786C388,786 378.376,782.194 375,779C371.624,775.806 372.376,762.194 373,761C373.624,759.806 355,763 355,763Z" style="fill:rgb(255,240,229);"/>
                </g>
                <g transform="matrix(-0.484964,-0.00492123,-0.0054174,0.53386,826.55,-31.003)">
                    <path d="M272,216C272,216 265.804,214.286 266.037,226.25C266.248,237.11 277.187,235.297 277.187,235.297" style="fill:rgb(255,240,229);stroke:black;stroke-width:1.43px;"/>
                </g>
                <g transform="matrix(0.518836,0.0271221,-0.0271221,0.518836,500.085,-38.1903)">
                    <path d="M275.076,215.291C275.076,215.291 264.115,214.482 266.447,226.259C269.158,239.952 278.795,236.13 278.795,236.13" style="fill:rgb(255,240,229);stroke:black;stroke-width:1.41px;"/>
                </g>
                <g transform="matrix(0.597397,0.0693064,-0.0664869,0.573094,487.995,-65.3658)">
                    <path d="M272,188C272,188 263.493,243.181 302,266C324.5,279.333 339.542,270.918 353.155,255.483C373.524,232.387 367.957,189.75 366.457,180.084" style="fill:rgb(255,240,229);stroke:black;stroke-width:1.24px;"/>
                </g>
                <g transform="matrix(0.682079,0,0,0.682079,417.336,-420.357)">
                    <path d="M331,735C331,735 344.272,728.136 350,735C346.853,740.489 345,743 345,743C345,743 337.022,745.136 334,743C330.978,740.864 331,735 331,735Z" style="fill:white;"/>
                </g>
                <g transform="matrix(-0.682079,0,0,0.682079,909.797,-420.357)">
                    <path d="M331,735C331,735 344.272,728.136 350,735C346.853,740.489 345,743 345,743C345,743 337.022,745.136 334,743C330.978,740.864 331,735 331,735Z" style="fill:white;"/>
                </g>
                <g transform="matrix(0.616935,0,8.56169e-18,0.616935,439.926,-323.379)">
                    <path d="M339,616C339,616 319.293,635.692 319,651C315.707,646.975 315.626,630.358 320,620" style="fill:rgb(97,80,80);stroke:black;stroke-width:1.18px;"/>
                </g>
                <g transform="matrix(0.616935,0,8.56169e-18,0.616935,433.71,-325.436)">
                    <path d="M388.056,614.528C388.056,614.528 408.224,626.68 410.168,652.118C414.322,644.941 412.255,637.728 412.255,637.728C412.255,637.728 422.988,656.027 415.696,675.336C428.907,653.043 426.752,626.689 426.752,626.689" style="fill:rgb(97,80,80);stroke:black;stroke-width:1.18px;"/>
                </g>
                <g transform="matrix(0.616935,0,8.56169e-18,0.616935,439.926,-323.379)">
                    <path d="M333,665C333,665 338.293,666.692 345,664" style="fill:none;stroke:black;stroke-width:1.18px;"/>
                </g>
                <g transform="matrix(0.616935,0,8.56169e-18,0.616935,439.926,-323.379)">
                    <path d="M350,655C350,655 345.293,647.692 330,655" style="fill:none;stroke:black;stroke-width:1.18px;"/>
                </g>
                <g transform="matrix(0.616935,0,8.56169e-18,0.616935,442.393,-323.379)">
                    <path d="M348,645C348,645 336.626,638.358 323,646" style="fill:none;stroke:black;stroke-width:1.18px;"/>
                </g>
                <g transform="matrix(-0.616935,0,8.56169e-18,0.616935,886.035,-323.379)">
                    <path d="M348,645C348,645 336.626,638.358 323,646" style="fill:none;stroke:black;stroke-width:1.18px;"/>
                </g>
                <g transform="matrix(0.616935,0,0,0.616935,440.543,-324.613)">
                    <circle cx="338.5" cy="662.5" r="3.5" style="stroke:black;stroke-width:1.18px;"/>
                </g>
                <g transform="matrix(-0.616935,0,0,0.616935,887.269,-323.379)">
                    <path d="M333,665C333,665 338.293,666.692 345,664" style="fill:none;stroke:black;stroke-width:1.18px;"/>
                </g>
                <g transform="matrix(-0.616935,0,0,0.616935,887.269,-323.379)">
                    <path d="M350,655C350,655 345.293,647.692 330,655" style="fill:none;stroke:black;stroke-width:1.18px;"/>
                </g>
                <g transform="matrix(-0.616935,0,0,0.616935,886.652,-324.613)">
                    <circle cx="338.5" cy="662.5" r="3.5" style="stroke:black;stroke-width:1.18px;"/>
                </g>
                <g transform="matrix(0.616935,0,0,0.616935,436.224,-321.333)">
                    <path d="M362,692C362,692 367.959,690.025 380,691" style="fill:none;stroke:black;stroke-width:1.18px;"/>
                </g>
                <g transform="matrix(0.682079,0,0,0.682079,417.336,-420.357)">
                    <path d="M309,935L301,960C301,960 311.834,944.436 323,947C334.166,949.564 359.834,946.436 366,943C372.166,939.564 417.834,938.436 421,947C424.166,955.564 434.334,961.186 434,961C433.666,960.814 429.334,936.436 423,924C416.666,911.564 309,935 309,935Z" style="fill:white;stroke:black;stroke-width:1.07px;"/>
                </g>
                <g transform="matrix(0.682079,1.18322e-18,0,0.682079,417.336,-406.033)">
                    <path d="M344,780C344,780 313.834,791.733 310,805C307.907,812.244 301.168,852.873 298.467,880.477C296.12,904.467 308,916 308,916L318,922C318,922 327.473,926.039 348,933C349.753,931.161 353.554,924.162 358,923C360.442,922.362 380.152,915.31 384,917C385.378,917.605 370.548,928.534 372,928C372.358,931.122 378.362,929.077 382,939C394.556,933.814 401.689,932.088 410,929C414.421,925.947 431.371,926.825 432.295,890.476C426.221,854.266 417.945,807.468 416,803C412.416,794.767 388.834,781.983 388,782C386.916,786.517 375.84,792.606 362,792C345.251,791.267 344,780 344,780Z" style="fill:white;"/>
                </g>
                <g transform="matrix(0.677534,0.0651388,-0.0786034,0.561474,468.209,-60.9328)">
                    <path d="M306,297C306,297 308.833,312.267 329,309C349.167,305.733 348.721,294.885 348.721,294.885" style="fill:none;stroke:black;stroke-width:1.19px;"/>
                </g>
                <g transform="matrix(0.677534,0.0651388,-0.0786034,0.561474,468.891,-60.9328)">
                    <path d="M294.75,420.534C294.39,397.453 294,378 294,378" style="fill:none;stroke:black;stroke-width:1.19px;"/>
                </g>
                <g transform="matrix(-0.676678,0.0709885,0.0856623,0.560764,860.591,-62.593)">
                    <path d="M295.773,426.566C295.385,400.118 294,378 294,378" style="fill:none;stroke:black;stroke-width:1.19px;"/>
                </g>
                <g transform="matrix(0.677534,0.0651388,-0.0786034,0.561474,468.209,-60.9328)">
                    <path d="M314.014,273.4C314.014,273.4 317.167,285.933 312,291C306.833,296.067 276.405,316.126 275.572,332.526C275.212,339.61 275.031,383.701 274.456,419.608" style="fill:none;stroke:black;stroke-width:1.19px;"/>
                </g>
                <g transform="matrix(-0.676678,0.0709885,0.0856623,0.560764,860.591,-62.593)">
                    <path d="M313.536,272.275C313.536,272.275 317.167,285.933 312,291C306.833,296.067 277.689,316.47 276.856,332.87C276.465,340.559 274.926,389.63 274.309,428.832" style="fill:none;stroke:black;stroke-width:1.19px;"/>
                </g>
                <g transform="matrix(0.682079,0,0,0.682079,417.336,-420.357)">
                    <path d="M299,898C299,898 294.959,931.477 312,940C329.041,948.523 349,954 349,954C349,954 350.626,946.477 357,945C363.374,943.523 349.626,935.811 341,929C332.374,922.189 318.959,917.144 320,901" style="fill:none;stroke:black;stroke-width:1.07px;"/>
                </g>
                <g transform="matrix(-0.682079,0,0,0.682079,915.685,-416.264)">
                    <path d="M299.055,899.629C299.055,899.629 294.959,931.477 312,940C329.041,948.523 349,954 349,954C349,954 350.626,946.477 357,945C363.374,943.523 349.626,935.811 341,929C332.374,922.189 319.593,916.144 320.633,900" style="fill:none;stroke:black;stroke-width:1.07px;"/>
                </g>
            </g>
        </g>
    </g>
</svg>
