<?xml version="1.0" encoding="UTF-8" standalone="no"?>
<!DOCTYPE svg PUBLIC "-//W3C//DTD SVG 1.1//EN" "http://www.w3.org/Graphics/SVG/1.1/DTD/svg11.dtd">
<svg width="100%" height="100%" viewBox="0 0 213 238" version="1.1" xmlns="http://www.w3.org/2000/svg" xmlns:xlink="http://www.w3.org/1999/xlink" xml:space="preserve" xmlns:serif="http://www.serif.com/" style="fill-rule:evenodd;clip-rule:evenodd;stroke-linecap:round;stroke-linejoin:round;stroke-miterlimit:1.5;">
    <g id="Plan-de-travail1" serif:id="Plan de travail1" transform="matrix(0.295833,0,0,0.330556,0,0)">
        <rect x="0" y="0" width="720" height="720" style="fill:none;"/>
        <clipPath id="_clip1">
            <rect x="0" y="0" width="720" height="720"/>
        </clipPath>
        <g clip-path="url(#_clip1)">
            <g transform="matrix(1.78514,0,0,1.59762,-5776.81,-959.678)">
                <path d="M3301.54,1138.79C3299.76,1141.76 3292.87,1152.16 3283,1154C3278.76,1154.79 3265.74,1135.71 3263,1127C3260.26,1118.29 3271.24,1110.21 3278,1103C3284.76,1095.79 3295.74,1024.71 3298,1014C3300.26,1003.29 3318,908 3318,908L3353,920C3357.11,918.832 3352.96,929.665 3349.77,945.207C3344.39,971.417 3336.83,1009.29 3337,1014C3337.26,1021.29 3309.74,1085.71 3304,1096C3298.26,1106.29 3304.74,1108.71 3304,1115C3303.26,1121.29 3313.24,1134.71 3308,1140C3306.46,1141.55 3304.11,1140.73 3301.54,1138.79Z" style="fill:rgb(255,240,229);"/>
                <g transform="matrix(-1,0,0,1,6871.64,-3)">
                    <path d="M3301.54,1138.79C3299.76,1141.76 3292.87,1152.16 3283,1154C3278.76,1154.79 3265.74,1135.71 3263,1127C3260.26,1118.29 3271.24,1110.21 3278,1103C3284.76,1095.79 3295.74,1024.71 3298,1014C3300.26,1003.29 3319.64,903 3319.64,903L3355,920C3356.86,919.332 3354.51,929.329 3349.77,945.207C3344.39,971.417 3336.83,1009.29 3337,1014C3337.26,1021.29 3309.74,1085.71 3304,1096C3298.26,1106.29 3304.74,1108.71 3304,1115C3303.26,1121.29 3313.24,1134.71 3308,1140C3306.46,1141.55 3304.11,1140.73 3301.54,1138.79Z" style="fill:rgb(255,240,229);"/>
                </g>
                <path d="M3460,631C3422.53,631.402 3372.85,640.707 3356,683C3339.15,725.293 3343.51,732.04 3331,731C3318.49,729.96 3285.51,725.373 3294,756C3302.49,786.627 3306.18,752.04 3302,798C3297.82,843.96 3313.51,811.373 3327,815C3340.49,818.627 3352.18,825.373 3366,823C3379.82,820.627 3383.51,807.373 3410,807C3436.49,806.627 3479.51,803.373 3501,809C3522.49,814.627 3524.85,800.707 3524,800C3523.15,799.293 3580.85,828.04 3577,805C3573.15,781.96 3567,784 3567,784C3567,784 3609.69,767.693 3569,755C3536.82,744.96 3584.17,629.667 3460,631Z" style="fill:rgb(97,80,80);stroke:black;stroke-width:1.7px;"/>
                <path d="M3415,792C3415,792 3417.43,805.49 3414,806C3410.57,806.51 3388,813 3388,813C3388,813 3422.23,848.69 3453,843C3483.77,837.31 3495,818 3495,818C3495,818 3479.23,813.29 3474,812C3468.77,810.71 3462.43,809.29 3462,801C3461.63,793.789 3465,794 3465,794L3415,792Z" style="fill:rgb(255,240,229);"/>
                <path d="M3365,905L3361,918C3350.01,925.54 3330.99,922.46 3317,908C3313.01,891.873 3333.9,849.247 3344,836C3357.43,820.873 3382.72,816.46 3388,813C3388,813 3399.6,820.193 3405.04,823.028C3437.99,840.191 3459.14,834.716 3466.68,832.979C3466.68,832.979 3487.41,827.11 3493.07,816.869C3509.26,822.363 3527.17,831.17 3532,840C3536.68,848.544 3554,899 3554,899C3554,899 3542.03,924.483 3517,918C3514.89,917.454 3511.69,911.694 3509.12,906.344C3506.95,900.78 3505,897 3505,897C3505,897 3506.8,901.504 3509.12,906.344C3513.96,918.72 3519.91,939.922 3508,948C3507.58,948.285 3507,950 3507,950C3507,950 3512.93,1057.62 3528,1121C3528,1121 3316.8,1134.98 3328,1113C3354.1,1059.46 3369,940 3369,940L3369.02,939.477C3363.89,931.261 3363.99,914.377 3365,905Z" style="fill:white;"/>
                <path d="M3296,1127C3296,1127 3302.76,1145.29 3308,1140C3313.24,1134.71 3303.26,1121.29 3304,1115C3304.74,1108.71 3298.26,1106.29 3304,1096C3309.74,1085.71 3337.26,1021.29 3337,1014C3336.74,1006.71 3355,920 3355,920" style="fill:none;stroke:black;stroke-width:1.7px;"/>
                <path d="M3318,908C3318,908 3300.26,1003.29 3298,1014C3295.74,1024.71 3284.76,1095.79 3278,1103C3271.24,1110.21 3260.26,1118.29 3263,1127C3265.74,1135.71 3278.76,1154.79 3283,1154C3294.54,1151.85 3302,1138 3302,1138C3302,1138 3294.26,1119.79 3291,1123C3287.74,1126.21 3294.3,1135.02 3286,1138" style="fill:none;stroke:black;stroke-width:1.7px;"/>
                <g transform="matrix(-1,0,0,1,6871,-3)">
                    <path d="M3296,1127C3296,1127 3302.76,1145.29 3308,1140C3313.24,1134.71 3303.26,1121.29 3304,1115C3304.74,1108.71 3298.26,1106.29 3304,1096C3309.74,1085.71 3337.26,1021.29 3337,1014C3336.74,1006.71 3355,920 3355,920" style="fill:none;stroke:black;stroke-width:1.7px;"/>
                </g>
                <g transform="matrix(-1,0,0,1,6871,-3)">
                    <path d="M3318,906C3318,906 3300.26,1003.29 3298,1014C3295.74,1024.71 3284.76,1095.79 3278,1103C3271.24,1110.21 3260.26,1118.29 3263,1127C3265.74,1135.71 3278.76,1154.79 3283,1154C3294.54,1151.85 3302,1138 3302,1138C3302,1138 3294.26,1119.79 3291,1123C3287.74,1126.21 3294.3,1135.02 3286,1138" style="fill:none;stroke:black;stroke-width:1.7px;"/>
                </g>
                <path d="M3507,950C3507,950 3519.26,1112.29 3529,1120" style="fill:none;stroke:black;stroke-width:1.7px;"/>
                <path d="M3369,940C3369,940 3345.76,1085.79 3329,1111" style="fill:none;stroke:black;stroke-width:1.7px;"/>
                <path d="M3387,812C3387,812 3419.01,836.54 3452,835C3484.99,833.46 3492,817 3492,817" style="fill:none;stroke:black;stroke-width:1.7px;"/>
                <path d="M3462,798C3462,798 3457.68,808.873 3475,812C3492.32,815.127 3525.18,827.54 3532,840C3536.68,848.544 3554,899 3554,899C3554,899 3542.03,924.483 3517,918C3512.99,916.96 3505,897 3505,897C3505,897 3525.26,936.29 3508,948C3494.74,956.997 3483,955 3483,955" style="fill:none;stroke:black;stroke-width:1.7px;"/>
                <path d="M3415,794C3415,794 3417.68,805.54 3413,806C3408.32,806.46 3354.68,820.873 3344,836C3333.32,851.127 3313.01,891.873 3317,908C3330.99,922.46 3350.01,925.54 3361,918L3367,897" style="fill:none;stroke:black;stroke-width:1.7px;"/>
                <path d="M3367,897C3367,897 3358.26,932.29 3373,944C3387.74,955.71 3397,953 3397,953" style="fill:none;stroke:black;stroke-width:1.7px;"/>
                <path d="M3511,718L3514,708L3524,710" style="fill:none;stroke:black;stroke-width:1.7px;"/>
                <path d="M3525,765C3542.26,736.29 3499.74,720.21 3497,718C3494.26,715.79 3458,716 3458,716C3458,716 3432.24,718.71 3407,730C3381.76,741.29 3378,767 3378,767C3378,767 3399.5,800.305 3453,798C3503.06,795.844 3525,765 3525,765Z" style="fill:rgb(255,240,229);"/>
                <path d="M3493,705L3505,706L3501,717" style="fill:none;stroke:black;stroke-width:1.7px;"/>
                <path d="M3517,690L3515,699L3526,701" style="fill:none;stroke:black;stroke-width:1.7px;"/>
                <path d="M3508,688L3506,700L3492,699" style="fill:none;stroke:black;stroke-width:1.7px;"/>
                <path d="M3439,790L3450,791" style="fill:none;stroke:black;stroke-width:1.7px;"/>
                <path d="M3475,777C3475,777 3488.68,779.207 3499,775" style="fill:none;stroke:black;stroke-width:1.7px;"/>
                <path d="M3497,716C3497,716 3532.18,743.373 3526,785C3542.49,737.293 3540,731 3540,731" style="fill:rgb(97,80,80);stroke:black;stroke-width:1.7px;"/>
                <path d="M3457,716C3457,716 3363.51,736.707 3364,810C3359.82,777.293 3389.51,713.373 3416,699" style="fill:rgb(97,80,80);stroke:black;stroke-width:1.7px;"/>
                <path d="M3452,745C3452,745 3443.51,759.373 3438,761C3432.49,762.627 3392,737 3392,737" style="fill:none;stroke:black;stroke-width:1.7px;"/>
                <path d="M3378,767C3378,767 3399.5,800.305 3453,798C3503.06,795.844 3525,765 3525,765" style="fill:none;stroke:black;stroke-width:1.7px;"/>
                <path d="M3478,745C3478,745 3484.85,762.04 3488,763C3491.15,763.96 3524,749 3524,749" style="fill:none;stroke:black;stroke-width:1.7px;"/>
                <path d="M3432,771C3432,771 3418.68,776.207 3407,769" style="fill:none;stroke:black;stroke-width:1.7px;"/>
            </g>
        </g>
    </g>
</svg>
