<?xml version="1.0" encoding="UTF-8" standalone="no"?>
<!DOCTYPE svg PUBLIC "-//W3C//DTD SVG 1.1//EN" "http://www.w3.org/Graphics/SVG/1.1/DTD/svg11.dtd">
<svg width="100%" height="100%" viewBox="0 0 216 238" version="1.1" xmlns="http://www.w3.org/2000/svg" xmlns:xlink="http://www.w3.org/1999/xlink" xml:space="preserve" xmlns:serif="http://www.serif.com/" style="fill-rule:evenodd;clip-rule:evenodd;stroke-linecap:round;stroke-linejoin:round;stroke-miterlimit:1.5;">
    <g id="Plan-de-travail1" serif:id="Plan de travail1" transform="matrix(0.3,0,0,0.330556,0,0)">
        <rect x="0" y="0" width="720" height="720" style="fill:none;"/>
        <clipPath id="_clip1">
            <rect x="0" y="0" width="720" height="720"/>
        </clipPath>
        <g clip-path="url(#_clip1)">
            <g transform="matrix(3.68121,0,0,3.34093,-72.3782,-112.777)">
                <g transform="matrix(1.53084,0,0,1.53084,-3962.93,-225.055)">
                    <path d="M2671,174C2671,174 2637.3,169.781 2626.13,199.757C2617.66,222.5 2610.63,237.083 2607,236C2603.37,234.917 2607.97,253.083 2614,250C2620.03,246.917 2620.47,247.25 2624,251C2627.53,254.75 2633.47,254.583 2638,252C2642.53,249.417 2646.63,249.25 2652,252C2657.37,254.75 2674.13,254.75 2678,253C2681.87,251.25 2708.97,260.083 2708,253C2707.03,245.917 2711,246 2711,246C2711,246 2722.63,243.583 2720,237C2717.37,230.417 2726.3,230.75 2721,228C2715.7,225.25 2711.47,227.75 2711,223C2710.53,218.25 2703.83,177.757 2671,174Z" style="fill:rgb(97,80,80);stroke:black;stroke-width:0.53px;"/>
                </g>
                <g transform="matrix(1.53084,0,0,1.53084,-3962.93,-225.055)">
                    <path d="M2634,220C2634,220 2628.63,217.083 2629,225C2629.37,232.917 2636,228 2636,228" style="fill:rgb(255,240,229);stroke:black;stroke-width:0.53px;"/>
                </g>
                <g transform="matrix(1.53084,0,0,1.53084,-3962.93,-225.055)">
                    <path d="M2694,218C2694,218 2699.3,216.583 2699,223C2698.7,229.417 2692,227 2692,227" style="fill:rgb(255,240,229);stroke:black;stroke-width:0.53px;"/>
                </g>
                <g transform="matrix(1.28695,0,0,1.28695,-3327.43,-182.692)">
                    <path d="M2685,187C2685,187 2679.86,203.548 2664,204C2661.07,204.083 2658,207 2658,207L2662,202C2662,202 2643.59,208.083 2642,231C2641.57,227.917 2639,223 2639,223L2640,230C2640,230 2645.2,248.3 2653,254C2662.59,261.001 2671.64,261.967 2671.64,261.967C2671.64,261.967 2671.76,270.752 2670.51,272.669C2668.49,273.459 2658.4,275.203 2658.4,275.203C2658.4,275.203 2654.29,284.218 2674,286C2692.31,287.655 2691.63,275.203 2691.63,275.203L2680,273C2680,273 2677.89,272.223 2678.68,261.967C2681.92,261.717 2695.43,261.583 2704,246C2712.57,230.417 2712,213 2712,213L2710,206C2710,206 2703.59,196.583 2699,193C2694.41,189.417 2685,187 2685,187Z" style="fill:rgb(255,240,229);"/>
                </g>
                <g transform="matrix(1.28695,0,0,1.28695,-3329.97,-910.046)">
                    <path d="M2693.97,784.871C2692.14,784.704 2687.71,784.661 2688,790C2688.41,797.471 2698.36,797.604 2699,791C2699.55,785.267 2695.81,785.037 2693.97,784.871Z" style="fill:white;stroke:black;stroke-width:0.63px;"/>
                </g>
                <g transform="matrix(1.28695,0,0,1.28695,-3368.83,-910.046)">
                    <path d="M2693.97,784.871C2692.14,784.704 2687.71,784.661 2688,790C2688.41,797.471 2698.36,797.604 2699,791C2699.55,785.267 2695.81,785.037 2693.97,784.871Z" style="fill:white;stroke:black;stroke-width:0.63px;"/>
                </g>
                <g transform="matrix(1.28695,0,0,1.28695,-3327.43,-182.692)">
                    <path d="M2627.42,343.077C2627.42,343.077 2630.91,304.029 2643,285C2649.27,276.141 2658.4,275.767 2658.4,275.767C2658.4,275.767 2655.38,284.665 2675,286C2690.61,287.125 2691.91,275.485 2691.91,275.485C2691.91,275.485 2702.36,277.301 2707,285C2718.22,303.621 2723.68,346.605 2723.68,346.605L2627.42,343.077Z" style="fill:white;"/>
                </g>
                <g transform="matrix(1.53084,0,0,1.53084,-3962.93,-225.055)">
                    <path d="M2634,216C2634,216 2634.79,247.286 2665,248C2695.45,248.719 2695,207 2695,207" style="fill:none;stroke:black;stroke-width:0.53px;"/>
                </g>
                <g transform="matrix(1.53084,0,0,1.53084,-3962.93,-225.055)">
                    <path d="M2659,204.478C2659,204.478 2651.99,200.778 2647.15,205.641" style="fill:none;stroke:black;stroke-width:0.53px;"/>
                </g>
                <g transform="matrix(1.53084,0,0,1.53084,-3962.93,-231.489)">
                    <path d="M2672,209C2672,209 2679.81,204.477 2684.14,210.685" style="fill:none;stroke:black;stroke-width:0.53px;"/>
                </g>
                <g transform="matrix(1.53084,0,0,1.53084,-3962.93,-225.055)">
                    <path d="M2657,222C2657,222 2656.18,227.292 2651,228" style="fill:none;stroke:black;stroke-width:0.53px;"/>
                </g>
                <g transform="matrix(1.53084,0,0,1.53084,-3962.93,-225.055)">
                    <path d="M2673,223C2673,223 2671.93,224.292 2678,227" style="fill:none;stroke:black;stroke-width:0.53px;"/>
                </g>
                <g transform="matrix(0.639603,0,0,0.639603,-1559.42,-31.6821)">
                    <circle cx="2651.5" cy="216.5" r="2.5" style="stroke:black;stroke-width:1.27px;"/>
                </g>
                <g transform="matrix(0.639603,0,0,0.639603,-1598.03,-31.6821)">
                    <circle cx="2651.5" cy="216.5" r="2.5" style="stroke:black;stroke-width:1.27px;"/>
                </g>
                <g transform="matrix(1.53084,0,0,1.53084,-3962.93,-225.055)">
                    <path d="M2672,185C2672,185 2670.63,196.083 2655,199" style="fill:none;stroke:black;stroke-width:0.53px;"/>
                </g>
                <g transform="matrix(1.53084,0,0,1.53084,-3962.93,-225.055)">
                    <path d="M2660,192C2660,192 2652.63,197.083 2649,202" style="fill:none;stroke:black;stroke-width:0.53px;"/>
                </g>
                <g transform="matrix(1.53084,0,0,1.53084,-3962.93,-225.055)">
                    <path d="M2653,197C2653,197 2636.13,202.583 2636,221C2630.37,208.417 2633.8,209.25 2635,203" style="fill:none;stroke:black;stroke-width:0.53px;"/>
                </g>
                <g transform="matrix(1.53084,0,0,1.53084,-3962.93,-225.055)">
                    <path d="M2684.14,189.084C2684.14,189.084 2692.85,205.902 2692.55,215.986C2692.91,208.236 2696.75,201.694 2696.75,201.694" style="fill:rgb(97,80,80);stroke:black;stroke-width:0.53px;"/>
                </g>
                <g transform="matrix(1.53084,0,0,1.53084,-3962.93,-225.055)">
                    <path d="M2661,248C2661,248 2661.55,256.333 2660,257C2658.45,257.667 2649.22,258 2641,263C2632.78,268 2624.22,301 2624,318C2623.78,335 2625,331 2625,331" style="fill:none;stroke:black;stroke-width:0.53px;"/>
                </g>
                <g transform="matrix(-1.53084,0,0,1.53084,4193.49,-225.055)">
                    <path d="M2661,248C2661,248 2661.55,256.333 2660,257C2658.45,257.667 2649.22,258 2641,263C2632.78,268 2624.22,301 2624,318C2623.78,335 2625,331 2625,331" style="fill:none;stroke:black;stroke-width:0.53px;"/>
                </g>
                <g transform="matrix(1.53084,0,0,1.53084,-3962.93,-225.055)">
                    <path d="M2649.77,259.505C2649.77,259.505 2647.88,266.667 2663,268C2678.12,269.333 2678,259 2678,259" style="fill:none;stroke:black;stroke-width:0.53px;"/>
                </g>
                <g transform="matrix(1.53084,0,0,1.53084,-3962.93,-225.055)">
                    <path d="M2640,297C2640,297 2636.55,322.667 2636,332" style="fill:none;stroke:black;stroke-width:0.53px;"/>
                </g>
                <g transform="matrix(1.53084,0,0,1.53084,-3962.93,-225.055)">
                    <path d="M2640,297C2640,297 2642.22,304 2650,302" style="fill:none;stroke:black;stroke-width:0.53px;"/>
                </g>
                <g transform="matrix(1.53084,0,0,1.53084,-3962.93,-225.055)">
                    <path d="M2687,292C2687,292 2690.55,324 2691,330" style="fill:none;stroke:black;stroke-width:0.53px;"/>
                </g>
                <g transform="matrix(1.53084,0,0,1.53084,-3962.93,-225.055)">
                    <path d="M2677,302C2677,302 2685.39,302.706 2687.5,298.373" style="fill:none;stroke:black;stroke-width:0.53px;"/>
                </g>
                <g transform="matrix(1.28695,0,0,1.28695,-3286.25,-1035.05)">
                    <path d="M2641,915C2641,915 2643.18,911.4 2650,912" style="fill:none;stroke:black;stroke-width:0.63px;"/>
                </g>
            </g>
        </g>
    </g>
</svg>
