<?xml version="1.0" encoding="UTF-8" standalone="no"?>
<!DOCTYPE svg PUBLIC "-//W3C//DTD SVG 1.1//EN" "http://www.w3.org/Graphics/SVG/1.1/DTD/svg11.dtd">
<svg width="100%" height="100%" viewBox="0 0 213 238" version="1.1" xmlns="http://www.w3.org/2000/svg" xmlns:xlink="http://www.w3.org/1999/xlink" xml:space="preserve" xmlns:serif="http://www.serif.com/" style="fill-rule:evenodd;clip-rule:evenodd;stroke-linecap:round;stroke-linejoin:round;stroke-miterlimit:1.5;">
    <g id="Plan-de-travail1" serif:id="Plan de travail1" transform="matrix(0.295833,0,0,0.330556,0,0)">
        <rect x="0" y="0" width="720" height="720" style="fill:none;"/>
        <g transform="matrix(-4.29138,0,0,3.84061,5462.14,-679.883)">
            <g transform="matrix(0.68222,0,0,0.785729,-114.901,-481.843)">
                <path d="M1841,1026C1841,1026 1843.63,1015.5 1854,1018C1864.37,1020.5 1865.96,1017.83 1869,1016C1872.04,1014.17 1881,1003 1881,1003L1881,1008C1881,1008 1870.96,1016.17 1871,1019C1871.04,1021.83 1869.3,1032.83 1860,1035C1850.7,1037.17 1844.96,1032.83 1842,1031C1839.04,1029.17 1835,1024 1835,1024L1836,1021L1841,1026Z" style="fill:rgb(237,191,191);stroke:rgb(5,5,5);stroke-width:0.96px;"/>
            </g>
            <g transform="matrix(-0.681443,-0.0374908,-0.0325519,0.784834,2526.62,-408.854)">
                <path d="M1841,1026C1841,1026 1843.63,1015.5 1854,1018C1864.37,1020.5 1865.96,1017.83 1869,1016C1872.04,1014.17 1881,1003 1881,1003L1881,1008C1881,1008 1870.96,1016.17 1871,1019C1871.04,1021.83 1869.3,1032.83 1860,1035C1850.7,1037.17 1844.96,1032.83 1842,1031C1839.04,1029.17 1835,1024 1835,1024L1836,1021L1841,1026Z" style="fill:rgb(237,191,191);stroke:rgb(5,5,5);stroke-width:0.97px;"/>
            </g>
            <g transform="matrix(0.68222,0,0,0.785729,-114.901,-481.843)">
                <path d="M1838,1019C1838,1019 1830.11,1012.42 1826,1010C1821.89,1007.58 1809.11,994.417 1814,992C1818.89,989.583 1825.61,988.417 1834,993C1842.39,997.583 1866.61,994.917 1869,996C1871.39,997.083 1878.87,997.39 1882.78,1017.73C1886.38,1036.5 1887.66,1052.47 1896.6,1056.14C1903.32,1058.9 1924.08,1064.25 1933.25,1052.33C1941.08,1042.14 1940.11,1029.83 1942.13,1024.11C1946.53,1011.7 1959.11,996.917 1963,994C1966.89,991.083 1979.11,990.417 1987,992C1994.89,993.583 2009.61,989.417 2009,992C2008.39,994.583 2003.61,1007.42 1999,1007C1994.39,1006.58 1984.11,1020.42 1981,1020C1977.89,1019.58 1982.62,1024.87 1986,1026C1995.77,1029.28 1989.83,1039.25 1994.86,1035.6C1999.65,1032.1 2004.38,1046.38 2003,1039C2001.89,1033.08 2005.61,1024.42 2009,1019C2012.39,1013.58 2019.11,992.417 2016,988C2012.89,983.583 1997.11,987.417 1987,984C1976.89,980.583 1968.61,989.917 1959,984C1949.39,978.083 1926.06,972.158 1913,971C1891.39,969.083 1868.11,989.417 1865,989C1861.89,988.583 1830.61,988.417 1822,984C1813.39,979.583 1801.11,992.417 1805,1003C1808.89,1013.58 1810.61,1031.92 1808,1036C1805.39,1040.08 1813.19,1031.84 1819,1034C1822.15,1035.17 1823.26,1029.78 1825.42,1028.42C1828.53,1026.47 1832.19,1027.67 1833.49,1024.84C1834.76,1022.04 1838.11,1024.92 1838,1019Z" style="fill:rgb(216,103,103);stroke:rgb(5,5,5);stroke-width:0.96px;"/>
            </g>
            <g transform="matrix(1,0,0,0.769231,0,72.9231)">
                <circle cx="1180.5" cy="309.5" r="6.5" style="fill:white;stroke:black;stroke-width:0.79px;"/>
            </g>
            <g transform="matrix(1,0,0,0.769231,17.6667,72.9231)">
                <circle cx="1180.5" cy="309.5" r="6.5" style="fill:white;stroke:black;stroke-width:0.79px;"/>
            </g>
            <g transform="matrix(0.990054,-0.126363,0.126363,0.990054,138.101,-126.472)">
                <circle cx="980.5" cy="566.5" r="2.5"/>
            </g>
            <g transform="matrix(-0.990054,-0.126363,-0.126363,0.990054,2239.92,-126.472)">
                <circle cx="980.5" cy="566.5" r="2.5"/>
            </g>
            <path d="M1187,298C1187,298 1180.47,294.85 1173,301" style="fill:none;stroke:black;stroke-width:0.71px;"/>
            <g transform="matrix(-1,0,0,1,2381,0)">
                <path d="M1187,298C1187,298 1180.47,294.85 1173,301" style="fill:none;stroke:black;stroke-width:0.71px;"/>
            </g>
        </g>
        <g transform="matrix(3.35026,-0.402325,0.449546,2.99834,-55.0072,25.5245)">
            <rect x="28" y="34" width="161" height="82" style="fill:white;stroke:black;stroke-width:0.9px;"/>
        </g>
        <g transform="matrix(3.38028,0,0,3.02521,0,0)">
            <path d="M70,165C70,165 45.433,129.242 41,116C39.875,112.64 43.625,112.36 45,113C46.375,113.64 51.375,112.11 52,114C52.625,115.89 50.875,115.86 51,119C51.125,122.14 69,154 69,154" style="fill:rgb(216,103,103);stroke:black;stroke-width:0.9px;"/>
        </g>
        <g transform="matrix(-3.38028,0,0,3.02521,689.577,-35.4714)">
            <path d="M68,173.725C68,173.725 45.433,129.242 41,116C39.875,112.64 43.625,112.36 45,113C46.375,113.64 51.375,112.11 52,114C52.625,115.89 50.875,115.86 51,119C51.125,122.14 71,166.725 71,166.725" style="fill:rgb(216,103,103);stroke:black;stroke-width:0.9px;"/>
        </g>
        <g transform="matrix(3.38028,0,0,3.02521,-3.38028,-12.1008)">
            <path d="M96,200C96,200 111.167,207.402 119,198" style="fill:none;stroke:black;stroke-width:0.9px;"/>
        </g>
        <g transform="matrix(11.1168,-1.37812,1.53987,9.94907,-526.648,-403.656)">
            <text x="49.167px" y="75.265px" style="font-family:'HelvetiHand';font-weight:500;font-size:12px;">À LIRE</text>
        </g>
        <g transform="matrix(-4.15205,0,0,2.90961,5441.01,-2215.1)">
            <path d="M1216,988C1212.63,988.485 1207.12,994.015 1205,990C1205,990 1198.42,981.894 1203,980C1207.85,977.995 1209.49,985.214 1209.49,985.214L1213,984" style="fill:rgb(216,103,103);stroke:rgb(2,1,0);stroke-width:0.82px;"/>
        </g>
        <g transform="matrix(3.38028,0,-0,3.02521,-3783.7,-2324.13)">
            <path d="M1216,988C1212.63,988.485 1207.12,994.015 1205,990C1205,990 1198.34,981.534 1203,980C1209.88,977.735 1211,986 1211,986L1213,984" style="fill:rgb(216,103,103);stroke:rgb(2,1,0);stroke-width:0.9px;"/>
        </g>
    </g>
</svg>
