<?xml version="1.0" encoding="UTF-8" standalone="no"?>
<!DOCTYPE svg PUBLIC "-//W3C//DTD SVG 1.1//EN" "http://www.w3.org/Graphics/SVG/1.1/DTD/svg11.dtd">
<svg width="100%" height="100%" viewBox="0 0 36 40" version="1.1" xmlns="http://www.w3.org/2000/svg" xmlns:xlink="http://www.w3.org/1999/xlink" xml:space="preserve" xmlns:serif="http://www.serif.com/" style="fill-rule:evenodd;clip-rule:evenodd;stroke-linejoin:round;stroke-miterlimit:2;">
    <g transform="matrix(1,0,0,1,-493,-816)">
        <g id="Plan-de-travail1" serif:id="Plan de travail1" transform="matrix(1,0,0,1.69333,0,0)">
            <rect x="0" y="0" width="1920" height="1200" style="fill:none;"/>
            <g>
                <g transform="matrix(0.315021,0,0,0.187606,-1926.29,8.84496)">
                    <g>
                        <g id="ruban">
                        </g>
                    </g>
                </g>
            </g>
            <g transform="matrix(1,0,0,0.590551,348.475,287.112)">
                <text x="144.138px" y="326.168px" style="font-family:'Helsinki';font-size:36px;">P</text>
                <text x="167.868px" y="326.168px" style="font-family:'Helsinki';font-size:25.714px;">ARTIE</text>
                <text x="251.51px" y="326.168px" style="font-family:'Helsinki';font-size:36px;">6 : L</text>
                <text x="323.264px" y="326.168px" style="font-family:'Helsinki';font-size:25.714px;">A</text>
                <text x="350.065px" y="326.168px" style="font-family:'Helsinki';font-size:25.714px;">PEUR</text>
            </g>
            <g transform="matrix(1,0,0,0.590551,2.33333,-250)">
                <path d="M524.757,1261.06C524.757,1254.1 517.699,1248.45 509.007,1248.45C500.314,1248.45 493.257,1254.1 493.257,1261.06C493.257,1265.16 495.762,1269.02 499.969,1271.37L497.982,1279.95L504.926,1273.23C506.257,1273.51 507.629,1273.65 509.007,1273.65C517.699,1273.65 524.757,1268.01 524.757,1261.06Z" style="fill:rgb(118,118,118);"/>
            </g>
        </g>
    </g>
</svg>
