<?xml version="1.0" encoding="UTF-8" standalone="no"?>
<!DOCTYPE svg PUBLIC "-//W3C//DTD SVG 1.1//EN" "http://www.w3.org/Graphics/SVG/1.1/DTD/svg11.dtd">
<svg width="100%" height="100%" viewBox="0 0 356 356" version="1.1" xmlns="http://www.w3.org/2000/svg" xmlns:xlink="http://www.w3.org/1999/xlink" xml:space="preserve" xmlns:serif="http://www.serif.com/" style="fill-rule:evenodd;clip-rule:evenodd;stroke-linecap:round;stroke-linejoin:round;stroke-miterlimit:1.5;">
    <g id="Plan-de-travail5" serif:id="Plan de travail5" transform="matrix(0.494444,0,0,0.281201,-1418.07,0)">
        <g transform="matrix(2.19376,0,0,3.85735,-481.727,-713.367)">
            <circle cx="1691.5" cy="349.5" r="153.5" style="fill:none;stroke:white;stroke-width:2.13px;"/>
        </g>
        <g transform="matrix(0.661906,0,0,0.579854,3144.46,382.231)">
            <g transform="matrix(3.46172,0,0,6.90196,-862.929,-93.2526)">
                <path d="M190.5,52L192.633,58.564L199.535,58.564L193.951,62.621L196.084,69.186L190.5,65.129L184.916,69.186L187.049,62.621L181.465,58.564L188.367,58.564L190.5,52Z" style="fill:white;"/>
            </g>
            <g transform="matrix(3.46172,0,0,6.90196,-488.117,900.273)">
                <path d="M190.5,52L192.633,58.564L199.535,58.564L193.951,62.621L196.084,69.186L190.5,65.129L184.916,69.186L187.049,62.621L181.465,58.564L188.367,58.564L190.5,52Z" style="fill:white;"/>
            </g>
            <g transform="matrix(3.46172,0,0,6.90196,-86.7444,147.385)">
                <path d="M190.5,52L192.633,58.564L199.535,58.564L193.951,62.621L196.084,69.186L190.5,65.129L184.916,69.186L187.049,62.621L181.465,58.564L188.367,58.564L190.5,52Z" style="fill:white;"/>
            </g>
            <g transform="matrix(2.69507,0,0,5.37341,-637.831,668.211)">
                <path d="M190.5,52L192.633,58.564L199.535,58.564L193.951,62.621L196.084,69.186L190.5,65.129L184.916,69.186L187.049,62.621L181.465,58.564L188.367,58.564L190.5,52Z" style="fill:white;"/>
            </g>
            <g transform="matrix(2.69507,0,0,5.37341,-184.673,880.41)">
                <path d="M190.5,52L192.633,58.564L199.535,58.564L193.951,62.621L196.084,69.186L190.5,65.129L184.916,69.186L187.049,62.621L181.465,58.564L188.367,58.564L190.5,52Z" style="fill:white;"/>
            </g>
            <g transform="matrix(1.39684,0,0,2.785,-341.137,790.543)">
                <path d="M190.5,52L192.633,58.564L199.535,58.564L193.951,62.621L196.084,69.186L190.5,65.129L184.916,69.186L187.049,62.621L181.465,58.564L188.367,58.564L190.5,52Z" style="fill:white;"/>
            </g>
            <g transform="matrix(1.39684,0,0,2.785,-390.088,1046.44)">
                <path d="M190.5,52L192.633,58.564L199.535,58.564L193.951,62.621L196.084,69.186L190.5,65.129L184.916,69.186L187.049,62.621L181.465,58.564L188.367,58.564L190.5,52Z" style="fill:white;"/>
            </g>
            <g transform="matrix(1.12354,0,0,2.24011,-394.931,-128.815)">
                <path d="M190.5,52L192.633,58.564L199.535,58.564L193.951,62.621L196.084,69.186L190.5,65.129L184.916,69.186L187.049,62.621L181.465,58.564L188.367,58.564L190.5,52Z" style="fill:white;"/>
            </g>
            <g transform="matrix(1.12354,0,0,2.24011,-471.32,-249.428)">
                <path d="M190.5,52L192.633,58.564L199.535,58.564L193.951,62.621L196.084,69.186L190.5,65.129L184.916,69.186L187.049,62.621L181.465,58.564L188.367,58.564L190.5,52Z" style="fill:white;"/>
            </g>
            <g transform="matrix(1.06114,-0.736136,0.369214,2.1157,-335,14.9212)">
                <path d="M190.5,52L192.633,58.564L199.535,58.564L193.951,62.621L196.084,69.186L190.5,65.129L184.916,69.186L187.049,62.621L181.465,58.564L188.367,58.564L190.5,52Z" style="fill:white;"/>
            </g>
            <g transform="matrix(1.06114,-0.736136,0.369214,2.1157,-411.388,-105.692)">
                <path d="M190.5,52L192.633,58.564L199.535,58.564L193.951,62.621L196.084,69.186L190.5,65.129L184.916,69.186L187.049,62.621L181.465,58.564L188.367,58.564L190.5,52Z" style="fill:white;"/>
            </g>
            <g transform="matrix(1.06114,-0.736136,0.369214,2.1157,-409.861,-236.016)">
                <path d="M190.5,52L192.633,58.564L199.535,58.564L193.951,62.621L196.084,69.186L190.5,65.129L184.916,69.186L187.049,62.621L181.465,58.564L188.367,58.564L190.5,52Z" style="fill:white;"/>
            </g>
            <g transform="matrix(1.06114,-0.736136,0.369214,2.1157,-243.439,1201.52)">
                <path d="M190.5,52L192.633,58.564L199.535,58.564L193.951,62.621L196.084,69.186L190.5,65.129L184.916,69.186L187.049,62.621L181.465,58.564L188.367,58.564L190.5,52Z" style="fill:white;"/>
            </g>
            <g transform="matrix(1.06114,-0.736136,0.369214,2.1157,-17.33,1238.31)">
                <path d="M190.5,52L192.633,58.564L199.535,58.564L193.951,62.621L196.084,69.186L190.5,65.129L184.916,69.186L187.049,62.621L181.465,58.564L188.367,58.564L190.5,52Z" style="fill:white;"/>
            </g>
            <g transform="matrix(1.06114,-0.736136,0.369214,2.1157,-289.272,1227.58)">
                <path d="M190.5,52L192.633,58.564L199.535,58.564L193.951,62.621L196.084,69.186L190.5,65.129L184.916,69.186L187.049,62.621L181.465,58.564L188.367,58.564L190.5,52Z" style="fill:white;"/>
            </g>
            <g transform="matrix(1.06114,-0.736136,0.369214,2.1157,148.468,948.43)">
                <path d="M190.5,52L192.633,58.564L199.535,58.564L193.951,62.621L196.084,69.186L190.5,65.129L184.916,69.186L187.049,62.621L181.465,58.564L188.367,58.564L190.5,52Z" style="fill:white;"/>
            </g>
            <g transform="matrix(1.06114,-0.736136,0.369214,2.1157,219.913,911.09)">
                <path d="M190.5,52L192.633,58.564L199.535,58.564L193.951,62.621L196.084,69.186L190.5,65.129L184.916,69.186L187.049,62.621L181.465,58.564L188.367,58.564L190.5,52Z" style="fill:white;"/>
            </g>
            <g transform="matrix(1.12354,0,0,2.24011,-284.643,-316.9)">
                <path d="M190.5,52L192.633,58.564L199.535,58.564L193.951,62.621L196.084,69.186L190.5,65.129L184.916,69.186L187.049,62.621L181.465,58.564L188.367,58.564L190.5,52Z" style="fill:white;"/>
            </g>
            <g transform="matrix(1.12354,0,0,2.24011,-193.082,869.694)">
                <path d="M190.5,52L192.633,58.564L199.535,58.564L193.951,62.621L196.084,69.186L190.5,65.129L184.916,69.186L187.049,62.621L181.465,58.564L188.367,58.564L190.5,52Z" style="fill:white;"/>
            </g>
            <g transform="matrix(1.12354,0,0,2.24011,-528.427,532.386)">
                <path d="M190.5,52L192.633,58.564L199.535,58.564L193.951,62.621L196.084,69.186L190.5,65.129L184.916,69.186L187.049,62.621L181.465,58.564L188.367,58.564L190.5,52Z" style="fill:white;"/>
            </g>
            <g transform="matrix(1.12354,0,0,2.24011,182.749,969.865)">
                <path d="M190.5,52L192.633,58.564L199.535,58.564L193.951,62.621L196.084,69.186L190.5,65.129L184.916,69.186L187.049,62.621L181.465,58.564L188.367,58.564L190.5,52Z" style="fill:white;"/>
            </g>
            <g transform="matrix(1.32712,0.4052,-0.203231,2.64599,-280.404,-355.435)">
                <path d="M190.5,52L192.633,58.564L199.535,58.564L193.951,62.621L196.084,69.186L190.5,65.129L184.916,69.186L187.049,62.621L181.465,58.564L188.367,58.564L190.5,52Z" style="fill:white;"/>
            </g>
            <g transform="matrix(1.32712,0.4052,-0.203231,2.64599,-335.412,-567.969)">
                <path d="M190.5,52L192.633,58.564L199.535,58.564L193.951,62.621L196.084,69.186L190.5,65.129L184.916,69.186L187.049,62.621L181.465,58.564L188.367,58.564L190.5,52Z" style="fill:white;"/>
            </g>
            <g transform="matrix(1.32712,0.4052,-0.203231,2.64599,-375.134,-152.978)">
                <path d="M190.5,52L192.633,58.564L199.535,58.564L193.951,62.621L196.084,69.186L190.5,65.129L184.916,69.186L187.049,62.621L181.465,58.564L188.367,58.564L190.5,52Z" style="fill:white;"/>
            </g>
            <g transform="matrix(1.32712,0.4052,-0.203231,2.64599,-188.844,831.159)">
                <path d="M190.5,52L192.633,58.564L199.535,58.564L193.951,62.621L196.084,69.186L190.5,65.129L184.916,69.186L187.049,62.621L181.465,58.564L188.367,58.564L190.5,52Z" style="fill:white;"/>
            </g>
            <g transform="matrix(1.32712,0.4052,-0.203231,2.64599,-524.188,493.851)">
                <path d="M190.5,52L192.633,58.564L199.535,58.564L193.951,62.621L196.084,69.186L190.5,65.129L184.916,69.186L187.049,62.621L181.465,58.564L188.367,58.564L190.5,52Z" style="fill:white;"/>
            </g>
            <g transform="matrix(1.32712,0.4052,-0.203231,2.64599,-445.509,802.539)">
                <path d="M190.5,52L192.633,58.564L199.535,58.564L193.951,62.621L196.084,69.186L190.5,65.129L184.916,69.186L187.049,62.621L181.465,58.564L188.367,58.564L190.5,52Z" style="fill:white;"/>
            </g>
            <g transform="matrix(1.32712,0.4052,-0.203231,2.64599,-240.788,1056.03)">
                <path d="M190.5,52L192.633,58.564L199.535,58.564L193.951,62.621L196.084,69.186L190.5,65.129L184.916,69.186L187.049,62.621L181.465,58.564L188.367,58.564L190.5,52Z" style="fill:white;"/>
            </g>
            <g transform="matrix(1.32712,0.4052,-0.203231,2.64599,186.987,931.329)">
                <path d="M190.5,52L192.633,58.564L199.535,58.564L193.951,62.621L196.084,69.186L190.5,65.129L184.916,69.186L187.049,62.621L181.465,58.564L188.367,58.564L190.5,52Z" style="fill:white;"/>
            </g>
            <g transform="matrix(1.12354,0,0,2.24011,-242.33,-315.517)">
                <path d="M190.5,52L192.633,58.564L199.535,58.564L193.951,62.621L196.084,69.186L190.5,65.129L184.916,69.186L187.049,62.621L181.465,58.564L188.367,58.564L190.5,52Z" style="fill:white;"/>
            </g>
            <g transform="matrix(1.12354,0,0,2.24011,-297.338,-528.051)">
                <path d="M190.5,52L192.633,58.564L199.535,58.564L193.951,62.621L196.084,69.186L190.5,65.129L184.916,69.186L187.049,62.621L181.465,58.564L188.367,58.564L190.5,52Z" style="fill:white;"/>
            </g>
            <g transform="matrix(1.12354,0,0,2.24011,-150.77,871.077)">
                <path d="M190.5,52L192.633,58.564L199.535,58.564L193.951,62.621L196.084,69.186L190.5,65.129L184.916,69.186L187.049,62.621L181.465,58.564L188.367,58.564L190.5,52Z" style="fill:white;"/>
            </g>
            <g transform="matrix(1.12354,0,0,2.24011,-486.114,533.769)">
                <path d="M190.5,52L192.633,58.564L199.535,58.564L193.951,62.621L196.084,69.186L190.5,65.129L184.916,69.186L187.049,62.621L181.465,58.564L188.367,58.564L190.5,52Z" style="fill:white;"/>
            </g>
            <g transform="matrix(1.12354,0,0,2.24011,225.061,971.248)">
                <path d="M190.5,52L192.633,58.564L199.535,58.564L193.951,62.621L196.084,69.186L190.5,65.129L184.916,69.186L187.049,62.621L181.465,58.564L188.367,58.564L190.5,52Z" style="fill:white;"/>
            </g>
            <g transform="matrix(1.12354,0,0,2.24011,-96.6658,-312.751)">
                <path d="M190.5,52L192.633,58.564L199.535,58.564L193.951,62.621L196.084,69.186L190.5,65.129L184.916,69.186L187.049,62.621L181.465,58.564L188.367,58.564L190.5,52Z" style="fill:white;"/>
            </g>
            <g transform="matrix(1.12354,0,0,2.24011,31.6665,-474.25)">
                <path d="M190.5,52L192.633,58.564L199.535,58.564L193.951,62.621L196.084,69.186L190.5,65.129L184.916,69.186L187.049,62.621L181.465,58.564L188.367,58.564L190.5,52Z" style="fill:white;"/>
            </g>
            <g transform="matrix(1.12354,0,0,2.24011,-147.995,-437.219)">
                <path d="M190.5,52L192.633,58.564L199.535,58.564L193.951,62.621L196.084,69.186L190.5,65.129L184.916,69.186L187.049,62.621L181.465,58.564L188.367,58.564L190.5,52Z" style="fill:white;"/>
            </g>
            <g transform="matrix(1.12354,0,0,2.24011,-187.717,-502.636)">
                <path d="M190.5,52L192.633,58.564L199.535,58.564L193.951,62.621L196.084,69.186L190.5,65.129L184.916,69.186L187.049,62.621L181.465,58.564L188.367,58.564L190.5,52Z" style="fill:white;"/>
            </g>
            <g transform="matrix(1.12354,0,0,2.24011,-68.2346,-415.137)">
                <path d="M190.5,52L192.633,58.564L199.535,58.564L193.951,62.621L196.084,69.186L190.5,65.129L184.916,69.186L187.049,62.621L181.465,58.564L188.367,58.564L190.5,52Z" style="fill:white;"/>
            </g>
            <g transform="matrix(1.12354,0,0,2.24011,60.0977,-576.636)">
                <path d="M190.5,52L192.633,58.564L199.535,58.564L193.951,62.621L196.084,69.186L190.5,65.129L184.916,69.186L187.049,62.621L181.465,58.564L188.367,58.564L190.5,52Z" style="fill:white;"/>
            </g>
            <g transform="matrix(1.12354,0,0,2.24011,-48.9821,-586.268)">
                <path d="M190.5,52L192.633,58.564L199.535,58.564L193.951,62.621L196.084,69.186L190.5,65.129L184.916,69.186L187.049,62.621L181.465,58.564L188.367,58.564L190.5,52Z" style="fill:white;"/>
            </g>
            <g transform="matrix(1.12354,0,0,2.24011,-88.704,-651.686)">
                <path d="M190.5,52L192.633,58.564L199.535,58.564L193.951,62.621L196.084,69.186L190.5,65.129L184.916,69.186L187.049,62.621L181.465,58.564L188.367,58.564L190.5,52Z" style="fill:white;"/>
            </g>
            <g transform="matrix(1.12354,0,0,2.24011,-495.515,254.612)">
                <path d="M190.5,52L192.633,58.564L199.535,58.564L193.951,62.621L196.084,69.186L190.5,65.129L184.916,69.186L187.049,62.621L181.465,58.564L188.367,58.564L190.5,52Z" style="fill:white;"/>
            </g>
            <g transform="matrix(1.12354,0,0,2.24011,-555.862,136.554)">
                <path d="M190.5,52L192.633,58.564L199.535,58.564L193.951,62.621L196.084,69.186L190.5,65.129L184.916,69.186L187.049,62.621L181.465,58.564L188.367,58.564L190.5,52Z" style="fill:white;"/>
            </g>
            <g transform="matrix(1.12354,0,0,2.24011,268.883,-58.283)">
                <path d="M190.5,52L192.633,58.564L199.535,58.564L193.951,62.621L196.084,69.186L190.5,65.129L184.916,69.186L187.049,62.621L181.465,58.564L188.367,58.564L190.5,52Z" style="fill:white;"/>
            </g>
            <g transform="matrix(2.30781,0,0,4.60131,-25.0962,-122.98)">
                <path d="M190.5,52L192.633,58.564L199.535,58.564L193.951,62.621L196.084,69.186L190.5,65.129L184.916,69.186L187.049,62.621L181.465,58.564L188.367,58.564L190.5,52Z" style="fill:white;"/>
            </g>
            <g transform="matrix(2.23121,1.17568,-0.58967,4.44857,-199.32,-704.111)">
                <path d="M190.5,52L192.633,58.564L199.535,58.564L193.951,62.621L196.084,69.186L190.5,65.129L184.916,69.186L187.049,62.621L181.465,58.564L188.367,58.564L190.5,52Z" style="fill:white;"/>
            </g>
            <g transform="matrix(2.23121,1.17568,-0.58967,4.44857,-87.9304,-828.319)">
                <path d="M190.5,52L192.633,58.564L199.535,58.564L193.951,62.621L196.084,69.186L190.5,65.129L184.916,69.186L187.049,62.621L181.465,58.564L188.367,58.564L190.5,52Z" style="fill:white;"/>
            </g>
            <g transform="matrix(2.23121,1.17568,-0.58967,4.44857,-296.958,-933.206)">
                <path d="M190.5,52L192.633,58.564L199.535,58.564L193.951,62.621L196.084,69.186L190.5,65.129L184.916,69.186L187.049,62.621L181.465,58.564L188.367,58.564L190.5,52Z" style="fill:white;"/>
            </g>
            <g transform="matrix(2.23121,1.17568,-0.58967,4.44857,-190.997,532.27)">
                <path d="M190.5,52L192.633,58.564L199.535,58.564L193.951,62.621L196.084,69.186L190.5,65.129L184.916,69.186L187.049,62.621L181.465,58.564L188.367,58.564L190.5,52Z" style="fill:white;"/>
            </g>
            <g transform="matrix(2.23121,1.17568,-0.58967,4.44857,89.9281,229.398)">
                <path d="M190.5,52L192.633,58.564L199.535,58.564L193.951,62.621L196.084,69.186L190.5,65.129L184.916,69.186L187.049,62.621L181.465,58.564L188.367,58.564L190.5,52Z" style="fill:white;"/>
            </g>
            <g transform="matrix(1.11561,0.58784,-0.294835,2.22429,-492.835,333.611)">
                <path d="M190.5,52L192.633,58.564L199.535,58.564L193.951,62.621L196.084,69.186L190.5,65.129L184.916,69.186L187.049,62.621L181.465,58.564L188.367,58.564L190.5,52Z" style="fill:white;"/>
            </g>
            <g transform="matrix(1.11561,0.58784,-0.294835,2.22429,270.249,331.194)">
                <path d="M190.5,52L192.633,58.564L199.535,58.564L193.951,62.621L196.084,69.186L190.5,65.129L184.916,69.186L187.049,62.621L181.465,58.564L188.367,58.564L190.5,52Z" style="fill:white;"/>
            </g>
            <g transform="matrix(1.11561,0.58784,-0.294835,2.22429,-374.143,219.173)">
                <path d="M190.5,52L192.633,58.564L199.535,58.564L193.951,62.621L196.084,69.186L190.5,65.129L184.916,69.186L187.049,62.621L181.465,58.564L188.367,58.564L190.5,52Z" style="fill:white;"/>
            </g>
            <g transform="matrix(1.11561,0.58784,-0.294835,2.22429,-474.502,76.03)">
                <path d="M190.5,52L192.633,58.564L199.535,58.564L193.951,62.621L196.084,69.186L190.5,65.129L184.916,69.186L187.049,62.621L181.465,58.564L188.367,58.564L190.5,52Z" style="fill:white;"/>
            </g>
            <g transform="matrix(1.11561,0.58784,-0.294835,2.22429,361.81,172.152)">
                <path d="M190.5,52L192.633,58.564L199.535,58.564L193.951,62.621L196.084,69.186L190.5,65.129L184.916,69.186L187.049,62.621L181.465,58.564L188.367,58.564L190.5,52Z" style="fill:white;"/>
            </g>
            <g transform="matrix(1.11561,0.58784,-0.294835,2.22429,-402.583,315.981)">
                <path d="M190.5,52L192.633,58.564L199.535,58.564L193.951,62.621L196.084,69.186L190.5,65.129L184.916,69.186L187.049,62.621L181.465,58.564L188.367,58.564L190.5,52Z" style="fill:white;"/>
            </g>
            <g transform="matrix(1.11561,0.58784,-0.294835,2.22429,333.37,268.96)">
                <path d="M190.5,52L192.633,58.564L199.535,58.564L193.951,62.621L196.084,69.186L190.5,65.129L184.916,69.186L187.049,62.621L181.465,58.564L188.367,58.564L190.5,52Z" style="fill:white;"/>
            </g>
            <g transform="matrix(1.80612,-0.492297,0.246915,3.60102,138.129,329.873)">
                <path d="M190.5,52L192.633,58.564L199.535,58.564L193.951,62.621L196.084,69.186L190.5,65.129L184.916,69.186L187.049,62.621L181.465,58.564L188.367,58.564L190.5,52Z" style="fill:white;"/>
            </g>
            <g transform="matrix(1.39524,1.19384,-0.598778,2.78182,206.249,-2.70874)">
                <path d="M190.5,52L192.633,58.564L199.535,58.564L193.951,62.621L196.084,69.186L190.5,65.129L184.916,69.186L187.049,62.621L181.465,58.564L188.367,58.564L190.5,52Z" style="fill:white;"/>
            </g>
            <g transform="matrix(1.01323,2.25449,-1.13075,2.02017,-270.464,-357.84)">
                <path d="M190.5,52L192.633,58.564L199.535,58.564L193.951,62.621L196.084,69.186L190.5,65.129L184.916,69.186L187.049,62.621L181.465,58.564L188.367,58.564L190.5,52Z" style="fill:white;"/>
            </g>
            <g transform="matrix(1.01323,2.25449,-1.13075,2.02017,41.093,568.015)">
                <path d="M190.5,52L192.633,58.564L199.535,58.564L193.951,62.621L196.084,69.186L190.5,65.129L184.916,69.186L187.049,62.621L181.465,58.564L188.367,58.564L190.5,52Z" style="fill:white;"/>
            </g>
            <g transform="matrix(1.01323,2.25449,-1.13075,2.02017,353.231,269.292)">
                <path d="M190.5,52L192.633,58.564L199.535,58.564L193.951,62.621L196.084,69.186L190.5,65.129L184.916,69.186L187.049,62.621L181.465,58.564L188.367,58.564L190.5,52Z" style="fill:white;"/>
            </g>
            <g transform="matrix(1.01323,2.25449,-1.13075,2.02017,98.3184,565.941)">
                <path d="M190.5,52L192.633,58.564L199.535,58.564L193.951,62.621L196.084,69.186L190.5,65.129L184.916,69.186L187.049,62.621L181.465,58.564L188.367,58.564L190.5,52Z" style="fill:white;"/>
            </g>
            <g transform="matrix(1.01323,2.25449,-1.13075,2.02017,396.584,268.601)">
                <path d="M190.5,52L192.633,58.564L199.535,58.564L193.951,62.621L196.084,69.186L190.5,65.129L184.916,69.186L187.049,62.621L181.465,58.564L188.367,58.564L190.5,52Z" style="fill:white;"/>
            </g>
            <g transform="matrix(1.01323,2.25449,-1.13075,2.02017,255.881,-629.207)">
                <path d="M190.5,52L192.633,58.564L199.535,58.564L193.951,62.621L196.084,69.186L190.5,65.129L184.916,69.186L187.049,62.621L181.465,58.564L188.367,58.564L190.5,52Z" style="fill:white;"/>
            </g>
            <g transform="matrix(1.01323,2.25449,-1.13075,2.02017,189.678,-661.916)">
                <path d="M190.5,52L192.633,58.564L199.535,58.564L193.951,62.621L196.084,69.186L190.5,65.129L184.916,69.186L187.049,62.621L181.465,58.564L188.367,58.564L190.5,52Z" style="fill:white;"/>
            </g>
            <g transform="matrix(1.01323,2.25449,-1.13075,2.02017,289.492,-817.282)">
                <path d="M190.5,52L192.633,58.564L199.535,58.564L193.951,62.621L196.084,69.186L190.5,65.129L184.916,69.186L187.049,62.621L181.465,58.564L188.367,58.564L190.5,52Z" style="fill:white;"/>
            </g>
            <g transform="matrix(1.01323,2.25449,-1.13075,2.02017,435.139,-300.076)">
                <path d="M190.5,52L192.633,58.564L199.535,58.564L193.951,62.621L196.084,69.186L190.5,65.129L184.916,69.186L187.049,62.621L181.465,58.564L188.367,58.564L190.5,52Z" style="fill:white;"/>
            </g>
            <g transform="matrix(1.01323,2.25449,-1.13075,2.02017,267.085,-899.054)">
                <path d="M190.5,52L192.633,58.564L199.535,58.564L193.951,62.621L196.084,69.186L190.5,65.129L184.916,69.186L187.049,62.621L181.465,58.564L188.367,58.564L190.5,52Z" style="fill:white;"/>
            </g>
            <g transform="matrix(1.42072,-2.63643,1.32232,2.83262,-528.37,1256.66)">
                <path d="M190.5,52L192.633,58.564L199.535,58.564L193.951,62.621L196.084,69.186L190.5,65.129L184.916,69.186L187.049,62.621L181.465,58.564L188.367,58.564L190.5,52Z" style="fill:white;"/>
            </g>
            <g transform="matrix(1.42072,-2.63643,1.32232,2.83262,-4.85588,1346.6)">
                <path d="M190.5,52L192.633,58.564L199.535,58.564L193.951,62.621L196.084,69.186L190.5,65.129L184.916,69.186L187.049,62.621L181.465,58.564L188.367,58.564L190.5,52Z" style="fill:white;"/>
            </g>
            <g transform="matrix(0.854525,-1.58574,0.795338,1.70375,142.104,236.465)">
                <path d="M190.5,52L192.633,58.564L199.535,58.564L193.951,62.621L196.084,69.186L190.5,65.129L184.916,69.186L187.049,62.621L181.465,58.564L188.367,58.564L190.5,52Z" style="fill:white;"/>
            </g>
            <g transform="matrix(3.46172,0,0,6.90196,-958.481,-95.773)">
                <path d="M208,77L202,89L173,71L203,95L210,87L216,90L208,77Z" style="fill:white;"/>
            </g>
            <g transform="matrix(3.03559,3.33978,-1.65289,6.05233,-406.851,99.5853)">
                <path d="M208,77L202,89L173,71L203,95L210,87L216,90L208,77Z" style="fill:white;"/>
            </g>
            <g transform="matrix(-3.39847,-1.31335,0.658718,-6.77585,1083.04,1852.24)">
                <path d="M208,77L202,89L186.154,78.416L203,95L210,87L216,90L208,77Z" style="fill:white;"/>
            </g>
            <g transform="matrix(3.46172,0,0,6.90196,-935.941,-396.629)">
                <path d="M242,53L240,36L231,37L229,13L226,43L237,41L242,53Z" style="fill:white;"/>
            </g>
            <g transform="matrix(3.46172,0,0,6.90196,-888.391,-195.968)">
                <path d="M178,23L199,38L195,46L207,49L190,49L194,39L178,23Z" style="fill:white;"/>
            </g>
            <g transform="matrix(-3.46172,0,0,6.90196,1188.08,-167.845)">
                <path d="M178,23L199,38L195,46L207,49L190,49L194,39L178,23Z" style="fill:white;"/>
            </g>
            <g transform="matrix(-2.75999,-4.16602,2.08949,-5.50285,568.065,2104.3)">
                <path d="M178,23L199,38L195,46L207,49L190,49L194,39L178,23Z" style="fill:white;"/>
            </g>
            <g transform="matrix(3.46172,0,0,6.90196,-566.715,-288.873)">
                <path d="M282,49L292,29L277,16L303,4L287,17L303,31L282,49Z" style="fill:white;"/>
            </g>
            <g transform="matrix(3.46172,0,0,6.90196,-874.038,-391.084)">
                <path d="M256,14L252,27L258,25L258,33L261,22L256,21L256,14Z" style="fill:white;"/>
            </g>
            <g transform="matrix(3.46172,0,0,6.90196,-1052.51,-91.0037)">
                <path d="M233,119L222,135L231,135L220,154L238,131L230,131L233,119Z" style="fill:white;"/>
            </g>
            <g transform="matrix(3.46172,0,0,6.90196,-810.479,-1316.52)">
                <path d="M233,119L222,135L231,135L220,154L238,131L230,131L233,119Z" style="fill:white;"/>
            </g>
            <g transform="matrix(3.46172,0,0,6.90196,-944.07,66.7332)">
                <path d="M256,125L264,130L256,152L271,127L256,125Z" style="fill:white;"/>
            </g>
            <g transform="matrix(3.46172,0,0,6.90196,-771.489,-194.107)">
                <path d="M342,65L359,60L362,77L387,76L356,82L355,66L342,65Z" style="fill:white;"/>
            </g>
            <g transform="matrix(3.46172,0,0,6.90196,-865.909,-422.763)">
                <path d="M329,40L332,24L352,25L336,29L329,40Z" style="fill:white;"/>
            </g>
            <g transform="matrix(-1.49962,-6.22072,-3.12004,2.98993,687.244,1762.4)">
                <path d="M329,40L332,24L352,25L336,29L329,40Z" style="fill:white;"/>
            </g>
            <g transform="matrix(-1.49962,-6.22072,-3.12004,2.98993,856.391,3308.11)">
                <path d="M329,40L332,24L352,25L336,29L329,40Z" style="fill:white;"/>
            </g>
            <g transform="matrix(2.08092,0,0,4.14893,-526.077,-452.116)">
                <path d="M486,263L512,259L513,282L544,288L506,293L503,266L486,263Z" style="fill:white;"/>
            </g>
            <g transform="matrix(2.08092,0,0,4.14893,-1352.56,-968.27)">
                <path d="M486,263L512,259L513,282L544,288L506,293L503,266L486,263Z" style="fill:white;"/>
            </g>
            <g transform="matrix(1.15159,-3.47883,1.7217,2.29603,-1200.97,2234.05)">
                <path d="M486,263L512,259L513,282L544,288L506,293L503,266L486,263Z" style="fill:white;"/>
            </g>
            <g transform="matrix(2.08092,0,0,4.14893,-567.695,-414.775)">
                <path d="M388,342L407,346L402,370L426,372L412,363L417,340L388,342Z" style="fill:white;"/>
            </g>
            <g transform="matrix(2.08092,0,0,4.14893,-644.705,-1932.88)">
                <path d="M388,342L407,346L402,370L426,372L412,363L417,340L388,342Z" style="fill:white;"/>
            </g>
        </g>
        <g transform="matrix(3.657,0,0,6.4302,-1509.15,-5659.3)">
            <g transform="matrix(1.46257,0,0,1.46257,-419.266,-467.287)">
                <path d="M1172,954C1172,954 1147.75,955.583 1144,973C1140.46,989.448 1144.63,1002.74 1134.16,1000.12C1129.93,999.057 1133.19,1012.06 1136.68,1010.6C1141.66,1008.52 1138.01,1018.89 1143,1018C1151.9,1016.41 1152.42,1010.81 1156.83,1014.56C1161.25,1018.31 1170.56,1018.94 1178.02,1017.06C1187.09,1014.76 1194.56,1015.83 1196.47,1017.06C1200.48,1019.63 1198.22,1008.59 1204.19,1013.07C1208.89,1016.59 1213.55,1008.88 1211.42,1005.84C1206.44,998.714 1215.52,1002.33 1209.18,994.623C1204.44,988.861 1204.08,992.417 1203,983C1201.92,973.583 1198.08,953.583 1172,954Z" style="fill:rgb(97,80,80);stroke:black;stroke-width:0.22px;stroke-linejoin:miter;stroke-miterlimit:1;"/>
            </g>
            <g transform="matrix(1.46257,0,0,1.46257,-420.266,-467.287)">
                <path d="M1197,988C1197,988 1202.43,989.085 1202,992C1201.08,998.25 1196,996 1196,996" style="fill:rgb(255,240,229);stroke:black;stroke-width:0.22px;stroke-linejoin:miter;stroke-miterlimit:1;"/>
            </g>
            <g transform="matrix(-1.46257,0,0,1.81104,3011.97,-811.575)">
                <path d="M1197,988C1197,988 1202.43,989.085 1202,992C1201.08,998.25 1196,996 1196,996" style="fill:rgb(255,240,229);stroke:black;stroke-width:0.2px;stroke-linejoin:miter;stroke-miterlimit:1;"/>
            </g>
            <g transform="matrix(1.46257,0,0,1.46257,-419.266,-467.287)">
                <path d="M1195,975C1195,975 1194.25,974.25 1188,970C1181.75,965.75 1164,969 1164,969L1150,979C1150,979 1143.06,1015.91 1174.53,1015.56C1202.93,1015.25 1195,975 1195,975Z" style="fill:rgb(255,240,229);stroke:black;stroke-width:0.22px;stroke-linejoin:miter;stroke-miterlimit:1;"/>
            </g>
            <g transform="matrix(1.46257,0,0,1.46257,-419.266,-464.362)">
                <ellipse cx="1188" cy="995.5" rx="3" ry="1.5" style="fill:rgb(216,103,103);stroke:black;stroke-width:0.22px;stroke-linejoin:miter;stroke-miterlimit:1;"/>
            </g>
            <g transform="matrix(1.46257,0,0,1.46257,-462.265,-464.362)">
                <ellipse cx="1188" cy="995.5" rx="3" ry="1.5" style="fill:rgb(216,103,103);stroke:black;stroke-width:0.22px;stroke-linejoin:miter;stroke-miterlimit:1;"/>
            </g>
            <g transform="matrix(1.46257,0,0,1.46257,-419.266,-464.362)">
                <path d="M1166.06,1003.09C1166.06,1003.09 1166.74,1006.98 1173,1007C1179.43,1007.02 1180.51,1003.84 1180.51,1003.84" style="fill:none;stroke:black;stroke-width:0.22px;stroke-linejoin:miter;stroke-miterlimit:1;"/>
            </g>
            <g transform="matrix(1.46257,0,0,1.19182,-421.728,-195.926)">
                <path d="M1169,984C1169,984 1160.98,982.464 1159,985C1159.46,987.981 1160,989.773 1160,989.773C1160,989.773 1164.43,993.282 1169,990C1168.91,985.87 1169,984 1169,984Z" style="fill:white;"/>
            </g>
            <g transform="matrix(1.46257,0,0,1.46257,-421.728,-458.512)">
                <path d="M1169,981C1169,981 1163.54,979.219 1159,982" style="fill:none;stroke:black;stroke-width:0.22px;stroke-linejoin:miter;stroke-miterlimit:1;"/>
            </g>
            <g transform="matrix(1.46257,0,0,1.46257,-421.728,-462.899)">
                <path d="M1169,989C1169,989 1164.74,991.619 1160,989" style="fill:none;stroke:black;stroke-width:0.22px;stroke-linejoin:miter;stroke-miterlimit:1;"/>
            </g>
            <g transform="matrix(1.46257,0,0,1.46257,-421.728,-462.899)">
                <circle cx="1164.5" cy="987.5" r="2.5" style="stroke:black;stroke-width:0.22px;stroke-linejoin:miter;stroke-miterlimit:1;"/>
            </g>
            <g transform="matrix(1.46257,0,0,1.46257,-421.728,-464.362)">
                <path d="M1170,979C1170,979 1165.65,974.464 1157,980" style="fill:none;stroke:black;stroke-width:0.22px;stroke-linejoin:miter;stroke-miterlimit:1;"/>
            </g>
            <g transform="matrix(-1.46257,0,0,1.28569,3013.93,-288.25)">
                <path d="M1169,984C1169,984 1160.98,982.464 1159,985C1159.46,987.981 1160,989.862 1160,989.862C1160,989.862 1164.98,992.464 1169,990C1168.91,985.87 1169,984 1169,984Z" style="fill:white;"/>
            </g>
            <g transform="matrix(-1.46257,0,0,1.46257,3013.93,-457.771)">
                <path d="M1169,981C1169,981 1163.54,979.219 1159,982" style="fill:none;stroke:black;stroke-width:0.22px;stroke-linejoin:miter;stroke-miterlimit:1;"/>
            </g>
            <g transform="matrix(-1.46257,0,0,1.46257,3013.93,-462.158)">
                <path d="M1169,989C1169,989 1164.74,991.619 1160,989" style="fill:none;stroke:black;stroke-width:0.22px;stroke-linejoin:miter;stroke-miterlimit:1;"/>
            </g>
            <g transform="matrix(-1.46257,0,0,1.46257,3013.93,-462.158)">
                <circle cx="1164.5" cy="987.5" r="2.5" style="stroke:black;stroke-width:0.22px;stroke-linejoin:miter;stroke-miterlimit:1;"/>
            </g>
            <g transform="matrix(-1.46257,0,0,1.46257,3013.93,-463.621)">
                <path d="M1170,979C1170,979 1163.09,975.797 1157,980" style="fill:none;stroke:black;stroke-width:0.22px;stroke-linejoin:miter;stroke-miterlimit:1;"/>
            </g>
            <g transform="matrix(1.46257,0,0,1.46257,-419.266,-467.287)">
                <path d="M1181,960C1174.38,959.625 1152.38,963.625 1150,968C1147.63,972.375 1147,979 1147,979C1147,979 1145.63,996.625 1150,1000C1150.13,987.875 1152,983 1152,983L1156,978C1156,978 1152.88,985.375 1156,983C1159.13,980.625 1167.88,966.125 1170,970C1172.13,973.875 1175,975 1175,975C1175,975 1176.63,966.875 1179,971C1181.38,975.125 1187,979 1187,979C1187,979 1189.88,971.625 1191,974C1192.13,976.375 1197.13,986.625 1196,992C1194.88,997.375 1199.88,976.875 1199,973" style="fill:rgb(97,80,80);"/>
            </g>
            <g transform="matrix(1.46257,0,0,1.46257,-419.266,-467.287)">
                <path d="M1147,979C1147,979 1145.63,996.625 1150,1000C1150.13,987.875 1152,983 1152,983L1156,978C1156,978 1152.88,985.375 1156,983C1159.13,980.625 1167.88,966.125 1170,970C1172.13,973.875 1175,975 1175,975C1175,975 1176.63,966.875 1179,971C1181.38,975.125 1187,979 1187,979C1187,979 1189.88,971.625 1191,974C1192.13,976.375 1197.13,986.625 1196,992C1194.88,997.375 1199.88,976.875 1199,973" style="fill:none;stroke:black;stroke-width:0.22px;stroke-linejoin:miter;stroke-miterlimit:1;"/>
            </g>
        </g>
    </g>
</svg>
