<?xml version="1.0" encoding="UTF-8" standalone="no"?><!DOCTYPE svg PUBLIC "-//W3C//DTD SVG 1.1//EN" "http://www.w3.org/Graphics/SVG/1.1/DTD/svg11.dtd"><svg width="100%" height="100%" viewBox="0 0 195 205" version="1.1" xmlns="http://www.w3.org/2000/svg" xmlns:xlink="http://www.w3.org/1999/xlink" xml:space="preserve" xmlns:serif="http://www.serif.com/" style="fill-rule:evenodd;clip-rule:evenodd;stroke-linecap:round;stroke-linejoin:round;stroke-miterlimit:10;"><rect id="Plan-de-travail2" serif:id="Plan de travail2" x="-875" y="-34" width="1920" height="2654.6" style="fill:none;"/><g><g><g><g id="ruban"></g></g><rect x="15.468" y="-8.145" width="165" height="216" style="fill:none;"/><clipPath id="_clip1"><rect x="15.468" y="-8.145" width="165" height="216"/></clipPath><g clip-path="url(#_clip1)"><g><path d="M84.53,6.463c-16.786,1.161 -40.524,17.804 -41.037,49.174c-0.454,27.836 -2.454,29.419 -12.292,33.632c-15.651,6.704 2.04,12.946 -7.151,23.762c-7.681,9.038 24.408,21.715 31.153,7.975c5.211,-10.616 10.305,2.663 17.903,2.778c13.939,0.21 25.817,-12.529 44.465,-0.38c18.649,12.15 43.656,7.92 32.476,-7.314c-4.724,-6.438 17.055,-3.147 15.794,-19.614c-1.56,-20.384 -21.797,-4.261 -20.469,-27.927c1.329,-23.665 -6.406,-65.848 -60.842,-62.086Z" style="fill:#615050;stroke:#000;stroke-width:1.2px;"/><path d="M58.566,69.218c0,0 -8.882,-1.632 -7.258,9.203c1.624,10.835 9.866,5.624 9.866,5.624" style="fill:#fff0e5;stroke:#000;stroke-width:1.2px;"/><path d="M131.937,68.836c0,0 8.881,-1.631 7.257,9.203c-1.624,10.835 -9.865,5.625 -9.865,5.625" style="fill:#fff0e5;stroke:#000;stroke-width:1.2px;"/><path d="M90.308,110.684c0,0 0.464,16.734 -0.713,17.677c-11.826,3.286 -20.937,9.13 -20.937,9.13c0,0 17.247,20.452 32.82,16.118c15.573,-4.334 26.694,-16.289 26.694,-16.289c0,0 -13.036,-5.446 -21.651,-8.375c-5.561,-7.127 -1.328,-21.207 -1.328,-21.207l-14.885,2.946Z" style="fill:#fff0e5;"/><path d="M134.404,54.12c0,0 -19.791,-20.764 -43.472,-27.37c-26.341,-7.347 -36.546,29.108 -36.546,29.108c0,0 -0.386,57.102 43.259,56.603c39.797,-0.455 36.759,-58.341 36.759,-58.341Z" style="fill:#fff0e5;"/><path d="M54.768,54.713c0,0 -1.201,57.489 42.877,57.748c38.229,0.225 36.759,-52.618 36.759,-52.618" style="fill:none;stroke:#000;stroke-width:1.2px;"/><path d="M86.894,67.465c0,0 -7.946,-5.868 -18.944,1.314c0.148,5.186 1.575,8.035 1.575,8.035c0,0 10.924,5.186 14.983,0.877c4.059,-4.31 2.386,-10.226 2.386,-10.226Z" style="fill:#fff;"/><path d="M89.104,56.59c0,0 -12.554,-4.733 -26.282,4.64" style="fill:none;stroke:#000;stroke-width:1.2px;"/><circle cx="79.112" cy="72.221" r="4.734" style="stroke:#000;stroke-width:0.9px;"/><path d="M86.448,67.713c0,0 -7.24,-6.435 -18.621,1.152" style="fill:none;stroke:#000;stroke-width:1.2px;"/><path d="M89.609,112.623c0,0 3.365,15.078 -3.646,17.229c-7.012,2.15 -31.661,6.86 -36.951,37.903c-5.289,31.043 -6.972,96.797 -6.972,96.797" style="fill:none;stroke:#000;stroke-width:1.2px;"/><path d="M104.009,112.623c0,0 -2.603,14.696 4.409,16.847c7.011,2.151 34.713,7.623 40.002,38.666c5.29,31.043 11.169,94.508 11.169,94.508" style="fill:none;stroke:#000;stroke-width:1.2px;"/><path d="M68.945,77.134c0,0 10.875,4.739 16.082,-0.252" style="fill:none;stroke:#000;stroke-width:1.2px;"/><path d="M103.95,67.465c0,0 7.946,-5.868 18.944,1.314c-0.148,5.186 -1.575,8.035 -1.575,8.035c0,0 -10.923,5.186 -14.983,0.877c-4.059,-4.31 -2.386,-10.226 -2.386,-10.226Z" style="fill:#fff;"/><path d="M102.122,56.548c0,0 12.554,-4.733 26.282,4.64" style="fill:none;stroke:#000;stroke-width:1.2px;"/><circle cx="114.952" cy="72.221" r="4.734" style="stroke:#000;stroke-width:0.9px;"/><path d="M104.396,67.713c0,0 7.24,-6.435 18.621,1.152" style="fill:none;stroke:#000;stroke-width:1.2px;"/><path d="M121.899,77.134c0,0 -10.875,4.739 -16.082,-0.252" style="fill:none;stroke:#000;stroke-width:1.2px;"/><path d="M91.583,24.806c0,0 -0.663,36.463 41.314,46.551l5.025,-7.85l1.423,-25.879c0,0 -37.552,-15.427 -47.762,-12.822Z" style="fill:#615050;"/><path d="M91.202,25.569c0,0 0.482,36.082 42.077,46.17" style="fill:none;stroke:#000;stroke-width:1.2px;"/><path d="M68.215,134.67c0,0 22.905,19.113 62.097,0.438c9.669,9.569 13.359,13.903 18.353,24.542c4.995,10.64 12.129,105.06 12.129,105.06l-119.764,0.681c0,0 2.952,-108.394 14.023,-119.886c11.071,-11.492 13.162,-10.835 13.162,-10.835Z" style="fill:#d86767;"/><clipPath id="_clip2"><path d="M68.215,134.67c0,0 22.905,19.113 62.097,0.438c9.669,9.569 13.359,13.903 18.353,24.542c4.995,10.64 12.129,105.06 12.129,105.06l-119.764,0.681c0,0 2.952,-108.394 14.023,-119.886c11.071,-11.492 13.162,-10.835 13.162,-10.835Z"/></clipPath><g clip-path="url(#_clip2)"><path d="M46.122,158.117c0,0 17.271,12.441 54.741,10.834c37.469,-1.607 52.009,-11.492 52.009,-11.492l4.724,23.008c0,0 -13.63,0.049 -20.051,5.113c-6.421,5.065 -66.806,4.667 -73.635,1.68c-2.116,-0.925 -10.505,-8.326 -16.73,-8.351c-6.224,-0.024 -13.433,-7.061 -13.433,-7.061l12.375,-13.731Z" style="fill:#edbfbf;"/><path d="M46.122,119.198c0,0 17.271,12.441 54.741,10.834c37.469,-1.607 52.009,-11.492 52.009,-11.492l4.724,23.009c0,0 -11.322,-0.617 -18.906,2.442c-16.342,6.59 -36.278,11.174 -63.715,5.495c-6.871,-1.422 -21.57,-9.471 -27.795,-9.495c-6.224,-0.025 -13.433,-7.061 -13.433,-7.061l12.375,-13.732Z" style="fill:#edbfbf;"/><path d="M45.511,202.377c0,0 18.548,12.442 58.788,10.835c40.24,-1.607 55.855,-11.492 55.855,-11.492l2.402,19.956c0,0 -23.031,4.245 -29.927,9.31c-6.896,5.064 -56.484,3.14 -63.818,0.153c-2.272,-0.925 -18.913,-7.945 -25.598,-7.969c-6.684,-0.025 -10.992,-7.061 -10.992,-7.061l13.29,-13.732Z" style="fill:#edbfbf;"/></g><path d="M68.215,134.67c0,0 22.905,19.113 62.097,0.438c9.669,9.569 13.359,13.903 18.353,24.542c4.995,10.64 12.129,105.06 12.129,105.06l-119.764,0.681c0,0 2.952,-108.394 14.023,-119.886c11.071,-11.492 13.162,-10.835 13.162,-10.835Z" style="fill:none;stroke:#000;stroke-width:1.2px;"/><path d="M65.386,183.9c0,0 -11.366,12.88 -0.615,24.47c10.751,11.589 -1.968,56.827 -1.968,56.827" style="fill:none;stroke:#000;stroke-width:1.2px;"/><path d="M135.294,182.878c0,0 11.366,12.88 0.615,24.469c-10.751,11.589 1.968,56.827 1.968,56.827" style="fill:none;stroke:#000;stroke-width:1.2px;"/><path d="M86.288,98.057c0,0 6.039,3.22 19.323,0" style="fill:none;stroke:#000;stroke-width:1.2px;stroke-miterlimit:1.5;"/></g></g></g></g></svg>