<?xml version="1.0" encoding="UTF-8" standalone="no"?>
<!DOCTYPE svg PUBLIC "-//W3C//DTD SVG 1.1//EN" "http://www.w3.org/Graphics/SVG/1.1/DTD/svg11.dtd">
<svg width="100%" height="100%" viewBox="0 0 356 356" version="1.1" xmlns="http://www.w3.org/2000/svg" xmlns:xlink="http://www.w3.org/1999/xlink" xml:space="preserve" xmlns:serif="http://www.serif.com/" style="fill-rule:evenodd;clip-rule:evenodd;stroke-linecap:round;stroke-linejoin:round;stroke-miterlimit:1.5;">
    <g transform="matrix(1,0,0,1,-3024,-152)">
        <g id="Plan-de-travail5" serif:id="Plan de travail5" transform="matrix(0.494444,0,0,0.281201,1605.93,152)">
            <rect x="2868" y="0" width="720" height="1266" style="fill:none;"/>
            <g transform="matrix(2.19376,0,0,3.85735,-481.727,-713.367)">
                <circle cx="1691.5" cy="349.5" r="153.5" style="fill:rgb(255,234,0);stroke:black;stroke-width:2.13px;"/>
            </g>
            <g transform="matrix(1.62254,0,0,2.85296,455.797,-316.876)">
                <path d="M1692,141C1683.82,141.128 1649.35,144.625 1632,167C1614.65,189.375 1607.6,211.875 1604,220C1600.4,228.125 1587.55,234.111 1588.9,241.95C1592.47,262.702 1605.85,250.125 1605,259C1604.15,267.875 1601.83,270 1603,272C1604.17,274 1616.85,252.875 1612,271C1607.15,289.125 1605.6,293.125 1612,299C1618.4,304.875 1626.1,306.875 1640,308C1653.9,309.125 1659.35,319.125 1668,320C1676.65,320.875 1732.6,327.625 1737,319C1741.4,310.375 1741,293 1741,293C1741,293 1756.35,301.125 1759,309C1761.65,316.875 1771.85,319.625 1784,308C1796.15,312.375 1824.26,309.375 1821,296C1817.75,282.625 1817.76,275.375 1827,275C1836.25,274.625 1838,280 1838,280C1838,280 1869.41,233.73 1833.21,239.457C1815.76,242.218 1836.61,207.611 1814,207C1796.45,206.526 1774.51,207.125 1772,199C1769.5,190.875 1753.62,159.451 1738.48,149.71C1725.48,141.349 1716.57,140.617 1692,141Z" style="fill:white;stroke:black;stroke-width:2.12px;"/>
            </g>
            <g transform="matrix(2.02247,0,0,3.55618,-214.247,-561.876)">
                <path d="M1565,430C1581.04,404.455 1623,350.842 1631.73,341.285C1647.04,324.532 1676,330 1676,330L1705,330C1707.81,329.613 1737.1,324.584 1750.77,336.077C1760.17,343.982 1828.14,433.27 1830,440C1830.18,440.656 1829.89,442.059 1829.18,444.012C1817.06,458.584 1802.45,471.018 1786.01,480.607C1792.55,462.61 1798,443 1798,443C1798,443 1756.82,392.593 1748,382C1761.07,403.743 1749.32,425.151 1746,435C1750.35,457.182 1747.36,484.34 1756.47,492.232L1757.84,493.699C1740.84,499.736 1722.55,503 1703.5,503C1681.2,503 1659.94,498.527 1640.57,490.414C1643.66,474.219 1645.94,446.624 1645,435C1630.55,411.947 1634.56,395.485 1638,387C1634.28,387.242 1594,444 1594,444C1594.72,446.978 1598.84,459.013 1604,471C1589.38,459.787 1575.11,445.497 1565,430Z" style="fill:white;stroke:black;stroke-width:1.7px;"/>
            </g>
            <g transform="matrix(2.24883,0,0,3.9542,-570.271,-563.329)">
                <path d="M1639,223C1639,223 1627.5,219.306 1628,232C1628.49,244.419 1642,239 1642,239" style="fill:none;stroke:black;stroke-width:1.53px;"/>
            </g>
            <g transform="matrix(2.34459,-0.467328,0.265779,4.12257,-865.609,198.722)">
                <path d="M1752,230C1752,230 1763.49,230.003 1762,239C1760.23,249.722 1749.6,245.875 1747,244" style="fill:none;stroke:black;stroke-width:1.46px;"/>
            </g>
            <g transform="matrix(1.85117,0,0,3.25497,71.1625,-458.901)">
                <path d="M1684,299C1684,299 1686.22,327.875 1672,329C1657.78,330.125 1672.97,353.303 1698,351C1714.63,349.47 1730.82,344.291 1724,335C1716.2,324.375 1707.97,332.125 1707,311C1706.48,299.635 1707,300 1707,300" style="fill:white;stroke:black;stroke-width:1.86px;"/>
            </g>
            <g transform="matrix(1.62254,0,0,2.85296,455.797,-316.876)">
                <path d="M1709,160C1709,160 1666.97,153.625 1647,178C1646.28,186.125 1628.72,248.625 1653,275C1677.28,301.375 1689.97,303.125 1697,303C1704.03,302.875 1734.72,290.625 1742,275C1744.69,269.221 1750.18,260.112 1753,250C1757.81,232.774 1757.68,215.168 1757,209C1755.37,194.349 1748.22,185.875 1732,181C1715.78,176.125 1705.22,181.625 1709,160Z" style="fill:none;"/>
            </g>
            <g transform="matrix(1.62254,0,0,2.74407,455.797,-283.882)">
                <path d="M1642.5,199.353C1642.5,199.353 1632.3,249.002 1652,273C1673.25,298.876 1689.61,302.927 1697,303C1712.16,303.149 1735.16,284.412 1740,277C1748.69,263.689 1756.97,241.746 1757,209.429" style="fill:white;stroke:black;stroke-width:2.16px;"/>
            </g>
            <g transform="matrix(1.7071,0,0,2.85296,317.241,-316.876)">
                <path d="M1639,214C1639,214 1666.85,202.625 1696,215C1729.15,210.875 1734.8,207.008 1752,217C1752.9,242.875 1746,239 1737,242C1728,245 1712.35,243.875 1698,235C1685.9,237.875 1676.6,241.375 1661,240C1652.35,239.237 1644.07,239.145 1640,233C1637.56,229.313 1638.72,222.453 1639,214Z" style="fill:rgb(255,234,0);stroke:black;stroke-width:2.06px;"/>
            </g>
            <g transform="matrix(1.61436,0.28597,-0.162637,2.83859,506.23,-791.34)">
                <path d="M1656,227C1656,227 1666.35,212.875 1685,224C1680.65,228.875 1670.35,238.875 1656,227Z" style="fill:white;stroke:black;stroke-width:2.12px;"/>
            </g>
            <g transform="matrix(1.61436,0.28597,-0.162637,2.83859,592.928,-791.34)">
                <path d="M1656,227C1656,227 1666.35,212.875 1685,224C1680.65,228.875 1670.35,238.875 1656,227Z" style="fill:white;stroke:black;stroke-width:2.12px;"/>
            </g>
            <g transform="matrix(1.62254,0,0,2.85296,451.752,-313.32)">
                <path d="M1691,276C1691,276 1705.17,281.908 1716,269" style="fill:none;stroke:black;stroke-width:2.12px;"/>
            </g>
            <g transform="matrix(2.02817,0,0,2.85296,-212.282,-297.452)">
                <path d="M1679,196C1679,196 1671.51,174.908 1651,198" style="fill:none;stroke:black;stroke-width:1.87px;"/>
            </g>
            <g transform="matrix(1.62254,0,0,2.85296,460.665,-305.464)">
                <path d="M1709.3,204.295C1709.3,204.295 1725.49,206.904 1735,196" style="fill:none;stroke:black;stroke-width:2.12px;"/>
            </g>
            <g transform="matrix(1.62254,0,0,2.85296,455.797,-316.876)">
                <path d="M1698.59,172.147C1698.59,172.147 1702.13,188.506 1717.29,189.598C1732.45,190.69 1758.17,187.242 1757,214" style="fill:none;stroke:black;stroke-width:2.12px;"/>
            </g>
            <g transform="matrix(2.02247,0,0,3.55618,-230.427,-625.888)">
                <path d="M1733.71,388.706L1745,400L1744,423L1731.79,433.179L1729,429L1685,430L1687,417L1720,417L1723,403L1689,403L1690,391L1733,391L1733.71,388.706Z" style="fill:rgb(255,234,0);stroke:black;stroke-width:1.7px;"/>
            </g>
            <g transform="matrix(2.02247,0,0,3.55618,-230.427,-625.888)">
                <path d="M1665.3,392.696L1661.56,425.135L1659,423L1658,400L1665.3,392.696Z" style="fill:rgb(255,234,0);stroke:black;stroke-width:2.1px;"/>
            </g>
            <g transform="matrix(2.02247,0,0,3.55618,-214.247,-561.876)">
                <path d="M1657.3,374.696L1650,368L1661,362L1726,362L1735,368L1728,373L1725,373L1682,373L1681,385L1715,385L1712,399L1679,399L1677,412L1721,411L1723.79,415.179L1694,440L1693,440L1653.56,407.135L1657.3,374.696Z" style="fill:rgb(234,56,44);stroke:black;stroke-width:1.7px;"/>
            </g>
            <g transform="matrix(2.02247,0,0,3.55618,-214.247,-568.989)">
                <path d="M1733,362C1733,362 1724.75,342.362 1736,346C1745.02,348.917 1724,359 1724,359" style="fill:none;stroke:rgb(255,234,0);stroke-width:2.1px;"/>
            </g>
            <g transform="matrix(2.19376,0,0,3.85735,-481.727,-713.367)">
                <circle cx="1691.5" cy="349.5" r="153.5" style="fill:none;stroke:black;stroke-width:2.13px;"/>
            </g>
            <g transform="matrix(2.02247,0,0,3.55618,-192,-565.433)">
                <circle cx="1660.5" cy="252.5" r="3.5"/>
            </g>
            <g transform="matrix(2.02247,0,0,3.55618,-106.045,-565.433)">
                <circle cx="1660.5" cy="252.5" r="3.5"/>
            </g>
        </g>
    </g>
</svg>
