<?xml version="1.0" encoding="UTF-8" standalone="no"?><!DOCTYPE svg PUBLIC "-//W3C//DTD SVG 1.1//EN" "http://www.w3.org/Graphics/SVG/1.1/DTD/svg11.dtd"><svg width="100%" height="100%" viewBox="0 0 255 252" version="1.1" xmlns="http://www.w3.org/2000/svg" xmlns:xlink="http://www.w3.org/1999/xlink" xml:space="preserve" xmlns:serif="http://www.serif.com/" style="fill-rule:evenodd;clip-rule:evenodd;stroke-linecap:round;stroke-linejoin:round;stroke-miterlimit:10;"><rect id="Plan-de-travail1" serif:id="Plan de travail1" x="0" y="0" width="254.759" height="251.89" style="fill:none;"/><clipPath id="_clip1"><rect x="0" y="0" width="254.759" height="251.89"/></clipPath><g clip-path="url(#_clip1)"><g><path d="M110.69,11.632c-23.007,1.59 -55.544,24.402 -56.247,67.399c-0.623,38.154 -3.364,40.324 -16.848,46.099c-21.453,9.188 2.796,17.744 -9.802,32.568c-10.528,12.389 33.455,29.764 42.699,10.932c7.143,-14.551 14.125,3.65 24.54,3.807c19.105,0.288 35.385,-17.173 60.946,-0.52c25.561,16.652 59.837,10.855 44.513,-10.026c-6.476,-8.823 23.375,-4.313 21.648,-26.883c-2.138,-27.939 -29.877,-5.84 -28.056,-38.278c1.821,-32.437 -8.78,-90.254 -83.393,-85.098Z" style="fill:#615050;stroke:#000;stroke-width:1.2px;"/><path d="M75.102,97.646c0,0 -12.173,-2.236 -9.948,12.615c2.226,14.85 13.522,7.708 13.522,7.708" style="fill:#fff0e5;stroke:#000;stroke-width:1.2px;"/><path d="M175.667,97.123c0,0 12.174,-2.236 9.948,12.615c-2.225,14.85 -13.522,7.708 -13.522,7.708" style="fill:#fff0e5;stroke:#000;stroke-width:1.2px;"/><path d="M118.61,154.482c0,0 0.635,22.936 -0.978,24.228c-16.209,4.505 -28.697,12.514 -28.697,12.514c0,0 23.639,28.033 44.984,22.092c21.346,-5.94 36.588,-22.325 36.588,-22.325c0,0 -17.867,-7.465 -29.675,-11.48c-7.623,-9.768 -1.821,-29.067 -1.821,-29.067l-20.401,4.038Z" style="fill:#fff0e5;"/><path d="M179.05,76.952c0,0 -27.128,-28.459 -59.586,-37.513c-36.104,-10.072 -50.091,39.895 -50.091,39.895c0,0 -0.529,78.268 59.293,77.584c54.547,-0.624 50.384,-79.966 50.384,-79.966Z" style="fill:#fff0e5;"/><path d="M69.896,77.766c0,0 -1.645,78.796 58.77,79.152c52.398,0.308 50.384,-72.121 50.384,-72.121" style="fill:none;stroke:#000;stroke-width:1.2px;"/><path d="M113.931,95.243c0,0 -10.892,-8.042 -25.966,1.802c0.203,7.109 2.158,11.013 2.158,11.013c0,0 14.973,7.108 20.537,1.201c5.564,-5.906 3.271,-14.016 3.271,-14.016Z" style="fill:#fff;"/><path d="M116.959,80.339c0,0 -17.207,-6.489 -36.024,6.359" style="fill:none;stroke:#000;stroke-width:1.2px;"/><circle cx="103.264" cy="101.763" r="6.488" style="stroke:#000;stroke-width:0.9px;"/><path d="M113.318,95.583c0,0 -9.922,-8.819 -25.522,1.58" style="fill:none;stroke:#000;stroke-width:1.2px;"/><path d="M117.651,157.14c0,0 4.613,20.666 -4.997,23.614c-9.611,2.947 -43.396,9.402 -50.646,51.951c-7.25,42.549 -9.556,132.675 -9.556,132.675" style="fill:none;stroke:#000;stroke-width:1.2px;"/><path d="M137.388,157.14c0,0 -3.567,20.143 6.043,23.091c9.611,2.947 47.58,10.448 54.83,52.997c7.25,42.549 15.309,129.537 15.309,129.537" style="fill:none;stroke:#000;stroke-width:1.2px;"/><path d="M89.328,108.496c0,0 14.906,6.496 22.044,-0.345" style="fill:none;stroke:#000;stroke-width:1.2px;"/><path d="M137.307,95.243c0,0 10.892,-8.042 25.966,1.802c-0.203,7.109 -2.158,11.013 -2.158,11.013c0,0 -14.973,7.108 -20.537,1.201c-5.564,-5.906 -3.271,-14.016 -3.271,-14.016Z" style="fill:#fff;"/><path d="M134.802,80.281c0,0 17.207,-6.488 36.024,6.36" style="fill:none;stroke:#000;stroke-width:1.2px;"/><circle cx="152.388" cy="101.763" r="6.488" style="stroke:#000;stroke-width:0.9px;"/><path d="M137.919,95.583c0,0 9.923,-8.819 25.523,1.58" style="fill:none;stroke:#000;stroke-width:1.2px;"/><path d="M161.91,108.496c0,0 -14.906,6.496 -22.044,-0.345" style="fill:none;stroke:#000;stroke-width:1.2px;"/><path d="M120.358,36.773c0,0 -0.909,49.979 56.627,63.805l6.886,-10.76l1.95,-35.47c0,0 -51.469,-21.146 -65.463,-17.575Z" style="fill:#615050;"/><path d="M119.835,37.819c0,0 0.66,49.456 57.673,63.282" style="fill:none;stroke:#000;stroke-width:1.2px;"/><path d="M88.328,187.358c0,0 31.395,26.197 85.113,0.601c13.252,13.115 18.31,19.055 25.156,33.638c6.845,14.584 16.624,143.999 16.624,143.999l-164.155,0.935c0,0 4.047,-148.571 19.221,-164.323c15.175,-15.751 18.041,-14.85 18.041,-14.85Z" style="fill:#e2bd81;stroke:#000;stroke-width:1.2px;"/><path d="M180.269,253.434c0,0 15.58,17.654 0.843,33.538c-14.736,15.885 2.698,77.89 2.698,77.89" style="fill:none;stroke:#000;stroke-width:1.2px;"/><path d="M113.1,137.174c0,0 8.276,4.414 26.484,0" style="fill:none;stroke:#000;stroke-width:1.2px;stroke-miterlimit:1.5;"/></g></g></svg>