<?xml version="1.0" encoding="UTF-8" standalone="no"?>
<!DOCTYPE svg PUBLIC "-//W3C//DTD SVG 1.1//EN" "http://www.w3.org/Graphics/SVG/1.1/DTD/svg11.dtd">
<svg width="100%" height="100%" viewBox="0 0 356 356" version="1.1" xmlns="http://www.w3.org/2000/svg" xmlns:xlink="http://www.w3.org/1999/xlink" xml:space="preserve" xmlns:serif="http://www.serif.com/" style="fill-rule:evenodd;clip-rule:evenodd;stroke-linecap:round;stroke-linejoin:round;stroke-miterlimit:1.5;">
    <g transform="matrix(1,0,0,1,-3430,0)">
        <rect id="Plan-de-travail6" serif:id="Plan de travail6" x="3430" y="0" width="356" height="356" style="fill:none;"/>
        <clipPath id="_clip1">
            <rect id="Plan-de-travail61" serif:id="Plan de travail6" x="3430" y="0" width="356" height="356"/>
        </clipPath>
        <g clip-path="url(#_clip1)">
            <g transform="matrix(0.802254,0,0,0.802254,2240.68,-91.4419)">
                <path d="M1692,141C1683.82,141.128 1649.35,144.625 1632,167C1614.65,189.375 1610.86,214.345 1604,220C1596.04,226.567 1585.27,234.498 1589.67,241.123C1594.08,247.748 1605.85,250.125 1605,259C1604.15,267.875 1603,272 1603,272C1603,272 1616.85,252.875 1612,271C1607.15,289.125 1605.6,293.125 1612,299C1618.4,304.875 1626.1,306.875 1640,308C1653.9,309.125 1659.35,319.125 1668,320C1676.65,320.875 1732.6,327.625 1737,319C1741.4,310.375 1741,293 1741,293C1741,293 1756.35,301.125 1759,309C1761.65,316.875 1771.85,319.625 1784,308C1796.15,312.375 1824.26,309.375 1821,296C1817.75,282.625 1817.76,275.375 1827,275C1836.25,274.625 1838,280 1838,280C1838,280 1869.41,233.73 1833.21,239.457C1815.76,242.218 1836.61,207.611 1814,207C1796.45,206.526 1774.51,207.125 1772,199C1769.5,190.875 1755.14,156.507 1738,151C1727.5,147.625 1716.57,140.617 1692,141Z" style="fill:rgb(97,80,80);stroke:black;stroke-width:2.12px;"/>
            </g>
            <g transform="matrix(1,0,0,1,1908.38,-159.336)">
                <path d="M1566.64,428.859C1582.68,403.314 1623,350.842 1631.73,341.285C1647.04,324.532 1676,330 1676,330L1705,330C1707.81,329.613 1737.1,324.584 1750.77,336.077C1760.17,343.982 1828.14,433.27 1830,440C1830.18,440.656 1829.89,442.059 1829.18,444.012C1817.06,458.584 1802.45,471.018 1786.01,480.607C1792.55,462.61 1798,443 1798,443C1798,443 1756.82,392.593 1748,382C1761.07,403.743 1749.32,425.151 1746,435C1750.35,457.182 1747.36,484.34 1756.47,492.232L1757.84,493.699C1740.84,499.736 1722.55,503 1703.5,503C1681.2,503 1659.94,498.527 1640.57,490.414C1643.66,474.219 1645.94,446.624 1645,435C1630.55,411.947 1634.56,395.485 1638,387C1634.28,387.242 1594,444 1594,444C1594.72,446.978 1598.89,457.215 1604.05,469.202C1589.43,457.99 1576.75,444.356 1566.64,428.859Z" style="fill:rgb(10,57,156);stroke:black;stroke-width:1.5px;"/>
            </g>
            <g transform="matrix(1.11192,0,0,1.11192,1732.34,-159.745)">
                <path d="M1639,223C1639,223 1627.5,219.306 1628,232C1628.49,244.419 1642,239 1642,239" style="fill:rgb(253,230,212);stroke:black;stroke-width:1.35px;"/>
            </g>
            <g transform="matrix(1.15927,-0.131413,0.131413,1.15927,1586.32,54.5446)">
                <path d="M1752,230C1752,230 1763.49,230.003 1762,239C1760.23,249.722 1749.6,245.875 1747,244" style="fill:rgb(253,230,212);stroke:black;stroke-width:1.29px;"/>
            </g>
            <g transform="matrix(0.915299,0,0,0.915299,2049.5,-130.38)">
                <path d="M1684,299C1684,299 1686.22,327.875 1672,329C1657.78,330.125 1672.97,353.303 1698,351C1714.63,349.47 1730.82,344.291 1724,335C1716.2,324.375 1707.97,332.125 1707,311C1706.48,299.635 1707,300 1707,300" style="fill:rgb(253,230,212);stroke:black;stroke-width:1.64px;"/>
            </g>
            <g transform="matrix(0.802254,0,0,0.802254,2239.68,-90.4419)">
                <path d="M1706.84,172.566C1706.84,172.566 1664.49,166.888 1644.52,191.263C1643.8,199.388 1628.72,248.625 1653,275C1677.28,301.375 1689.97,303.125 1697,303C1704.03,302.875 1734.72,290.625 1742,275C1744.69,269.221 1750.18,260.112 1753,250C1757.81,232.774 1757.68,215.168 1757,209C1755.37,194.349 1748.31,185.563 1732,181C1720.14,177.683 1710.23,178.61 1706.84,172.566Z" style="fill:rgb(253,230,212);"/>
            </g>
            <g transform="matrix(0.802254,0,0,0.771634,2239.68,-81.164)">
                <path d="M1644.52,185.534C1644.52,185.534 1628.97,244.25 1652,273C1672.94,299.143 1689.61,302.927 1697,303C1712.16,303.149 1735.03,284.32 1740,277C1747.86,265.417 1756.97,241.746 1757,209.429" style="fill:none;stroke:black;stroke-width:1.91px;"/>
            </g>
            <g transform="matrix(0.844066,0,0,0.802254,2171.17,-90.4419)">
                <path d="M1639,214C1639,214 1666.85,202.625 1696,215C1729.15,210.875 1734.8,207.008 1752,217C1752.9,242.875 1746,239 1737,242C1728,245 1712.35,243.875 1698,235C1685.9,237.875 1676.6,241.375 1661,240C1652.35,239.237 1644.07,239.145 1640,233C1637.56,229.313 1638.72,222.453 1639,214Z" style="fill:rgb(255,234,0);stroke:black;stroke-width:1.82px;"/>
            </g>
            <g transform="matrix(0.798214,0.080415,-0.080415,0.798214,2264.61,-223.861)">
                <path d="M1656,227C1656,227 1666.35,212.875 1685,224C1680.65,228.875 1670.35,238.875 1656,227Z" style="fill:white;stroke:black;stroke-width:1.87px;"/>
            </g>
            <g transform="matrix(0.798214,0.080415,-0.080415,0.798214,2307.48,-223.861)">
                <path d="M1656,227C1656,227 1666.35,212.875 1685,224C1680.65,228.875 1670.35,238.875 1656,227Z" style="fill:white;stroke:black;stroke-width:1.87px;"/>
            </g>
            <g transform="matrix(0.802254,0,0,0.802254,2237.68,-89.4419)">
                <path d="M1691,276C1691,276 1705.17,281.908 1716,269" style="fill:none;stroke:black;stroke-width:1.87px;"/>
            </g>
            <g transform="matrix(1.00282,0,0,0.802254,1909.35,-84.9798)">
                <path d="M1679,196C1679,196 1671.51,174.908 1651,198" style="fill:none;stroke:black;stroke-width:1.65px;"/>
            </g>
            <g transform="matrix(0.802254,0,0,0.802254,2242.08,-87.2329)">
                <path d="M1707,200C1707,200 1718.84,205.242 1735,196" style="fill:none;stroke:black;stroke-width:1.87px;"/>
            </g>
            <g transform="matrix(0.802254,0,0,0.802254,2239.68,-90.4419)">
                <path d="M1706.84,171.32C1706.84,171.32 1707.27,178.532 1719,179C1734.19,179.606 1758.17,187.242 1757,214" style="fill:none;stroke:black;stroke-width:1.87px;"/>
            </g>
            <g transform="matrix(1,0,0,1,1900.38,-177.336)">
                <path d="M1733.71,388.706L1745,400L1744,423L1731.79,433.179L1729,429L1685,430L1687,417L1720,417L1723,403L1689,403L1690,391L1733,391L1733.71,388.706Z" style="fill:rgb(255,234,0);stroke:rgb(255,234,0);stroke-width:2.31px;"/>
            </g>
            <g transform="matrix(1,0,0,1,1900.38,-177.336)">
                <path d="M1665.3,392.696L1661.56,425.135L1659,423L1658,400L1665.3,392.696Z" style="fill:rgb(255,234,0);stroke:rgb(255,234,0);stroke-width:2.31px;"/>
            </g>
            <g transform="matrix(1,0,0,1,1908.38,-159.336)">
                <path d="M1657.3,374.696L1650,368L1661,362L1726,362L1735,368L1728,373L1725,373L1682,373L1681,385L1715,385L1712,399L1679,399L1677,412L1721,411L1723.79,415.179L1694,440L1693,440L1653.56,407.135L1657.3,374.696Z" style="fill:rgb(234,56,44);stroke:rgb(255,234,0);stroke-width:2.31px;"/>
            </g>
            <g transform="matrix(1,0,0,1,1908.38,-161.336)">
                <path d="M1733,362C1733,362 1724.75,342.362 1736,346C1745.02,348.917 1724,359 1724,359" style="fill:none;stroke:rgb(255,234,0);stroke-width:2.94px;"/>
            </g>
            <g transform="matrix(1.08469,0,0,1.08469,1776.12,-201.936)">
                <circle cx="1691.5" cy="349.5" r="153.5" style="fill:none;stroke:rgb(255,234,0);stroke-width:4.45px;"/>
            </g>
            <g transform="matrix(1,0,0,1,1919.38,-160.336)">
                <circle cx="1660.5" cy="252.5" r="3.5"/>
            </g>
            <g transform="matrix(1,0,0,1,1961.88,-160.336)">
                <circle cx="1660.5" cy="252.5" r="3.5"/>
            </g>
        </g>
    </g>
</svg>
