<?xml version="1.0" encoding="UTF-8" standalone="no"?><!DOCTYPE svg PUBLIC "-//W3C//DTD SVG 1.1//EN" "http://www.w3.org/Graphics/SVG/1.1/DTD/svg11.dtd"><svg width="100%" height="100%" viewBox="0 0 195 211" version="1.1" xmlns="http://www.w3.org/2000/svg" xmlns:xlink="http://www.w3.org/1999/xlink" xml:space="preserve" xmlns:serif="http://www.serif.com/" style="fill-rule:evenodd;clip-rule:evenodd;stroke-linecap:round;stroke-linejoin:round;stroke-miterlimit:1.5;"><rect id="Plan-de-travail2" serif:id="Plan de travail2" x="0" y="0" width="194.892" height="210.014" style="fill:none;"/><g><path d="M66.702,149.388l2.435,34.241c0,0 -14.62,6.354 -10.813,10.813c3.807,4.459 7.607,6.955 14.417,1.802c6.81,-5.152 3.604,-48.658 3.604,-48.658" style="fill:#d2bebe;stroke:#000;stroke-width:1.7px;"/><path d="M125.004,158.399l1.802,28.835c0,0 -14.62,6.353 -10.813,10.812c3.807,4.46 7.607,6.955 14.417,1.803c6.81,-5.153 3.604,-48.659 3.604,-48.659" style="fill:#d2bebe;stroke:#000;stroke-width:1.7px;"/><path d="M68.46,152.65c0,0 -61.476,-27.888 -48.658,-59.471c12.818,-31.584 51.459,-92.765 93.712,-81.097c42.253,11.667 33.438,2.148 52.262,21.625c14.619,15.126 14.816,50.807 18.022,63.076c3.206,12.268 -6.21,19.569 -3.604,32.439c2.605,12.869 -40.451,40.594 -48.659,36.043c-8.207,-4.552 -28.436,-11.067 -63.075,-12.615Z" style="fill:#d2bebe;"/><clipPath id="_clip1"><path d="M68.46,152.65c0,0 -61.476,-27.888 -48.658,-59.471c12.818,-31.584 51.459,-92.765 93.712,-81.097c42.253,11.667 33.438,2.148 52.262,21.625c14.619,15.126 14.816,50.807 18.022,63.076c3.206,12.268 -6.21,19.569 -3.604,32.439c2.605,12.869 -40.451,40.594 -48.659,36.043c-8.207,-4.552 -28.436,-11.067 -63.075,-12.615Z"/></clipPath><g clip-path="url(#_clip1)"><path d="M70.306,82.709c0,0 -3.807,-15.873 -7.208,-28.835c-3.402,-12.962 -14.62,-20.678 -16.22,-7.209c-1.599,13.47 10.01,5.754 5.407,16.22c-4.603,10.466 1.599,2.749 -10.813,10.813c-12.413,8.063 -26.034,36.389 -1.802,32.439c24.231,-3.951 10.61,-27.888 19.823,-19.824" style="fill:none;stroke:#000;stroke-width:1.7px;"/><path d="M86.526,77.302c0,0 -11.016,-36.297 -3.605,-27.032c7.412,9.265 36.442,2.149 21.626,-5.407c-14.815,-7.555 -39.85,0.347 -28.834,-14.417c11.015,-14.764 23.428,-14.417 23.428,-14.417c0,0 14.214,1.548 12.615,-1.802c-1.6,-3.35 -19.824,-12.615 -19.824,-12.615" style="fill:none;stroke:#000;stroke-width:1.7px;"/><path d="M79.317,91.719c0,0 16.618,-5.06 25.23,-10.813c8.613,-5.753 -23.03,-7.462 -1.802,-12.615c21.228,-5.152 25.028,-23.081 16.219,-27.032c-8.808,-3.951 -33.242,-11.668 -16.219,-14.417c17.023,-2.75 25.028,-5.661 37.845,3.604c12.818,9.265 -16.422,-0.855 -10.813,7.209c5.609,8.063 43.65,14.764 39.648,-3.605" style="fill:none;stroke:#000;stroke-width:1.7px;"/><path d="M86.526,102.532c0,0 -6.811,-22.48 -18.022,-1.802c-11.211,20.679 -24.231,17.167 -28.834,18.022c-4.603,0.855 4.002,5.753 14.417,16.219c10.415,10.466 10.01,13.562 3.604,14.417" style="fill:none;stroke:#000;stroke-width:1.7px;"/><path d="M120.767,68.291c0,0 11.811,9.358 -5.407,19.824c-17.218,10.466 -6.81,0.947 -16.219,14.417c-9.409,13.47 -11.016,-0.855 -18.022,9.011c-7.006,9.866 -18.825,8.156 -10.813,18.022c8.012,9.865 7.607,16.566 16.22,14.417c8.612,-2.149 9.409,-12.269 5.406,-12.615c-4.002,-0.347 -3.604,-12.615 -3.604,-12.615" style="fill:none;stroke:#000;stroke-width:1.7px;"/><path d="M135.184,52.072c0,0 37.042,-7.463 34.241,9.011c-2.801,16.473 -15.221,-6.862 -21.626,5.406c-6.405,12.269 13.013,9.958 21.626,14.417c8.612,4.46 -3.206,17.768 12.615,18.022" style="fill:none;stroke:#000;stroke-width:1.7px;"/><path d="M136.986,79.104c0,0 -18.825,8.757 -7.209,16.22c11.617,7.462 24.427,0.947 10.813,14.417c-13.614,13.47 -29.637,22.573 -21.626,30.637c8.012,8.063 -12.216,20.77 -3.604,18.021c8.613,-2.749 18.42,5.152 18.022,-5.406c-0.398,-10.559 16.017,-35.697 7.208,-27.033" style="fill:none;stroke:#000;stroke-width:1.7px;"/><path d="M149.601,91.719c0,0 14.215,3.351 18.022,18.022c3.807,14.671 4.002,-9.866 7.208,1.802c3.206,11.668 10.01,26.177 -7.208,30.637c-17.219,4.459 -21.228,-5.661 -12.615,-10.813c8.612,-5.153 1.599,-12.269 0,-16.22c-1.6,-3.951 -9.814,14.163 -10.813,27.033c-0.999,12.869 9.01,7.208 9.01,7.208" style="fill:none;stroke:#000;stroke-width:1.7px;"/></g><path d="M68.46,152.65c0,0 -61.476,-27.888 -48.658,-59.471c12.818,-31.584 51.459,-92.765 93.712,-81.097c42.253,11.667 33.438,2.148 52.262,21.625c14.619,15.126 14.816,50.807 18.022,63.076c3.206,12.268 -6.21,19.569 -3.604,32.439c2.605,12.869 -40.451,40.594 -48.659,36.043c-8.207,-4.552 -28.436,-11.067 -63.075,-12.615Z" style="fill:none;stroke:#000;stroke-width:1.6px;"/><g><path d="M83.144,53.98c0.734,-5.658 -3.277,-10.734 -8.95,-11.328l-22.509,-2.356c-5.673,-0.593 -10.875,3.519 -11.608,9.177l-2.658,20.504c-0.734,5.658 3.276,10.734 8.949,11.328l22.51,2.355c5.673,0.594 10.874,-3.518 11.608,-9.176l2.658,-20.504Z" style="fill:#acc2cc;fill-opacity:0.75;"/><path d="M138.731,60.49c0.733,-5.658 -3.277,-10.734 -8.95,-11.328l-22.51,-2.355c-5.673,-0.594 -10.874,3.518 -11.608,9.176l-2.658,20.504c-0.733,5.658 3.277,10.734 8.95,11.328l22.51,2.356c5.673,0.593 10.874,-3.519 11.607,-9.177l2.659,-20.504Z" style="fill:#acc2cc;fill-opacity:0.75;"/><path d="M83.144,53.98c0.734,-5.658 -3.277,-10.734 -8.95,-11.328l-22.509,-2.356c-5.673,-0.593 -10.875,3.519 -11.608,9.177l-2.658,20.504c-0.734,5.658 3.276,10.734 8.949,11.328l22.51,2.355c5.673,0.594 10.874,-3.518 11.608,-9.176l2.658,-20.504Z" style="fill:none;stroke:#000;stroke-width:5.38px;"/><path d="M138.731,60.49c0.733,-5.658 -3.277,-10.734 -8.95,-11.328l-22.51,-2.355c-5.673,-0.594 -10.874,3.518 -11.608,9.176l-2.658,20.504c-0.733,5.658 3.277,10.734 8.95,11.328l22.51,2.356c5.673,0.593 10.874,-3.519 11.607,-9.177l2.659,-20.504Z" style="fill:none;stroke:#000;stroke-width:5.38px;"/><path d="M83.413,56.066c0,0 5.759,-2.003 11.769,2.004" style="fill:none;stroke:#000;stroke-width:5.38px;"/><path d="M138.249,65.081c0,0 30.547,4.757 42.316,5.758c4.386,1.391 5.616,5.882 5.013,8.275c-0.808,3.209 -4.513,4.245 -4.513,4.245" style="fill:none;stroke:#000;stroke-width:5.38px;"/></g><path d="M151.833,75.671c1.823,-0.365 -13.1,-7.594 -25.472,-8.706c-26.004,-2.336 -43.825,2.992 -43.825,2.992c0,0 -29.134,-14.562 -57.502,-16.759c-7.906,6.939 -1.86,14.17 -1.86,14.17l60.348,30.273l68.311,-21.97Z" style="fill:#fff;stroke:#000;stroke-width:1.7px;"/><g id="journal"><path d="M18.798,52.93c0,0 56.231,12.113 64.373,23.539c19.704,-11.94 67.278,-4.794 70.702,0.331c-0.471,2.399 -15.338,90.642 -15.338,90.642c0,0 -54.73,-9.345 -61.94,-3.513c-3.847,4.241 -5.032,-0.262 -5.032,-0.262c0,0 -51.688,-18.237 -60.767,-15.277c0.106,-8.673 8.002,-95.46 8.002,-95.46Z" style="fill:#559bbd;stroke:#000;stroke-width:1.7px;"/></g><path d="M97.514,123.997c0,0 1.342,8.413 14.339,8.213c12.996,-0.2 11.906,-4.807 11.906,-4.807" style="fill:none;stroke:#000;stroke-width:1.7px;"/><path d="M82.904,83.622l-9.19,75.915" style="fill:none;stroke:#000;stroke-width:1.7px;"/><path d="M160.784,117.37c0,0 -5.201,2.511 -11.51,8.09c-3.464,3.064 -9.126,8.717 -10.156,6.864c-2.068,-3.72 3.429,-4.75 2.803,-4.938c-1.624,-0.487 -7.325,0.169 -7.267,-1.257c0.061,-1.507 7.1,-3.083 7.1,-3.083c0,0 -5.908,-2.079 -5.618,-3.99c0.201,-1.326 6.664,-0.895 7.621,-1.853c2.337,-2.337 -1.369,-8.847 3.172,-8.847c2.838,0 -0.804,3.856 3.505,3.339c4.173,-0.501 6.01,-1.169 9.849,-5.676" style="fill:#d2bebe;stroke:#000;stroke-width:1.7px;"/><path d="M10.078,94.919c0,0 -1.502,5.174 -0.334,7.845c1.169,2.671 1.169,5.175 3.172,5.175c2.003,0 7.512,1.335 6.844,-1.502c-0.668,-2.838 -4.507,-0.835 -4.507,-0.835c0,0 7.178,-2.838 5.341,-4.841c-1.836,-2.003 -6.176,-0.334 -6.176,-0.334c0,0 5.509,-2.838 4.841,-5.341c-0.668,-2.504 -5.008,0.5 -5.008,0.5l1.669,-6.51c0,0 -4.006,0.668 -5.842,5.843Z" style="fill:#d2bebe;stroke:#000;stroke-width:1.7px;"/><circle cx="102.535" cy="105.456" r="3.568"/><circle cx="123.968" cy="105.456" r="3.568"/><circle cx="101.633" cy="106.357" r="1.565" style="fill:#fff;"/><circle cx="123.066" cy="106.357" r="1.565" style="fill:#fff;"/><path d="M110.034,96.054c0,0 -9.014,-4.708 -16.526,0.3" style="fill:none;stroke:#000;stroke-width:1.7px;"/><path d="M116.444,97.155c0,0 9.014,-4.707 16.525,0.301" style="fill:none;stroke:#000;stroke-width:1.7px;"/><path d="M93.808,113.881l-4.707,3.406" style="fill:none;stroke:#000;stroke-width:1.7px;"/><path d="M129.163,114.983l-4.707,3.406" style="fill:none;stroke:#000;stroke-width:1.7px;"/><path d="M97.114,114.482l-4.708,3.406" style="fill:none;stroke:#000;stroke-width:1.7px;"/><path d="M132.469,115.584l-4.708,3.405" style="fill:none;stroke:#000;stroke-width:1.7px;"/><path d="M100.419,115.284l-4.708,3.405" style="fill:none;stroke:#000;stroke-width:1.7px;"/><path d="M135.774,116.385l-4.708,3.406" style="fill:none;stroke:#000;stroke-width:1.7px;"/></g></svg>