<?xml version="1.0" encoding="UTF-8" standalone="no"?>
<!DOCTYPE svg PUBLIC "-//W3C//DTD SVG 1.1//EN" "http://www.w3.org/Graphics/SVG/1.1/DTD/svg11.dtd">
<svg width="100%" height="100%" viewBox="0 0 346 282" version="1.1" xmlns="http://www.w3.org/2000/svg" xmlns:xlink="http://www.w3.org/1999/xlink" xml:space="preserve" xmlns:serif="http://www.serif.com/" style="fill-rule:evenodd;clip-rule:evenodd;stroke-linecap:round;stroke-miterlimit:1;">
    <g id="Plan-de-travail1" serif:id="Plan de travail1" transform="matrix(0.480556,0,0,0.241026,0,0)">
        <rect x="0" y="0" width="720" height="1170" style="fill:none;"/>
        <g transform="matrix(5.70802,0,0,11.3806,-7046.05,-10523.9)">
            <g transform="matrix(1.46257,0,0,1.46257,-419.266,-467.287)">
                <path d="M1172,954C1172,954 1147.75,955.583 1144,973C1140.46,989.448 1144.63,1002.74 1134.16,1000.12C1129.93,999.057 1133.19,1012.06 1136.68,1010.6C1141.66,1008.52 1138.01,1018.89 1143,1018C1151.9,1016.41 1152.42,1010.81 1156.83,1014.56C1161.25,1018.31 1170.56,1018.94 1178.02,1017.06C1187.09,1014.76 1194.56,1015.83 1196.47,1017.06C1200.48,1019.63 1198.22,1008.59 1204.19,1013.07C1208.89,1016.59 1213.55,1008.88 1211.42,1005.84C1206.44,998.714 1215.52,1002.33 1209.18,994.623C1204.44,988.861 1204.08,992.417 1203,983C1201.92,973.583 1198.08,953.583 1172,954Z" style="fill:rgb(97,80,80);stroke:black;stroke-width:0.22px;"/>
            </g>
            <g transform="matrix(1.46257,0,0,1.46257,-420.266,-467.287)">
                <path d="M1197,988C1197,988 1202.43,989.085 1202,992C1201.08,998.25 1196,996 1196,996" style="fill:rgb(255,240,229);stroke:black;stroke-width:0.22px;"/>
            </g>
            <g transform="matrix(-1.46257,0,0,1.81104,3011.97,-811.575)">
                <path d="M1197,988C1197,988 1202.43,989.085 1202,992C1201.08,998.25 1196,996 1196,996" style="fill:rgb(255,240,229);stroke:black;stroke-width:0.2px;"/>
            </g>
            <g transform="matrix(1.46257,0,0,1.46257,-419.266,-467.287)">
                <path d="M1195,975C1195,975 1194.25,974.25 1188,970C1181.75,965.75 1164,969 1164,969L1150,979C1150,979 1143.06,1015.91 1174.53,1015.56C1202.93,1015.25 1195,975 1195,975Z" style="fill:rgb(255,240,229);stroke:black;stroke-width:0.22px;"/>
            </g>
            <g transform="matrix(1.46257,0,0,1.46257,-419.266,-464.362)">
                <ellipse cx="1188" cy="995.5" rx="3" ry="1.5" style="fill:rgb(216,103,103);stroke:black;stroke-width:0.22px;"/>
            </g>
            <g transform="matrix(1.46257,0,0,1.46257,-462.265,-464.362)">
                <ellipse cx="1188" cy="995.5" rx="3" ry="1.5" style="fill:rgb(216,103,103);stroke:black;stroke-width:0.22px;"/>
            </g>
            <g transform="matrix(1.46257,0,0,1.46257,-419.266,-464.362)">
                <path d="M1166.06,1003.09C1166.06,1003.09 1166.74,1006.98 1173,1007C1179.43,1007.02 1180.51,1003.84 1180.51,1003.84" style="fill:none;stroke:black;stroke-width:0.22px;"/>
            </g>
            <g transform="matrix(1.46257,0,0,1.19182,-421.728,-195.926)">
                <path d="M1169,984C1169,984 1160.98,982.464 1159,985C1159.46,987.981 1160,989.773 1160,989.773C1160,989.773 1164.43,993.282 1169,990C1168.91,985.87 1169,984 1169,984Z" style="fill:white;"/>
            </g>
            <g transform="matrix(1.46257,0,0,1.46257,-421.728,-458.512)">
                <path d="M1169,981C1169,981 1163.54,979.219 1159,982" style="fill:none;stroke:black;stroke-width:0.22px;"/>
            </g>
            <g transform="matrix(1.46257,0,0,1.46257,-421.728,-462.899)">
                <path d="M1169,989C1169,989 1164.74,991.619 1160,989" style="fill:none;stroke:black;stroke-width:0.22px;"/>
            </g>
            <g transform="matrix(1.46257,0,0,1.46257,-421.728,-462.899)">
                <circle cx="1164.5" cy="987.5" r="2.5" style="stroke:black;stroke-width:0.22px;"/>
            </g>
            <g transform="matrix(1.46257,0,0,1.46257,-421.728,-464.362)">
                <path d="M1170,979C1170,979 1165.65,974.464 1157,980" style="fill:none;stroke:black;stroke-width:0.22px;"/>
            </g>
            <g transform="matrix(-1.46257,0,0,1.28569,3013.93,-288.25)">
                <path d="M1169,984C1169,984 1160.98,982.464 1159,985C1159.46,987.981 1160,989.862 1160,989.862C1160,989.862 1164.98,992.464 1169,990C1168.91,985.87 1169,984 1169,984Z" style="fill:white;"/>
            </g>
            <g transform="matrix(-1.46257,0,0,1.46257,3013.93,-457.771)">
                <path d="M1169,981C1169,981 1163.54,979.219 1159,982" style="fill:none;stroke:black;stroke-width:0.22px;"/>
            </g>
            <g transform="matrix(-1.46257,0,0,1.46257,3013.93,-462.158)">
                <path d="M1169,989C1169,989 1164.74,991.619 1160,989" style="fill:none;stroke:black;stroke-width:0.22px;"/>
            </g>
            <g transform="matrix(-1.46257,0,0,1.46257,3013.93,-462.158)">
                <circle cx="1164.5" cy="987.5" r="2.5" style="stroke:black;stroke-width:0.22px;"/>
            </g>
            <g transform="matrix(-1.46257,0,0,1.46257,3013.93,-463.621)">
                <path d="M1170,979C1170,979 1163.09,975.797 1157,980" style="fill:none;stroke:black;stroke-width:0.22px;"/>
            </g>
            <g transform="matrix(1.46257,0,0,1.46257,-419.266,-467.287)">
                <path d="M1181,960C1174.38,959.625 1152.38,963.625 1150,968C1147.63,972.375 1147,979 1147,979C1147,979 1145.63,996.625 1150,1000C1150.13,987.875 1152,983 1152,983L1156,978C1156,978 1152.88,985.375 1156,983C1159.13,980.625 1167.88,966.125 1170,970C1172.13,973.875 1175,975 1175,975C1175,975 1176.63,966.875 1179,971C1181.38,975.125 1187,979 1187,979C1187,979 1189.88,971.625 1191,974C1192.13,976.375 1197.13,986.625 1196,992C1194.88,997.375 1199.88,976.875 1199,973" style="fill:rgb(97,80,80);"/>
            </g>
            <g transform="matrix(1.46257,0,0,1.46257,-419.266,-467.287)">
                <path d="M1147,979C1147,979 1145.63,996.625 1150,1000C1150.13,987.875 1152,983 1152,983L1156,978C1156,978 1152.88,985.375 1156,983C1159.13,980.625 1167.88,966.125 1170,970C1172.13,973.875 1175,975 1175,975C1175,975 1176.63,966.875 1179,971C1181.38,975.125 1187,979 1187,979C1187,979 1189.88,971.625 1191,974C1192.13,976.375 1197.13,986.625 1196,992C1194.88,997.375 1199.88,976.875 1199,973" style="fill:none;stroke:black;stroke-width:0.22px;"/>
            </g>
        </g>
    </g>
</svg>
