<?xml version="1.0" encoding="UTF-8" standalone="no"?><!DOCTYPE svg PUBLIC "-//W3C//DTD SVG 1.1//EN" "http://www.w3.org/Graphics/SVG/1.1/DTD/svg11.dtd"><svg width="100%" height="100%" viewBox="0 0 191 212" version="1.1" xmlns="http://www.w3.org/2000/svg" xmlns:xlink="http://www.w3.org/1999/xlink" xml:space="preserve" xmlns:serif="http://www.serif.com/" style="fill-rule:evenodd;clip-rule:evenodd;stroke-linecap:round;stroke-linejoin:round;stroke-miterlimit:1.5;"><rect id="Plan-de-travail1" serif:id="Plan de travail1" x="-641" y="-104" width="1920" height="2032" style="fill:none;"/><g><g><g transform="matrix(1,0,0,1,17.6358,-157.333)"><text x="204.093px" y="334.773px" style="font-family:'Helsinki';font-size:48px;">E</text><text x="233.202px" y="334.773px" style="font-family:'Helsinki';font-size:34.286px;">NDONYMOUS</text></g><g><g><g><path d="M156.609,175.232c0,0 -2.271,-10.528 -11.222,-8.021c-8.952,2.506 -10.324,-0.171 -12.949,-2.005c-2.624,-1.835 -10.358,-13.034 -10.358,-13.034l0,5.013c0,0 8.666,8.191 8.632,11.029c-0.035,2.837 1.467,13.865 9.495,16.041c8.028,2.176 12.983,-2.176 15.538,-4.01c2.556,-1.835 6.043,-7.018 6.043,-7.018l-0.863,-3.008l-4.316,5.013Z" style="fill:#edbfbf;stroke:#050505;stroke-width:0.9px;"/><path d="M33.089,179.124c0,0 1.835,-10.641 10.88,-8.634c9.044,2.008 10.305,-0.742 12.851,-2.72c2.546,-1.978 9.812,-13.593 9.812,-13.593l0.206,5.007c0,0 -8.321,8.662 -8.17,11.494c0.151,2.833 -0.896,13.932 -8.825,16.55c-7.93,2.618 -13.058,-1.454 -15.686,-3.145c-2.627,-1.691 -6.324,-6.675 -6.324,-6.675l0.739,-3.052l4.517,4.768Z" style="fill:#edbfbf;stroke:#050505;stroke-width:0.9px;"/><path d="M159.198,168.214c0,0 6.811,-6.598 10.359,-9.024c3.548,-2.426 14.58,-15.623 10.359,-18.047c-4.221,-2.423 -10.022,-3.592 -17.265,1.003c-7.242,4.595 -28.15,1.922 -30.213,3.008c-2.063,1.086 -8.52,1.393 -11.895,21.786c-3.108,18.819 -4.212,34.83 -11.93,38.51c-5.801,2.767 -23.721,8.131 -31.637,-3.82c-6.759,-10.216 -5.922,-22.558 -7.665,-28.293c-3.799,-12.442 -14.658,-27.264 -18.016,-30.188c-3.358,-2.925 -13.906,-3.593 -20.717,-2.006c-6.811,1.588 -19.518,-2.589 -18.991,0c0.526,2.59 4.652,15.46 8.632,15.039c3.979,-0.421 12.853,13.455 15.538,13.034c2.685,-0.421 -1.398,4.883 -4.316,6.016c-8.434,3.288 -3.306,13.284 -7.648,9.625c-4.135,-3.509 -8.218,10.808 -7.027,3.408c0.958,-5.935 -2.253,-14.617 -5.179,-20.051c-2.927,-5.435 -8.728,-26.652 -6.043,-31.081c2.685,-4.428 16.306,-0.584 25.034,-4.01c8.727,-3.426 15.874,5.932 24.17,0c8.296,-5.933 28.435,-11.873 39.708,-13.034c18.655,-1.922 38.751,18.465 41.435,18.047c2.685,-0.418 29.687,-0.585 37.119,-5.013c7.432,-4.429 18.033,8.439 14.675,19.049c-3.358,10.607 -4.843,28.995 -2.59,33.086c2.253,4.09 -4.48,-4.171 -9.495,-2.006c-2.72,1.173 -3.678,-4.231 -5.542,-5.594c-2.685,-1.955 -5.844,-0.752 -6.967,-3.589c-1.096,-2.808 -3.988,0.08 -3.893,-5.855Z" style="fill:#d86767;stroke:#050505;stroke-width:0.9px;"/><ellipse cx="106.712" cy="158.242" rx="8.225" ry="6.38" style="fill:#fff;stroke:#000;stroke-width:0.89px;"/><ellipse cx="84.358" cy="158.242" rx="8.225" ry="6.38" style="fill:#fff;stroke:#000;stroke-width:0.89px;"/><path d="M107.196,154.439c-1.729,-0.223 -3.311,1.012 -3.532,2.755c-0.22,1.743 1.004,3.339 2.732,3.561c1.729,0.223 3.311,-1.012 3.532,-2.755c0.221,-1.743 -1.004,-3.339 -2.732,-3.561Z"/><path d="M84.691,154.439c1.729,-0.223 3.311,1.012 3.532,2.755c0.221,1.743 -1.004,3.339 -2.732,3.561c-1.729,0.223 -3.311,-1.012 -3.532,-2.755c-0.22,-1.743 1.004,-3.339 2.732,-3.561Z"/><path d="M98.488,141.654c0,0 8.262,-4.02 17.714,3.828" style="fill:none;stroke:#000;stroke-width:0.9px;"/><path d="M89.63,141.654c0,0 -8.262,-4.02 -17.714,3.828" style="fill:none;stroke:#000;stroke-width:0.9px;"/></g><path d="M164.889,4.375l-159.04,21.521l10.869,81.686l159.04,-21.521l-10.869,-81.686Z" style="fill:#fff;stroke:#000;stroke-width:0.9px;"/><path d="M59.67,153.13c0,0 -24.486,-35.941 -28.904,-49.25c-1.121,-3.377 2.616,-3.659 3.987,-3.015c1.37,0.643 6.353,-0.895 6.976,1.005c0.623,1.899 -1.121,1.869 -0.996,5.025c0.124,3.156 17.94,35.178 17.94,35.178" style="fill:#d86767;stroke:#000;stroke-width:0.9px;"/><path d="M125.45,150.114c0,0 22.493,-44.71 26.911,-58.019c1.121,-3.377 -2.616,-3.659 -3.987,-3.015c-1.37,0.643 -6.354,-0.895 -6.977,1.005c-0.623,1.899 1.122,1.869 0.997,5.025c-0.125,3.156 -19.934,47.968 -19.934,47.968" style="fill:#d86767;stroke:#000;stroke-width:0.9px;"/><path d="M84.587,184.288c0,0 11.336,0.45 22.923,-2.011" style="fill:none;stroke:#000;stroke-width:0.9px;"/><g transform="matrix(0.990384,-0.138344,0.13608,0.9907,-9.76661,4.64525)"><text x="28.617px" y="73.793px" style="font-family:'HelvetiHand';font-weight:500;font-size:30.492px;">I&apos;<tspan x="42.047px 66.002px 75.076px 87.114px 96.188px 102.238px 118.268px 127.342px 139.381px " y="73.793px 73.793px 73.793px 73.793px 73.793px 73.793px 73.793px 73.793px 73.793px ">m 1 in 10</tspan></text></g><path d="M105.518,206.433c4.126,0.468 10.872,5.814 13.467,1.933c0,0 8.055,-7.836 2.448,-9.667c-5.937,-1.938 -7.945,5.04 -7.945,5.04l-4.297,-1.173" style="fill:#d86767;stroke:#020100;stroke-width:0.9px;"/><path d="M86.236,208.154c-3.359,0.488 -8.851,6.046 -10.963,2.011c0,0 -6.638,-8.51 -1.994,-10.051c6.857,-2.277 7.974,6.03 7.974,6.03l1.993,-2.01" style="fill:#d86767;stroke:#020100;stroke-width:0.9px;"/></g><g id="ruban"><path d="M156.109,50.6c0.329,-0.134 2.747,-0.392 4.667,0.293c1.527,1.792 0.48,4.466 0.48,4.466c0,0 -3.35,-1.963 -5.862,-0.512c-2.513,1.452 0.715,-4.247 0.715,-4.247Z" style="fill:#f1b802;"/><path d="M161.846,78.99c0,0 -9.802,-11.002 -9.964,-19.294c-0.074,-3.803 0.963,-7.083 2.828,-8.468c0.858,-0.637 1.616,-0.664 1.86,-0.742c-0.595,0.546 -1.737,4.678 -1.033,9.378c0.72,4.799 6.852,14.652 10.511,17.976c3.66,3.323 -4.202,1.15 -4.202,1.15Z" style="fill:#fbc002;"/><path d="M151.773,78.357c0,0 11.08,-9.691 12.26,-17.899c0.541,-3.763 -0.084,-7.148 -1.765,-8.756c-0.772,-0.739 -1.853,-0.881 -2.085,-0.989c0.523,0.616 1.479,4.88 0.202,9.455c-1.304,4.672 -8.6,13.683 -12.64,16.523c-4.04,2.84 4.028,1.666 4.028,1.666Z" style="fill:#fbc002;"/></g></g></g></g></svg>