<?xml version="1.0" encoding="UTF-8" standalone="no"?>
<!DOCTYPE svg PUBLIC "-//W3C//DTD SVG 1.1//EN" "http://www.w3.org/Graphics/SVG/1.1/DTD/svg11.dtd">
<svg width="100%" height="100%" viewBox="0 0 128 68" version="1.1" xmlns="http://www.w3.org/2000/svg" xmlns:xlink="http://www.w3.org/1999/xlink" xml:space="preserve" xmlns:serif="http://www.serif.com/" style="fill-rule:evenodd;clip-rule:evenodd;stroke-linecap:round;stroke-linejoin:round;stroke-miterlimit:1.5;">
    <g transform="matrix(1,0,0,1,-818,-1866)">
        <g id="Plan-de-travail1" serif:id="Plan de travail1" transform="matrix(1,0,0,1.69333,0,0)">
            <rect x="0" y="0" width="1920" height="1200" style="fill:none;"/>
            <g>
                <g transform="matrix(0.315021,0,0,0.187606,-1926.29,8.84496)">
                    <g>
                        <g id="ruban">
                        </g>
                    </g>
                </g>
            </g>
            <g transform="matrix(-0.843797,0.0336118,0.056916,0.498305,1867.52,923.806)">
                <g transform="matrix(0.68222,0,0,0.785729,-114.901,-481.843)">
                    <path d="M1841,1026C1841,1026 1843.63,1015.5 1854,1018C1864.37,1020.5 1865.96,1017.83 1869,1016C1872.04,1014.17 1881,1003 1881,1003L1881,1008C1881,1008 1870.96,1016.17 1871,1019C1871.04,1021.83 1869.3,1032.83 1860,1035C1850.7,1037.17 1844.96,1032.83 1842,1031C1839.04,1029.17 1835,1024 1835,1024L1836,1021L1841,1026Z" style="fill:rgb(237,191,191);stroke:rgb(5,5,5);stroke-width:1.12px;"/>
                </g>
                <g transform="matrix(-0.681443,-0.0374908,-0.0325519,0.784834,2526.62,-408.854)">
                    <path d="M1841,1026C1841,1026 1843.63,1015.5 1854,1018C1864.37,1020.5 1865.96,1017.83 1869,1016C1872.04,1014.17 1881,1003 1881,1003L1881,1008C1881,1008 1870.96,1016.17 1871,1019C1871.04,1021.83 1869.3,1032.83 1860,1035C1850.7,1037.17 1844.96,1032.83 1842,1031C1839.04,1029.17 1835,1024 1835,1024L1836,1021L1841,1026Z" style="fill:rgb(237,191,191);stroke:rgb(5,5,5);stroke-width:1.13px;"/>
                </g>
                <g transform="matrix(0.68222,0,0,0.785729,-114.901,-481.843)">
                    <path d="M1838,1019C1838,1019 1830.11,1012.42 1826,1010C1821.89,1007.58 1809.11,994.417 1814,992C1818.89,989.583 1825.61,988.417 1834,993C1842.39,997.583 1866.61,994.917 1869,996C1871.39,997.083 1878.87,997.39 1882.78,1017.73C1886.38,1036.5 1887.66,1052.47 1896.6,1056.14C1903.32,1058.9 1924.08,1064.25 1933.25,1052.33C1941.08,1042.14 1940.11,1029.83 1942.13,1024.11C1946.53,1011.7 1959.11,996.917 1963,994C1966.89,991.083 1979.11,990.417 1987,992C1994.89,993.583 2009.61,989.417 2009,992C2008.39,994.583 2003.61,1007.42 1999,1007C1994.39,1006.58 1984.11,1020.42 1981,1020C1977.89,1019.58 1982.62,1024.87 1986,1026C1995.77,1029.28 1989.83,1039.25 1994.86,1035.6C1999.65,1032.1 2004.38,1046.38 2003,1039C2001.89,1033.08 2005.61,1024.42 2009,1019C2012.39,1013.58 2019.11,992.417 2016,988C2012.89,983.583 1997.11,987.417 1987,984C1976.89,980.583 1968.61,989.917 1959,984C1949.39,978.083 1926.06,972.158 1913,971C1891.39,969.083 1868.11,989.417 1865,989C1861.89,988.583 1830.61,988.417 1822,984C1813.39,979.583 1801.11,992.417 1805,1003C1808.89,1013.58 1810.61,1031.92 1808,1036C1805.39,1040.08 1813.19,1031.84 1819,1034C1822.15,1035.17 1823.26,1029.78 1825.42,1028.42C1828.53,1026.47 1832.19,1027.67 1833.49,1024.84C1834.76,1022.04 1838.11,1024.92 1838,1019Z" style="fill:rgb(216,103,103);stroke:rgb(5,5,5);stroke-width:1.12px;"/>
                </g>
                <g transform="matrix(1,0,0,0.769231,-2.86069,73.4133)">
                    <circle cx="1180.5" cy="309.5" r="6.5" style="fill:white;stroke:black;stroke-width:0.93px;"/>
                </g>
                <g transform="matrix(1,0,0,0.769231,17.6667,72.9231)">
                    <circle cx="1180.5" cy="309.5" r="6.5" style="fill:white;stroke:black;stroke-width:0.93px;"/>
                </g>
                <g transform="matrix(0.990054,-0.126363,0.126363,0.990054,134.794,-126.642)">
                    <circle cx="980.5" cy="566.5" r="2.5"/>
                </g>
                <g transform="matrix(-0.990054,-0.126363,-0.126363,0.990054,2239.7,-126.571)">
                    <circle cx="980.5" cy="566.5" r="2.5"/>
                </g>
                <g transform="matrix(1,0,0,1,-2.86069,0.490231)">
                    <path d="M1187,298C1187,298 1180.47,294.85 1173,301" style="fill:none;stroke:black;stroke-width:0.83px;"/>
                </g>
                <g transform="matrix(-1,0,0,1,2381,0)">
                    <path d="M1187,298C1187,298 1180.47,294.85 1173,301" style="fill:none;stroke:black;stroke-width:0.83px;"/>
                </g>
                <g transform="matrix(0.988358,0.152143,-0.152143,0.988358,61.2377,-176.796)">
                    <path d="M1187,328C1190.15,324.351 1196.42,327.512 1194.7,330.245C1192.98,332.978 1189.19,332.818 1187.96,332.492C1185.66,331.881 1183.96,331.518 1187,328Z" style="fill:none;stroke:black;stroke-width:0.83px;"/>
                </g>
                <g transform="matrix(-1.43035,0.245116,0.245116,1.43035,1320.1,-1085.59)">
                    <path d="M250,958L242,965C242,965 239.03,962.333 239,960C238.97,957.667 241.03,956 242,958C242.97,960 247,956 247,956" style="fill:rgb(216,103,103);stroke:black;stroke-width:0.57px;"/>
                </g>
                <g transform="matrix(-1.43035,0.245116,0.245116,1.43035,1320.1,-1085.59)">
                    <path d="M263,953C263,953 266.363,957.667 268,956C269.637,954.333 270.03,951 271,955C271.97,959 271.03,960.667 268,961C264.97,961.333 261,957 261,957" style="fill:rgb(216,103,103);stroke:black;stroke-width:0.57px;"/>
                </g>
            </g>
        </g>
    </g>
</svg>
