<?xml version="1.0" encoding="UTF-8" standalone="no"?><!DOCTYPE svg PUBLIC "-//W3C//DTD SVG 1.1//EN" "http://www.w3.org/Graphics/SVG/1.1/DTD/svg11.dtd"><svg width="100%" height="100%" viewBox="0 0 226 226" version="1.1" xmlns="http://www.w3.org/2000/svg" xmlns:xlink="http://www.w3.org/1999/xlink" xml:space="preserve" xmlns:serif="http://www.serif.com/" style="fill-rule:evenodd;clip-rule:evenodd;stroke-linecap:round;stroke-linejoin:round;stroke-miterlimit:1.5;"><rect id="Plan-de-travail1" serif:id="Plan de travail1" x="0.333" y="0.333" width="225.596" height="225.325" style="fill:none;"/><circle cx="113.396" cy="112.309" r="108.931" style="fill:none;"/><clipPath id="_clip1"><circle cx="113.396" cy="112.309" r="108.931"/></clipPath><g clip-path="url(#_clip1)"><g><path d="M82.323,137.024c0,0 24.522,22.882 36.526,24.586c6.098,-2.935 24.979,6.94 28.965,13.035c3.985,6.095 26.277,-23.104 26.068,-26.069c-0.209,-2.965 1.02,-7.694 -7.241,-17.379c-8.261,-9.685 -23.278,-27.85 -23.278,-27.85l-47.359,1.052l-13.681,32.625Z" style="fill:#fff0e5;"/><path d="M88.435,142.783c0,0 23.836,20.379 31.862,18.827c8.025,-1.551 21.12,7.345 27.517,13.035" style="fill:none;stroke:#000;stroke-width:0.9px;"/><path d="M143.363,103.347c0,0 21.335,27.345 24.726,30.747c5.31,5.327 5.793,14.482 5.793,14.482" style="fill:none;stroke:#000;stroke-width:0.9px;"/><path d="M36.017,150.705l-19.996,19.996l24.206,-8.419c0,0 -8.598,-4.011 -4.21,-11.577Z" style="fill:#eee7cd;"/><clipPath id="_clip2"><path d="M36.017,150.705l-19.996,19.996l24.206,-8.419c0,0 -8.598,-4.011 -4.21,-11.577Z"/></clipPath><g clip-path="url(#_clip2)"><path d="M19.178,162.282c0,0 2.215,7.61 5.263,8.419c3.047,0.809 -11.116,4.57 -10.525,2.105c0.592,-2.465 5.262,-10.524 5.262,-10.524Z" style="stroke:#000;stroke-width:0.9px;"/></g><path d="M36.017,150.705l-19.996,19.996l24.206,-8.419c0,0 -8.598,-4.011 -4.21,-11.577Z" style="fill:none;stroke:#000;stroke-width:0.9px;"/><path d="M36.017,150.705c0,0 110.27,-62.103 130.499,-73.91c3.106,-1.813 9.083,5.763 4.209,9.935c-4.873,4.172 -130.498,75.552 -130.498,75.552c0,0 -9.51,-3.821 -4.21,-11.577Z" style="fill:#fff;"/><clipPath id="_clip3"><path d="M36.017,150.705c0,0 110.27,-62.103 130.499,-73.91c3.106,-1.813 9.083,5.763 4.209,9.935c-4.873,4.172 -130.498,75.552 -130.498,75.552c0,0 -9.51,-3.821 -4.21,-11.577Z"/></clipPath><g clip-path="url(#_clip3)"><path d="M155.991,83.351l11.577,-7.367c0,0 8.191,5.899 4.21,9.472c-2.948,2.645 -9.472,6.315 -9.472,6.315c0,0 -6.619,-1.317 -6.315,-8.42Z" style="fill:#d86767;"/><path d="M149.677,86.509l6.314,-3.158c0,0 -1.398,5.84 6.315,8.42c-2.643,1.99 -6.315,4.209 -6.315,4.209c0,0 -7.628,-4.852 -6.314,-9.471Z" style="fill:#bababa;"/></g><path d="M36.017,150.705c0,0 110.27,-62.103 130.499,-73.91c3.106,-1.813 9.083,5.763 4.209,9.935c-4.873,4.172 -130.498,75.552 -130.498,75.552c0,0 -9.51,-3.821 -4.21,-11.577Z" style="fill:none;stroke:#000;stroke-width:0.9px;"/><path d="M155.991,83.351c0,0 -1.3,6.563 6.315,8.42" style="fill:none;stroke:#000;stroke-width:0.9px;"/><path d="M149.677,86.509c0,0 -0.95,7.264 6.665,9.12" style="fill:none;stroke:#000;stroke-width:0.9px;"/><path d="M65.263,119.611c0,0 -11.827,12.414 -10.137,17.379c1.689,4.965 5.913,0.285 7.241,-1.448" style="fill:#fff0e5;stroke:#000;stroke-width:0.9px;"/><path d="M56.667,132.105c0,0 2.249,-2.153 2.877,-0.54c0.329,0.844 -1.572,7.095 -3.622,5.733c-2.049,-1.362 0.745,-5.193 0.745,-5.193Z" style="fill:none;stroke:#000;stroke-width:0.9px;"/><path d="M73.953,105.129c0,0 -16.896,26.715 -13.034,28.965c3.861,2.249 5.793,0 5.793,0" style="fill:#fff0e5;stroke:#000;stroke-width:0.9px;"/><path d="M62.299,129.44c0,0 2.554,-2.153 2.953,-0.54c0.209,0.845 -2.58,7.095 -4.436,5.733c-1.856,-1.362 1.483,-5.193 1.483,-5.193Z" style="fill:none;stroke:#000;stroke-width:0.9px;"/><path d="M95.677,93.543c0,0 -17.259,-2.25 -18.828,4.344c-1.569,6.595 -13.235,30.063 -13.034,31.862c0.256,2.286 -2.957,5.897 2.897,4.345c5.853,-1.552 8.226,-5.841 10.137,-10.138" style="fill:#fff0e5;stroke:#000;stroke-width:0.9px;"/><path d="M76.849,123.956c0,0 14.061,-27.956 18.828,-30.413c4.766,-2.457 15.508,-6.957 23.172,-5.793c7.663,1.163 16.594,5.534 15.93,7.241" style="fill:#fff0e5;stroke:#000;stroke-width:0.9px;"/><path d="M123.542,98.818c-8.419,2.083 -18.118,4.998 -19.176,9.207c-1.931,7.681 -29.387,33.051 -27.517,15.931" style="fill:#fff0e5;stroke:#000;stroke-width:0.9px;"/><path d="M149.677,149.653c0,0 -4.514,-4.532 -14.734,-1.052c-16.211,5.518 -23.353,0.53 -33.25,-1.159c-7.248,-1.238 -22.056,-1.486 -20.275,-8.69c0.965,-3.905 5.673,-8.117 18.827,-5.793c12.732,2.25 38.138,-12.025 40.551,-15.931" style="fill:#fff0e5;stroke:#000;stroke-width:0.9px;"/><path d="M79.746,119.611c0,0 5.107,-2.249 5.793,0c0.359,1.177 -4.055,9.141 -7.241,7.241c-3.187,-1.899 1.448,-7.241 1.448,-7.241Z" style="fill:none;stroke:#000;stroke-width:0.9px;"/><path d="M65.263,126.852c0,0 2.495,-3.002 2.885,-0.753c0.204,1.178 -2.52,9.894 -4.333,7.995c-1.813,-1.9 1.448,-7.242 1.448,-7.242Z" style="fill:none;stroke:#000;stroke-width:0.9px;"/><path d="M85.763,135.856c0,0 -5.946,4.408 -1.449,7.241c4.498,2.832 8.69,1.448 8.69,1.448c0,0 2.299,-6.005 0,-7.241c-2.299,-1.237 -6.435,-1.66 -7.241,-1.448Z" style="fill:none;stroke:#000;stroke-width:0.9px;"/><path d="M21.81,83.351l2.244,6.909l7.264,0l-5.877,4.269l2.245,6.909l-5.876,-4.27l-5.877,4.27l2.245,-6.909l-5.877,-4.269l7.264,0l2.245,-6.909Z" style="fill:#fff;"/><path d="M109.159,180.173l0.906,2.787l2.931,0l-2.371,1.723l0.906,2.788l-2.372,-1.723l-2.371,1.723l0.906,-2.788l-2.371,-1.723l2.931,0l0.905,-2.787Z" style="fill:#fff;"/><path d="M48.12,60.198l0.728,2.243l2.358,0l-1.908,1.385l0.729,2.242l-1.907,-1.385l-1.908,1.385l0.729,-2.242l-1.907,-1.385l2.357,0l0.729,-2.243Z" style="fill:#fff;"/><path d="M45.489,89.403l0.728,2.242l2.358,0l-1.908,1.386l0.729,2.242l-1.907,-1.386l-1.908,1.386l0.729,-2.242l-1.907,-1.386l2.357,0l0.729,-2.242Z" style="fill:#fff;"/><path d="M192.036,81.51l0.729,2.242l2.358,0l-1.908,1.386l0.729,2.242l-1.908,-1.386l-1.907,1.386l0.729,-2.242l-1.908,-1.386l2.358,0l0.728,-2.242Z" style="fill:#fff;"/><path d="M196.334,125.448l1.496,4.605l4.843,0l-3.918,2.847l1.497,4.605l-3.918,-2.846l-3.918,2.846l1.496,-4.605l-3.917,-2.847l4.842,0l1.497,-4.605Z" style="fill:#fff;"/><path d="M155.239,52.702l0.27,4.835l4.682,1.237l-4.515,1.751l0.27,4.835l-3.061,-3.753l-4.515,1.751l2.624,-4.07l-3.06,-3.753l4.681,1.237l2.624,-4.07Z" style="fill:#fff;"/><path d="M34.9,133.366l0.135,2.418l2.341,0.618l-2.258,0.876l0.135,2.417l-1.53,-1.876l-2.257,0.875l1.311,-2.035l-1.53,-1.876l2.341,0.618l1.312,-2.035Z" style="fill:#fff;"/><path d="M180.835,105.807l-0.291,3.173l2.928,1.256l-3.107,0.705l-0.29,3.172l-1.63,-2.737l-3.107,0.704l2.099,-2.396l-1.63,-2.737l2.928,1.256l2.1,-2.396Z" style="fill:#fff;"/><path d="M61.695,89.02l-1.6,2.755l2.126,2.373l-3.114,-0.67l-1.6,2.755l-0.325,-3.169l-3.115,-0.67l2.914,-1.289l-0.326,-3.169l2.126,2.373l2.914,-1.289Z" style="fill:#fff;"/><path d="M112.21,58.237l-1.599,2.755l2.126,2.373l-3.115,-0.67l-1.599,2.755l-0.326,-3.169l-3.114,-0.67l2.913,-1.289l-0.325,-3.169l2.126,2.373l2.913,-1.289Z" style="fill:#fff;"/><path d="M73.615,170.311l3.56,1.977l2.982,-2.774l-0.781,3.997l3.56,1.978l-4.043,0.492l-0.781,3.997l-1.717,-3.693l-4.043,0.493l2.981,-2.775l-1.718,-3.692Z" style="fill:#fff;"/><path d="M98.879,76.177l2.141,1.189l1.793,-1.669l-0.47,2.405l2.142,1.189l-2.432,0.296l-0.47,2.404l-1.033,-2.221l-2.431,0.297l1.793,-1.669l-1.033,-2.221Z" style="fill:#fff;"/><path d="M40.227,109.662l-6.315,12.628l-30.52,-18.943l31.573,25.258l7.366,-8.419l6.315,3.157l-8.419,-13.681Z" style="fill:#fff;"/><path d="M76.009,84.404l-2.105,-17.891l-9.472,1.052l-2.105,-25.258l-3.157,31.573l11.576,-2.105l5.263,12.629Z" style="fill:#fff;"/><path d="M8.654,52.832l22.101,15.786l-4.21,8.419l12.629,3.157l-17.891,0l4.21,-10.524l-16.839,-16.838Z" style="fill:#fff;"/><path d="M118.105,80.194l10.524,-21.048l-15.786,-13.681l27.362,-12.629l-16.838,13.681l16.838,14.734l-22.1,18.943Z" style="fill:#fff;"/><path d="M90.742,43.36l-4.209,13.681l6.314,-2.105l0,8.42l3.157,-11.577l-5.262,-1.052l0,-7.367Z" style="fill:#fff;"/><path d="M66.537,153.863l-11.577,16.838l9.472,0l-11.576,19.996l18.943,-24.205l-8.419,0l3.157,-12.629Z" style="fill:#fff;"/><path d="M90.742,160.177l8.419,5.262l-8.419,23.153l15.786,-26.31l-15.786,-2.105Z" style="fill:#fff;"/><path d="M181.249,97.033l17.891,-5.262l3.157,17.891l26.311,-1.053l-32.625,6.315l-1.052,-16.839l-13.682,-1.052Z" style="fill:#fff;"/><path d="M167.568,70.722l3.157,-16.838l21.048,1.052l-16.838,4.21l-7.367,11.576Z" style="fill:#fff;"/></g></g></svg>