<?xml version="1.0" encoding="UTF-8" standalone="no"?><!DOCTYPE svg PUBLIC "-//W3C//DTD SVG 1.1//EN" "http://www.w3.org/Graphics/SVG/1.1/DTD/svg11.dtd"><svg width="100%" height="100%" viewBox="0 0 227 226" version="1.1" xmlns="http://www.w3.org/2000/svg" xmlns:xlink="http://www.w3.org/1999/xlink" xml:space="preserve" xmlns:serif="http://www.serif.com/" style="fill-rule:evenodd;clip-rule:evenodd;stroke-linecap:round;stroke-linejoin:bevel;stroke-miterlimit:10;"><rect id="Plan-de-travail1" serif:id="Plan de travail1" x="0.953" y="0" width="225.596" height="225.325" style="fill:none;"/><circle cx="114.016" cy="111.975" r="108.931" style="fill:none;"/><clipPath id="_clip1"><circle cx="114.016" cy="111.975" r="108.931"/></clipPath><g clip-path="url(#_clip1)"><g><g><path d="M119.273,1.681c-22.012,0.764 -69.17,1.02 -73.541,61.581c-3.313,45.891 14.084,24.415 -5.578,41.166c-19.662,16.751 10.608,35.913 16.019,31.596c5.411,-4.318 27.148,-20.762 31.444,-6.121c4.297,14.641 16.76,11.256 29.669,2.102c12.91,-9.153 17.263,-21.737 26.496,-6.196c9.233,15.541 50.96,-0.997 48.218,-24.016c-3.119,-26.185 -12.705,-6.24 -14.193,-43.118c-1.51,-37.424 -36.521,-57.759 -58.534,-56.994Z" style="fill:#615050;"/><path d="M119.273,1.681c-22.012,0.764 -69.17,1.02 -73.541,61.581c-3.313,45.891 14.084,24.415 -5.578,41.166c-19.662,16.751 10.608,35.913 16.019,31.596c5.411,-4.318 27.148,-20.762 31.444,-6.121c4.297,14.641 16.76,11.256 29.669,2.102c12.91,-9.153 17.263,-21.737 26.496,-6.196c9.233,15.541 50.96,-0.997 48.218,-24.016c-3.119,-26.185 -12.705,-6.24 -14.193,-43.118c-1.51,-37.424 -36.521,-57.759 -58.534,-56.994Zm0.042,1.199c21.557,-0.749 55.814,19.194 57.293,55.844c0.768,19.051 3.775,23.387 6.846,26.379c2.849,2.776 5.86,4.285 7.354,16.832c0.621,5.208 -1.2,10.056 -4.406,14.227c-4.948,6.436 -13.173,11.272 -21.174,13.376c-4.394,1.156 -8.721,1.489 -12.393,0.773c-3.473,-0.677 -6.347,-2.297 -8.021,-5.115c-3.029,-5.098 -5.686,-7.315 -8.151,-7.809c-2.565,-0.514 -5.097,0.747 -7.901,3.085c-3.266,2.724 -7.036,6.914 -12.17,10.554c-5.262,3.731 -10.436,6.499 -14.99,7.373c-2.816,0.541 -5.376,0.349 -7.519,-0.893c-2.334,-1.353 -4.135,-3.922 -5.314,-7.941c-0.787,-2.68 -2.116,-4.427 -3.766,-5.489c-2.418,-1.556 -5.605,-1.638 -9.052,-0.749c-7.874,2.031 -17.21,9.112 -20.527,11.759c-0.453,0.362 -1.171,0.407 -2.034,0.327c-1.726,-0.158 -3.925,-0.95 -6.203,-2.197c-3.824,-2.092 -7.856,-5.475 -10.262,-9.537c-1.541,-2.601 -2.411,-5.482 -2.053,-8.476c0.388,-3.246 2.221,-6.59 6.06,-9.861c4.928,-4.198 7.533,-6.002 8.722,-7.064c0.722,-0.645 1.039,-1.156 1.16,-1.602c0.186,-0.68 -0.025,-1.377 -0.711,-2.521c-1.444,-2.405 -4.793,-8.381 -3.174,-30.807c1.716,-23.778 10.097,-38.109 20.985,-46.766c16.408,-13.044 38.377,-13.25 51.401,-13.702Z"/><path d="M104.366,113.658c0,0 1.636,12.944 0.118,15.007c-1.518,2.062 -11.908,4.022 -11.908,4.022c0,0 -1.338,12.59 21.21,12.465c24.307,-0.134 23.297,-12.845 23.297,-12.845c0,0 -9.329,-0.995 -11.222,-2.17c-1.623,-1.008 -3.084,-13.335 -1.699,-16.178c1.385,-2.843 -19.796,-0.301 -19.796,-0.301Z" style="fill:#fff0e5;"/><path d="M157.935,63.322c0,0 9.662,-1.92 9.797,6.75c0.2,12.791 -10.048,9.747 -10.048,9.747" style="fill:#fff0e5;stroke:#000;stroke-width:1.2px;"/><path d="M67.185,63.804c0,0 -9.785,-2.221 -9.998,6.447c-0.315,12.784 13.038,9.885 13.038,9.885" style="fill:#fff0e5;stroke:#000;stroke-width:1.2px;"/><path d="M158.273,59.553c-14.343,-2.956 -29.829,-27.246 -37.601,-41.35c-40.293,0.721 -51.568,27.265 -51.568,27.265c0,0 -18.524,69.322 48.459,68.391c34.541,-0.48 42.039,-30.832 41.051,-51.626" style="fill:#fff0e5;"/><clipPath id="_clip2"><path d="M158.273,59.553c-14.343,-2.956 -29.829,-27.246 -37.601,-41.35c-40.293,0.721 -51.568,27.265 -51.568,27.265c0,0 -18.524,69.322 48.459,68.391c34.541,-0.48 42.039,-30.832 41.051,-51.626"/></clipPath><g clip-path="url(#_clip2)"><path d="M125.294,39.724c0,0 15.604,-10.006 26.344,3.702" style="fill:none;stroke:#000;stroke-width:1.2px;"/></g><path d="M123.367,57.845c0,0 17.144,-9.482 26.345,3.702c-2.329,11.829 -5.201,16.421 -5.201,16.421c0,0 -10.165,5.142 -19.796,-0.301c-4.417,-2.497 -1.348,-19.822 -1.348,-19.822Z" style="fill:#fff;"/><path d="M101.921,57.518c0,0 -18.463,-8.61 -24.745,-0.377c-0.979,16.093 2.998,19.846 2.998,19.846c0,0 14.31,6.269 18.121,1.927c3.811,-4.342 4.975,-15.325 3.626,-21.396Z" style="fill:#fff;"/><path d="M69.104,45.468c0,0 -18.266,67.448 45.184,68.296c58.277,0.779 42.299,-70.263 42.299,-70.263" style="fill:none;stroke:#000;stroke-width:1.2px;"/><path d="M101.921,57.518c0,0 -15.107,-9.03 -24.745,-0.377" style="fill:none;stroke:#000;stroke-width:1.2px;"/><path d="M80.174,76.987c0,0 9.196,6.81 18.121,1.927" style="fill:none;stroke:#000;stroke-width:1.2px;"/><path d="M88.623,63.916c1.821,0.028 3.277,1.528 3.25,3.349c-0.028,1.821 -1.529,3.277 -3.35,3.249c-1.821,-0.027 -3.277,-1.528 -3.249,-3.349c0.028,-1.821 1.528,-3.277 3.349,-3.249Zm-0.018,1.2c1.159,0.017 2.085,0.972 2.068,2.131c-0.018,1.159 -0.973,2.085 -2.132,2.068c-1.159,-0.018 -2.085,-0.973 -2.067,-2.132c0.017,-1.159 0.972,-2.085 2.131,-2.067Z"/><path d="M136.464,64.645c1.821,0.028 3.277,1.529 3.249,3.35c-0.028,1.821 -1.529,3.277 -3.35,3.249c-1.82,-0.028 -3.276,-1.529 -3.249,-3.35c0.028,-1.821 1.529,-3.277 3.35,-3.249Zm-0.018,1.2c1.159,0.018 2.085,0.973 2.067,2.132c-0.017,1.158 -0.972,2.085 -2.131,2.067c-1.159,-0.018 -2.085,-0.973 -2.068,-2.131c0.018,-1.159 0.973,-2.086 2.132,-2.068Z"/><path d="M102.198,39.372c0,0 -15.292,-10.477 -26.445,2.897" style="fill:none;stroke:#000;stroke-width:1.2px;"/><path d="M123.367,57.845c0,0 16.877,-9.987 26.345,3.702" style="fill:none;stroke:#000;stroke-width:1.2px;"/><path d="M124.715,77.667c0,0 7.965,6.377 19.796,0.301" style="fill:none;stroke:#000;stroke-width:1.2px;"/><path d="M109.516,100.536l13.197,0.201" style="fill:none;stroke:#000;stroke-width:1.2px;"/><path d="M113.746,39.548c0,0 -3.423,8.033 -3.476,11.497c-0.027,1.821 1.429,3.322 3.25,3.35c1.82,0.028 3.321,-1.428 3.349,-3.249c0.053,-3.464 -3.123,-11.598 -3.123,-11.598Z" style="fill:#93adba;"/><path d="M113.746,39.548c0,0 -3.423,8.033 -3.476,11.497c-0.027,1.821 1.429,3.322 3.25,3.35c1.82,0.028 3.321,-1.428 3.349,-3.249c0.053,-3.464 -3.123,-11.598 -3.123,-11.598Zm-0.04,2.607c-0.996,2.563 -2.459,6.692 -2.493,8.905c-0.02,1.3 1.02,2.372 2.321,2.392c1.301,0.02 2.373,-1.02 2.392,-2.32c0.034,-2.213 -1.303,-6.385 -2.22,-8.977Z"/><path d="M89.483,88.68c0,0 -2.567,6.025 -2.606,8.623c-0.021,1.366 1.071,2.491 2.437,2.512c1.365,0.021 2.491,-1.071 2.512,-2.437c0.04,-2.598 -2.343,-8.698 -2.343,-8.698Z" style="fill:#93adba;"/><path d="M89.483,88.68c0,0 -2.567,6.025 -2.606,8.623c-0.021,1.366 1.071,2.491 2.437,2.512c1.365,0.021 2.491,-1.071 2.512,-2.437c0.04,-2.598 -2.343,-8.698 -2.343,-8.698Zm-0.04,2.634c-0.717,1.897 -1.601,4.526 -1.623,6.003c-0.013,0.846 0.663,1.542 1.508,1.555c0.845,0.013 1.542,-0.663 1.555,-1.508c0.023,-1.477 -0.781,-4.132 -1.44,-6.05Z"/><path d="M141.81,92.778c0,0 -2.567,6.025 -2.606,8.623c-0.021,1.365 1.071,2.491 2.437,2.512c1.365,0.021 2.491,-1.071 2.512,-2.437c0.039,-2.598 -2.343,-8.698 -2.343,-8.698Z" style="fill:#93adba;"/><path d="M141.81,92.778c0,0 -2.567,6.025 -2.606,8.623c-0.021,1.365 1.071,2.491 2.437,2.512c1.365,0.021 2.491,-1.071 2.512,-2.437c0.039,-2.598 -2.343,-8.698 -2.343,-8.698Zm-0.04,2.634c-0.717,1.897 -1.601,4.526 -1.623,6.003c-0.013,0.846 0.663,1.542 1.508,1.555c0.845,0.013 1.542,-0.663 1.555,-1.508c0.023,-1.478 -0.781,-4.132 -1.44,-6.05Z"/><path d="M74.931,51.057c0,0 -2.566,6.024 -2.606,8.623c-0.021,1.365 1.071,2.491 2.437,2.512c1.365,0.021 2.491,-1.071 2.512,-2.437c0.04,-2.598 -2.343,-8.698 -2.343,-8.698Z" style="fill:#93adba;"/><path d="M74.931,51.057c0,0 -2.566,6.024 -2.606,8.623c-0.021,1.365 1.071,2.491 2.437,2.512c1.365,0.021 2.491,-1.071 2.512,-2.437c0.04,-2.598 -2.343,-8.698 -2.343,-8.698Zm-0.04,2.634c-0.717,1.897 -1.601,4.526 -1.623,6.003c-0.013,0.845 0.663,1.542 1.508,1.555c0.846,0.013 1.542,-0.663 1.555,-1.508c0.023,-1.478 -0.781,-4.132 -1.44,-6.05Z"/><path d="M154.502,62.995c0,0 -2.567,6.025 -2.606,8.623c-0.021,1.366 1.071,2.492 2.437,2.512c1.365,0.021 2.491,-1.071 2.512,-2.436c0.039,-2.599 -2.343,-8.699 -2.343,-8.699Z" style="fill:#93adba;"/><path d="M154.502,62.995c0,0 -2.567,6.025 -2.606,8.623c-0.021,1.366 1.071,2.492 2.437,2.512c1.365,0.021 2.491,-1.071 2.512,-2.436c0.039,-2.599 -2.343,-8.699 -2.343,-8.699Zm-0.04,2.635c-0.717,1.897 -1.601,4.525 -1.623,6.003c-0.013,0.845 0.663,1.542 1.508,1.555c0.845,0.013 1.542,-0.663 1.555,-1.509c0.023,-1.477 -0.781,-4.131 -1.44,-6.049Z"/><path d="M151.619,74.777c0,0 -2.187,5.132 -2.221,7.345c-0.018,1.164 0.912,2.122 2.076,2.14c1.163,0.018 2.122,-0.912 2.14,-2.076c0.034,-2.213 -1.995,-7.409 -1.995,-7.409Z" style="fill:#93adba;"/><path d="M151.619,74.777c0,0 -2.187,5.132 -2.221,7.345c-0.018,1.164 0.912,2.122 2.076,2.14c1.163,0.018 2.122,-0.912 2.14,-2.076c0.034,-2.213 -1.995,-7.409 -1.995,-7.409Zm-0.041,2.655c-0.577,1.561 -1.22,3.549 -1.237,4.705c-0.01,0.643 0.504,1.173 1.147,1.182c0.643,0.01 1.173,-0.504 1.183,-1.147c0.018,-1.155 -0.564,-3.162 -1.093,-4.74Z"/><path d="M107.404,52.652c0,0 -2.186,5.132 -2.22,7.345c-0.018,1.164 0.912,2.123 2.076,2.14c1.163,0.018 2.122,-0.912 2.14,-2.075c0.033,-2.214 -1.996,-7.41 -1.996,-7.41Z" style="fill:#93adba;"/><path d="M107.404,52.652c0,0 -2.186,5.132 -2.22,7.345c-0.018,1.164 0.912,2.123 2.076,2.14c1.163,0.018 2.122,-0.912 2.14,-2.075c0.033,-2.214 -1.996,-7.41 -1.996,-7.41Zm-0.04,2.655c-0.578,1.561 -1.22,3.549 -1.237,4.705c-0.01,0.643 0.504,1.173 1.147,1.183c0.643,0.009 1.173,-0.505 1.183,-1.148c0.018,-1.155 -0.564,-3.162 -1.093,-4.74Z"/><path d="M81.798,78.662l-0.176,11.548" style="fill:none;stroke:#000;stroke-width:1.2px;"/><path d="M145.061,77.977l-0.176,11.547" style="fill:none;stroke:#000;stroke-width:1.2px;"/><path d="M88.918,80.696l-0.147,9.623" style="fill:none;stroke:#000;stroke-width:1.2px;"/><path d="M137.858,81.442l-0.147,9.623" style="fill:none;stroke:#000;stroke-width:1.2px;"/><path d="M84.248,80.35l-0.122,7.973" style="fill:none;stroke:#000;stroke-width:1.2px;"/><path d="M142.561,79.589l-0.121,7.973" style="fill:none;stroke:#000;stroke-width:1.2px;"/><path d="M86.726,80.112l-0.121,7.974" style="fill:none;stroke:#000;stroke-width:1.2px;"/><path d="M140.066,80.926l-0.122,7.973" style="fill:none;stroke:#000;stroke-width:1.2px;"/><path d="M113.786,145.152c0,0 -18.47,1.546 -21.21,-12.465c-12.365,3.992 -20.85,7.287 -23.914,14.538c-3.064,7.252 -12.601,49.486 -12.601,49.486c0,0 16.183,11.119 18.852,8.901c0.908,-0.755 4.124,-11.989 4.124,-11.989c0,0 0.959,12.243 4.751,14.211c1.088,3.838 0.771,18.119 -1.676,34.749c-4.319,29.34 -5.387,27.432 -5.387,27.432l87.82,4.778c0,0 -8.429,-30.69 -9.276,-36.605c-0.847,-5.915 -4.614,-24.486 -3.112,-28.165c1.503,-3.679 2.884,-13.713 2.884,-13.713l2.406,7.26c0,0 13.045,-0.499 19.897,-6.297c-1.419,-4.457 -10.802,-47.797 -15.717,-51.391c-1.983,-3.804 -8.954,-9.92 -24.345,-12.896c-1.087,6.579 -8.772,13.408 -23.496,12.166Z" style="fill:#fff;"/><path d="M81.989,174.369c0,0 -7.082,22.895 1.147,33.018c6.312,7.765 -11.271,90.173 -13.082,100.455c-1.811,10.281 92.441,19.481 97.281,4.783c4.84,-14.698 -19.737,-90.473 -14.913,-104.181c4.825,-13.709 3.463,-32.037 0.554,-36.293" style="fill:none;stroke:#000;stroke-width:1.2px;stroke-linejoin:round;"/><path d="M92.516,133.278c0,0 -1.255,11.985 24.569,11.925c19.009,-0.044 20.191,-11.835 20.191,-11.835" style="fill:none;stroke:#000;stroke-width:1.2px;stroke-linejoin:round;"/><path d="M120.672,18.203c0,0 17.617,36.727 38.963,41.845" style="fill:none;stroke:#000;stroke-width:1.2px;stroke-linejoin:round;"/><path d="M177.183,197.794c5.248,22.986 8.429,41.4 8.653,49.111c0.233,8.029 -1.992,41.532 -2.706,69.261c-0.564,21.917 8.808,35.758 6.045,36.393c-3.086,0.709 -5.444,-13.005 -8.047,-13.323c-1.011,-0.123 3.853,16.155 -0.251,16.497c-2.461,0.205 -1.669,-16.801 -3.048,-16.547c-1.379,0.254 -2.152,18.186 -5.226,18.071c-3.074,-0.116 0.294,-19.246 -1.348,-19.821c-1.641,-0.576 -5.457,18.548 -8.5,16.371c-3.042,-2.178 4.119,-14.307 5.276,-21.371c1.157,-7.064 -8.622,5.831 -11.573,1.474c-1.411,-2.084 8.156,-8.47 10.1,-13.047c1.944,-4.576 -1.845,-56.061 -0.619,-67.662c1.276,-12.069 -8.492,-49.631 -8.492,-49.631c0,0 5.424,0.174 11.649,-1.696c2.761,-0.829 4.777,-2.722 8.087,-4.08Z" style="fill:#fff0e5;"/><path d="M124.162,113.959c0,0 -1.695,15.306 3.048,16.547c4.743,1.242 29.166,4.144 36.041,17.051c6.344,11.909 22.167,84.972 22.585,99.348c0.233,8.029 -1.992,41.532 -2.706,69.261c-0.564,21.917 8.808,35.758 6.045,36.393c-3.086,0.709 -5.444,-13.005 -8.047,-13.323c-1.011,-0.123 3.853,16.155 -0.251,16.497c-2.461,0.205 -1.669,-16.801 -3.048,-16.547c-1.379,0.254 -2.152,18.186 -5.226,18.071c-3.074,-0.116 0.294,-19.246 -1.348,-19.821c-1.641,-0.576 -5.457,18.548 -8.5,16.371c-3.042,-2.178 4.119,-14.307 5.276,-21.371c1.157,-7.064 -8.622,5.831 -11.573,1.474c-1.411,-2.084 8.156,-8.47 10.1,-13.047c1.944,-4.576 -1.845,-56.061 -0.619,-67.662c1.276,-12.069 -10.692,-56.265 -10.692,-56.265" style="fill:none;stroke:#000;stroke-width:1.2px;stroke-linejoin:round;"/><path d="M56.168,195.772c-4.866,20.687 -9.47,41.728 -9.903,49.005c-0.478,8.018 0.725,41.574 0.593,69.311c-0.104,21.924 -9.894,35.474 -7.152,36.192c3.064,0.803 5.838,-12.833 8.449,-13.071c1.015,-0.093 -4.343,16.03 -0.251,16.497c2.453,0.28 2.18,-16.743 3.551,-16.447c1.37,0.296 1.596,18.244 4.672,18.222c3.076,-0.022 0.294,-19.246 1.952,-19.771c1.658,-0.525 4.889,18.707 7.997,16.623c3.107,-2.084 -3.681,-14.426 -4.622,-21.522c-0.942,-7.096 8.44,6.091 11.522,1.826c1.474,-2.04 -7.893,-8.714 -9.697,-13.348c-1.803,-4.634 3.553,-55.979 2.681,-67.612c-0.907,-12.102 8.953,-46.065 8.953,-46.065c0,0 -6.814,-1.093 -9.776,-2.648c-3.124,-1.64 -9.102,-6.628 -9.102,-6.628" style="fill:#fff0e5;"/><path d="M104.366,113.658c0,0 2.877,15.375 -1.902,16.471c-4.778,1.096 -31.633,6.187 -34.945,19.268c-3.311,13.081 -20.399,81.023 -21.254,95.38c-0.478,8.018 0.725,41.574 0.593,69.311c-0.104,21.924 -9.894,35.474 -7.152,36.192c3.064,0.803 5.838,-12.833 8.449,-13.071c1.015,-0.093 -4.343,16.03 -0.251,16.497c2.453,0.28 2.18,-16.743 3.551,-16.447c1.37,0.296 1.596,18.244 4.672,18.222c3.076,-0.022 0.294,-19.246 1.952,-19.771c1.658,-0.525 4.889,18.707 7.997,16.623c3.107,-2.084 -3.681,-14.426 -4.622,-21.522c-0.942,-7.096 8.44,6.091 11.522,1.826c1.474,-2.04 -7.893,-8.714 -9.697,-13.348c-1.803,-4.634 3.553,-55.979 2.681,-67.612c-0.602,-8.029 4.992,-31.207 9.064,-45.505c2.065,-7.253 4.001,-11.785 4.001,-11.785" style="fill:none;stroke:#000;stroke-width:1.2px;stroke-linejoin:round;"/><path d="M56.443,196.717c0,0 9.047,8.163 18.47,8.895" style="fill:none;stroke:#000;stroke-width:1.2px;stroke-linejoin:round;"/><path d="M157.447,203.57c0,0 15.048,-0.271 19.897,-6.297" style="fill:none;stroke:#000;stroke-width:1.2px;stroke-linejoin:round;"/></g><path d="M175.211,154.339c0,0 -5.489,6.283 0.703,9.874c3.136,1.819 3.941,3.821 2.349,9.757c-1.592,5.936 1.031,9.404 4.346,14.577c3.316,5.173 7.645,-2.232 5.523,7.877c-2.121,10.109 -2.467,12.548 1.29,18.103c3.756,5.555 5.992,14.459 5.992,14.459" style="fill:none;stroke:#fff;stroke-width:1.7px;stroke-linejoin:round;"/><path d="M184.003,23.645c0,0 2.033,5.022 -0.614,7.353c-2.647,2.331 6.54,8.042 3.674,9.192c-2.865,1.149 -6.589,0.599 -2.146,7.965c4.443,7.366 -3.089,9.353 0.916,15.625c4.005,6.272 1.595,13.193 1.595,13.193" style="fill:none;stroke:#fff;stroke-width:1.7px;stroke-linejoin:round;"/><path d="M46.36,24.626c0,0 0.612,-1.17 -2.392,9.318c-3.003,10.488 -7.172,6.556 -3.503,11.37c3.67,4.815 3.3,7.867 1.242,9.959c-2.059,2.092 -9.458,-1.125 -5.856,3.463" style="fill:none;stroke:#fff;stroke-width:1.7px;stroke-linejoin:round;"/><path d="M60.658,150.943c0.37,4.244 -1.521,1.058 -3.275,5.962c-1.753,4.905 0.412,6.685 -0.922,9.994c-1.334,3.309 -3.274,5.962 -3.274,5.962c0,0 3.508,19.929 -1.845,19.987c-5.353,0.058 -8.874,3.998 -7.305,8.315" style="fill:none;stroke:#fff;stroke-width:1.7px;stroke-linejoin:round;"/></g></g></svg>