<?xml version="1.0" encoding="UTF-8" standalone="no"?><!DOCTYPE svg PUBLIC "-//W3C//DTD SVG 1.1//EN" "http://www.w3.org/Graphics/SVG/1.1/DTD/svg11.dtd"><svg width="100%" height="100%" viewBox="0 0 226 226" version="1.1" xmlns="http://www.w3.org/2000/svg" xmlns:xlink="http://www.w3.org/1999/xlink" xml:space="preserve" xmlns:serif="http://www.serif.com/" style="fill-rule:evenodd;clip-rule:evenodd;stroke-linecap:round;stroke-linejoin:round;stroke-miterlimit:1.5;"><rect id="Plan-de-travail1" serif:id="Plan de travail1" x="0" y="0" width="225.596" height="225.325" style="fill:none;"/><circle cx="113.063" cy="111.975" r="108.931" style="fill:none;"/><clipPath id="_clip1"><circle cx="113.063" cy="111.975" r="108.931"/></clipPath><g clip-path="url(#_clip1)"><g><g><path d="M19.384,-13.571l0.716,250.809l218.639,1.095l-1.433,-253l-217.922,1.096Z" style="fill:#f9f8f8;"/><clipPath id="_clip2"><path d="M19.384,-13.571l0.716,250.809l218.639,1.095l-1.433,-253l-217.922,1.096Z"/></clipPath><g clip-path="url(#_clip2)"><path d="M39.455,9.162l0,-23.128" style="fill:none;stroke:#000;stroke-width:0.9px;"/><path d="M179.958,8.811l0,-23.127" style="fill:none;stroke:#000;stroke-width:0.9px;"/><g><g><rect x="181.929" y="-6.573" width="20.789" height="13.632" style="fill:#b7d6ff;stroke:#000;stroke-width:0.9px;"/></g></g><g><g><rect x="205.764" y="-3.934" width="8.781" height="10.993" style="fill:#ffe4e4;stroke:#000;stroke-width:0.9px;"/></g></g><g><g><rect x="217.055" y="-3.934" width="8.781" height="10.993" style="fill:#ffe4e4;stroke:#000;stroke-width:0.9px;"/></g></g><g><g><rect x="30.853" y="-1.628" width="20.789" height="2.09" style="fill:#c5bdbd;stroke:#000;stroke-width:0.9px;"/><rect x="30.853" y="0.463" width="20.789" height="7.605" style="fill:#c5bdbd;stroke:#000;stroke-width:0.9px;"/></g></g><g><g><rect x="59.766" y="-1.628" width="20.789" height="2.09" style="fill:#92817c;stroke:#000;stroke-width:0.9px;"/><rect x="59.766" y="0.463" width="20.789" height="7.605" style="fill:#92817c;stroke:#000;stroke-width:0.9px;"/></g></g><g><g><rect x="107.377" y="-4.594" width="25.986" height="11.653" style="fill:#44566d;stroke:#000;stroke-width:0.9px;"/></g></g><g><g><rect x="149.133" y="-2.752" width="6.989" height="2.115" style="fill:#fff;stroke:#000;stroke-width:0.9px;"/><rect x="149.133" y="-0.636" width="6.989" height="7.695" style="fill:#fff;stroke:#000;stroke-width:0.9px;"/></g></g><g><g><rect x="139.277" y="-2.752" width="6.989" height="2.115" style="fill:#fff;stroke:#000;stroke-width:0.9px;"/><rect x="139.277" y="-0.636" width="6.989" height="7.695" style="fill:#fff;stroke:#000;stroke-width:0.9px;"/></g></g><g><g><rect x="158.452" y="-2.752" width="6.989" height="2.115" style="fill:#fff;stroke:#000;stroke-width:0.9px;"/><rect x="158.452" y="-0.636" width="6.989" height="7.695" style="fill:#fff;stroke:#000;stroke-width:0.9px;"/></g></g><g><path d="M57.377,-2.718l-5.735,1.216l0,2.109l5.735,-1.216l0,-2.109Z" style="fill:#c5bdbd;stroke:#000;stroke-width:0.9px;"/><path d="M57.377,-0.526l-5.735,1.216l0,7.47l5.735,-1.216l0,-7.47Z" style="fill:#c5bdbd;stroke:#000;stroke-width:0.9px;"/><path d="M57.377,-4.827l-5.735,1.216l0,2.109l5.735,-1.216l0,-2.109Z" style="fill:#c5bdbd;stroke:#000;stroke-width:0.9px;"/></g><g><path d="M86.289,-2.718l-5.734,1.216l0,2.109l5.734,-1.216l0,-2.109Z" style="fill:#92817c;stroke:#000;stroke-width:0.9px;"/><path d="M86.289,-0.526l-5.734,1.216l0,7.47l5.734,-1.216l0,-7.47Z" style="fill:#92817c;stroke:#000;stroke-width:0.9px;"/><path d="M86.289,-4.827l-5.734,1.216l0,2.109l5.734,-1.216l0,-2.109Z" style="fill:#92817c;stroke:#000;stroke-width:0.9px;"/></g></g><path d="M20.1,66.416l19.355,-9.598l55.198,0l0.717,10.513l-75.27,-0.915Z" style="fill:#ddd;stroke:#000;stroke-width:0.9px;"/><path d="M20.1,118.735l19.355,-12.158l55.198,0l0.717,13.316l-75.27,-1.158Z" style="fill:#ddd;stroke:#000;stroke-width:0.9px;"/><path d="M94.414,66.355l13.859,-10.238l60.215,0l1.195,11.214l-75.269,-0.976Z" style="fill:#ddd;stroke:#000;stroke-width:0.9px;"/><path d="M39.455,56.818l0,-42.751" style="fill:none;stroke:#000;stroke-width:0.9px;"/><path d="M39.455,106.577l0,-37.144" style="fill:none;stroke:#000;stroke-width:0.9px;"/><path d="M39.455,146.524l0,-23.594" style="fill:none;stroke:#000;stroke-width:0.9px;"/><path d="M108.034,51.211l0,-37.144" style="fill:none;stroke:#000;stroke-width:0.9px;"/><path d="M180.197,56.117l0,-42.05" style="fill:none;stroke:#000;stroke-width:0.9px;"/><path d="M180.197,109.38l0,-42.049" style="fill:none;stroke:#000;stroke-width:0.9px;"/><path d="M180.197,165.447l0,-42.05" style="fill:none;stroke:#000;stroke-width:0.9px;"/><rect x="94.414" y="-14.667" width="4.301" height="162.593" style="fill:#a3998f;stroke:#000;stroke-width:0.9px;"/><path d="M170.161,66.355l10.445,-10.238l48.814,0l7.169,9.812l-66.428,0.426Z" style="fill:#ddd;stroke:#000;stroke-width:0.9px;"/><path d="M170.161,119.619l10.445,-10.239l48.814,0l7.169,9.812l-66.428,0.427Z" style="fill:#ddd;stroke:#000;stroke-width:0.9px;"/><path d="M170.161,175.685l10.445,-10.238l48.814,0l7.169,9.812l-66.428,0.426Z" style="fill:#ddd;stroke:#000;stroke-width:0.9px;"/><path d="M170.161,232.452l10.445,-10.238l48.814,0l7.169,9.812l-66.428,0.426Z" style="fill:#ddd;stroke:#000;stroke-width:0.9px;"/><path d="M19.145,64.527l0,4.906l219.594,0l0,-4.906l-219.594,0Z" style="fill:#e7e5e2;stroke:#000;stroke-width:0.9px;"/><path d="M19.145,117.323l0,4.906l219.594,0l0,-4.906l-219.594,0Z" style="fill:#e7e5e2;stroke:#000;stroke-width:0.9px;"/><path d="M19.145,175.259l0,4.905l219.594,0l0,-4.905l-219.594,0Z" style="fill:#e7e5e2;stroke:#000;stroke-width:0.9px;"/><path d="M19.145,9.395l0,4.906l219.594,0l0,-4.906l-219.594,0Z" style="fill:#e7e5e2;stroke:#000;stroke-width:0.9px;"/><rect x="18.667" y="-14.667" width="4.301" height="162.593" style="fill:#e7e5e2;stroke:#000;stroke-width:0.9px;"/><rect x="94.414" y="-14.667" width="4.301" height="162.593" style="fill:#e7e5e2;stroke:#000;stroke-width:0.9px;"/><rect x="168.01" y="-14.667" width="4.301" height="162.593" style="fill:#e7e5e2;stroke:#000;stroke-width:0.9px;"/><g><path d="M51.642,96.487l-5.735,5.957l0,3.082l5.735,-5.957l0,-3.082Z" style="fill:#d24b2f;stroke:#000;stroke-width:0.9px;"/><path d="M51.642,99.69l-5.735,5.957l0,10.917l5.735,-5.957l0,-10.917Z" style="fill:#d24b2f;stroke:#000;stroke-width:0.9px;"/><path d="M51.642,93.404l-5.735,5.957l0,3.083l5.735,-5.957l0,-3.083Z" style="fill:#d24b2f;stroke:#000;stroke-width:0.9px;"/><path d="M51.642,90.322l-5.735,5.957l0,3.082l5.735,-5.957l0,-3.082Z" style="fill:#d24b2f;stroke:#000;stroke-width:0.9px;"/><path d="M51.642,87.368l-5.735,5.958l0,3.082l5.735,-5.957l0,-3.083Z" style="fill:#d24b2f;stroke:#000;stroke-width:0.9px;"/><path d="M51.642,84.158l-5.735,5.957l0,3.082l5.735,-5.957l0,-3.082Z" style="fill:#d24b2f;stroke:#000;stroke-width:0.9px;"/><path d="M51.642,81.204l-5.735,5.957l0,3.082l5.735,-5.957l0,-3.082Z" style="fill:#d24b2f;stroke:#000;stroke-width:0.9px;"/><path d="M51.642,78.25l-5.735,5.957l0,3.083l5.735,-5.957l0,-3.083Z" style="fill:#d24b2f;stroke:#000;stroke-width:0.9px;"/><path d="M51.642,75.04l-5.735,5.957l0,3.082l5.735,-5.957l0,-3.082Z" style="fill:#d24b2f;stroke:#000;stroke-width:0.9px;"/></g><g><path d="M57.377,42.986l-5.735,2.297l0,3.984l5.735,-2.297l0,-3.984Z" style="fill:#d86767;stroke:#000;stroke-width:0.9px;"/><path d="M57.377,47.127l-5.735,2.297l0,14.11l5.735,-2.297l0,-14.11Z" style="fill:#d86767;stroke:#000;stroke-width:0.9px;"/><path d="M57.377,39.002l-5.735,2.297l0,3.984l5.735,-2.297l0,-3.984Z" style="fill:#d86767;stroke:#000;stroke-width:0.9px;"/><path d="M57.377,35.018l-5.735,2.298l0,3.983l5.735,-2.297l0,-3.984Z" style="fill:#d86767;stroke:#000;stroke-width:0.9px;"/><path d="M57.377,31.2l-5.735,2.298l0,3.984l5.735,-2.298l0,-3.984Z" style="fill:#d86767;stroke:#000;stroke-width:0.9px;"/><path d="M57.377,27.05l-5.735,2.298l0,3.984l5.735,-2.298l0,-3.984Z" style="fill:#d86767;stroke:#000;stroke-width:0.9px;"/><path d="M57.377,23.232l-5.735,2.298l0,3.984l5.735,-2.298l0,-3.984Z" style="fill:#d86767;stroke:#000;stroke-width:0.9px;"/><path d="M57.377,19.415l-5.735,2.297l0,3.984l5.735,-2.298l0,-3.983Z" style="fill:#d86767;stroke:#000;stroke-width:0.9px;"/><path d="M57.377,15.265l-5.735,2.297l0,3.984l5.735,-2.297l0,-3.984Z" style="fill:#d86767;stroke:#000;stroke-width:0.9px;"/></g><g><path d="M86.289,42.986l-5.734,2.297l0,3.984l5.734,-2.297l0,-3.984Z" style="fill:#dc957f;stroke:#000;stroke-width:0.9px;"/><path d="M86.289,47.127l-5.734,2.297l0,14.11l5.734,-2.297l0,-14.11Z" style="fill:#dc957f;stroke:#000;stroke-width:0.9px;"/><path d="M86.289,39.002l-5.734,2.297l0,3.984l5.734,-2.297l0,-3.984Z" style="fill:#dc957f;stroke:#000;stroke-width:0.9px;"/><path d="M86.289,35.018l-5.734,2.298l0,3.983l5.734,-2.297l0,-3.984Z" style="fill:#dc957f;stroke:#000;stroke-width:0.9px;"/><path d="M86.289,31.2l-5.734,2.298l0,3.984l5.734,-2.298l0,-3.984Z" style="fill:#dc957f;stroke:#000;stroke-width:0.9px;"/><path d="M86.289,27.05l-5.734,2.298l0,3.984l5.734,-2.298l0,-3.984Z" style="fill:#dc957f;stroke:#000;stroke-width:0.9px;"/><path d="M86.289,23.232l-5.734,2.298l0,3.984l5.734,-2.298l0,-3.984Z" style="fill:#dc957f;stroke:#000;stroke-width:0.9px;"/><path d="M86.289,19.415l-5.734,2.297l0,3.984l5.734,-2.298l0,-3.983Z" style="fill:#dc957f;stroke:#000;stroke-width:0.9px;"/><path d="M86.289,15.265l-5.734,2.297l0,3.984l5.734,-2.297l0,-3.984Z" style="fill:#dc957f;stroke:#000;stroke-width:0.9px;"/></g><g><path d="M73.864,99.507l-3.763,3.89l0,2.428l3.763,-3.891l0,-2.427Z" style="fill:#78958a;stroke:#000;stroke-width:0.9px;"/><path d="M73.864,101.285l-3.763,3.89l0,11.389l3.763,-3.89l0,-11.389Z" style="fill:#78958a;stroke:#000;stroke-width:0.9px;"/><path d="M73.864,96.632l-3.763,3.891l0,2.874l3.763,-3.89l0,-2.875Z" style="fill:#78958a;stroke:#000;stroke-width:0.9px;"/><path d="M73.864,93.758l-3.763,3.891l0,2.874l3.763,-3.891l0,-2.874Z" style="fill:#78958a;stroke:#000;stroke-width:0.9px;"/><path d="M73.864,91.004l-3.763,3.89l0,2.874l3.763,-3.89l0,-2.874Z" style="fill:#78958a;stroke:#000;stroke-width:0.9px;"/><path d="M73.864,88.01l-3.763,3.89l0,2.875l3.763,-3.891l0,-2.874Z" style="fill:#78958a;stroke:#000;stroke-width:0.9px;"/><path d="M73.864,85.256l-3.763,3.89l0,2.874l3.763,-3.89l0,-2.874Z" style="fill:#78958a;stroke:#000;stroke-width:0.9px;"/><path d="M73.864,82.501l-3.763,3.891l0,2.874l3.763,-3.891l0,-2.874Z" style="fill:#78958a;stroke:#000;stroke-width:0.9px;"/><path d="M73.864,79.508l-3.763,3.89l0,2.874l3.763,-3.89l0,-2.874Z" style="fill:#78958a;stroke:#000;stroke-width:0.9px;"/></g><g><g><rect x="25.118" y="102.093" width="20.789" height="3.082" style="fill:#d24b2f;stroke:#000;stroke-width:0.9px;"/><rect x="25.118" y="99.011" width="20.789" height="3.082" style="fill:#d24b2f;stroke:#000;stroke-width:0.9px;"/><rect x="25.118" y="95.929" width="20.789" height="3.082" style="fill:#d24b2f;stroke:#000;stroke-width:0.9px;"/><rect x="25.118" y="92.975" width="20.789" height="3.082" style="fill:#d24b2f;stroke:#000;stroke-width:0.9px;"/><rect x="25.118" y="89.764" width="20.789" height="3.082" style="fill:#d24b2f;stroke:#000;stroke-width:0.9px;"/><rect x="25.118" y="86.811" width="20.789" height="3.082" style="fill:#d24b2f;stroke:#000;stroke-width:0.9px;"/><rect x="25.118" y="83.857" width="20.789" height="3.082" style="fill:#d24b2f;stroke:#000;stroke-width:0.9px;"/><rect x="25.118" y="80.646" width="20.789" height="3.082" style="fill:#d24b2f;stroke:#000;stroke-width:0.9px;"/><rect x="25.118" y="105.175" width="20.789" height="11.213" style="fill:#d24b2f;stroke:#000;stroke-width:0.9px;"/><path d="M51.642,75.093l-20.789,0l-5.735,5.437l20.789,0l5.735,-5.437Z" style="fill:#d24b2f;stroke:#000;stroke-width:0.9px;"/><path d="M75.895,77.779l-20.789,0l-5.734,5.437l20.788,0l5.735,-5.437Z" style="fill:#78958a;stroke:#000;stroke-width:0.9px;"/><path d="M93.338,73.401l-18.04,0l-1.553,1.756l18.04,0l1.553,-1.756Z" style="fill:#7db7d8;stroke:#000;stroke-width:0.9px;"/></g></g><g><g><rect x="30.853" y="45.046" width="20.789" height="3.948" style="fill:#d86767;stroke:#000;stroke-width:0.9px;"/><rect x="30.853" y="41.098" width="20.789" height="3.948" style="fill:#d86767;stroke:#000;stroke-width:0.9px;"/><rect x="30.853" y="37.149" width="20.789" height="3.948" style="fill:#d86767;stroke:#000;stroke-width:0.9px;"/><rect x="30.853" y="33.365" width="20.789" height="3.948" style="fill:#d86767;stroke:#000;stroke-width:0.9px;"/><rect x="30.853" y="29.252" width="20.789" height="3.948" style="fill:#d86767;stroke:#000;stroke-width:0.9px;"/><rect x="30.853" y="25.468" width="20.789" height="3.948" style="fill:#d86767;stroke:#000;stroke-width:0.9px;"/><rect x="30.853" y="21.685" width="20.789" height="3.948" style="fill:#d86767;stroke:#000;stroke-width:0.9px;"/><rect x="30.853" y="17.572" width="20.789" height="3.948" style="fill:#d86767;stroke:#000;stroke-width:0.9px;"/><rect x="30.853" y="48.994" width="20.789" height="14.365" style="fill:#d86767;stroke:#000;stroke-width:0.9px;"/><path d="M57.377,15.121l-20.789,0l-5.735,2.434l20.789,0l5.735,-2.434Z" style="fill:#d86767;stroke:#000;stroke-width:0.9px;"/></g></g><g><g><rect x="59.766" y="45.046" width="20.789" height="3.948" style="fill:#dc957f;stroke:#000;stroke-width:0.9px;"/><rect x="59.766" y="41.098" width="20.789" height="3.948" style="fill:#dc957f;stroke:#000;stroke-width:0.9px;"/><rect x="59.766" y="37.149" width="20.789" height="3.948" style="fill:#dc957f;stroke:#000;stroke-width:0.9px;"/><rect x="59.766" y="33.365" width="20.789" height="3.948" style="fill:#dc957f;stroke:#000;stroke-width:0.9px;"/><rect x="59.766" y="29.252" width="20.789" height="3.948" style="fill:#dc957f;stroke:#000;stroke-width:0.9px;"/><rect x="59.766" y="25.468" width="20.789" height="3.948" style="fill:#dc957f;stroke:#000;stroke-width:0.9px;"/><rect x="59.766" y="21.685" width="20.789" height="3.948" style="fill:#dc957f;stroke:#000;stroke-width:0.9px;"/><rect x="59.766" y="17.572" width="20.789" height="3.948" style="fill:#dc957f;stroke:#000;stroke-width:0.9px;"/><rect x="59.766" y="48.994" width="20.789" height="14.365" style="fill:#dc957f;stroke:#000;stroke-width:0.9px;"/></g><path d="M86.05,15.121l-20.788,0l-5.735,2.434l20.789,0l5.734,-2.434Z" style="fill:#dc957f;stroke:#000;stroke-width:0.9px;"/></g><g><g><rect x="178.166" y="99.01" width="20.789" height="3.747" style="fill:#44566d;stroke:#000;stroke-width:0.9px;"/><rect x="178.166" y="95.263" width="20.789" height="3.747" style="fill:#44566d;stroke:#000;stroke-width:0.9px;"/><rect x="178.166" y="91.516" width="20.789" height="3.747" style="fill:#44566d;stroke:#000;stroke-width:0.9px;"/><rect x="178.166" y="87.925" width="20.789" height="3.747" style="fill:#44566d;stroke:#000;stroke-width:0.9px;"/><rect x="178.166" y="84.022" width="20.789" height="3.747" style="fill:#44566d;stroke:#000;stroke-width:0.9px;"/><rect x="178.166" y="80.431" width="20.789" height="3.747" style="fill:#44566d;stroke:#000;stroke-width:0.9px;"/><rect x="178.166" y="76.84" width="20.789" height="3.747" style="fill:#44566d;stroke:#000;stroke-width:0.9px;"/><rect x="178.166" y="72.937" width="20.789" height="3.747" style="fill:#44566d;stroke:#000;stroke-width:0.9px;"/><rect x="178.166" y="102.757" width="20.789" height="13.632" style="fill:#44566d;stroke:#000;stroke-width:0.9px;"/></g></g><g><g><rect x="179.062" y="43.644" width="13.082" height="3.747" style="fill:#fff;stroke:#000;stroke-width:0.9px;"/><rect x="179.062" y="39.897" width="13.082" height="3.747" style="fill:#fff;stroke:#000;stroke-width:0.9px;"/><rect x="179.062" y="36.15" width="13.082" height="3.747" style="fill:#fff;stroke:#000;stroke-width:0.9px;"/><rect x="179.062" y="32.559" width="13.082" height="3.747" style="fill:#fff;stroke:#000;stroke-width:0.9px;"/><rect x="179.062" y="28.656" width="13.082" height="3.747" style="fill:#fff;stroke:#000;stroke-width:0.9px;"/><rect x="179.062" y="25.066" width="13.082" height="3.747" style="fill:#fff;stroke:#000;stroke-width:0.9px;"/><rect x="179.062" y="21.475" width="13.082" height="3.747" style="fill:#fff;stroke:#000;stroke-width:0.9px;"/><rect x="179.062" y="17.572" width="13.082" height="3.747" style="fill:#fff;stroke:#000;stroke-width:0.9px;"/><rect x="179.062" y="47.391" width="13.082" height="13.632" style="fill:#fff;stroke:#000;stroke-width:0.9px;"/></g></g><g><g><rect x="196.505" y="43.644" width="13.082" height="3.747" style="fill:#b1b2b3;stroke:#000;stroke-width:0.9px;"/><rect x="196.505" y="39.897" width="13.082" height="3.747" style="fill:#b1b2b3;stroke:#000;stroke-width:0.9px;"/><rect x="196.505" y="36.15" width="13.082" height="3.747" style="fill:#b1b2b3;stroke:#000;stroke-width:0.9px;"/><rect x="196.505" y="32.559" width="13.082" height="3.747" style="fill:#b1b2b3;stroke:#000;stroke-width:0.9px;"/><rect x="196.505" y="28.656" width="13.082" height="3.747" style="fill:#b1b2b3;stroke:#000;stroke-width:0.9px;"/><rect x="196.505" y="25.066" width="13.082" height="3.747" style="fill:#b1b2b3;stroke:#000;stroke-width:0.9px;"/><rect x="196.505" y="21.475" width="13.082" height="3.747" style="fill:#b1b2b3;stroke:#000;stroke-width:0.9px;"/><rect x="196.505" y="17.572" width="13.082" height="3.747" style="fill:#b1b2b3;stroke:#000;stroke-width:0.9px;"/><rect x="196.505" y="47.391" width="13.082" height="13.632" style="fill:#b1b2b3;stroke:#000;stroke-width:0.9px;"/></g></g><g><g><rect x="199.85" y="154.609" width="13.082" height="3.747" style="fill:#b1b2b3;stroke:#000;stroke-width:0.9px;"/><rect x="199.85" y="150.862" width="13.082" height="3.747" style="fill:#b1b2b3;stroke:#000;stroke-width:0.9px;"/><rect x="199.85" y="147.115" width="13.082" height="3.747" style="fill:#b1b2b3;stroke:#000;stroke-width:0.9px;"/><rect x="199.85" y="143.524" width="13.082" height="3.747" style="fill:#b1b2b3;stroke:#000;stroke-width:0.9px;"/><rect x="199.85" y="139.621" width="13.082" height="3.747" style="fill:#b1b2b3;stroke:#000;stroke-width:0.9px;"/><rect x="199.85" y="136.03" width="13.082" height="3.747" style="fill:#b1b2b3;stroke:#000;stroke-width:0.9px;"/><rect x="199.85" y="132.44" width="13.082" height="3.747" style="fill:#b1b2b3;stroke:#000;stroke-width:0.9px;"/><rect x="199.85" y="128.536" width="13.082" height="3.747" style="fill:#b1b2b3;stroke:#000;stroke-width:0.9px;"/><rect x="199.85" y="158.356" width="13.082" height="13.632" style="fill:#b1b2b3;stroke:#000;stroke-width:0.9px;"/></g></g><g><g><rect x="198.417" y="211.844" width="13.082" height="3.747" style="fill:#b1b2b3;stroke:#000;stroke-width:0.9px;"/><rect x="198.417" y="208.097" width="13.082" height="3.747" style="fill:#b1b2b3;stroke:#000;stroke-width:0.9px;"/><rect x="198.417" y="204.35" width="13.082" height="3.747" style="fill:#b1b2b3;stroke:#000;stroke-width:0.9px;"/><rect x="198.417" y="200.759" width="13.082" height="3.747" style="fill:#b1b2b3;stroke:#000;stroke-width:0.9px;"/><rect x="198.417" y="196.856" width="13.082" height="3.747" style="fill:#b1b2b3;stroke:#000;stroke-width:0.9px;"/><rect x="198.417" y="193.265" width="13.082" height="3.747" style="fill:#b1b2b3;stroke:#000;stroke-width:0.9px;"/><rect x="198.417" y="189.674" width="13.082" height="3.747" style="fill:#b1b2b3;stroke:#000;stroke-width:0.9px;"/><rect x="198.417" y="185.771" width="13.082" height="3.747" style="fill:#b1b2b3;stroke:#000;stroke-width:0.9px;"/><rect x="198.417" y="215.591" width="13.082" height="13.632" style="fill:#b1b2b3;stroke:#000;stroke-width:0.9px;"/></g></g><g><g><rect x="215.143" y="43.644" width="13.082" height="3.747" style="fill:#b1b2b3;stroke:#000;stroke-width:0.9px;"/><rect x="215.143" y="39.897" width="13.082" height="3.747" style="fill:#b1b2b3;stroke:#000;stroke-width:0.9px;"/><rect x="215.143" y="36.15" width="13.082" height="3.747" style="fill:#b1b2b3;stroke:#000;stroke-width:0.9px;"/><rect x="215.143" y="32.559" width="13.082" height="3.747" style="fill:#b1b2b3;stroke:#000;stroke-width:0.9px;"/><rect x="215.143" y="28.656" width="13.082" height="3.747" style="fill:#b1b2b3;stroke:#000;stroke-width:0.9px;"/><rect x="215.143" y="25.066" width="13.082" height="3.747" style="fill:#b1b2b3;stroke:#000;stroke-width:0.9px;"/><rect x="215.143" y="21.475" width="13.082" height="3.747" style="fill:#b1b2b3;stroke:#000;stroke-width:0.9px;"/><rect x="215.143" y="17.572" width="13.082" height="3.747" style="fill:#b1b2b3;stroke:#000;stroke-width:0.9px;"/><rect x="215.143" y="47.391" width="13.082" height="13.632" style="fill:#b1b2b3;stroke:#000;stroke-width:0.9px;"/></g></g><g><g><rect x="218.488" y="154.609" width="13.082" height="3.747" style="fill:#b1b2b3;stroke:#000;stroke-width:0.9px;"/><rect x="218.488" y="150.862" width="13.082" height="3.747" style="fill:#b1b2b3;stroke:#000;stroke-width:0.9px;"/><rect x="218.488" y="147.115" width="13.082" height="3.747" style="fill:#b1b2b3;stroke:#000;stroke-width:0.9px;"/><rect x="218.488" y="143.524" width="13.082" height="3.747" style="fill:#b1b2b3;stroke:#000;stroke-width:0.9px;"/><rect x="218.488" y="139.621" width="13.082" height="3.747" style="fill:#b1b2b3;stroke:#000;stroke-width:0.9px;"/><rect x="218.488" y="136.03" width="13.082" height="3.747" style="fill:#b1b2b3;stroke:#000;stroke-width:0.9px;"/><rect x="218.488" y="132.44" width="13.082" height="3.747" style="fill:#b1b2b3;stroke:#000;stroke-width:0.9px;"/><rect x="218.488" y="128.536" width="13.082" height="3.747" style="fill:#b1b2b3;stroke:#000;stroke-width:0.9px;"/><rect x="218.488" y="158.356" width="13.082" height="13.632" style="fill:#b1b2b3;stroke:#000;stroke-width:0.9px;"/></g></g><g><g><rect x="217.055" y="211.844" width="13.082" height="3.747" style="fill:#b1b2b3;stroke:#000;stroke-width:0.9px;"/><rect x="217.055" y="208.097" width="13.082" height="3.747" style="fill:#b1b2b3;stroke:#000;stroke-width:0.9px;"/><rect x="217.055" y="204.35" width="13.082" height="3.747" style="fill:#b1b2b3;stroke:#000;stroke-width:0.9px;"/><rect x="217.055" y="200.759" width="13.082" height="3.747" style="fill:#b1b2b3;stroke:#000;stroke-width:0.9px;"/><rect x="217.055" y="196.856" width="13.082" height="3.747" style="fill:#b1b2b3;stroke:#000;stroke-width:0.9px;"/><rect x="217.055" y="193.265" width="13.082" height="3.747" style="fill:#b1b2b3;stroke:#000;stroke-width:0.9px;"/><rect x="217.055" y="189.674" width="13.082" height="3.747" style="fill:#b1b2b3;stroke:#000;stroke-width:0.9px;"/><rect x="217.055" y="185.771" width="13.082" height="3.747" style="fill:#b1b2b3;stroke:#000;stroke-width:0.9px;"/><rect x="217.055" y="215.591" width="13.082" height="13.632" style="fill:#b1b2b3;stroke:#000;stroke-width:0.9px;"/></g></g><g><g><rect x="174.522" y="211.844" width="13.082" height="3.747" style="fill:#b1b2b3;stroke:#000;stroke-width:0.9px;"/><rect x="174.522" y="208.097" width="13.082" height="3.747" style="fill:#b1b2b3;stroke:#000;stroke-width:0.9px;"/><rect x="174.522" y="204.35" width="13.082" height="3.747" style="fill:#b1b2b3;stroke:#000;stroke-width:0.9px;"/><rect x="174.522" y="200.759" width="13.082" height="3.747" style="fill:#b1b2b3;stroke:#000;stroke-width:0.9px;"/><rect x="174.522" y="196.856" width="13.082" height="3.747" style="fill:#b1b2b3;stroke:#000;stroke-width:0.9px;"/><rect x="174.522" y="193.265" width="13.082" height="3.747" style="fill:#b1b2b3;stroke:#000;stroke-width:0.9px;"/><rect x="174.522" y="189.674" width="13.082" height="3.747" style="fill:#b1b2b3;stroke:#000;stroke-width:0.9px;"/><rect x="174.522" y="185.771" width="13.082" height="3.747" style="fill:#b1b2b3;stroke:#000;stroke-width:0.9px;"/><rect x="174.522" y="215.591" width="13.082" height="13.632" style="fill:#b1b2b3;stroke:#000;stroke-width:0.9px;"/></g></g><g><g><rect x="206.123" y="106.578" width="20.789" height="2.115" style="fill:#ffe4e4;stroke:#000;stroke-width:0.9px;"/><rect x="206.123" y="104.463" width="20.789" height="2.115" style="fill:#ffe4e4;stroke:#000;stroke-width:0.9px;"/><rect x="206.123" y="102.348" width="20.789" height="2.115" style="fill:#ffe4e4;stroke:#000;stroke-width:0.9px;"/><rect x="206.123" y="100.321" width="20.789" height="2.115" style="fill:#ffe4e4;stroke:#000;stroke-width:0.9px;"/><rect x="206.123" y="98.117" width="20.789" height="2.115" style="fill:#ffe4e4;stroke:#000;stroke-width:0.9px;"/><rect x="206.123" y="96.09" width="20.789" height="2.115" style="fill:#ffe4e4;stroke:#000;stroke-width:0.9px;"/><rect x="206.123" y="94.063" width="20.789" height="2.115" style="fill:#ffe4e4;stroke:#000;stroke-width:0.9px;"/><rect x="206.123" y="91.86" width="20.789" height="2.115" style="fill:#ffe4e4;stroke:#000;stroke-width:0.9px;"/><path d="M224.761,89.757l-18.638,0l0,2.115l20.788,0l-2.15,-2.115Z" style="fill:#ffe4e4;stroke:#000;stroke-width:0.9px;"/><rect x="206.123" y="108.693" width="20.789" height="7.695" style="fill:#ffe4e4;stroke:#000;stroke-width:0.9px;"/></g></g><g><rect x="49.491" y="102.956" width="20.789" height="2.803" style="fill:#78958a;stroke:#000;stroke-width:0.9px;"/><rect x="49.491" y="100.153" width="20.789" height="2.803" style="fill:#78958a;stroke:#000;stroke-width:0.9px;"/><rect x="49.491" y="97.349" width="20.789" height="2.803" style="fill:#78958a;stroke:#000;stroke-width:0.9px;"/><rect x="49.491" y="94.663" width="20.789" height="2.803" style="fill:#78958a;stroke:#000;stroke-width:0.9px;"/><rect x="49.491" y="91.743" width="20.789" height="2.803" style="fill:#78958a;stroke:#000;stroke-width:0.9px;"/><rect x="49.491" y="89.056" width="20.789" height="2.803" style="fill:#78958a;stroke:#000;stroke-width:0.9px;"/><rect x="49.491" y="86.37" width="20.789" height="2.803" style="fill:#78958a;stroke:#000;stroke-width:0.9px;"/><rect x="49.491" y="83.45" width="20.789" height="2.803" style="fill:#78958a;stroke:#000;stroke-width:0.9px;"/><rect x="49.491" y="105.175" width="20.789" height="11.213" style="fill:#78958a;stroke:#000;stroke-width:0.9px;"/></g><g><rect x="73.864" y="101.899" width="17.921" height="3.86" style="fill:#7db7d8;stroke:#000;stroke-width:0.9px;"/><rect x="73.864" y="101.899" width="17.921" height="3.86" style="fill:#7db7d8;stroke:#000;stroke-width:0.9px;"/><path d="M93.219,100.498l-1.331,1.301l0,3.86l1.331,-1.301l0,-3.86Z" style="fill:#7db7d8;stroke:#000;stroke-width:0.9px;"/><rect x="73.864" y="98.039" width="17.921" height="3.86" style="fill:#7db7d8;stroke:#000;stroke-width:0.9px;"/><rect x="73.864" y="98.039" width="17.921" height="3.86" style="fill:#7db7d8;stroke:#000;stroke-width:0.9px;"/><rect x="73.864" y="98.039" width="17.921" height="3.86" style="fill:#7db7d8;stroke:#000;stroke-width:0.9px;"/><path d="M93.219,96.638l-1.331,1.301l0,3.86l1.331,-1.301l0,-3.86Z" style="fill:#7db7d8;stroke:#000;stroke-width:0.9px;"/><rect x="73.864" y="94.179" width="17.921" height="3.86" style="fill:#7db7d8;stroke:#000;stroke-width:0.9px;"/><rect x="73.864" y="94.179" width="17.921" height="3.86" style="fill:#7db7d8;stroke:#000;stroke-width:0.9px;"/><rect x="73.864" y="94.179" width="17.921" height="3.86" style="fill:#7db7d8;stroke:#000;stroke-width:0.9px;"/><path d="M93.219,92.778l-1.331,1.301l0,3.86l1.331,-1.301l0,-3.86Z" style="fill:#7db7d8;stroke:#000;stroke-width:0.9px;"/><rect x="73.864" y="90.48" width="17.921" height="3.86" style="fill:#7db7d8;stroke:#000;stroke-width:0.9px;"/><rect x="73.864" y="90.48" width="17.921" height="3.86" style="fill:#7db7d8;stroke:#000;stroke-width:0.9px;"/><rect x="73.864" y="90.48" width="17.921" height="3.86" style="fill:#7db7d8;stroke:#000;stroke-width:0.9px;"/><path d="M93.219,89.078l-1.331,1.302l0,3.86l1.331,-1.302l0,-3.86Z" style="fill:#7db7d8;stroke:#000;stroke-width:0.9px;"/><rect x="73.864" y="86.459" width="17.921" height="3.86" style="fill:#7db7d8;stroke:#000;stroke-width:0.9px;"/><rect x="73.864" y="86.459" width="17.921" height="3.86" style="fill:#7db7d8;stroke:#000;stroke-width:0.9px;"/><rect x="73.864" y="86.459" width="17.921" height="3.86" style="fill:#7db7d8;stroke:#000;stroke-width:0.9px;"/><path d="M93.219,85.057l-1.331,1.302l0,3.86l1.331,-1.301l0,-3.861Z" style="fill:#7db7d8;stroke:#000;stroke-width:0.9px;"/><rect x="73.864" y="82.76" width="17.921" height="3.86" style="fill:#7db7d8;stroke:#000;stroke-width:0.9px;"/><rect x="73.864" y="82.76" width="17.921" height="3.86" style="fill:#7db7d8;stroke:#000;stroke-width:0.9px;"/><path d="M93.219,81.358l-1.331,1.302l0,3.86l1.331,-1.302l0,-3.86Z" style="fill:#7db7d8;stroke:#000;stroke-width:0.9px;"/><rect x="73.864" y="79.061" width="17.921" height="3.86" style="fill:#7db7d8;stroke:#000;stroke-width:0.9px;"/><rect x="73.864" y="79.061" width="17.921" height="3.86" style="fill:#7db7d8;stroke:#000;stroke-width:0.9px;"/><rect x="73.864" y="79.061" width="17.921" height="3.86" style="fill:#7db7d8;stroke:#000;stroke-width:0.9px;"/><path d="M93.219,77.659l-1.331,1.301l0,3.861l1.331,-1.302l0,-3.86Z" style="fill:#7db7d8;stroke:#000;stroke-width:0.9px;"/><rect x="73.864" y="75.04" width="17.921" height="3.86" style="fill:#7db7d8;stroke:#000;stroke-width:0.9px;"/><rect x="73.864" y="75.04" width="17.921" height="3.86" style="fill:#7db7d8;stroke:#000;stroke-width:0.9px;"/><rect x="73.864" y="75.04" width="17.921" height="3.86" style="fill:#7db7d8;stroke:#000;stroke-width:0.9px;"/><path d="M93.219,73.638l-1.331,1.302l0,3.86l1.331,-1.302l0,-3.86Z" style="fill:#7db7d8;stroke:#000;stroke-width:0.9px;"/><rect x="73.864" y="105.175" width="17.921" height="11.213" style="fill:#7db7d8;stroke:#000;stroke-width:0.9px;"/><rect x="73.864" y="105.175" width="17.921" height="11.213" style="fill:#7db7d8;stroke:#000;stroke-width:0.9px;"/><rect x="73.864" y="105.175" width="17.921" height="11.213" style="fill:#7db7d8;stroke:#000;stroke-width:0.9px;"/><path d="M93.219,103.774l-1.331,1.301l0,11.214l1.331,-1.302l0,-11.213Z" style="fill:#7db7d8;stroke:#000;stroke-width:0.9px;"/></g><rect x="153.252" y="29.175" width="10.935" height="8.8" style="fill:#b4d6e9;stroke:#000;stroke-width:0.9px;"/><rect x="153.252" y="20.375" width="10.935" height="8.8" style="fill:#b4d6e9;stroke:#000;stroke-width:0.9px;"/><rect x="138.38" y="36.643" width="12.685" height="25.563" style="fill:#b4d6e9;stroke:#000;stroke-width:0.9px;"/><rect x="153.252" y="36.643" width="10.935" height="25.563" style="fill:#b4d6e9;stroke:#000;stroke-width:0.9px;"/><rect x="153.252" y="81.347" width="10.935" height="31.318" style="fill:#b4d6e9;stroke:#000;stroke-width:0.9px;"/></g><g><path d="M118.272,1.229c0,0 -28.186,-1.561 -19.869,63.581c18.583,-0.095 17.844,-10.17 24.505,-5.298c6.662,4.872 36.058,-3.879 33.116,-32.453c-2.942,-28.575 -20.901,-31.696 -37.752,-25.83Z"/><path d="M146.089,64.81c0,0 11.469,3.49 13.246,10.597c1.777,7.108 5.961,53.647 5.961,53.647l-52.985,-0.662c0,0 0.21,-16.214 0,-23.843c-0.068,-2.473 -0.639,-11.48 1.325,-18.545c3.142,-11.306 9.809,-21.492 10.597,-21.194c1.28,0.485 6.336,5.477 8.61,4.636c2.273,-0.84 13.246,-4.636 13.246,-4.636Z" style="fill:#fff;stroke:#000;stroke-width:0.9px;"/><path d="M128.207,56.2c0,0 3.852,4.814 0.662,9.935c-3.19,5.12 1.04,6.73 5.298,5.961c9.228,-1.669 11.791,-6.079 6.624,-7.948c-1.866,-0.675 -3.268,-6.611 -1.987,-9.935" style="fill:#fde6d4;stroke:#000;stroke-width:0.9px;"/><path d="M149.401,15.799c-6.662,-10.17 -37.09,-2.649 -37.09,-2.649c0,0 -12.622,31.555 14.571,43.05c12.443,1.83 22.606,-4.956 24.505,-13.908c1.429,-6.733 4.464,-16.644 -1.986,-26.493Z" style="fill:#fde6d4;stroke:#000;stroke-width:0.9px;"/><path d="M134.83,72.096l1.324,56.296" style="fill:none;stroke:#000;stroke-width:0.9px;"/><path d="M150.725,89.978l3.312,38.414" style="fill:none;stroke:#000;stroke-width:0.9px;"/><path d="M49.392,223.543l0,-98.463l-41.725,33.447l0,98.463" style="fill:#d0d0d0;stroke:#000;stroke-width:0.9px;"/><path d="M228.266,127.054l-178.161,-2.636l-42.438,33.778l178.16,2.635l42.439,-33.777Z" style="fill:#d0d0d0;stroke:#000;stroke-width:0.9px;"/><path d="M124.233,64.81c0,0 -5.254,-0.153 -13.246,9.273c-7.992,9.425 -17.507,34.286 -16.558,36.426c0.949,2.141 14.615,21.372 19.207,21.194c4.592,-0.178 13.29,-4.955 9.935,-7.285c-3.356,-2.331 -16.558,-16.558 -16.558,-16.558c0,0 9.151,-19.857 11.921,-20.531" style="fill:#fff;stroke:#000;stroke-width:0.9px;"/><path d="M142.777,87.329l8.61,-0.663c0,0 1.47,10.04 -3.973,9.935c-5.444,-0.105 -4.637,-9.272 -4.637,-9.272Z" style="fill:none;stroke:#000;stroke-width:0.9px;"/><path d="M127.39,62.823c0,0 3.635,7.75 7.547,9.056c-3.824,4.137 -6.038,6.038 -6.038,6.038c0,0 -5.609,-12.627 -4.528,-13.584c1.082,-0.958 0.617,-0.175 3.019,-1.51Z" style="fill:#fff;stroke:#000;stroke-width:0.9px;"/><path d="M142.391,62.823c0,0 -3.635,7.75 -7.547,9.056c3.824,4.137 6.038,6.038 6.038,6.038c0,0 5.609,-12.627 4.528,-13.584c-1.082,-0.958 -0.617,-0.175 -3.019,-1.51Z" style="fill:#fff;stroke:#000;stroke-width:0.9px;"/><path d="M132.181,12.488c0,0 11.883,42.152 7.285,52.322c7.986,2.223 15.195,3.407 17.22,-0.662c2.025,-4.069 11.883,-76.401 -34.44,-63.582" style="stroke:#000;stroke-width:0.9px;"/><path d="M149.401,29.046c0,0 10.744,-2.594 10.596,3.311c-0.252,10.093 -9.934,4.636 -9.934,4.636" style="fill:#fde6d4;stroke:#000;stroke-width:0.9px;"/><path d="M120.921,30.548c0,-1.195 -0.969,-2.165 -2.164,-2.165l-8.918,0c-1.194,0 -2.164,0.97 -2.164,2.165l0,4.943c0,1.195 0.97,2.165 2.164,2.165l8.918,0c1.195,0 2.164,-0.97 2.164,-2.165l0,-4.943Z" style="fill:#bfdae4;fill-opacity:0.42;stroke:#000;stroke-width:0.9px;"/><path d="M138.472,30.548c0,-1.195 -0.969,-2.165 -2.164,-2.165l-8.918,0c-1.194,0 -2.164,0.97 -2.164,2.165l0,4.943c0,1.195 0.97,2.165 2.164,2.165l8.918,0c1.195,0 2.164,-0.97 2.164,-2.165l0,-4.943Z" style="fill:#bfdae4;fill-opacity:0.42;stroke:#000;stroke-width:0.9px;"/><path d="M120.921,31.033c0,0 1.369,-1.478 3.974,0" style="fill:none;stroke:#000;stroke-width:0.9px;"/><path d="M118.272,27.059c0,0 -3.102,-1.975 -7.948,0" style="fill:none;stroke:#000;stroke-width:0.9px;"/><path d="M126.22,27.059c0,0 3.764,-2.14 9.934,0" style="fill:none;stroke:#000;stroke-width:0.9px;"/><ellipse cx="126.22" cy="50.902" rx="2.649" ry="1.325" style="fill:none;stroke:#000;stroke-width:0.9px;"/><path d="M121.584,133.028c0,0 7.088,0.436 15.233,5.298c8.145,4.863 -5.275,8.163 -7.948,5.299c-2.673,-2.865 -10.353,-5.525 -7.285,-10.597Z" style="fill:#1c1c1c;stroke:#000;stroke-width:0.9px;"/><path d="M121.584,127.067c0,0 4.68,3.49 5.96,3.312c1.281,-0.178 6.006,-0.153 5.961,0.662c-0.044,0.815 -1.777,0.84 -3.974,1.325c-1.978,0.436 7.164,3.158 7.286,6.623c0.069,1.97 -3.433,-0.816 -5.299,-1.987c-1.866,-1.172 2.694,1.834 2.649,3.311c-0.044,1.478 -1.324,3.974 -1.324,3.974c0,0 -4.426,-0.319 -3.312,-1.324c1.115,-1.006 -1.611,0.178 -2.649,-1.325c-1.038,-1.503 -2.108,-3.796 -5.298,-6.623c-3.191,-2.827 -3.599,-3.63 -3.312,-5.299" style="fill:#fde6d4;stroke:#000;stroke-width:0.9px;"/><path d="M214.307,78.056c2.09,0.061 3.974,2.65 3.974,2.65l-1.331,0.532c0.004,0.071 0.006,0.143 0.006,0.215l0,42.282c0,2.222 -1.75,4.336 -3.905,4.716l-59.52,10.503l-0.157,1.359l-1.968,-1.492c-1.196,-0.478 -2.005,-1.653 -2.005,-3.165l0,-42.281c0,-2.223 1.749,-4.336 3.905,-4.716l59.745,-10.543c0.442,-0.079 0.837,-0.072 1.256,-0.06Z" style="fill:#1c1c1c;stroke:#000;stroke-width:0.9px;"/><path d="M219.605,83.44c0,-2.222 -1.75,-3.718 -3.905,-3.338l-59.745,10.544c-2.155,0.38 -3.905,2.493 -3.905,4.716l0,42.281c0,2.223 1.75,3.718 3.905,3.338l59.745,-10.543c2.155,-0.381 3.905,-2.494 3.905,-4.716l0,-42.282Z" style="fill:#1c1c1c;stroke:#000;stroke-width:0.9px;"/><path d="M189.151,104.575c3.643,-0.299 6.742,3.02 6.915,7.407c0.173,4.387 -2.644,8.192 -6.287,8.491c-3.643,0.299 -6.741,-3.02 -6.915,-7.407c-0.173,-4.387 2.644,-8.192 6.287,-8.491Z" style="fill:#303030;stroke:#000;stroke-width:0.9px;"/><path d="M187.814,112.496l0.663,29.804c0,0 -0.374,-1.541 -1.325,-1.324c-5.894,1.34 -10.914,3.297 -6.623,3.973c4.291,0.677 8.61,1.325 8.61,1.325l10.597,-1.987l-7.285,-33.115l-4.637,1.324Z" style="fill:#1c1c1c;stroke:#000;stroke-width:0.9px;"/><g><path d="M28.857,146.51l4.727,-4.875c0.401,-0.413 1.08,-0.725 1.517,-0.698l6.722,0.43l2.933,-1.054c0,0 1.03,0.946 0.662,1.325l-8.981,9.938c-0.4,0.412 -1.08,0.725 -1.516,0.697l-11.359,-0.7l0,-1.325l5.295,-3.738Z" style="fill:#484848;stroke:#000;stroke-width:0.9px;"/><path d="M44.686,141.227c0.4,-0.413 0.371,-0.771 -0.066,-0.799l-10.182,-0.65c-0.436,-0.027 -1.116,0.285 -1.516,0.698l-8.911,9.19c-0.4,0.412 -0.371,0.77 0.066,0.798l10.182,0.65c0.436,0.028 1.116,-0.285 1.516,-0.697l8.911,-9.19Z" style="fill:#484848;stroke:#000;stroke-width:0.9px;"/><path d="M43.091,141.083c0.107,-0.111 0.099,-0.206 -0.018,-0.214l-8.698,-0.555c-0.117,-0.008 -0.298,0.076 -0.406,0.186l-2.384,2.459c-0.107,0.111 -0.099,0.206 0.018,0.214l8.698,0.555c0.117,0.008 0.299,-0.076 0.406,-0.186l2.384,-2.459Z" style="fill:#6e6e6e;stroke:#000;stroke-width:0.9px;"/><path d="M32.417,144.122c0.038,-0.039 0.035,-0.073 -0.006,-0.075l-1.551,-0.099c-0.041,-0.003 -0.105,0.027 -0.143,0.065l-0.839,0.866c-0.038,0.039 -0.035,0.073 0.006,0.075l1.551,0.099c0.041,0.003 0.105,-0.027 0.143,-0.065l0.839,-0.866Z" style="fill:#6e6e6e;stroke:#000;stroke-width:0.9px;"/><path d="M30.758,145.887c0.038,-0.039 0.035,-0.073 -0.006,-0.076l-1.551,-0.099c-0.041,-0.002 -0.105,0.027 -0.143,0.066l-0.839,0.866c-0.038,0.039 -0.035,0.072 0.006,0.075l1.551,0.099c0.041,0.003 0.105,-0.027 0.143,-0.066l0.839,-0.865Z" style="fill:#6e6e6e;stroke:#000;stroke-width:0.9px;"/><path d="M29.151,147.73c0.038,-0.039 0.035,-0.072 -0.006,-0.075l-1.551,-0.099c-0.041,-0.002 -0.105,0.027 -0.143,0.066l-0.839,0.865c-0.038,0.039 -0.035,0.073 0.006,0.076l1.551,0.099c0.041,0.002 0.105,-0.027 0.143,-0.066l0.839,-0.866Z" style="fill:#6e6e6e;stroke:#000;stroke-width:0.9px;"/><path d="M35.4,144.462c0.038,-0.039 0.035,-0.073 -0.006,-0.076l-1.551,-0.099c-0.041,-0.002 -0.105,0.027 -0.143,0.066l-0.839,0.866c-0.038,0.039 -0.035,0.072 0.006,0.075l1.551,0.099c0.041,0.002 0.105,-0.027 0.143,-0.066l0.839,-0.865Z" style="fill:#6e6e6e;stroke:#000;stroke-width:0.9px;"/><path d="M38.324,144.778c0.038,-0.039 0.035,-0.073 -0.006,-0.076l-1.551,-0.099c-0.041,-0.002 -0.105,0.027 -0.143,0.066l-0.839,0.866c-0.038,0.039 -0.035,0.072 0.006,0.075l1.551,0.099c0.041,0.003 0.105,-0.027 0.142,-0.066l0.84,-0.865Z" style="fill:#852222;stroke:#000;stroke-width:0.9px;"/><path d="M33.741,146.226c0.038,-0.039 0.035,-0.072 -0.006,-0.075l-1.551,-0.099c-0.041,-0.003 -0.105,0.027 -0.143,0.066l-0.839,0.865c-0.038,0.039 -0.035,0.073 0.006,0.076l1.551,0.099c0.041,0.002 0.105,-0.027 0.143,-0.066l0.839,-0.866Z" style="fill:#6e6e6e;stroke:#000;stroke-width:0.9px;"/><path d="M36.664,146.542c0.038,-0.039 0.035,-0.072 -0.006,-0.075l-1.551,-0.099c-0.041,-0.003 -0.105,0.027 -0.142,0.066l-0.84,0.865c-0.038,0.039 -0.035,0.073 0.006,0.076l1.551,0.099c0.041,0.002 0.105,-0.027 0.143,-0.066l0.839,-0.866Z" style="fill:#ffe700;stroke:#000;stroke-width:0.9px;"/><path d="M32.134,148.07c0.038,-0.039 0.035,-0.073 -0.006,-0.075l-1.551,-0.099c-0.041,-0.003 -0.105,0.027 -0.143,0.065l-0.839,0.866c-0.038,0.039 -0.035,0.073 0.006,0.075l1.551,0.099c0.041,0.003 0.105,-0.027 0.143,-0.065l0.839,-0.866Z" style="fill:#6e6e6e;stroke:#000;stroke-width:0.9px;"/><path d="M35.058,148.386c0.038,-0.039 0.035,-0.073 -0.006,-0.075l-1.551,-0.099c-0.041,-0.003 -0.105,0.027 -0.143,0.066l-0.839,0.865c-0.038,0.039 -0.035,0.073 0.006,0.075l1.551,0.099c0.041,0.003 0.105,-0.026 0.142,-0.065l0.84,-0.866Z" style="fill:#296c42;stroke:#000;stroke-width:0.9px;"/><path d="M39.457,140.313c0,0 1.79,-6.849 7.286,-7.947" style="fill:none;stroke:#000;stroke-width:0.9px;"/></g><path d="M136.817,144.287c0,0 9.422,6.397 18.544,8.61c9.123,2.213 13.396,-7.89 19.207,-1.324c5.811,6.565 28.251,-6.251 26.493,7.285" style="fill:none;stroke:#000;stroke-width:0.9px;"/><path d="M186.49,259.556l0.165,-99.18l7.782,-6.485l0,9.631l25.996,-21.663l0,-8.307l7.782,-6.485l0,97.718" style="fill:#d0d0d0;stroke:#000;stroke-width:0.9px;"/><path d="M186.49,160.823l-178.823,-2.627l0,50.335l178.823,2.627l0,-50.335Z" style="fill:#d0d0d0;stroke:#000;stroke-width:0.9px;"/></g><g><path d="M82.29,162.169c0,0 11.818,10.971 13.246,19.207c1.428,8.236 2.149,15.078 1.324,14.571c-0.824,-0.506 -1.692,-18.7 -9.272,-26.492c-6.621,-6.807 -6.064,-4.395 -5.298,-7.286Z" style="fill:#d3ac8a;stroke:#000;stroke-width:0.9px;"/><path d="M83.17,160.183c0,0 11.818,10.97 13.246,19.206c1.428,8.237 2.149,15.078 1.325,14.571c-0.825,-0.506 -1.693,-18.7 -9.273,-26.492c-6.621,-6.807 -6.064,-4.395 -5.298,-7.285Z" style="fill:#d3ac8a;stroke:#000;stroke-width:0.9px;"/><path d="M41.444,227.076c0,0 1.873,-10.334 5.299,-8.61c3.426,1.723 4.08,12.957 3.974,17.22c-0.043,1.713 -3.061,5.281 -3.312,9.934c-0.373,6.923 1.987,15.896 1.987,15.896c0,0 -2.874,0.042 -3.311,-1.325c-0.216,-0.674 -1.684,-8.236 -2.65,-15.895c-0.992,-7.872 -1.485,-15.856 -1.987,-17.22Z" style="fill:#fff0e5;"/><path d="M57.34,154.884c0,0 -2.14,4.585 -3.974,4.636c-1.834,0.051 17.862,6.175 23.181,1.325c5.318,-4.85 -7.306,2.068 -6.623,-5.299c0.682,-7.366 -12.584,-0.662 -12.584,-0.662" style="fill:#fff0e5;stroke:#000;stroke-width:0.9px;"/><path d="M54.036,157.541c0.168,0.165 2.949,2.801 9.265,3.304c6.519,0.519 15.336,-2.671 21.856,0c1.492,0.611 4.499,5.868 5.726,15.56c0.736,5.815 0.83,13.228 -0.428,22.191c-1.919,13.675 -0.929,19.919 2.649,25.168c1.908,2.798 0.663,13.246 0.663,13.246c0,0 -38.817,5.814 -43.05,-1.324c-1.474,-2.486 -1.863,-3.447 -2.65,-9.935c-1.031,4.397 -6.351,2.704 -6.623,1.325c-3.911,-19.847 -3.374,-53.007 -1.987,-57.621c1.387,-4.614 14.571,-11.922 14.571,-11.922l0.008,0.008Z" style="fill:#363c4f;"/><path d="M54.028,157.533c0,0 -13.184,7.308 -14.571,11.922c-1.387,4.614 -1.924,37.774 1.987,57.621c0.272,1.379 0.759,3.775 0.663,5.298c0,0 2.535,25.652 3.974,27.817" style="fill:none;stroke:#000;stroke-width:0.9px;"/><path d="M93.767,237.01c0,0 1.245,-10.448 -0.663,-13.246c-3.578,-5.249 -4.828,-11.531 -2.649,-25.168c0.558,-3.493 1.312,-6.908 1.325,-9.934c0.019,-4.542 -0.237,-8.463 -0.897,-12.257c-1.676,-9.625 -4.234,-14.949 -5.726,-15.56c-6.52,-2.671 -15.337,0.519 -21.856,0c-6.52,-0.519 -9.273,-3.312 -9.273,-3.312" style="fill:none;"/><clipPath id="_clip3"><path d="M93.767,237.01c0,0 1.245,-10.448 -0.663,-13.246c-3.578,-5.249 -4.828,-11.531 -2.649,-25.168c0.558,-3.493 1.312,-6.908 1.325,-9.934c0.019,-4.542 -0.237,-8.463 -0.897,-12.257c-1.676,-9.625 -4.234,-14.949 -5.726,-15.56c-6.52,-2.671 -15.337,0.519 -21.856,0c-6.52,-0.519 -9.273,-3.312 -9.273,-3.312"/></clipPath><g clip-path="url(#_clip3)"><path d="M38.133,201.908c0,0 7.844,1.843 7.948,3.311c0.103,1.469 0.062,25.521 5.298,31.129c5.236,5.607 -17.489,3.996 -16.558,-2.649c0.931,-6.645 3.312,-31.791 3.312,-31.791Z" style="fill:#fff0e5;"/></g><path d="M93.767,237.01c0,0 1.245,-10.448 -0.663,-13.246c-3.578,-5.249 -4.828,-11.531 -2.649,-25.168c0.558,-3.493 1.312,-6.908 1.325,-9.934c0.019,-4.542 -0.237,-8.463 -0.897,-12.257c-1.676,-9.625 -4.234,-14.949 -5.726,-15.56c-6.52,-2.671 -15.337,0.519 -21.856,0c-6.52,-0.519 -9.273,-3.312 -9.273,-3.312" style="fill:none;stroke:#000;stroke-width:0.9px;"/><path d="M74.376,196.544c0,0 -7.097,-32.766 2.152,-36.387c9.249,-3.622 7.677,-1.681 4.678,-0.218c-11.948,5.827 -5.583,36.573 -5.574,37.391c0.008,0.817 -1.256,-0.786 -1.256,-0.786Z" style="fill:#d3ac8a;stroke:#000;stroke-width:0.9px;"/><path d="M77.209,194.623c0,0 23.409,-10.575 29.804,-7.286c6.395,3.29 7.844,29.661 3.311,35.102c-4.533,5.442 -40.504,12.772 -40.4,5.299c0.103,-7.473 -7.223,-32.431 7.285,-33.115Z" style="fill:#fff;stroke:#000;stroke-width:0.9px;"/><path d="M78.754,197.161c0,0 -8.35,-28.441 -0.883,-34.992c6.876,-6.031 6.82,-3.066 3.974,-1.324c-11.338,6.939 -1.853,36.166 -1.766,36.979c0.087,0.812 -1.325,-0.663 -1.325,-0.663Z" style="fill:#d3ac8a;stroke:#000;stroke-width:0.9px;"/><path d="M67.937,102.562c-8.752,-0.238 -31.039,2.588 -26.493,41.063c-6.934,6.242 -15.143,17.601 -2.649,15.233c12.494,-2.368 9.142,-1.606 17.882,0c8.741,1.606 4.506,-2.931 13.247,-0.662c8.74,2.268 27.727,4.66 25.167,-1.987c-3.015,-7.832 9.635,-3.694 -1.324,-17.22c-4.771,-5.889 10.707,-35.434 -25.83,-36.427Z" style="fill:#615050;stroke:#000;stroke-width:0.9px;"/><path d="M89.793,223.102c-1.146,0.885 -1.344,-10.211 -1.325,-12.584c0.02,-2.373 2.649,-9.272 2.649,-9.272c0,0 3.244,-8.281 3.974,-13.909c0.405,-3.119 -2.472,-3.93 -1.987,-6.623c0.111,-0.611 1.151,1.657 1.987,1.987c0.65,0.257 1.113,-1.339 1.325,-1.987c0.595,-1.824 -0.126,-4.582 0.662,-4.636c0.713,-0.049 1.961,-0.162 2.649,1.325c0.781,1.684 0.979,5.045 1.325,5.96l0.004,0.011c1.372,3.716 -4.874,37.886 -11.263,39.728" style="fill:#fff0e5;"/><path d="M89.793,223.102c-6.395,1.843 -12.584,-38.414 -12.584,-38.414l13.908,-2.649c0,0 0.54,3.828 0.663,6.623c0.016,0.38 0,1.006 0,1.324c0,3.202 -0.663,11.26 -0.663,11.26c0,0 -2.475,5.823 -2.649,8.61c-0.221,3.532 1.325,13.246 1.325,13.246Z" style="fill:#363c4f;"/><path d="M77.209,184.688c0,0 6.189,40.257 12.584,38.414c6.395,-1.844 12.646,-36.074 11.259,-39.739c0,0 -0.588,-6.189 -1.987,-6.623c-1.399,-0.433 -3.237,-1.932 -2.649,0c0.588,1.932 -0.02,5.354 -1.325,5.961c-1.304,0.607 -1.674,-3.232 -1.987,-2.649c-1.127,2.1 2.44,5.542 1.987,7.947c-0.452,2.406 -3.578,11.745 -3.974,12.584c-1.296,2.754 -2.575,6.773 -2.649,9.935" style="fill:none;stroke:#000;stroke-width:0.9px;"/><path d="M46.081,187.999c0,0 -0.766,38.105 4.636,48.349" style="fill:none;stroke:#000;stroke-width:0.9px;"/><path d="M91.78,184.688c0.343,6.681 -0.278,14.595 -0.663,15.233" style="fill:none;stroke:#000;stroke-width:0.9px;"/></g></g></g></svg>