<?xml version="1.0" encoding="UTF-8" standalone="no"?><!DOCTYPE svg PUBLIC "-//W3C//DTD SVG 1.1//EN" "http://www.w3.org/Graphics/SVG/1.1/DTD/svg11.dtd"><svg width="100%" height="100%" viewBox="0 0 226 226" version="1.1" xmlns="http://www.w3.org/2000/svg" xmlns:xlink="http://www.w3.org/1999/xlink" xml:space="preserve" xmlns:serif="http://www.serif.com/" style="fill-rule:evenodd;clip-rule:evenodd;stroke-linecap:round;stroke-linejoin:round;stroke-miterlimit:1.5;"><rect id="Plan-de-travail1" serif:id="Plan de travail1" x="0.287" y="0" width="225.596" height="225.325" style="fill:none;"/><circle cx="113.349" cy="111.975" r="108.931" style="fill:none;"/><clipPath id="_clip1"><circle cx="113.349" cy="111.975" r="108.931"/></clipPath><g clip-path="url(#_clip1)"><g><path d="M251.887,45.324c0,0 0.252,68.685 7.086,86.804c6.834,18.12 -8.606,16.868 -15.944,14.172c-7.337,-2.695 -58.571,0.45 -92.118,14.173c-15.753,8.819 -17.658,1.157 -23.03,-3.543c-5.314,-4.651 -14.363,-27.863 -15.944,-47.831c-1.58,-19.968 -5.506,-63.293 0,-69.089c5.506,-5.796 126.029,-3.505 132.864,-8.858c6.834,-5.353 10.438,-5.719 7.086,14.172Z" style="fill:#fff;stroke:#000;stroke-width:0.9px;"/><g id="isa"><path d="M209.127,49.654c0,0 28.806,33.661 1.699,59.46c-27.107,25.8 -14.798,34.793 -27.181,32.279c-12.384,-2.515 -21.028,-15.607 -27.182,-3.398c-6.155,12.209 -26.242,-15.599 -25.483,8.494c0.358,11.36 -21.594,0.25 -13.591,-27.182c8.003,-27.431 -6.87,-43.92 -16.989,-49.266c-10.118,-5.346 -10.834,-21.27 8.495,-25.483c19.328,-4.214 5.588,-14.474 16.988,-16.989c11.401,-2.514 63.35,-15.607 83.244,22.085Z" style="fill:#615050;stroke:#000;stroke-width:0.9px;"/><path d="M127.512,87.108c0,0 -9.059,4.476 -14.172,1.771c-2.655,-1.404 -12.401,-24.801 -12.401,-24.801c0,0 3.081,44.666 12.401,58.46c3.988,5.903 -2.043,-14.771 4.381,-18.833c6.425,-4.061 11.563,-4.197 11.563,-4.197l-1.772,-12.4Z" style="fill:#fff0e5;"/><path d="M163.404,49.157c0,0 -1.089,-10.619 -10.193,-8.494c-14.98,3.497 -5.097,13.591 -5.097,13.591" style="fill:#fff0e5;stroke:#000;stroke-width:0.9px;"/><path d="M78.278,139.214c0,0 -11.883,10.521 -31.887,5.315c-20.003,-5.206 -21.258,-8.858 -21.258,-8.858c0,0 -68.572,-1.437 -70.861,0c-2.288,1.438 -34.913,-44.839 -5.314,-70.86c33.585,-3.877 102.748,3.543 102.748,3.543" style="stroke:#000;stroke-width:0.9px;"/><path d="M114.514,119.545c0.944,9.937 3.255,7.16 0.966,16.126c-1.903,7.457 22.366,33.517 33.29,34.698c10.925,1.181 26.573,-17.715 26.573,-17.715l33.659,-5.315c0,0 -45.617,53.769 -61.634,52.107c-16.018,-1.663 -61.825,-62.897 -73.001,-57.421c-3.839,1.88 -38.257,-71.427 -23.03,-72.632c15.227,-1.205 45.004,-13.322 49.602,-3.543c4.599,9.778 2.179,42.583 13.575,53.695Z" style="fill:#fff0e5;"/><path d="M114.514,119.545c0.944,9.937 3.255,7.16 0.966,16.126c-0.687,2.693 11.228,17.667 10.766,17.963c-1.229,0.785 -5.41,2.409 -9.742,4.871c-6.791,3.857 -14.812,7.942 -17.049,8.524c-3.346,0.87 -11.389,-17.243 -17.049,-23.138c-1.543,-1.607 -7.28,-2.238 -8.039,-1.866c-2.173,1.064 -39.541,-20.353 -46.76,-40.755c-5.536,-15.645 17.121,-31.354 23.73,-31.877c15.227,-1.205 45.955,-11.999 50.554,-2.22c4.598,9.778 1.227,41.26 12.623,52.372Z"/><path d="M17.865,142.674c0,0 12.475,12.602 10.442,11.751c-2.033,-0.85 -6.47,-0.212 -10.629,-3.543c-4.159,-3.33 15.851,18.566 8.858,17.716c-6.994,-0.851 -10.511,-15.117 -14.172,-12.401c-1.061,0.787 9.473,16.086 3.543,15.944c-5.931,-0.142 -8.563,-18.306 -10.629,-17.716c-2.067,0.591 2.633,16.52 -1.772,15.944c-5.901,-0.772 -1.181,-14.172 -3.543,-15.944c-2.362,-1.771 -4.701,11.137 -7.086,10.63c-5.52,-1.176 4.348,-20.179 5.504,-28.47" style="fill:#fff0e5;stroke:#000;stroke-width:0.9px;"/><path d="M100.673,65.955c-3.668,-6.657 -8.68,-13.034 -18.851,-15.316c-20.485,-4.597 -49.861,-14.136 -63.775,0c-9.3,9.448 -21.364,79.637 -19.666,85.946c1.698,6.309 14.362,12.214 19.666,6.172c-6.538,-15.191 6.791,-59.936 15.944,-70.86c8.42,-10.05 38.973,5.314 38.973,5.314" style="fill:#fff0e5;"/><path d="M60.487,45.253c0,0 -8.841,15.826 -7.307,24.355" style="fill:none;stroke:#000;stroke-width:0.9px;"/><path d="M101.891,67.173c0,0 -6.867,-10.37 -12.178,-13.396c-5.311,-3.025 -29.226,-8.524 -29.226,-8.524c0,0 -9.573,16.15 -7.307,24.355c2.266,8.205 23.138,14.613 23.138,14.613l25.573,-17.048Z" style="stroke:#000;stroke-width:0.9px;"/><path d="M125.028,153.634c0,0 -18.935,8.703 -24.355,13.395c-5.421,4.692 -10.167,-24.177 -25.573,-25.573" style="fill:none;stroke:#000;stroke-width:0.9px;"/><path d="M127.881,87.841c0,0 -13.213,4.319 -15.944,0c-2.731,-4.32 -9.669,-32.44 -30.115,-37.202c-20.447,-4.763 -49.861,-14.136 -63.775,0c-9.3,9.448 -21.364,79.637 -19.666,85.946" style="fill:none;stroke:#000;stroke-width:0.9px;"/><path d="M18.047,142.757c-7.025,-15.191 6.791,-59.936 15.944,-70.86c8.42,-10.05 38.973,5.314 38.973,5.314" style="fill:none;stroke:#000;stroke-width:0.9px;"/><path d="M131.424,100.241c0,0 -11.884,-1.88 -15.944,7.086c-4.059,8.967 2.289,19.378 0,28.344c-1.903,7.457 22.366,33.517 33.29,34.698c10.925,1.181 26.573,-17.715 26.573,-17.715l33.659,-5.315c0,0 -45.617,53.769 -61.634,52.107c-16.018,-1.663 -61.413,-61.959 -73.001,-57.421" style="fill:none;stroke:#000;stroke-width:0.9px;"/><path d="M186.125,114.665c0,0 -48.296,11.845 -58.662,-13.395c-7.679,-18.699 -2.189,-44.362 37.246,-51.146c23.26,-4.001 33.966,23.705 30.87,35.206c-2.975,11.052 -1.518,17.123 -8.323,28.07c-0.289,0.465 -0.733,0.838 -1.131,1.265Z" style="fill:#fff0e5;"/><path d="M185.323,114.665c0,0 -49.036,12.332 -58.186,-13.395c-6.731,-18.927 -3.094,-43.181 35.132,-51.146" style="fill:none;stroke:#000;stroke-width:0.9px;"/><path d="M164.248,96.862c0,0 -2.702,6.283 1.591,12.932" style="fill:none;stroke:#000;stroke-width:0.9px;"/><path d="M162.777,76.836c0,0 -4.8,-1.09 -3.026,-12.099" style="fill:none;stroke:#000;stroke-width:0.9px;"/><path d="M185.343,93.825c0,0 4.456,12.707 -3.397,23.784" style="fill:none;stroke:#000;stroke-width:0.9px;"/><path d="M183.645,75.137c0,0 -0.075,-17.872 -11.892,-20.386" style="fill:none;stroke:#000;stroke-width:0.9px;"/><path d="M159.154,77.317c0,0 -4.605,-3.715 -3.398,-8.494" style="fill:none;stroke:#000;stroke-width:0.5px;"/><path d="M161.334,98.184c0,0 -0.81,5.46 0.227,7.957" style="fill:none;stroke:#000;stroke-width:0.5px;"/><path d="M195.537,85.33c0,0 -1.774,26.865 -13.591,32.279c-11.817,5.413 -4.605,9.31 -3.398,11.892" style="fill:none;stroke:#000;stroke-width:0.9px;"/><path d="M141.915,100.052c0,0 -0.976,-9.149 -4.709,-14.613" style="fill:none;stroke:#000;stroke-width:0.9px;"/><path d="M102.711,67.621c0,0 1.769,38.163 10.629,51.374" style="fill:none;stroke:#000;stroke-width:0.9px;"/></g><path d="M68.85,44.035c0,0 -15.926,50.6 4.871,73.066c20.797,22.465 29.537,27.868 18.266,52.363c-6.868,14.927 -19.9,31.515 -17.049,47.493c1.828,10.242 17.126,21.294 21.92,28.008c12.273,17.189 31.567,51.006 -4.871,45.057c-36.437,-5.948 -117.812,-17.594 -143.695,0c-25.884,17.595 -87.774,-8.664 -166.833,-6.088c-79.059,2.575 -120.654,-9.882 -165.616,8.524c-13.859,5.674 -26.074,-59.81 -10.959,-99.856c15.114,-40.046 31.972,-114.204 51.146,-118.123c19.173,-3.919 200.428,7.978 214.325,-7.306c13.897,-15.285 58.357,-20.436 86.461,-13.396c28.104,7.041 82.306,-31.396 112.034,-9.742Z" style="fill:#fff;"/><path d="M68.85,44.035c0,0 -15.926,50.6 4.871,73.066c20.797,22.465 29.537,27.868 18.266,52.363c-6.868,14.927 -19.9,31.515 -17.049,47.493c1.828,10.242 17.126,21.294 21.92,28.008c12.273,17.189 31.567,51.006 -4.871,45.057c-36.437,-5.948 -117.812,-17.594 -143.695,0c-25.884,17.595 -87.774,-8.664 -166.833,-6.088c-79.059,2.575 -120.654,-9.882 -165.616,8.524c-13.859,5.674 -26.074,-59.81 -10.959,-99.856c15.114,-40.046 31.972,-114.204 51.146,-118.123c19.173,-3.919 200.428,7.978 214.325,-7.306c13.897,-15.285 58.357,-20.436 86.461,-13.396c28.104,7.041 82.306,-31.396 112.034,-9.742Zm-1.048,0.358c-7.166,-4.998 -15.744,-6.51 -25.005,-6.082c-9.635,0.446 -20.003,2.989 -30.323,5.98c-12.496,3.621 -24.92,7.899 -35.901,9.982c-7.448,1.413 -14.244,1.813 -19.976,0.377c-16.742,-4.194 -39.331,-4.025 -57.703,0.055c-12.123,2.692 -22.411,7.065 -27.873,13.073c-1.327,1.46 -4.069,2.738 -8.018,3.763c-8.726,2.267 -23.553,3.509 -41.417,4.109c-59.209,1.99 -151.967,-3.03 -165.376,-0.289c-2.149,0.439 -4.25,1.849 -6.337,4.008c-3.301,3.416 -6.52,8.679 -9.681,15.178c-12.475,25.649 -23.895,70.363 -34.466,98.373c-10.505,27.831 -7.715,68.038 -0.375,87.725c1.532,4.11 3.252,7.311 5.107,9.27c1.612,1.702 3.297,2.425 5.045,1.71c22.596,-9.25 44.344,-10.76 70.379,-10.266c25.888,0.492 56.037,2.962 95.547,1.675c47.487,-1.547 88.787,7.291 119.826,10.81c20.4,2.313 36.313,2.38 46.531,-4.566c7.865,-5.346 20.779,-8.066 36.015,-9.037c35.163,-2.241 82.777,4.721 108.331,8.893c5.321,0.869 9.421,0.881 12.506,0.193c2.897,-0.646 4.858,-1.908 6.043,-3.668c2.465,-3.658 1.65,-9.266 -0.587,-15.386c-3.113,-8.515 -9.101,-17.967 -13.968,-24.785c-2.865,-4.012 -9.502,-9.574 -14.741,-15.59c-3.625,-4.162 -6.577,-8.549 -7.333,-12.783c-1.457,-8.165 1.108,-16.494 4.951,-24.681c3.759,-8.008 8.733,-15.884 12.167,-23.346c3.31,-7.196 4.878,-12.703 4.873,-17.489c-0.007,-5.509 -2.126,-10.031 -5.973,-15.085c-3.971,-5.215 -9.755,-10.966 -17.01,-18.802c-8.467,-9.146 -11.002,-22.859 -10.938,-36.04c0.085,-17.436 4.681,-33.904 5.68,-37.279Z"/></g></g></svg>