<?xml version="1.0" encoding="UTF-8" standalone="no"?><!DOCTYPE svg PUBLIC "-//W3C//DTD SVG 1.1//EN" "http://www.w3.org/Graphics/SVG/1.1/DTD/svg11.dtd"><svg width="100%" height="100%" viewBox="0 0 226 226" version="1.1" xmlns="http://www.w3.org/2000/svg" xmlns:xlink="http://www.w3.org/1999/xlink" xml:space="preserve" xmlns:serif="http://www.serif.com/" style="fill-rule:evenodd;clip-rule:evenodd;stroke-linecap:round;stroke-linejoin:round;stroke-miterlimit:1.5;"><rect id="Plan-de-travail1" serif:id="Plan de travail1" x="0" y="0" width="225.596" height="225.325" style="fill:none;"/><circle cx="113.063" cy="111.975" r="108.931" style="fill:none;"/><clipPath id="_clip1"><circle cx="113.063" cy="111.975" r="108.931"/></clipPath><g clip-path="url(#_clip1)"><g><path d="M121.533,19.936c0,0 -51.707,-6.474 -68.847,39.52c-13.005,34.898 -23.777,57.274 -29.353,55.612c-5.577,-1.663 1.484,26.212 10.74,21.481c9.256,-4.731 9.924,-4.22 15.344,1.534c5.42,5.754 14.527,5.498 21.481,1.535c6.955,-3.964 13.248,-4.22 21.482,0c8.233,4.219 33.962,4.219 39.894,1.534c5.931,-2.685 47.516,10.869 46.031,0c-1.484,-10.868 4.603,-10.741 4.603,-10.741c0,0 17.851,-3.708 13.81,-13.809c-4.042,-10.101 9.668,-9.59 1.534,-13.809c-8.133,-4.22 -14.626,-0.384 -15.344,-7.672c-0.717,-7.289 -11.007,-69.42 -61.375,-75.185Z" style="fill:#615050;stroke:#000;stroke-width:0.9px;"/><path d="M64.761,90.517c0,0 -8.233,-4.475 -7.672,7.672c0.561,12.148 10.741,4.604 10.741,4.604" style="fill:#fff0e5;stroke:#000;stroke-width:0.9px;"/><path d="M156.824,87.449c0,0 8.133,-2.174 7.672,7.672c-0.462,9.845 -10.741,6.137 -10.741,6.137" style="fill:#fff0e5;stroke:#000;stroke-width:0.9px;"/><path d="M123.632,36.631c0,0 -6.633,21.346 -27.088,21.928c-3.776,0.108 -7.74,3.87 -7.74,3.87l5.16,-6.45c0,0 -23.743,7.847 -25.799,37.408c-0.551,-3.977 -3.87,-10.319 -3.87,-10.319l1.29,9.029c0,0 6.703,23.607 16.769,30.959c12.365,9.031 24.042,10.276 24.042,10.276c0,0 0.158,11.333 -1.453,13.805c-2.61,1.019 -15.622,3.27 -15.622,3.27c0,0 -5.304,11.629 20.122,13.927c23.615,2.134 22.746,-13.927 22.746,-13.927l-15.006,-2.843c0,0 -2.725,-1.002 -1.705,-14.232c4.179,-0.322 21.605,-0.494 32.663,-20.596c11.058,-20.101 10.319,-42.567 10.319,-42.567l-2.58,-9.03c0,0 -8.263,-12.147 -14.189,-16.769c-5.926,-4.622 -18.059,-7.739 -18.059,-7.739Z" style="fill:#fff0e5;"/><path d="M132.662,78.805c-2.365,-0.215 -8.083,-0.27 -7.706,6.617c0.529,9.637 13.366,9.808 14.19,1.29c0.715,-7.396 -4.119,-7.692 -6.484,-7.907Z" style="fill:#fff;stroke:#000;stroke-width:0.9px;"/><path d="M93.706,78.805c-2.365,-0.215 -8.083,-0.27 -7.705,6.617c0.528,9.637 13.365,9.808 14.189,1.29c0.715,-7.396 -4.119,-7.692 -6.484,-7.907Z" style="fill:#fff;stroke:#000;stroke-width:0.9px;"/><path d="M49.36,237.959c0,0 4.506,-50.369 20.095,-74.915c8.091,-11.427 19.866,-11.911 19.866,-11.911c0,0 -3.9,11.479 21.412,13.201c20.139,1.451 21.82,-13.564 21.82,-13.564c0,0 13.474,2.342 19.458,12.274c14.471,24.02 21.517,79.466 21.517,79.466l-124.168,-4.551Z" style="fill:#fff;"/><path d="M64.761,84.38c0,0 1.209,48.005 47.566,49.1c46.716,1.104 46.031,-62.91 46.031,-62.91" style="fill:none;stroke:#000;stroke-width:0.9px;"/><path d="M103.12,66.701c0,0 -10.76,-5.677 -18.186,1.785" style="fill:none;stroke:#000;stroke-width:0.9px;"/><path d="M123.067,67.19c0,0 11.989,-6.94 18.624,2.586" style="fill:none;stroke:#000;stroke-width:0.9px;"/><path d="M100.052,93.586c0,0 -1.265,8.12 -9.207,9.207" style="fill:none;stroke:#000;stroke-width:0.9px;"/><path d="M124.602,95.121c0,0 -1.649,1.981 7.672,6.137" style="fill:none;stroke:#000;stroke-width:0.9px;"/><circle cx="132.098" cy="85.568" r="1.603" style="stroke:#000;stroke-width:0.9px;"/><circle cx="93.4" cy="85.568" r="1.603" style="stroke:#000;stroke-width:0.9px;"/><path d="M123.067,36.814c0,0 -2.095,17.006 -26.084,21.481" style="fill:none;stroke:#000;stroke-width:0.9px;"/><path d="M104.655,47.555c0,0 -11.302,7.8 -16.878,15.344" style="fill:none;stroke:#000;stroke-width:0.9px;"/><path d="M93.914,55.227c0,0 -25.879,8.567 -26.084,36.825c-8.645,-19.308 -3.375,-18.029 -1.535,-27.619" style="fill:none;stroke:#000;stroke-width:0.9px;"/><path d="M141.691,43.08c0,0 13.361,25.806 12.899,41.278c0.562,-11.892 6.45,-21.929 6.45,-21.929" style="fill:#615050;stroke:#000;stroke-width:0.9px;"/><path d="M106.189,133.48c0,0 0.845,12.787 -1.534,13.81c-2.38,1.023 -16.545,1.534 -29.153,9.206c-12.609,7.672 -25.751,58.306 -26.085,84.391c-0.334,26.084 1.534,19.947 1.534,19.947" style="fill:none;stroke:#000;stroke-width:0.9px;"/><path d="M115.501,133.48c0,0 -0.845,12.787 1.535,13.81c2.379,1.023 16.544,1.534 29.153,9.206c12.609,7.672 25.751,58.306 26.084,84.391c0.334,26.084 -1.534,19.947 -1.534,19.947" style="fill:none;stroke:#000;stroke-width:0.9px;"/><path d="M88.958,151.133c0,0 -2.894,10.989 20.3,13.035c23.193,2.046 23.016,-13.81 23.016,-13.81" style="fill:none;stroke:#000;stroke-width:0.9px;"/><path d="M73.967,208.665c0,0 -5.292,39.382 -6.137,53.703" style="fill:none;stroke:#000;stroke-width:0.9px;"/><path d="M73.967,208.665c0,0 3.403,10.741 15.344,7.672" style="fill:none;stroke:#000;stroke-width:0.9px;"/><path d="M146.083,200.993c0,0 5.448,49.1 6.138,58.306" style="fill:none;stroke:#000;stroke-width:0.9px;"/><path d="M130.739,216.337c0,0 12.865,1.083 16.112,-5.566" style="fill:none;stroke:#000;stroke-width:0.9px;"/><path d="M108.153,121.373c0,0 2.811,-4.644 11.609,-3.87" style="fill:none;stroke:#000;stroke-width:0.9px;"/></g></g></svg>